<svg width="157" height="52" xmlns="http://www.w3.org/2000/svg"><g fill="none"><path d="M29.84 13.005c1.554.555 2.594 1.408 3.655 2.283a17.61 17.61 0 0 1 2.857 2.992 15.767 15.767 0 0 1 2.013 3.517c.373.913.65 1.87.794 2.847.152 1.028 0 2.027-.23 3.017-.751 3.227-1.834 6.296-4.296 8.669a8.273 8.273 0 0 1-2.004 1.46c-1.426.725-2.194 1.916-2.564 3.435-.365 1.502-.942 2.117-1.507 2.612-.42.367-1.227.875-2.742.892-.085-.11-.17-.222-.255-.337l-1.465.064c-.11.094-.22.192-.335.286a5.337 5.337 0 0 1-1.27-.406c-.381-.179-1.443-.73-2.148-1.813-.475-.735-.738-1.605-.785-2.617-.038-.862-.407-1.434-1.163-1.771-2.79-1.242-4.606-3.483-6.041-6.065-1.796-3.235-1.427-6.585-.242-9.893 1.006-2.809 2.5-5.237 4.665-7.102.718-.615 1.499-1.32 2.751-1.857 1.588-.687 2.972-.691 5.672-.678 2.254.008 3.375.012 4.64.465z" fill="#F47729"/><path d="M24.27 13.948c1.567.021 3.363.12 4.865.576 2.768.837 5.018 2.441 6.326 5.05 1.71 3.41 2.229 6.965 1.138 10.648-.115.38-.947 2.779-3.057 4.78-1.053.999-1.58 1.503-2.3 1.836-.391.183-.973.392-1.487.981-.276.32-.441.64-.594.94-.395.776-.297.955-.603 1.583-.17.354-.526 1.058-1.273 1.553a3.345 3.345 0 0 1-1.33.508 5.342 5.342 0 0 1-3.247-.452c-1.04-.487-1.465-1.285-1.537-2.408-.102-1.643-.79-2.227-2.254-2.83-3.6-1.472-5.502-4.365-5.986-8.237-.586-4.69 1.265-8.95 4.568-12.317 1.766-1.78 4.288-2.24 6.771-2.211z" fill="#F8F5CD"/><path d="M24.606 26.573c-.098 2.642-.085 4.836.348 7.542.352 2.189-.667 3.23-2.806 2.317-4.072-1.737-7.064-4.443-7.816-8.903-.518-3.069 1.006-5.77 2.607-8.336 1.044-1.668 2.772-2.979 4.572-3.884a3.112 3.112 0 0 1 1.12-.303c.833-.05 1.363.094 1.431 1.055.234 3.47.637 7.025.544 10.512zm2.322 10.115c-.658.021-.904-.405-.896-1.02.06-4.204.446-8.468.145-12.646-.153-2.121-.867-3.884-1.19-5.98-.25-1.634.413-2.257 1.954-1.686 2.483.927 4.81 1.934 6.495 3.953 2.853 3.414 3.048 7.635 1.032 11.558-1.185 2.304-3.274 3.973-5.532 5.275-.556.328-1.35.525-2.008.546z" fill="#FBB319"/><g fill="#2A6431"><path d="M23.617 44.708c.076.132.203.316.403.495.182.162.36.324.637.367.445.072.806-.218.891-.286.238-.192.348-.423.4-.542a.9.9 0 0 0-.209-.24c-.33-.272-.764-.221-1.048-.191-.484.051-.85.247-1.074.397z"/><path d="M25.799 47.678c-.187-.388-.416-.78-.607-1.229-.094-.222-.124-.696-.166-.96-.004-.017-.034.008-.047.013-.11.047-.314-.009-.386-.043-.047-.026-.013-.009-.013-.004-.004.324-.004.764.11 1.054.2.516.463.785.688 1.306.221.516.37 1.515.217 1.92-.208.543-.896 1.059-.743 1.422.153.363.705-.256.896-.546.085-.124.2-.099.322-.607.11-.507.068-1.613-.271-2.326z"/><path d="M25.361 47.52c.88-1.254 1.694-1.6 2.259-1.69 1.146-.183 2.067.542 3.579.111a3.78 3.78 0 0 0 .798-.328 2.934 2.934 0 0 1-.696 1.48c-.42.47-.883.662-1.125.76-1.087.444-2.123.2-2.352.141-.56-.145-.71-.324-1.384-.435a5.147 5.147 0 0 0-1.079-.039z"/><path d="M25.336 47.363c-.569-.393-1.027-.461-1.325-.457-.912.008-1.328.691-2.526.939-.5.102-.925.09-1.188.064.246.277.853.875 1.762.994.798.107 1.787-.162 2.27-.627.081-.081.323-.329.718-.49.191-.078.361-.112.467-.125-.063-.102-.119-.2-.178-.298z"/></g><path d="M25.238 8.276c-.093-.009-.395-.043-.586-.248-.259-.277-.08-.61-.093-1.523-.008-.65-.098-.654-.098-1.37 0-.538.056-.59.068-1.085.022-.887-.131-1.122-.136-1.741-.004-.418.064-1.033.417-1.801.233-.068.683-.17.95.064.221.192.187.508.162 1.118-.064 1.515.08 1.046-.03 2.608-.064.909-.102.87-.123 1.366a10.056 10.056 0 0 0 .187 2.454 1.182 1.182 0 0 1-.718.158zM7.807 25.6c-.008.094-.042.397-.246.589-.276.26-.607.08-1.516.094-.645.008-.65.098-1.362.098-.535 0-.586-.056-1.079-.068-.883-.022-1.116.132-1.732.136-.416.004-1.027-.064-1.787-.414-.068-.235-.17-.687.064-.956.19-.222.505-.188 1.112-.162 1.507.064 1.04-.081 2.594.03.904.064.866.102 1.358.124a9.899 9.899 0 0 0 2.441-.188c.051.094.191.358.153.717zm4.857-12.143c-.072.06-.31.248-.59.243-.378-.012-.489-.375-1.138-1.011-.463-.453-.53-.393-1.032-.9-.378-.38-.378-.453-.717-.812-.611-.644-.883-.7-1.32-1.135-.298-.294-.684-.777-.973-1.566.115-.214.365-.61.718-.632.293-.021.488.226.9.679 1.019 1.114.794.683 1.813 1.865.594.691.539.687.874 1.054a10.07 10.07 0 0 0 1.855 1.605 1.12 1.12 0 0 1-.39.61zM11.53 37.879c-.072-.06-.31-.248-.59-.243-.378.012-.488.375-1.138 1.011-.462.453-.53.393-1.031.9-.378.38-.378.453-.718.812-.611.644-.883.7-1.32 1.135-.297.294-.683.777-.972 1.566.114.214.365.61.717.632.293.021.489-.226.9-.679 1.02-1.114.794-.683 1.813-1.865.594-.691.54-.687.875-1.054a10.11 10.11 0 0 1 1.855-1.605 1.201 1.201 0 0 0-.39-.61zm30.664-12.228c.009.094.042.397.246.589.276.26.607.081 1.516.094.645.008.65.098 1.363.098.534 0 .585-.055 1.078-.068.883-.022 1.116.132 1.732.136.416.005 1.027-.064 1.791-.418.068-.235.17-.687-.063-.956-.191-.222-.505-.188-1.112-.162-1.508.064-1.04-.081-2.594.03-.905.064-.866.102-1.359.123a9.899 9.899 0 0 1-2.44-.187 1.199 1.199 0 0 0-.158.721zm-4.857-12.194c.073.06.31.248.59.243.378-.012.489-.375 1.138-1.011.463-.453.53-.393 1.032-.9.378-.38.378-.453.717-.812.612-.644.883-.7 1.32-1.135.298-.294.684-.777.973-1.566-.115-.214-.365-.61-.718-.632-.293-.021-.488.226-.9.679-1.019 1.114-.794.683-1.812 1.865-.595.691-.54.687-.875 1.054a10.07 10.07 0 0 1-1.855 1.605c.025.094.11.388.39.61zm.82 24.422c.072-.06.31-.248.59-.243.378.012.488.375 1.138 1.011.462.453.53.393 1.031.9.378.38.378.453.718.812.611.644.883.7 1.32 1.135.297.294.683.777.972 1.566-.115.214-.365.61-.717.632-.293.021-.489-.226-.9-.679-1.02-1.114-.794-.683-1.813-1.865-.594-.691-.54-.687-.875-1.054a10.088 10.088 0 0 0-1.855-1.605 1.14 1.14 0 0 1 .39-.61z" fill="#000"/><path d="M59.774 38.472c-.026-4.477-.038-8.967-.038-13.466V11.541c.607 0 1.163-.017 1.66-.056a22.958 22.958 0 0 1 1.732-.055 170.514 170.514 0 0 0-.166 5.54 285.79 285.79 0 0 0 0 4.678c.013 1.698.025 3.81.038 6.329.013 2.518-.017 6.018-.089 10.495-.586 0-1.108.017-1.57.056a7.998 7.998 0 0 1-1.567-.056zm5.731-22.241c.072-.661.14-1.314.2-1.963.059-.649.127-1.302.199-1.963.535 0 1.087-.03 1.66-.09s1.1.056 1.588.35c.025.687.017 1.34-.017 1.963-.039.624-.03 1.28.017 1.964-.658 0-1.265-.039-1.826-.111a18.84 18.84 0 0 0-1.821-.15zm.255 22.241a966.937 966.937 0 0 1-.094-7.815 695.042 695.042 0 0 1-.017-4.677c0-1.234.005-2.356.017-3.36.013-1.002.043-2.3.094-3.888.488-.025.972-.055 1.46-.093.488-.039.972-.082 1.46-.128.073 3.329.128 5.928.166 7.797l.093 4.661c.026 1.238.03 2.36.017 3.376a351.1 351.1 0 0 0-.017 3.944c-1.1.367-2.156.426-3.18.183zm6.206.401c-.17-3.401-.28-6.735-.327-10-.05-3.265.039-6.61.255-10.038.586-.026 1.172-.056 1.77-.09a63.014 63.014 0 0 1 1.77-.09v1.392a7.136 7.136 0 0 1 3.066-1.174c1.095-.145 2.347.27 3.761 1.247 1.29-.858 3.023-1.34 5.2-1.452 2.178-.11 3.596 1.131 4.254 3.726.047 1.396.085 2.531.11 3.415.026.88.043 1.83.056 2.842a176.52 176.52 0 0 1 0 3.726 751.717 751.717 0 0 0-.017 6.018 71.814 71.814 0 0 1-1.77-.094 102.08 102.08 0 0 1-1.698-.128 205.95 205.95 0 0 1-.31-7.413 210.84 210.84 0 0 0-.31-7.448c-.34-.781-.692-1.272-1.057-1.468-.365-.196-.96-.222-1.788-.073-.242.419-.5.786-.768 1.101-.267.32-.437.773-.51 1.358a99.368 99.368 0 0 0-.038 7.102c.073 2.313.196 4.665.365 7.063-.56 0-1.112.005-1.66.017a68.38 68.38 0 0 1-1.625.017 28.607 28.607 0 0 1-.455-4.972c-.012-1.698-.03-3.38-.055-5.045.047-1.54-.017-2.723-.2-3.542a6.574 6.574 0 0 0-1.04-2.33c-.415-.222-.819-.274-1.222-.167a4.453 4.453 0 0 1-1.185.167c-1.167 2.249-1.604 4.733-1.316 7.447.293 2.715.378 5.677.255 8.882a7.226 7.226 0 0 1-1.77 0 7.187 7.187 0 0 0-1.74.004zm24.16-.033c-1.558-.859-2.462-1.653-2.721-2.387-.255-.734-.382-2.018-.382-3.854.658-1.664 1.698-2.992 3.12-3.982a80.409 80.409 0 0 1 4.326-2.808c.607-1.246.747-2.258.42-3.026-.326-.773-1.273-1.106-2.827-1.007-.51.512-.798 1.1-.857 1.762-.06.662-.102 1.323-.128 1.98a67.22 67.22 0 0 1-1.57-.016 61.158 61.158 0 0 0-1.533-.017c.072-1.64.284-3.112.637-4.422.352-1.31 1.477-2.173 3.375-2.587 2.602 0 4.309.35 5.111 1.046.802.696 1.422 2.305 1.86 4.827-.026 2.348-.051 4.687-.073 7.008a639.83 639.83 0 0 0-.038 7.008c-.586.052-1.163.09-1.732.129-.573.038-1.138.068-1.698.093v-.443c-.9.098-1.787.209-2.666.328-.87.12-1.745.243-2.624.367zm1.168-3.01c.73-.098 1.49-.196 2.28-.294.79-.098 1.354-.525 1.698-1.285 0-1.003.012-2.006.038-3.009.025-1.003.06-2.006.11-3.009a3.88 3.88 0 0 0-.73.312c-.242.136-.964.567-2.152 1.301-1.07 1.055-1.822 2.02-2.246 2.898-.425.884-.09 1.913 1.002 3.086zm13.398 3.01a6.398 6.398 0 0 0-1.533.11 5.09 5.09 0 0 1-1.498.073 119.27 119.27 0 0 1-.238-10.017c.06-3.35.14-6.714.238-10.09.51-.026 1.036-.055 1.57-.09a86.69 86.69 0 0 0 1.605-.128v1.614c2.165-1.247 4.02-1.682 5.566-1.302 1.545.38 2.61 1.95 3.192 4.716a463.533 463.533 0 0 1-.055 7.836c-.013.918-.038 1.865-.072 2.843-.038.977-.08 2.287-.127 3.926-.145.098-.361.145-.637.145-.28 0-1.163-.047-2.645-.145 0-2.445.03-4.87.093-7.264a54.643 54.643 0 0 0-.348-7.486c-.416-.781-.96-1.234-1.643-1.357-.925 0-1.532.042-1.825.128-.293.085-.645.546-1.057 1.374-.17.538-.285 1.626-.348 3.265a171.03 171.03 0 0 0-.11 5.083c-.013 1.75-.026 3.308-.039 4.678-.013 1.366-.042 2.062-.09 2.087zm19.418.183a11.384 11.384 0 0 1-.183-.99c-.05-.342-.097-.683-.144-1.029-1.388 1.003-2.827 1.51-4.326 1.524-1.499.012-2.61-.875-3.341-2.66a25.304 25.304 0 0 1-.62-5.616c0-1.912-.013-3.816-.038-5.724 0-1.933.73-3.619 2.19-5.066 1.46-1.442 3.32-1.566 5.587-.367h.692c.098-2.518.242-5.002.438-7.447.997-.171 1.63-.27 1.897-.295.268-.026.692-.026 1.278 0-.025 4.55-.038 9.09-.038 13.615v13.615c-.586.073-1.155.145-1.715.222-.556.068-1.117.14-1.677.218zm-3.795-3.637c.679-.025 1.248-.11 1.698-.256.45-.145.895-.512 1.333-1.1a31.2 31.2 0 0 0 .11-1.047c.026-.307.038-.78.038-1.43 0-.648-.012-1.579-.038-2.786-.025-1.212-.06-2.92-.11-5.118-.416-.806-.926-1.442-1.533-1.908-.607-.465-1.324-.281-2.152.551-.51 2.202-.786 4.345-.82 6.423-.038 2.079.225 4.234.786 6.458.284.094.518.166.688.213zm10.002 2.975c-.051-3.692-.081-6.568-.094-8.626a802.933 802.933 0 0 1-.017-4.916c0-1.225.004-2.25.017-3.082.013-.832.043-1.874.094-3.12.488.051.967.09 1.443.128.475.039.968.069 1.477.09 0 .807.013 1.417.038 1.835.412 0 .828-.153 1.24-.457.412-.307.802-.58 1.168-.823.658-.222 1.108-.35 1.35-.384.242-.039.768-.09 1.57-.167.026.59.047 1.182.073 1.78.025.602.059 1.19.11 1.78-1.486.098-2.547.273-3.193.533-.645.256-1.282 1.02-1.914 2.292-.123 1.69-.2 3.039-.238 4.055a53.806 53.806 0 0 0-.038 2.808l.038 2.715c.013.956.017 2.215.017 3.781-.51 0-1.053.017-1.626.056-.573.034-1.078-.06-1.515-.278zm11.64.479c-1.558-.859-2.462-1.653-2.721-2.387-.255-.734-.382-2.018-.382-3.854.658-1.664 1.698-2.992 3.12-3.982a80.409 80.409 0 0 1 4.326-2.808c.607-1.246.747-2.258.42-3.026-.327-.773-1.273-1.106-2.827-1.007-.51.512-.798 1.1-.858 1.762a40.241 40.241 0 0 0-.127 1.98 67.22 67.22 0 0 1-1.57-.016 61.158 61.158 0 0 0-1.533-.017c.072-1.64.284-3.112.637-4.422.352-1.31 1.477-2.173 3.375-2.587 2.602 0 4.309.35 5.11 1.046.803.696 1.423 2.305 1.86 4.827-.025 2.348-.05 4.687-.072 7.008a639.83 639.83 0 0 0-.038 7.008c-.586.052-1.163.09-1.732.129-.573.038-1.138.068-1.698.093v-.443c-.9.098-1.788.209-2.666.328-.87.12-1.745.243-2.624.367zm1.168-3.01c.73-.098 1.49-.196 2.28-.294.789-.098 1.354-.525 1.697-1.285 0-1.003.013-2.006.039-3.009.025-1.003.06-2.006.11-3.009a3.88 3.88 0 0 0-.73.312c-.242.136-.964.567-2.153 1.301-1.07 1.055-1.82 2.02-2.245 2.898-.425.884-.094 1.913 1.002 3.086z" fill="#F47729"/><path d="M60.907 48.707l-.407 1.114h-1.507l2.492-6.475h1.719l2.48 6.475h-1.495l-.408-1.114h-2.874zm2.5-1.195l-1.06-2.97-1.07 2.97h2.13zm5.813 1.708c-.378.473-.858.716-1.448.716a1.98 1.98 0 0 1-1.061-.29 1.921 1.921 0 0 1-.726-.845c-.174-.367-.26-.815-.26-1.328 0-.512.09-.951.26-1.318a1.97 1.97 0 0 1 .726-.845 1.98 1.98 0 0 1 1.06-.29c.29 0 .561.06.803.183.25.128.463.303.637.525v-.593h1.235v6.474h-1.235l.009-2.39zm0-2.57a1.316 1.316 0 0 0-.463-.38 1.294 1.294 0 0 0-.607-.154c-.348 0-.629.124-.85.38-.22.243-.326.572-.326.982 0 .418.106.747.327.99.22.252.5.38.849.38.204 0 .407-.047.607-.154.204-.107.356-.235.463-.38V46.65zm3.438-1.507v.64c.153-.205.378-.388.658-.533.26-.145.54-.214.832-.214v1.204a1.703 1.703 0 0 0-1.006.115c-.233.098-.395.222-.492.367v3.095h-1.227V45.13l1.235.013zm4.789 4.191a1.728 1.728 0 0 1-.637.436c-.25.106-.53.153-.84.153-.26 0-.514-.06-.765-.175a1.59 1.59 0 0 1-.62-.525c-.165-.222-.241-.503-.241-.845 0-.337.076-.623.242-.845a1.51 1.51 0 0 1 .607-.495 1.83 1.83 0 0 1 .772-.154c.319 0 .607.047.87.146.251.098.455.243.62.426v-.648a.708.708 0 0 0-.28-.58c-.182-.146-.424-.214-.743-.214-.51 0-.963.183-1.362.555l-.463-.824c.28-.243.59-.427.947-.555.34-.128.704-.183 1.09-.183.608 0 1.092.136 1.47.418.377.282.568.738.568 1.37v3.026h-1.227v-.487h-.008zm0-1.242a.913.913 0 0 0-.408-.29 1.585 1.585 0 0 0-.568-.107c-.25 0-.463.069-.629.197a.625.625 0 0 0-.25.516c0 .205.089.38.25.504.166.124.365.183.629.183.203 0 .386-.038.568-.106a.947.947 0 0 0 .408-.29v-.607zm3.447-2.949v.64c.153-.205.378-.388.658-.533.26-.145.54-.214.832-.214v1.204a1.703 1.703 0 0 0-1.006.115c-.233.098-.395.222-.492.367v3.095h-1.227V45.13l1.235.013zm5.629-1.797v6.475h-1.37v-6.475h1.37zm-1.15-1.639a.63.63 0 0 1 .463-.196.63.63 0 0 1 .462.196.637.637 0 0 1 .196.466c0 .183-.06.341-.183.465a.623.623 0 0 1-.463.196.623.623 0 0 1-.462-.196.65.65 0 0 1-.191-.465.65.65 0 0 1 .19-.466h-.012zm5.379 7.521a2.162 2.162 0 0 1-.646.525 1.667 1.667 0 0 1-.79.183c-.394 0-.75-.098-1.069-.29a1.908 1.908 0 0 1-.734-.845c-.174-.367-.26-.807-.26-1.319 0-.495.086-.93.26-1.302a1.97 1.97 0 0 1 .726-.862c.3-.205.658-.303 1.06-.303.281 0 .553.06.79.184.25.128.463.303.646.533v-2.386h1.235v6.475h-1.235v-.593h.017zm0-2.6a1.128 1.128 0 0 0-.455-.38 1.303 1.303 0 0 0-.598-.145 1.08 1.08 0 0 0-.85.38c-.22.244-.326.572-.326.99 0 .41.106.739.327.982.22.252.5.38.849.38.204 0 .407-.047.598-.145.204-.098.349-.222.455-.38v-1.682zm2.182-.341c.204-.367.492-.67.857-.892.357-.222.773-.329 1.244-.329.454 0 .858.107 1.214.32.357.214.637.517.832.905.196.389.29.837.29 1.34v.274h-3.465c.038.32.174.571.416.776.242.205.552.312.926.312a1.8 1.8 0 0 0 .683-.128c.242-.085.425-.205.569-.35l.539.794c-.242.222-.522.38-.849.486a3.637 3.637 0 0 1-1.07.167 2.63 2.63 0 0 1-1.273-.312 2.245 2.245 0 0 1-.888-.862c-.212-.367-.318-.807-.318-1.302 0-.456.106-.862.31-1.242l-.017.043zm1.303.068c-.204.222-.31.465-.335.73h2.296a1.21 1.21 0 0 0-.318-.717c-.191-.213-.471-.32-.84-.32-.349 0-.62.107-.811.32l.008-.013zm4.615 4.195a.502.502 0 0 0 .242-.26l.174-.397-1.894-4.754h1.312l1.214 3.26 1.215-3.26h1.324l-2.19 5.454c-.166.419-.395.709-.676.875-.288.167-.658.252-1.09.26-.09 0-.196-.008-.319-.016a1.408 1.408 0 0 1-.289-.047l.183-1.106c.127.047.25.077.386.077.157-.008.293-.038.408-.085zm6.69-1.216a1.728 1.728 0 0 1-.636.436c-.25.106-.531.153-.841.153-.259 0-.514-.06-.764-.175a1.59 1.59 0 0 1-.62-.525c-.166-.222-.242-.503-.242-.845 0-.337.076-.623.242-.845.166-.222.365-.388.607-.495.234-.107.493-.154.773-.154.318 0 .607.047.87.146.25.098.454.243.62.426v-.648a.708.708 0 0 0-.28-.58c-.183-.146-.425-.214-.743-.214-.51 0-.964.183-1.363.555l-.463-.824c.28-.243.59-.427.947-.555.34-.128.705-.183 1.091-.183.607 0 1.091.136 1.469.418.378.282.569.738.569 1.37v3.026h-1.227v-.487h-.009zm0-1.242a.913.913 0 0 0-.407-.29 1.585 1.585 0 0 0-.57-.107c-.25 0-.462.069-.627.197a.625.625 0 0 0-.25.516c0 .205.088.38.25.504.165.124.365.183.628.183.204 0 .386-.038.569-.106a.947.947 0 0 0 .407-.29v-.607zm8.253 1.728h-.598l-1.813-4.656v4.657h-1.371v-6.475h1.919l1.562 4.038 1.562-4.038h1.932v6.475h-1.38v-4.657zm7.357-.6a2.205 2.205 0 0 1-.696.503 2.16 2.16 0 0 1-.955.205c-.501 0-.879-.128-1.13-.389-.25-.26-.377-.623-.377-1.088v-3.33h1.227v2.843c0 .312.076.534.22.67.145.137.357.205.637.205.221 0 .425-.047.607-.153.183-.107.34-.235.455-.38v-3.171h1.226v4.686h-1.226v-.593l.012-.009zm-2.47-4.948a.626.626 0 0 1-.183-.465.63.63 0 0 1 .195-.465.647.647 0 0 1 .463-.196.647.647 0 0 1 .658.649c0 .183-.06.34-.183.465a.629.629 0 0 1-.462.183.636.636 0 0 1-.463-.192l-.025.021zm2.037.018a.637.637 0 0 1-.195-.466.63.63 0 0 1 .195-.465.63.63 0 0 1 .463-.196c.183 0 .335.06.463.183a.637.637 0 0 1 .195.466.63.63 0 0 1-.195.465.619.619 0 0 1-.463.183.623.623 0 0 1-.463-.196v.026zm2.705 4.076c.182.166.433.311.734.435.318.128.607.196.879.196.259 0 .462-.038.59-.128a.398.398 0 0 0 .204-.35c0-.145-.077-.26-.234-.341a3.49 3.49 0 0 0-.705-.214 6.086 6.086 0 0 1-.925-.23 1.545 1.545 0 0 1-.637-.427c-.182-.183-.272-.457-.272-.807 0-.26.077-.503.234-.73a1.76 1.76 0 0 1 .666-.542c.29-.136.629-.204 1.024-.204.726 0 1.35.213 1.88.64l-.484.845a1.716 1.716 0 0 0-.59-.388 1.96 1.96 0 0 0-.79-.154c-.22 0-.394.038-.53.115-.136.077-.204.184-.204.32 0 .128.077.235.22.303.145.069.366.137.667.205.365.068.675.145.939.23.259.09.47.235.658.436.182.205.28.486.28.845 0 .444-.174.807-.53 1.088-.357.282-.85.419-1.478.419-.395 0-.781-.069-1.16-.197a2.404 2.404 0 0 1-.916-.525l.53-.862-.05.022zm7.076.968a1.728 1.728 0 0 1-.636.436c-.25.106-.531.153-.84.153-.26 0-.515-.06-.765-.175a1.59 1.59 0 0 1-.62-.525c-.165-.222-.242-.503-.242-.845 0-.337.077-.623.242-.845.166-.222.365-.388.607-.495.234-.107.493-.154.773-.154.318 0 .607.047.87.146.25.098.454.243.62.426v-.648a.708.708 0 0 0-.28-.58c-.183-.146-.425-.214-.743-.214-.51 0-.964.183-1.363.555l-.463-.824c.28-.243.59-.427.947-.555.34-.128.705-.183 1.091-.183.607 0 1.091.136 1.469.418.378.282.569.738.569 1.37v3.026h-1.227v-.487h-.009zm0-1.242a.913.913 0 0 0-.407-.29 1.585 1.585 0 0 0-.569-.107c-.25 0-.463.069-.628.197a.625.625 0 0 0-.25.516c0 .205.088.38.25.504.165.124.365.183.628.183.204 0 .386-.038.569-.106a.947.947 0 0 0 .407-.29v-.607zm3.456-4.732v2.385c.183-.235.395-.41.645-.534.242-.123.514-.183.79-.183.408 0 .764.098 1.061.303.31.205.552.495.726.854.174.367.26.806.26 1.301 0 .517-.09.952-.26 1.32a1.932 1.932 0 0 1-.734.844 1.99 1.99 0 0 1-1.07.29c-.28 0-.552-.06-.79-.183a2.099 2.099 0 0 1-.645-.525v.593h-1.227v-6.474l1.244.008zm.454 5.364c.204.098.408.145.607.145a1.1 1.1 0 0 0 .87-.38c.221-.243.328-.572.328-.99 0-.418-.107-.747-.327-.99a1.107 1.107 0 0 0-.87-.38 1.27 1.27 0 0 0-.608.154c-.2.106-.356.243-.462.388v1.66c.106.145.259.274.462.367v.026zm3.796-4.388a.713.713 0 0 1-.213-.524c0-.205.077-.38.221-.525a.714.714 0 0 1 .522-.222c.204 0 .378.068.523.213.144.145.212.32.212.525 0 .205-.068.38-.212.525a.706.706 0 0 1-.523.213.714.714 0 0 1-.522-.222l-.008.017zm1.129.828v4.687h-1.227v-4.687h1.227zm4.199 4.056c-.378.473-.858.716-1.448.716-.395 0-.752-.098-1.061-.29a1.921 1.921 0 0 1-.726-.845c-.174-.367-.26-.815-.26-1.328 0-.512.09-.951.26-1.318a1.97 1.97 0 0 1 .726-.845 1.98 1.98 0 0 1 1.06-.29c.29 0 .561.06.803.183.25.128.463.303.637.525v-.593h1.235v6.474h-1.235l.009-2.39zm0-2.57a1.316 1.316 0 0 0-.463-.38 1.294 1.294 0 0 0-.607-.154c-.348 0-.629.124-.85.38-.22.243-.326.572-.326.982 0 .418.106.747.327.99.22.252.5.38.849.38.203 0 .407-.047.607-.154.204-.107.356-.235.463-.38V46.65zm6.334 2.065a2.37 2.37 0 0 1-.858.884c-.357.222-.773.329-1.244.329a2.34 2.34 0 0 1-1.218-.32 2.126 2.126 0 0 1-.82-.901 3.004 3.004 0 0 1-.288-1.34v-.273h3.464a1.15 1.15 0 0 0-.416-.777c-.242-.205-.552-.312-.926-.312-.22 0-.445.039-.675.128-.242.09-.433.205-.577.35l-.54-.794c.222-.221.502-.38.841-.486a3.637 3.637 0 0 1 1.07-.167c.471 0 .896.099 1.274.303.378.205.675.496.887.863.212.367.318.793.318 1.289 0 .448-.106.853-.31 1.233l.018-.009zm-1.295-.068a1.26 1.26 0 0 0 .34-.73h-2.297c.008.26.106.495.31.717.195.214.47.32.84.32.348 0 .62-.106.81-.32v.013h-.003zm2.339-.281c.182.166.433.311.734.435.319.128.607.196.88.196.258 0 .462-.038.59-.128a.398.398 0 0 0 .203-.35c0-.145-.076-.26-.234-.341a3.49 3.49 0 0 0-.704-.214 6.086 6.086 0 0 1-.926-.23 1.545 1.545 0 0 1-.637-.427c-.182-.183-.271-.457-.271-.807 0-.26.076-.503.233-.73a1.76 1.76 0 0 1 .667-.542c.288-.136.628-.204 1.023-.204.726 0 1.35.213 1.88.64l-.483.845a1.716 1.716 0 0 0-.59-.388 1.96 1.96 0 0 0-.79-.154c-.22 0-.395.038-.53.115-.137.077-.205.184-.205.32 0 .128.077.235.221.303.145.069.365.137.667.205.365.068.675.145.938.23.259.09.471.235.658.436.182.205.28.486.28.845 0 .444-.174.807-.53 1.088-.357.282-.85.419-1.478.419-.395 0-.781-.069-1.159-.197a2.404 2.404 0 0 1-.917-.525l.53-.862-.05.022zm4.364-4.03a.713.713 0 0 1-.212-.524c0-.205.076-.38.22-.525a.714.714 0 0 1 .523-.222c.203 0 .378.068.522.213.144.145.212.32.212.525 0 .205-.068.38-.212.525a.706.706 0 0 1-.522.213.714.714 0 0 1-.522-.222l-.009.017zm1.13.828v4.687h-1.228v-4.687h1.227z" fill="#000"/></g></svg>