<?xml version="1.0" encoding="UTF-8"?>
<svg width="455px" height="338px" viewBox="0 0 455 338" version="1.1" xmlns="http://www.w3.org/2000/svg" xmlns:xlink="http://www.w3.org/1999/xlink">
    <!-- Generator: Sketch 54.1 (76490) - https://sketchapp.com -->
    <title>5_coming_soon</title>
    <desc>Created with Sketch.</desc>
    <g id="Page-1" stroke="none" stroke-width="1" fill="none" fill-rule="evenodd">
        <g id="LP-Copy" transform="translate(-312.000000, -2063.000000)">
            <g id="Group-24" transform="translate(2.000000, 1912.000000)">
                <g id="5_coming_soon" transform="translate(310.000000, 151.000000)">
                    <g id="background_1_" transform="translate(0.000000, 11.213270)">
                        <g id="background">
                            <g id="window" transform="translate(16.763178, 63.154766)">
                                <path d="M352.194903,200.015118 C341.08223,202.005279 329.923636,203.949157 318.765043,205.939318 L318.765043,205.939318 C297.77954,209.641943 276.839957,213.344568 255.854454,217.093476 C241.114089,219.731597 226.327805,222.323434 211.587441,224.961555 C211.587441,224.776423 211.541521,224.591292 211.541521,224.359878 C164.5193,232.181674 117.588919,240.373732 70.7503781,249.028618 C60.7857082,250.87993 50.8669584,252.731243 40.9022885,254.582556 C27.6772888,257.081828 14.4522891,259.627382 1.22728945,262.172937 C1.31912972,261.57126 1.41097,260.969584 1.50281027,260.367907 C2.23753248,255.693343 2.92633455,250.972496 3.66105675,246.297932 C5.26826158,235.838016 6.8754664,225.424383 8.48267122,214.964467 C13.1206051,184.371527 17.8044592,153.778587 22.4883133,123.185646 C24.7384,108.560277 26.9884868,93.934908 29.2385735,79.3095387 C30.7080179,69.8215619 32.1315422,60.2873022 33.6009866,50.7993253 C35.4837123,38.4880967 37.3664379,26.1768682 39.2491636,13.8193569 C39.8920455,9.65390359 40.5349274,5.44216751 41.1778094,1.23043143 C46.6423058,1.4618455 52.1068022,1.73954239 57.5712986,1.97095646 C66.6634859,2.38750178 75.709753,2.80404711 84.8019403,3.17430962 C90.4041971,3.40572369 96.0064539,3.68342058 101.608711,3.91483465 C103.996558,4.00740027 106.384405,4.14624872 108.726332,4.23881434 L108.726332,4.23881434 C111.573381,4.37766279 114.466349,4.51651123 117.313398,4.60907686 C121.032929,4.79420811 124.75246,4.93305655 128.426071,5.11818781 C130.125116,5.21075344 131.824161,5.25703625 133.477286,5.34960188 L133.523207,5.34960188 C135.360012,5.44216751 137.242738,5.53473314 139.125463,5.58101595 C141.559231,5.67358158 143.992998,5.81243002 146.426765,5.90499565 C149.365654,6.04384409 152.258623,6.18269253 155.197512,6.32154098 C155.473032,6.32154098 155.794473,6.36782379 156.069994,6.36782379 L156.529196,6.36782379 C176.779976,7.29348007 197.030757,8.17285354 217.281538,9.09850982 C224.904281,9.46877233 232.527024,9.79275203 240.149767,10.1167317 C243.364176,10.2555802 246.532666,10.3944286 249.747075,10.5332771 C258.517822,10.9498224 267.334488,11.3200849 276.105234,11.7366302 L276.105234,11.7366302 C283.039175,12.0606099 289.927196,12.3845896 296.861137,12.6622865 C299.616345,22.0114149 302.371553,31.4068262 305.126762,40.7559546 L305.126762,40.7559546 C305.769644,42.9775297 306.412525,45.152822 307.055407,47.374397 L307.055407,47.374397 C308.433012,52.0026784 309.810616,56.6309599 311.1423,61.2592413 C315.183272,75.0515198 319.270164,88.8437984 323.357056,102.589794 L323.357056,102.589794 C324.73466,107.218076 326.112265,111.89264 327.489869,116.520921 C328.729712,120.77894 330.015476,124.990676 331.25532,129.248695 C338.281101,152.991779 345.215042,176.503448 352.194903,200.015118 L352.194903,200.015118 Z" id="Shape" fill="#FFFFFF"></path>
                                <path d="M1.21174491,262.93067 C1.02794706,262.93067 0.844149221,262.884362 0.752250299,262.745436 C0.568452456,262.60651 0.522502995,262.374966 0.568452456,262.143423 L0.844149221,260.337385 C1.5793406,255.66021 2.26858251,250.936726 3.00377388,246.259551 L3.00377388,246.166933 C4.47415663,236.58104 5.94453938,227.041455 7.41492213,217.455561 L7.82846728,214.908584 C7.87441674,214.538115 8.24201243,214.260263 8.60960812,214.306572 C8.9772038,214.35288 9.25290057,214.72335 9.20695111,215.093819 L8.79340596,217.640796 C7.32302321,227.226689 5.85264046,236.858892 4.38225771,246.444785 L4.38225771,246.537403 C3.64706634,251.214578 2.95782442,255.891753 2.22263305,260.568928 L2.08478467,261.402484 C14.9046843,258.901816 27.9543312,256.401148 40.8201802,253.993098 C50.9290616,252.094443 60.9919936,250.195787 70.6873298,248.436058 C117.142235,239.868955 164.562078,231.533395 211.568377,223.753539 L211.660276,223.753539 C212.027872,223.707231 212.395467,223.985083 212.441417,224.355552 C212.487366,224.726021 212.211669,225.096491 211.844074,225.142799 L211.752175,225.142799 C164.745876,232.922655 117.371982,241.258215 70.8711277,249.825318 C61.1757914,251.631356 51.1588089,253.483703 41.0039781,255.382358 C27.7705333,257.883026 14.4451897,260.430002 1.30364383,262.976979 C1.25769437,262.93067 1.21174491,262.93067 1.21174491,262.93067 L1.21174491,262.93067 Z" id="Shape" fill="#F6F6F4"></path>
                                <path d="M211.728913,225.063313 C211.407434,225.063313 211.085955,224.831844 211.040029,224.507787 C210.994103,224.137435 211.223731,223.767084 211.591136,223.720791 L351.388702,199.50909 L330.814027,129.65162 C329.574036,125.392582 328.288118,121.133545 327.048127,116.920802 L322.914822,102.986343 C322.914822,102.940049 322.868896,102.847461 322.868896,102.801167 C322.868896,102.430816 323.190375,102.106759 323.55778,102.106759 C323.87926,102.106759 324.154813,102.338229 324.246664,102.662286 L328.334044,116.550451 C329.574036,120.809488 330.859953,125.022231 332.099944,129.281269 L352.904247,199.879441 C352.950172,200.064616 352.950172,200.296086 352.812396,200.434967 C352.720544,200.620143 352.536842,200.712731 352.353139,200.759024 L211.774839,225.063313 C211.774839,225.063313 211.774839,225.063313 211.728913,225.063313 L211.728913,225.063313 Z" id="Shape" fill="#F6F6F4"></path>
                                <path d="M305.716009,40.3192353 C305.394352,40.3192353 305.118647,40.0876412 305.026745,39.7634094 C302.729199,32.1208031 298.180059,17.9472424 296.571777,13.4543163 C289.816992,13.1300845 283.062208,12.8521716 276.307423,12.5279398 L239.316937,10.9067809 C232.010742,10.5825491 224.704546,10.2583173 217.398351,9.93408554 C197.133997,9.00770902 176.869644,8.12765133 156.605291,7.20127481 C156.237683,7.20127481 155.916027,6.87704303 155.961978,6.4601736 C155.961978,6.08962299 156.283634,5.76539121 156.697192,5.81171003 C176.961546,6.73808655 197.225899,7.61814424 217.490253,8.54452076 C224.796448,8.86875254 232.102643,9.19298432 239.408839,9.5172161 L276.399325,11.1846938 C283.337913,11.5089256 290.23055,11.8331574 297.169139,12.1110704 C297.444844,12.1110704 297.674599,12.2963457 297.7665,12.5742586 C299.23693,16.6039965 303.969874,31.3797019 306.405272,39.4391776 C306.405272,39.4854964 306.451223,39.5781341 306.451223,39.6244529 C306.405272,39.9950035 306.083616,40.3192353 305.716009,40.3192353 L305.716009,40.3192353 Z" id="Shape" fill="#F6F6F4"></path>
                                <path d="M22.5525027,123.877739 L22.4605701,123.877739 C22.0928396,123.831444 21.8170417,123.461091 21.863008,123.090738 L28.5740896,79.2038712 C30.0450116,69.7135678 31.4699673,60.1769703 32.9408892,50.6866668 L40.5253308,1.15191244 C40.5712971,0.78155914 40.8930613,0.550088325 41.2148254,0.550088325 L57.6247989,1.29079493 C66.7261287,1.7074424 75.7814922,2.12408987 84.882822,2.49444317 C85.2505525,2.49444317 85.5723167,2.81850231 85.5263504,3.23514978 C85.5263504,3.60550308 85.2045862,3.92956222 84.7908894,3.88326806 C75.6895596,3.46662059 66.6341961,3.04997313 57.5328663,2.67961982 L41.7204549,1.98520738 L34.227946,50.9181377 C32.757024,60.4084411 31.286102,69.9450386 29.8611463,79.4353421 L23.1500647,123.322209 C23.1960311,123.646268 22.9202332,123.877739 22.5525027,123.877739 L22.5525027,123.877739 Z" id="Shape" fill="#F6F6F4"></path>
                            </g>
                            <g id="pattern_1_" transform="translate(18.788679, 65.251089)" fill="#40AE4E">
                                <path d="M286.435255,36.929388 C282.070881,42.8084935 277.706507,48.7338911 273.388074,54.6129966 C268.931818,51.2336682 261.397531,44.6601802 255.563052,34.0129814 C250.0961,24.0601651 248.488172,14.8017313 247.936883,9.33925536 C252.301257,9.52442403 256.61969,9.70959271 260.984064,9.94105355 C265.440319,10.1262222 269.896575,10.3576831 274.35283,10.5428517 C274.398771,10.9131891 274.490653,11.2835265 274.536593,11.6538638 C275.179764,15.0331921 276.282343,19.2920717 278.303737,23.8749964 C280.876421,29.5689332 283.954453,33.920397 286.435255,36.929388 L286.435255,36.929388 Z" id="Shape"></path>
                                <path d="M201.541475,28.2964511 C203.884118,46.7158678 195.661901,64.2096857 180.411755,70.1797981 C165.161609,76.1499106 147.339149,68.8376798 136.774289,53.6115791 C131.216254,55.7867363 125.658219,57.9618936 120.100184,60.1370508 C130.527242,87.2570965 161.303139,100.909679 188.220565,90.4041325 C215.137991,79.8985858 228.688573,48.8910251 218.261515,21.7709794 C212.657546,23.9461366 207.099511,26.1212939 201.541475,28.2964511 L201.541475,28.2964511 Z" id="Shape"></path>
                                <path d="M68.1430894,183.878187 C63.9648638,176.79638 59.8325528,169.714574 55.6543272,162.632768 C59.9702965,158.374427 63.5516327,153.653223 66.3983359,148.700587 C75.4435056,132.824381 76.775028,114.263568 68.0512603,99.4519475 C62.2660248,89.5929623 53.8177445,84.8254718 50.7414685,83.1591645 C41.145324,77.9288109 32.1919834,77.3733751 27.8760141,77.3733751 C28.1515015,75.6607814 29.8044259,64.6446384 30.0799133,62.9320447 C31.1818629,55.8965248 32.1919834,49.2775817 32.237898,48.8610048 C53.0831114,51.6844701 68.7858933,58.5348447 76.3617969,64.598352 C81.2746556,68.5326888 85.3610521,73.1613204 85.3610521,73.1613204 C88.3454989,76.5402214 91.0544584,80.2431266 93.3961013,84.2700361 C113.598511,118.568196 102.211698,163.558494 68.1430894,183.878187 L68.1430894,183.878187 Z" id="Shape"></path>
                                <path d="M330.52111,181.587002 C329.555995,184.502704 328.177259,188.020058 326.063197,191.768818 C324.914251,193.851462 322.846147,197.137411 319.766971,200.747327 C319.031645,201.626666 318.342277,202.320881 317.882699,202.829971 C309.610284,204.264682 301.383828,205.699392 293.111413,207.087821 C279.507887,209.448151 265.904361,211.808481 252.300835,214.12253 C251.97913,213.983687 251.703383,213.798563 251.381678,213.613439 C250.922099,213.382034 250.508479,213.104349 250.094858,212.872944 C249.681237,212.641539 249.267616,212.410134 248.808038,212.132448 C244.25821,209.309308 234.469186,202.367162 227.94317,189.408488 C226.610392,186.724191 219.486924,172.053121 222.749932,153.864697 C223.209511,151.458086 223.806963,149.051475 224.588247,146.644864 C230.608726,148.634946 236.583248,150.578747 242.603727,152.568829 C242.419895,154.744035 242.419895,156.965522 242.557769,159.094447 C243.476926,176.079566 252.760414,190.796917 267.375013,195.610139 C283.827926,201.025013 302.257027,192.231627 312.597545,175.570475 C318.526109,177.606838 324.546588,179.59692 330.52111,181.587002 L330.52111,181.587002 Z" id="Shape"></path>
                                <path d="M328.679082,127.347859 C326.383131,127.209006 318.163623,126.607305 311.413525,121.932558 C308.245112,119.75718 305.857322,116.980102 305.673646,116.794964 C304.250155,115.128717 303.010342,113.323616 301.908285,111.287093 C304.938941,109.667131 307.969597,108.000884 311.000254,106.380922 C312.240068,107.815745 314.122748,109.620846 316.786052,111.287093 C319.908547,113.231047 322.893284,114.110455 324.867802,114.527017 C325.235155,115.776702 326.42905,119.849749 326.796402,121.05315 C327.163754,122.210266 328.357649,126.190744 328.679082,127.347859 L328.679082,127.347859 Z" id="Shape"></path>
                                <path d="M55.0766181,0.69305523 C54.0174524,2.07916569 52.5438305,3.78870192 50.5176004,5.45203447 C49.4584347,6.32990443 47.7545594,7.62360753 45.4980758,8.82490326 C43.7481499,9.7489769 41.2153622,10.9040689 37.9457637,11.6895315 C38.5444226,7.80842225 39.1430814,3.92731297 39.7417403,0 C44.8073156,0.23101841 49.9189415,0.46203682 55.0766181,0.69305523 L55.0766181,0.69305523 Z" id="Shape"></path>
                                <path d="M7.13805073,255.415438 C5.30399873,256.432747 3.33239283,257.126367 3.33239283,257.126367 C2.09440773,257.58878 0.993976525,257.912469 0.122801824,258.097434 C0.489612224,255.692886 0.902273925,253.103373 1.26908432,250.698825 C1.59004342,248.617966 2.00270513,246.074693 2.32366423,243.947593 C3.97431103,242.699078 7.87167153,239.415945 10.0266826,233.635781 C12.5943554,226.745825 11.0354112,220.780696 10.4393443,218.884802 C10.852006,218.653596 11.2188164,218.46863 11.6314781,218.237424 C14.2450022,216.803943 16.9043776,215.370463 19.5179017,213.936982 C21.1226972,216.942667 22.1772771,220.087076 22.6816414,223.323968 C24.7449499,235.901605 18.8301322,249.080379 7.13805073,255.415438 L7.13805073,255.415438 Z" id="Shape"></path>
                            </g>
                            <path d="M15.2800245,57.0869715 C14.4070987,57.0869715 13.5341729,57.0406936 12.661247,56.90186 C4.29953664,55.5598017 0.302455289,48.2016201 0.164624898,47.877675 C-0.202922813,47.1835069 0.07273797,46.3505052 0.715946463,45.9802823 C1.40509842,45.6100593 2.23208077,45.8877265 2.59962848,46.5356167 C2.64557194,46.5818946 6.18321865,53.0145188 13.1206817,54.1251877 C18.7717277,55.0044673 25.2038127,52.3203507 32.1872192,46.0265601 C27.2712685,40.5657713 24.9740953,32.6059773 26.62806,25.5717408 C26.9037208,24.5073498 29.3387244,15.066664 37.0572263,12.4751031 C38.8949649,11.8734908 40.4570426,11.9197687 41.6975162,12.1048802 C44.4081805,12.4751031 47.9458272,14.7427188 49.3241311,19.000283 C50.9321524,23.9982932 49.9213962,32.6985331 36.1843005,46.072838 C36.5518482,46.3505052 36.9193959,46.6744503 37.2869436,46.9058397 C47.1188449,53.8012426 60.4424494,47.6000078 63.0152833,46.2579495 C66.2772693,44.5919461 69.9527464,42.1392189 73.58228,39.1774351 C71.009446,34.8273152 69.4933117,28.1633017 71.4229372,19.7870069 C73.1228454,12.4751031 78.2685133,3.3583624 84.5168244,0.813079456 C87.2274888,-0.297589465 89.9381531,-0.0662001065 92.3272132,1.50724753 C93.8433475,2.47908284 95.6351426,4.65414281 95.3594818,9.32820786 C94.9000472,17.8896141 88.238245,30.1532501 77.349644,39.7327696 C77.5334179,39.9641589 77.7171918,40.1492704 77.9469091,40.3806598 C82.6331424,45.008447 90.6732485,45.8877265 101.791567,43.0184985 C122.649899,37.6502654 135.743787,23.0727358 140.43002,17.0566124 C140.889454,16.4550001 141.76238,16.3624444 142.359645,16.8252231 C142.95691,17.2880018 143.048797,18.1672814 142.589363,18.7688937 C137.719355,25.0164064 124.12009,40.1492704 102.480719,45.702615 C90.3516443,48.8032324 81.4386123,47.6925635 76.0172836,42.3243304 C75.7416228,42.0466632 75.5119055,41.7689959 75.2362447,41.4913287 C71.8823719,44.2217231 68.2068948,46.6281725 64.2557569,48.6643988 C61.4532056,50.0990129 46.7972406,56.90186 35.6789224,49.0808997 C35.1276008,48.7106767 34.6222227,48.2941759 34.1168446,47.877675 C27.4550424,54.0326319 21.1148444,57.0869715 15.2800245,57.0869715 L15.2800245,57.0869715 Z M40.0678156,14.8438496 C39.3319764,14.8438496 38.6421271,14.9364291 37.9522779,15.2141678 C31.5136847,17.3897876 29.3981469,25.9996871 29.306167,26.3700054 C27.8804785,32.3876771 29.9500263,39.4700138 34.2270918,44.2841512 C47.7021476,31.1841428 47.8401174,23.4537491 46.7363586,19.9820154 C45.6785897,16.6491511 42.9191926,15.1678781 41.3555343,14.9364291 C40.8956348,14.8901394 40.4817252,14.8438496 40.0678156,14.8438496 L40.0678156,14.8438496 Z M87.7986941,2.96876991 C87.063832,2.96876991 86.283041,3.107931 85.50225,3.43264021 C80.358215,5.52005656 75.62754,13.7769479 74.065958,20.5030672 C72.9177359,25.5128665 72.8258782,32.3781469 75.62754,37.4807202 C84.2621701,29.7340862 92.0700803,19.1578434 92.575298,9.27740598 C92.6671557,7.42192479 92.4375113,4.9634122 90.7840715,3.89651051 C89.819565,3.29347912 88.8091296,2.96876991 87.7986941,2.96876991 L87.7986941,2.96876991 Z" id="Shape" fill="#DBDBD1"></path>
                        </g>
                    </g>
                    <g id="general_1_" transform="translate(18.400000, 0.000000)">
                        <g id="general">
                            <g id="man" transform="translate(0.000000, 43.502311)">
                                <g id="head" transform="translate(73.022344, 0.000000)">
                                    <path d="M72.9243382,76.8080994 C69.6213047,79.7252698 65.5842636,81.5774414 61.2260943,82.5498315 L61.2260943,82.6887444 L63.4281167,96.9967704 C63.8868714,99.8213322 63.749245,102.738503 62.8776111,105.51676 C61.1343434,111.026971 56.867925,115.472183 51.45462,117.231746 C46.3165677,118.8987 40.5821344,118.018919 35.9487123,115.101748 C31.3152902,112.230882 28.2875094,107.322627 27.461751,101.905025 L25.397355,88.5230851 L23.1953326,74.2613634 C25.5808569,71.9461488 27.1406228,68.797457 27.3700001,65.2320266 C27.461751,63.4724636 27.2782492,61.7129005 26.773619,60.1385546 C26.86537,48.7013946 26.9571209,37.2642347 27.0488718,25.8270748 C34.2971955,22.3079486 41.9583984,18.8351268 50.078356,15.4086092 C55.7210383,13.0470904 61.2260943,10.8244844 66.5935239,8.78709558 C84.4390803,25.6418576 88.7972496,62.6852906 72.9243382,76.8080994 L72.9243382,76.8080994 Z" id="face" fill="#FBB319"></path>
                                    <g id="brows" transform="translate(32.952100, 15.971846)" fill="#000000">
                                        <ellipse id="Oval" transform="translate(38.398476, 5.719170) rotate(-18.650557) translate(-38.398476, -5.719170) " cx="38.3984763" cy="5.71916978" rx="7.73167453" ry="2.72279729"></ellipse>
                                        <ellipse id="Oval" transform="translate(8.267718, 17.296497) rotate(-21.623724) translate(-8.267718, -17.296497) " cx="8.26771845" cy="17.296497" rx="7.73164077" ry="2.7228089"></ellipse>
                                    </g>
                                    <path d="M58.7229628,66.3363836 C53.5273051,66.3363836 48.8374194,61.9506843 48.7914401,61.904519 C48.6994816,61.8121885 48.6994816,61.6275275 48.7914401,61.535197 C48.8833987,61.4428665 49.0673158,61.3967012 49.1592743,61.535197 C49.2512328,61.6275275 57.9872945,69.7987777 64.6083096,63.2894767 C64.7002682,63.1971462 64.8841853,63.1971462 64.9761438,63.2894767 C65.0681024,63.3818072 65.0681024,63.5664682 64.9761438,63.6587987 C62.9990351,65.6439047 60.8380093,66.3363836 58.7229628,66.3363836 L58.7229628,66.3363836 Z" id="Shape" fill="#000000"></path>
                                    <path d="M67.0240272,50.6344012 L60.9882135,39.5430723 L58.9609173,35.7840863 L55.7356734,29.8439604 C55.6435236,29.7047387 55.5052989,29.6583314 55.3670741,29.7511459 C55.2288494,29.8439604 55.1827745,29.9831821 55.2749243,30.1224038 L66.4250533,50.6344012 L56.2424975,54.2077582 C56.1042727,54.2541654 56.0121229,54.4397944 56.0581978,54.5790161 C56.1042727,54.6718305 56.1964226,54.764645 56.3346473,54.764645 L56.4267971,54.764645 L66.8858024,51.0984735 C66.9779522,51.0984735 67.0240272,51.005659 67.0701021,50.9128446 C67.0701021,50.7736229 67.0701021,50.6808084 67.0240272,50.6344012 L67.0240272,50.6344012 Z" id="Shape" fill="#000000"></path>
                                    <path d="M55.4517561,83.4155271 C51.3329562,83.4155271 46.0700453,82.6762559 40.7156055,80.0426025 C40.5783121,79.9963981 40.5325477,79.8115803 40.5783121,79.6729669 C40.6240766,79.5343536 40.8071344,79.4881491 40.9444277,79.5343536 C49.2735563,83.6465493 57.2365694,83.092096 61.2180759,82.3528248 C61.3553692,82.3066204 61.4926626,82.4452337 61.538427,82.583847 C61.5841915,82.7224604 61.4468981,82.8610737 61.3096048,82.9072782 C59.8451426,83.1845048 57.8315071,83.4155271 55.4517561,83.4155271 L55.4517561,83.4155271 Z" id="Shape" fill="#000000"></path>
                                    <path d="M66.5791956,8.72138971 C61.2153127,10.7593165 55.7138944,12.9825093 50.0749406,15.3446516 C41.9603485,18.7720739 34.304208,22.2458127 27.0606739,25.765868 C26.9689836,37.2060477 26.8772933,48.6462274 26.785603,60.0864071 C25.1351775,54.8526407 20.4589719,50.9157367 14.6824826,50.5452046 C13.8572699,50.4988881 13.0779023,50.4988881 12.2985347,50.5915211 C12.0234638,49.7115073 11.794238,48.8314935 11.5650122,47.9514796 C11.5191671,47.6735805 11.4274768,47.441998 11.3816316,47.1640989 C11.3816316,47.1177823 11.3816316,47.1177823 11.3357865,47.0714658 C11.2440962,46.5619841 11.1065607,46.098819 11.0148704,45.5893373 C10.9690252,45.3114382 10.9231801,45.0798556 10.8773349,44.8019565 C10.8314898,44.5240574 10.7856446,44.2924748 10.7397995,44.0145757 C10.602264,43.1808784 10.4647286,42.3471811 10.3730383,41.5134838 C10.3271931,41.0503186 10.281348,40.5871534 10.2355028,40.1239883 C10.1896576,39.8460892 10.1896576,39.5681901 10.1896576,39.290291 C10.1896576,39.0587084 10.1438125,38.8271258 10.1438125,38.6418597 L10.1438125,38.2713276 C10.1438125,38.039745 10.1438125,37.8081624 10.0979673,37.5765798 C10.0521222,36.7428825 10.0521222,35.9555017 10.0979673,35.1681209 L10.0979673,34.4270567 C10.0979673,33.9638915 10.1438125,33.5007263 10.1438125,33.0838777 L10.1438125,32.8986116 C10.1438125,32.7596621 10.1438125,32.667029 10.1896576,32.5280795 C10.1896576,32.2964969 10.2355028,32.0649143 10.2355028,31.8333317 C10.2355028,31.6480656 10.281348,31.5091161 10.281348,31.32385 L10.281348,31.231217 C10.7856446,26.7385148 12.5277604,18.7257574 18.5334755,11.3151147 C27.2898996,1.49601305 42.8314064,-2.62615697 55.1637525,1.72759563 C58.5562938,2.93182507 61.6737642,4.78448576 64.5161637,7.10031161 C65.2955313,7.56347678 65.9373634,8.11927498 66.5791956,8.72138971 L66.5791956,8.72138971 Z" id="hair" fill="#000000"></path>
                                    <g id="glasses" transform="translate(22.949879, 27.351382)">
                                        <path d="M32.2691181,10.0247147 C34.8877889,16.1010029 32.1312934,23.2905043 26.1129447,25.9807694 C20.094596,28.6246505 12.9736491,25.8416177 10.3090367,19.7653295 C17.61375,16.472074 24.9644049,13.2715863 32.2691181,10.0247147 L32.2691181,10.0247147 Z" id="Shape" fill="#DBDBD1"></path>
                                        <path d="M51.3008487,15.626329 C46.5141599,17.4400994 41.2672126,15.9518776 38.0454028,12.27783 L36.0202652,8.5107685 C43.4764536,5.67384567 50.8866161,2.83692283 58.3428044,0 C60.6440971,6.23192885 57.4683132,13.3009825 51.3008487,15.626329 L51.3008487,15.626329 Z" id="Shape" fill="#DBDBD1"></path>
                                        <path d="M31.1219502,11.3860957 C31.0298753,11.3860957 30.8917629,11.3396929 30.8457254,11.2004845 C30.3393132,9.90120613 30.3853507,8.46271937 30.9838378,7.163441 C31.5362875,6.00337104 32.5491118,5.12171786 33.7000486,4.75049547 C35.9098473,4.10085629 38.3498332,5.35373186 39.3166201,7.58106619 C39.3626576,7.72027459 39.3166201,7.90588578 39.1785077,7.95228858 C39.0403953,7.99869138 38.8562454,7.95228858 38.810208,7.81308019 C37.9815335,5.81775984 35.7717348,4.70409267 33.8841985,5.30732906 C32.8713741,5.63214865 31.9966622,6.37459343 31.49025,7.4418578 C30.9378003,8.55552496 30.8917629,9.85480333 31.3521376,11.0148733 C31.398175,11.1540817 31.3521376,11.3396929 31.2140252,11.3860957 C31.2140252,11.3860957 31.1679877,11.3860957 31.1219502,11.3860957 L31.1219502,11.3860957 Z" id="Shape" fill="#000000"></path>
                                        <path d="M25.3499769,26.6088106 C25.2577036,26.6088106 25.211567,26.5622945 25.1654303,26.5157785 C24.5195172,25.8180377 21.4283613,22.1897857 23.0431442,19.5848868 C24.2888339,17.5846966 23.3661008,15.1658619 22.9508709,14.1890249 C22.9047342,14.0494767 22.9508709,13.8634125 23.0892809,13.8168964 C23.2276908,13.7703804 23.4122374,13.8168964 23.4583741,13.9564446 C23.9658773,14.9797977 24.9347471,17.6312127 23.5506474,19.8639831 C22.1204111,22.1432696 24.9808837,25.4924253 25.5806602,26.1436501 C25.6729335,26.2366822 25.6729335,26.4227464 25.5806602,26.5157785 C25.4883869,26.6088106 25.3961136,26.6088106 25.3499769,26.6088106 L25.3499769,26.6088106 Z" id="Shape" fill="#FFFFFF"></path>
                                        <path d="M50.1546317,16.2128102 C50.0651673,16.2128102 49.9757028,16.1664064 49.9309706,16.1200027 C48.991594,14.8671016 47.0233764,11.711647 48.5442718,9.48426722 C50.0651673,7.25688749 48.8126652,4.28704785 48.5442718,3.73020292 C48.4995396,3.59099169 48.5442718,3.40537671 48.6784685,3.35897296 C48.8126652,3.31256922 48.991594,3.35897296 49.0363262,3.4981842 C49.3047196,4.10143287 50.6914183,7.34969498 48.991594,9.80909343 C47.6943597,11.711647 49.5283807,14.6350828 50.3782928,15.7951765 C50.4677572,15.9343877 50.4677572,16.0735989 50.3335606,16.1664064 C50.2888284,16.2128102 50.1993639,16.2128102 50.1546317,16.2128102 L50.1546317,16.2128102 Z" id="Shape" fill="#FFFFFF"></path>
                                        <path d="M13.9391,20.8281953 L0.596740243,27.413263 C0.459190143,27.2731552 0.321640042,27.1330473 0.184089942,26.9929395 L13.7098498,20.3144667 C13.8473999,20.267764 14.0308001,20.3144667 14.0766501,20.4545745 C14.1683502,20.5946823 14.0766501,20.7347901 13.9391,20.8281953 L13.9391,20.8281953 Z" id="Shape" fill="#000000"></path>
                                    </g>
                                    <g id="eyes" transform="translate(48.170201, 31.435525)" fill="#000000">
                                        <ellipse id="Oval" cx="2.27044261" cy="12.4999529" rx="2.27044261" ry="2.28959533"></ellipse>
                                        <ellipse id="Oval" cx="27.9816711" cy="2.28959533" rx="2.27044261" ry="2.28959533"></ellipse>
                                    </g>
                                    <g id="ear" transform="translate(0.000000, 50.494859)">
                                        <path d="M26.8705488,9.57428478 C26.2271459,7.4894625 25.0782121,5.63628713 23.5616196,4.10741746 C23.4237475,3.9684293 23.2858755,3.82944115 23.1480034,3.690453 C20.9420506,1.60563071 18.0007801,0.262078573 14.7378082,0.0304316528 C13.9105759,-0.0158977313 13.1293009,-0.0158977313 12.3480259,0.076761037 C5.86803943,0.771701799 0.674858774,6.09958097 0.215285264,12.8636711 C-0.290245597,20.4616901 5.40846592,26.9941332 12.9454715,27.5037564 C16.8978037,27.7817327 20.6203491,26.2991925 23.2858755,23.7510763 C25.6756577,21.4346071 27.2382076,18.284209 27.4679944,14.7168464 C27.5599091,12.8636711 27.3760797,11.1494838 26.8705488,9.57428478 L26.8705488,9.57428478 Z" id="Shape" fill="#FBB319"></path>
                                        <path d="M21.7352613,19.8019055 C21.6892534,19.8019055 21.5972378,19.8019055 21.5512299,19.7555004 C20.9531281,19.3378537 19.9409558,18.3633448 19.5728931,16.7855685 C18.9747913,14.3724988 20.3550263,12.4698862 20.9531281,11.7274032 L7.56484864,4.53459937 C7.42682514,4.441789 7.38081731,4.30257344 7.47283297,4.16335788 C7.56484864,4.02414232 7.70287214,3.97773714 7.84089564,4.07054751 L21.5512299,11.4489721 C21.6432456,11.4953773 21.6892534,11.5881876 21.6892534,11.6345928 C21.6892534,11.7274032 21.6892534,11.8202136 21.5972378,11.8666187 C21.5052221,11.9594291 19.4808774,14.0012573 20.1249871,16.6463529 C20.4470419,18.0385085 21.3671986,18.920207 21.9192926,19.2914485 C22.0573161,19.3842589 22.0573161,19.5698796 21.9653004,19.66269 C21.9192926,19.7555004 21.8272769,19.8019055 21.7352613,19.8019055 L21.7352613,19.8019055 Z" id="Shape" fill="#000000"></path>
                                    </g>
                                </g>
                                <g id="tshirt_1_" transform="translate(0.000000, 75.927932)">
                                    <path d="M337.225434,26.7220758 C336.032204,28.7598078 333.645746,29.6397375 331.488755,28.9913682 L331.488755,28.9913682 C328.735149,39.3652763 325.614396,48.2571976 322.631323,55.6208199 L322.631323,55.6208199 C322.401856,56.222877 322.126495,56.8249342 321.897028,57.4269914 L321.897028,57.4269914 C321.851135,57.5196155 321.805241,57.6122397 321.759348,57.7048639 L321.759348,57.7048639 C321.162733,59.0942266 320.612012,60.3909651 320.061291,61.6877036 C319.969504,61.9192641 319.831824,62.1971366 319.740037,62.4286971 C319.51057,62.9381301 319.281103,63.4012509 319.097529,63.8643718 C318.959849,64.1885565 318.776275,64.5590532 318.638595,64.8832378 C318.455021,65.3000466 318.271447,65.7168554 318.087874,66.1336642 C317.9043,66.504161 317.76662,66.8283456 317.583046,67.1988423 C316.16035,70.3017523 314.783547,73.1731019 313.314957,75.9518273 C312.764236,76.9706933 312.213515,77.9895592 311.662794,79.0084252 C311.387433,79.4715461 311.112072,79.934667 310.836712,80.3977879 C310.561351,80.8609088 310.285991,81.3240297 310.01063,81.7871506 C309.781163,82.1576473 309.551696,82.481832 309.368122,82.8523287 C309.000975,83.4080737 308.679721,83.9175067 308.312573,84.4732518 L308.312573,84.4732518 C307.945426,85.0289969 307.578278,85.5384299 307.165238,86.094175 C306.339156,87.2056651 305.513074,88.3634674 304.595205,89.4749575 C304.182165,89.9843905 303.769124,90.4475114 303.356083,90.9569444 C303.080722,91.281129 302.805362,91.6516257 302.484108,91.9758104 C296.885109,98.4131908 288.073571,108.555539 273.2041,113.835117 C254.158327,120.596682 236.810611,115.270792 227.310671,112.399442 C218.407346,109.667029 211.477438,106.054686 206.979882,103.368584 C206.842201,112.35313 206.888095,121.615548 207.117562,131.248463 C207.163455,133.610379 207.255242,135.972296 207.347029,138.334212 C207.392923,139.538327 207.438816,140.742441 207.484709,141.946555 C207.943644,154.080323 208.723832,165.750969 209.733487,176.865871 L209.733487,176.865871 C209.779381,177.467928 209.825274,178.069985 209.871168,178.672042 C209.687594,178.718355 209.549914,178.718355 209.36634,178.764667 C206.612734,179.227788 203.859129,179.690908 201.105523,180.154029 C198.168343,180.61715 195.277057,181.126583 192.339878,181.636016 C189.678059,182.099137 187.01624,182.515946 184.354421,182.979067 C177.975234,184.044245 171.596048,185.155735 165.216861,186.220913 L165.216861,186.220913 C161.224133,186.915594 157.185511,187.610276 153.192783,188.304957 C142.45372,190.157441 131.714658,192.056236 121.021489,193.955032 C118.818604,194.325529 116.61572,194.742338 114.366942,195.159146 C113.40318,195.344395 112.439418,195.529643 111.429762,195.668579 C107.023993,196.455885 102.57233,197.24319 98.1665612,198.076808 C93.9443657,198.864114 89.6762768,199.605107 85.4540813,200.392413 C82.9758361,200.855534 80.497591,201.318654 77.9734524,201.781775 C75.0362729,202.33752 72.0990934,202.846953 69.161914,203.402698 L69.161914,177.931049 C30.5196466,186.961907 15.2371347,179.783533 8.39901376,171.956789 C7.94007947,171.447356 7.52703861,170.891611 7.11399774,170.335866 C7.02221088,170.243242 6.93042403,170.104306 6.83863717,169.96537 C6.70095688,169.780121 6.56327659,169.548561 6.42559631,169.363312 C6.19612916,168.992816 5.96666201,168.622319 5.73719487,168.251822 C5.59951458,167.97395 5.41594086,167.742389 5.27826058,167.464517 C5.04879343,167.047708 4.81932629,166.630899 4.58985914,166.21409 C4.49807228,165.98253 4.36039199,165.797282 4.26860514,165.565721 C4.26860514,165.519409 4.22271171,165.519409 4.22271171,165.473097 C4.13092485,165.241536 4.03913799,165.056288 3.94735113,164.824728 C3.85556427,164.593167 3.71788399,164.361607 3.62609713,164.130046 C3.44252341,163.666925 3.25894969,163.203804 3.07537598,162.740684 C2.98358912,162.462811 2.89180226,162.184939 2.8000154,161.907066 C2.52465483,161.166073 2.29518768,160.378767 2.11161397,159.591461 C2.01982711,159.313589 1.97393368,159.082028 1.88214682,158.804156 C1.83625339,158.572596 1.79035996,158.341035 1.6985731,158.109475 C1.6985731,158.01685 1.65267967,157.970538 1.65267967,157.877914 C1.60678625,157.646354 1.56089282,157.414793 1.46910596,157.183233 C1.42321253,156.90536 1.3773191,156.627488 1.28553224,156.349615 C1.23963881,156.025431 1.14785195,155.747558 1.10195852,155.423373 C1.01017167,155.006565 0.964278237,154.589756 0.872491379,154.172947 C0.734811091,153.339329 0.643024233,152.4594 0.551237375,151.57947 C0.505343946,151.116349 0.459450517,150.69954 0.413557087,150.236419 C0.367663658,149.958547 0.367663658,149.634362 0.321770229,149.310178 C0.2758768,148.70812 0.229983371,148.059751 0.229983371,147.457694 C0.229983371,147.133509 0.184089942,146.855637 0.184089942,146.531452 L0.184089942,145.558898 L0.184089942,144.540032 L0.184089942,143.243294 C0.184089942,142.872797 0.184089942,142.5023 0.229983371,142.131804 L0.229983371,141.714995 C0.229983371,141.483434 0.229983371,141.298186 0.2758768,141.066626 C0.2758768,140.788753 0.2758768,140.51088 0.321770229,140.186696 L0.321770229,140.094072 C0.321770229,139.723575 0.367663658,139.306766 0.413557087,138.889957 L0.413557087,138.612085 C0.459450517,138.241588 0.459450517,137.871091 0.505343946,137.454283 C0.597130804,136.111232 0.780704521,134.721869 0.964278237,133.332507 C1.01017167,133.008322 1.0560651,132.637825 1.10195852,132.313641 C1.19374538,131.665271 1.28553224,131.063214 1.3773191,130.414845 C1.3773191,130.368533 1.3773191,130.275909 1.42321253,130.229597 C1.46910596,129.951724 1.51499939,129.627539 1.56089282,129.349667 C1.65267967,128.793922 1.74446653,128.238177 1.83625339,127.682432 C1.88214682,127.497183 1.92804025,127.265623 1.92804025,127.080374 C1.97393368,126.848814 2.01982711,126.570941 2.06572054,126.339381 C2.11161397,126.015196 2.20340082,125.6447 2.24929425,125.320515 C2.38697454,124.625834 2.52465483,123.931152 2.70822854,123.282783 C2.93769569,122.263917 3.16716284,121.291363 3.39662998,120.272497 L3.39662998,120.179873 C3.48841684,119.809376 3.5802037,119.485192 3.67199056,119.161007 C3.85556427,118.466326 4.03913799,117.771644 4.22271171,117.076963 C4.45217885,116.289658 4.681646,115.502352 4.91111314,114.715046 C5.09468686,114.112989 5.27826058,113.46462 5.46183429,112.862563 C5.55362115,112.538378 5.64540801,112.260506 5.73719487,111.936321 C5.87487516,111.519512 5.96666201,111.149016 6.1043423,110.732207 C6.19612916,110.36171 6.33380945,110.037525 6.47148974,109.667029 C6.56327659,109.389156 6.65506345,109.064972 6.74685031,108.787099 C7.38935832,106.934615 8.03186633,105.082132 8.76616119,103.229648 C9.04152177,102.534967 9.31688234,101.793973 9.59224292,101.05298 C10.0511772,99.9878019 10.4642181,98.8763117 10.9231524,97.8111337 C11.0608327,97.440637 11.2444064,97.0701402 11.3820867,96.7459556 C11.8410209,95.6344655 12.3458487,94.5692874 12.8506764,93.5041093 C13.0342501,93.1336126 13.1719304,92.7631159 13.3555041,92.4389313 C14.0439055,90.9569444 14.732307,89.5212696 15.4666018,88.0392827 C15.6501756,87.668786 15.8337493,87.2982893 16.017323,86.9277926 C16.2926836,86.4183596 16.5680441,85.8626145 16.8434047,85.3531815 C16.9351916,85.1216211 17.0728719,84.8900606 17.2105522,84.6585002 C17.3482324,84.3343155 17.5318062,84.056443 17.7153799,83.7322584 C17.8989536,83.4080737 18.0366339,83.0838891 18.2202076,82.8060166 C18.6332485,82.0650231 19.0462893,81.2777176 19.5052236,80.5367242 C19.6887973,80.2125396 19.872371,79.8420428 20.0559448,79.5178582 C21.2491739,77.4338142 22.4882965,75.3960822 23.7733125,73.3583503 C23.9568862,73.0804777 24.14046,72.7562931 24.3240337,72.4784206 C24.8288614,71.691115 25.3336891,70.9501216 25.7926234,70.1628161 C26.0220906,69.8386314 26.2056643,69.5144468 26.4351314,69.1902622 C28.2249752,66.504161 30.1066057,63.9106839 32.0341298,61.3172069 C32.7225312,60.3909651 33.4109326,59.5110354 34.1452275,58.5847936 C34.4205881,58.2142969 34.6959487,57.8901123 34.9713092,57.5659276 C35.2007764,57.2880551 35.3843501,57.0101826 35.6138172,56.7786221 C35.7514975,56.5933737 35.8891778,56.4544375 36.0268581,56.2691891 C37.6331281,54.3240813 39.2393981,52.4252857 40.937455,50.52649 C41.2128156,50.2023054 41.5340696,49.8781207 41.8094302,49.5539361 C42.7272988,48.5350701 43.6910608,47.5162041 44.6548228,46.4973382 C44.9301834,46.2194656 45.1596505,45.9415931 45.4350111,45.7100326 C45.7562651,45.385848 46.0316257,45.0616634 46.3528797,44.7837908 C49.8407803,41.264072 53.5122546,37.9296016 57.3673027,34.7803794 C57.6885567,34.5025069 58.0557041,34.2246344 58.3769581,33.9467618 C58.789999,33.6225772 59.2030398,33.2983926 59.6160807,32.9742079 C59.8914413,32.7426475 60.2126953,32.511087 60.5339493,32.2795266 C60.7634164,32.0942782 60.9928836,31.9090299 61.2223507,31.7700936 L61.2223507,31.7700936 C61.360031,31.6774694 61.4977113,31.5385332 61.6353916,31.445909 C62.0943259,31.1217244 62.5532602,30.7512276 63.0121944,30.427043 C63.287555,30.2417946 63.5629156,30.0102342 63.8382762,29.8249858 C64.2054236,29.5471133 64.572571,29.3155528 64.9397185,29.0376803 L64.9856119,29.0376803 C65.2609725,28.852432 65.5363331,28.6671836 65.8116936,28.4819352 C65.9034805,28.4356231 65.9952673,28.342999 66.0870542,28.2966869 C66.4542016,28.0651264 66.8213491,27.7872539 67.2343899,27.5556934 C67.6015374,27.2778209 68.0145782,27.0462604 68.3817257,26.8147 C68.6570862,26.6294516 68.9324468,26.4442033 69.2078074,26.2589549 C69.4372745,26.0737066 69.7126351,25.9347703 69.9879957,25.7495219 C70.44693,25.4716494 70.9058643,25.1937769 71.3647986,24.9159043 C71.6401591,24.730656 71.9614131,24.5454076 72.2367737,24.3601592 C75.0362729,22.692924 77.9275589,21.118313 80.8647384,19.6363261 C81.0942055,19.5437019 81.3236727,19.4047656 81.5072464,19.3121415 C81.9202873,19.1268931 82.2874347,18.9416447 82.7004756,18.7563964 C85.2705076,17.552282 90.6400388,15.1440534 98.1206677,12.8284489 L100.185872,26.2126428 C101.011954,31.6311573 104.086814,36.5402389 108.676156,39.4115884 C113.311393,42.282938 119.093965,43.2091798 124.188136,41.5419446 C129.557667,39.7820851 133.825756,35.3361245 135.615599,29.8249858 C136.487575,27.0925725 136.625255,24.1749109 136.166321,21.3035613 L133.963436,6.99312556 C141.535852,6.90050138 149.658989,7.50255855 158.057486,9.21610587 C211.661011,19.8215744 229.238195,64.7443016 259.114817,58.8626661 C259.665538,58.770042 260.262153,58.6311057 260.812874,58.4921694 C260.996448,58.4458573 261.180022,58.3995452 261.363595,58.3532332 C261.547169,58.3069211 261.730743,58.260609 261.96021,58.1679848 C262.143784,58.1216727 262.327357,58.0753606 262.510931,57.9827364 L262.556824,57.9827364 L262.602718,57.9827364 L262.878078,57.8901123 C262.969865,57.8438002 263.061652,57.8438002 263.153439,57.7974881 C263.337013,57.751176 263.520586,57.6585518 263.70416,57.6122397 C263.933627,57.5196155 264.163094,57.4269914 264.438455,57.3343672 C264.622029,57.2880551 264.759709,57.1954309 264.943283,57.1028067 C265.126856,57.0101826 265.356324,56.9175584 265.539897,56.8249342 C266.503659,56.4081254 267.467421,55.8986924 268.477077,55.3429473 C268.52297,55.3429473 268.568864,55.2966352 268.568864,55.2966352 C268.752437,55.2040111 268.936011,55.0650748 269.165478,54.9724506 C269.578519,54.7408902 269.99156,54.4630176 270.450494,54.1851451 C270.679961,54.0462088 270.863535,53.9072725 271.047109,53.7683363 C271.276576,53.6294 271.46015,53.4904637 271.689617,53.3515275 C272.102658,53.0736549 272.515699,52.7494703 272.928739,52.4252857 C273.158207,52.2863494 273.34178,52.101101 273.571247,51.9158527 C274.397329,51.2211713 275.269304,50.4801779 276.095386,49.6928724 C276.27896,49.507624 276.462533,49.3223756 276.646107,49.1834394 C276.875574,48.9518789 277.105041,48.7203185 277.380402,48.488758 C277.563976,48.3498218 277.701656,48.1645734 277.839336,47.979325 C277.977017,47.8403888 278.114697,47.7014525 278.252377,47.5625162 C278.481844,47.3309558 278.711311,47.0530832 278.940779,46.8215228 C280.134008,45.5247843 281.327237,44.0891095 282.520466,42.5144984 C282.70404,42.282938 282.887614,42.0050655 283.071187,41.773505 C283.300654,41.4493204 283.576015,41.1251358 283.805482,40.8009511 C284.034949,40.5230786 284.218523,40.198894 284.44799,39.8747093 C284.44799,39.8283972 284.493884,39.7820851 284.539777,39.7820851 C284.723351,39.5042126 284.906924,39.2263401 285.090498,38.9484675 C285.136392,38.9021554 285.182285,38.8095313 285.228178,38.7632192 C285.411752,38.4853466 285.595326,38.2537862 285.733006,37.9759136 C285.91658,37.6980411 286.100154,37.4201686 286.283727,37.142296 C286.329621,37.0959839 286.375514,37.0033598 286.375514,36.9570477 C286.604981,36.632863 286.788555,36.2623663 287.018022,35.9381817 C287.431063,35.2435003 287.889997,34.548819 288.303038,33.8078256 C288.532505,33.3910168 288.807866,32.9742079 289.037333,32.511087 C289.220907,32.1869024 289.40448,31.8627178 289.588054,31.5385332 C289.771628,31.2606606 289.909308,30.936476 290.092882,30.6586035 C290.368242,30.1491705 290.643603,29.6860496 290.87307,29.1766166 C291.056644,28.8061199 291.240218,28.4356231 291.423791,28.0651264 C291.469685,27.9725022 291.515578,27.8798781 291.561472,27.7872539 C291.745045,27.4167572 291.928619,27.0462604 292.112193,26.6757637 C292.754701,25.3790252 293.397209,24.0359746 294.039717,22.6466119 C294.269184,22.183491 294.452758,21.7203701 294.682225,21.2572492 C295.095266,20.2846953 295.508307,19.3121415 295.967241,18.3395876 C296.288495,17.552282 296.655642,16.7649765 296.976896,15.9313589 C297.665298,14.1714995 298.399593,12.365328 299.087994,10.4665323 L297.068683,9.30873005 C294.728118,7.91936736 293.902037,4.86276943 295.278839,2.50085285 C296.196708,0.926241796 297.848871,0 299.592822,0 C300.418903,0 301.290879,0.231560449 302.071067,0.648369257 L302.438214,0.879929706 L305.283607,2.54716494 L305.513074,2.68610121 L333.967,19.2658294 L334.012894,19.2658294 L335.527377,20.1457591 C337.730261,21.3035613 338.556343,24.3601592 337.225434,26.7220758 L337.225434,26.7220758 Z" id="tshirt" fill="#F47729"></path>
                                    <g id="pattern" transform="translate(5.952241, 24.566739)" fill="#FFFFFF">
                                        <path d="M60.0746843,3.69738705 C60.0746843,5.60022641 58.5307833,7.17819076 56.6690204,7.17819076 C56.2603407,7.17819076 55.8970699,7.08536933 55.5337991,6.94613718 C55.6700256,6.85331574 55.8062522,6.7140836 55.9424787,6.62126216 C56.3965673,6.29638715 56.8506558,5.92510142 57.3047443,5.60022641 C57.5771974,5.41458355 57.8496505,5.18252996 58.1221036,4.9968871 C58.4853745,4.7184228 58.8486453,4.48636922 59.2119161,4.20790493 L59.257325,4.20790493 C59.5297781,4.02226206 59.8022312,3.8366192 60.0746843,3.65097633 C60.0746843,3.65097633 60.0746843,3.69738705 60.0746843,3.69738705 L60.0746843,3.69738705 Z" id="Shape"></path>
                                        <ellipse id="Oval" cx="175.038853" cy="3.49627395" rx="3.46702723" ry="3.49627395"></ellipse>
                                        <ellipse id="Oval" cx="291.690513" cy="3.49627395" rx="3.46702723" ry="3.49627395"></ellipse>
                                        <path d="M30.6816569,33.1835251 C30.6816569,35.0695252 29.1939097,36.6335252 27.3004131,36.6335252 C26.9397471,36.6335252 26.5790811,36.5875252 26.2634983,36.4495252 C26.9397471,35.5295252 27.6159959,34.6555252 28.3373279,33.7355251 C28.6078274,33.3675251 28.8783269,33.0455251 29.1488264,32.7235251 C29.3742427,32.4475251 29.5545757,32.1715251 29.7799919,31.9415251 C29.9152417,31.7575251 30.0504914,31.619525 30.1857412,31.435525 C30.5464072,31.8955251 30.6816569,32.4935251 30.6816569,33.1835251 L30.6816569,33.1835251 Z" id="Shape"></path>
                                        <ellipse id="Oval" cx="84.7120548" cy="33.1372513" rx="3.46702723" ry="3.49627395"></ellipse>
                                        <ellipse id="Oval" cx="143.866289" cy="33.1372513" rx="3.46702723" ry="3.49627395"></ellipse>
                                        <ellipse id="Oval" cx="203.143251" cy="33.1372513" rx="3.46702723" ry="3.49627395"></ellipse>
                                        <path d="M263.49407,33.3293701 C263.49407,35.2371263 261.968578,36.8191681 260.027043,36.8191681 C258.177961,36.8191681 256.652469,35.3301876 256.560015,33.468962 L256.560015,33.468962 L256.837378,33.3759007 C256.929832,33.3293701 257.022286,33.3293701 257.11474,33.2828394 C257.299648,33.2363088 257.484556,33.1432475 257.669464,33.0967169 C257.900599,33.0036556 258.131734,32.9105943 258.409097,32.817533 C258.594005,32.7710024 258.732686,32.6779411 258.917594,32.5848798 C259.102502,32.4918185 259.333637,32.3987573 259.518545,32.305696 C260.489313,31.8869202 261.460081,31.3750832 262.477075,30.8167155 C263.078027,31.4681445 263.49407,32.3522266 263.49407,33.3293701 L263.49407,33.3293701 Z" id="Shape"></path>
                                        <path d="M316.757426,31.0023584 C316.454219,31.6151307 316.201547,32.2279031 315.89834,32.796906 L315.89834,32.796906 C315.948874,32.1403642 316.252081,31.5713613 316.706892,31.0898973 C316.706892,31.0461278 316.706892,31.0461278 316.757426,31.0023584 L316.757426,31.0023584 Z" id="Shape"></path>
                                        <ellipse id="Oval" cx="54.828121" cy="64.2014906" rx="3.46702723" ry="3.49627395"></ellipse>
                                        <ellipse id="Oval" cx="114.105082" cy="64.2014906" rx="3.46702723" ry="3.49627395"></ellipse>
                                        <ellipse id="Oval" cx="173.259317" cy="64.2014906" rx="3.46702723" ry="3.49627395"></ellipse>
                                        <ellipse id="Oval" cx="230.634015" cy="64.2014906" rx="3.46702723" ry="3.49627395"></ellipse>
                                        <ellipse id="Oval" cx="289.849613" cy="64.2014906" rx="3.46702723" ry="3.49627395"></ellipse>
                                        <ellipse id="Oval" cx="32.8600546" cy="93.842468" rx="3.46702723" ry="3.49627395"></ellipse>
                                        <ellipse id="Oval" cx="90.2347531" cy="93.842468" rx="3.46702723" ry="3.49627395"></ellipse>
                                        <ellipse id="Oval" cx="149.388988" cy="93.842468" rx="3.46702723" ry="3.49627395"></ellipse>
                                        <ellipse id="Oval" cx="3.46702723" cy="124.349779" rx="3.46702723" ry="3.49627395"></ellipse>
                                        <ellipse id="Oval" cx="60.3508192" cy="124.349779" rx="3.46702723" ry="3.49627395"></ellipse>
                                        <ellipse id="Oval" cx="119.62778" cy="124.349779" rx="3.46702723" ry="3.49627395"></ellipse>
                                        <ellipse id="Oval" cx="178.782015" cy="124.349779" rx="3.46702723" ry="3.49627395"></ellipse>
                                        <ellipse id="Oval" cx="30.9577919" cy="153.990756" rx="3.46702723" ry="3.49627395"></ellipse>
                                        <ellipse id="Oval" cx="88.3938536" cy="153.990756" rx="3.46702723" ry="3.49627395"></ellipse>
                                        <ellipse id="Oval" cx="147.548088" cy="153.990756" rx="3.46702723" ry="3.49627395"></ellipse>
                                        <path d="M203.848929,154.05792 C203.625789,154.101689 203.458435,154.101689 203.235296,154.145458 L203.235296,153.795303 C203.235296,153.270069 203.40265,152.788605 203.681574,152.350911 C203.737359,152.919914 203.793144,153.488917 203.848929,154.05792 L203.848929,154.05792 Z" id="Shape"></path>
                                    </g>
                                    <path d="M119.242692,42.388454 C115.713631,42.388454 112.047075,41.3684655 108.930502,39.3748515 C104.301474,36.5003384 101.184901,31.5858482 100.314094,25.9759112 L98.2516556,12.5769709 C98.2058236,12.4378815 98.3433195,12.2987922 98.4808154,12.2524291 C98.6183112,12.2524291 98.7558071,12.3451553 98.8016391,12.4842446 L100.864077,25.883185 C101.689052,31.3540326 104.759794,36.0830704 109.251325,38.9112204 C113.926185,41.8320967 119.609348,42.6202696 124.513367,40.9975606 C129.784042,39.2821253 134.000582,34.9703556 135.742197,29.4531449 C136.567172,26.9031735 136.7505,23.9822972 136.29218,21.061421 C136.246348,20.9223316 136.383844,20.7832423 136.52134,20.7368792 C136.658836,20.690516 136.796332,20.8296054 136.842164,20.9686947 C137.300483,23.9822972 137.117155,26.9495366 136.246348,29.5922342 C134.41307,35.2948974 130.104866,39.6993933 124.650863,41.5075548 C122.863417,42.1102753 121.07597,42.388454 119.242692,42.388454 L119.242692,42.388454 Z" id="Shape" fill="#000000"></path>
                                </g>
                                <g id="hands" transform="translate(111.313780, 40.043537)">
                                    <g id="hand_l" transform="translate(0.000000, 144.237946)">
                                        <path d="M48.7234372,28.7946534 C48.5399252,27.9145226 48.0811453,27.2660051 47.8517553,26.988069 C47.7141213,26.8027783 47.3929753,26.3858742 46.8883174,26.1542608 C46.0625134,25.7836794 45.3284655,25.9689701 45.0531975,26.0616155 C45.6496115,25.8300021 46.2460254,25.5983887 46.7965614,25.3667753 C49.0904612,24.1623857 50.1456551,21.2440571 49.1363392,18.8816005 C48.4481692,17.3066295 47.0259514,16.380176 45.4202215,16.2875306 L46.1083914,15.9169492 C48.4022912,14.7125596 49.4574851,11.7942309 48.4481692,9.43177439 C47.4847313,7.20828589 45.0073195,6.28183235 42.8510537,7.20828589 C43.6768577,5.81860557 43.9062476,4.10466652 43.2639557,2.57601817 C42.9428097,1.78853266 42.4381518,1.18633786 41.7958598,0.769433765 C40.281886,-0.342310487 38.2173761,0.259884316 37.2539382,0.537820379 C29.3629229,2.71498621 18.9944958,7.76415801 16.929986,8.78325691 C15.8289141,9.29280636 14.9572322,9.70971046 14.4984522,9.94132384 L14.4984522,9.94132384 C14.3149403,8.82957959 14.0855503,7.71783534 13.9020383,6.60609109 C13.6726483,5.17008809 13.3973803,3.7340851 13.1679904,2.34440479 C9.40599469,4.38260258 2.70780729,8.08841676 0.551541477,9.24648368 C4.58880512,21.9852199 8.58019077,34.7239561 12.6174544,47.4626923 C15.0031102,46.5362388 17.709912,45.5171399 20.6461037,44.4517183 C22.9400035,43.6179101 24.0869534,43.201006 27.5278031,41.9966164 C32.3908707,40.2363547 36.7034023,38.7077064 41.7958598,36.4378952 C41.7958598,36.4378952 42.0252498,36.3452498 42.4381518,36.1136364 C44.0438816,35.3261509 48.0352673,33.1026624 48.6775592,30.8328512 C48.9528272,29.9063977 48.8151932,29.0725895 48.8151932,28.8872988 L48.7234372,28.7946534 L48.7234372,28.7946534 Z" id="Shape" fill="#FBB319"></path>
                                        <path d="M24.2384616,15.7796435 C24.1468768,15.7796435 24.055292,15.7330812 24.0094995,15.5933943 C23.9637071,15.4537075 24.0094995,15.2674583 24.1468768,15.220896 L42.6928065,6.88624684 C42.8301837,6.83968455 43.0133534,6.88624684 43.0591458,7.0259337 C43.1049383,7.16562056 43.0591458,7.3518697 42.9217686,7.39843199 L24.3300465,15.7330812 C24.2842541,15.7796435 24.2384616,15.7796435 24.2384616,15.7796435 L24.2384616,15.7796435 Z" id="Shape" fill="#000000"></path>
                                        <path d="M26.9235932,23.9479295 C26.8317835,23.9479295 26.694069,23.9017062 26.6481642,23.7630364 C26.6022594,23.6243667 26.6481642,23.4394736 26.7858787,23.3932503 L45.6986675,15.8588582 C45.8363819,15.8126349 46.0200012,15.8588582 46.0659061,15.9975279 C46.1118109,16.1361977 46.0659061,16.3210908 45.9281916,16.3673141 L27.0154028,23.9017062 C26.969498,23.9479295 26.9235932,23.9479295 26.9235932,23.9479295 L26.9235932,23.9479295 Z" id="Shape" fill="#000000"></path>
                                        <path d="M29.3166575,32.5493822 C29.2248807,32.5493822 29.0872156,32.5026796 29.0413273,32.3625718 C28.9954389,32.222464 29.0413273,32.0356535 29.1789924,31.9889509 L45.6988053,25.4505859 C45.8364704,25.4038833 46.0200239,25.4505859 46.0659122,25.5906937 C46.1118006,25.7308015 46.0659122,25.917612 45.9282471,25.9643146 L29.4084342,32.5026796 C29.4084342,32.5493822 29.3625458,32.5493822 29.3166575,32.5493822 L29.3166575,32.5493822 Z" id="Shape" fill="#000000"></path>
                                    </g>
                                    <g id="hand_r" transform="translate(190.471726, 0.000000)">
                                        <path d="M39.5589125,11.296237 C37.0368698,10.5551427 34.3772611,12.0373314 33.643576,14.5848432 L30.5254141,25.4696662 C28.0492267,17.1786733 25.5730393,8.88768046 23.0509966,0.550369212 C18.2361878,1.33778194 15.3014472,2.12519467 12.8252598,4.0242489 C11.5413108,4.99693521 9.24854467,7.08126303 5.02985504,20.0040955 C3.56248474,24.5432983 1.91169315,30.1015058 0.490178163,36.4934444 L3.33320813,38.1609066 L31.9927844,54.8818475 L32.0386397,54.8818475 C33.0016015,51.4542862 33.9645633,47.9804066 34.927525,44.5528453 C34.927525,44.5065269 34.9733803,44.4602085 34.9733803,44.4138901 L35.5694995,42.3758807 L42.7229298,17.2249917 C43.5483256,14.7237983 42.0809553,12.0373314 39.5589125,11.296237 L39.5589125,11.296237 Z" id="Shape" fill="#FBB319"></path>
                                        <path d="M32.3860549,19.2504785 L32.3860549,19.2504785 C32.2472306,19.2041134 32.0621316,19.2968435 32.0158568,19.4359386 L30.3962403,24.9533773 L28.54525,31.1662914 C28.4989753,31.3053865 28.5915248,31.4444816 28.7303491,31.4908466 L28.8228986,31.4908466 C28.9617229,31.4908466 29.0542724,31.3981166 29.1005471,31.3053865 L32.5711539,19.5750337 C32.6174286,19.4359386 32.5248791,19.2504785 32.3860549,19.2504785 L32.3860549,19.2504785 Z" id="Shape" fill="#000000"></path>
                                    </g>
                                </g>
                            </g>
                            <g id="buttons" transform="translate(120.027370, 0.000000)">
                                <g id="lines" transform="translate(157.212082, 0.000000)" fill="#DBDBD1">
                                    <path d="M36.4620371,66.9551931 C36.3701659,66.9551931 36.2782946,66.9551931 36.1864234,66.9088331 L0.402581854,50.0338112 C0.0350969603,49.8483714 -0.102709875,49.4774918 0.081032572,49.1066122 C0.264775019,48.7357326 0.632259913,48.5966528 0.999744807,48.7820926 L36.7835864,65.6571145 C37.1510713,65.8425543 37.2888781,66.2134339 37.1051356,66.5843135 C36.9673288,66.8161132 36.7376507,66.9551931 36.4620371,66.9551931 L36.4620371,66.9551931 Z" id="Shape"></path>
                                    <path d="M120.369957,55.8785022 C120.278208,55.8785022 120.232334,55.8785022 120.140585,55.8322647 C119.773591,55.6935521 119.590094,55.3236518 119.681843,54.9537516 L137.572808,0.48594109 C137.710431,0.116040849 138.077425,-0.0689092711 138.444419,0.0235657891 C138.811413,0.16227838 138.994911,0.532178621 138.903162,0.902078862 L121.058071,55.3698894 C120.920448,55.6935521 120.645202,55.8785022 120.369957,55.8785022 L120.369957,55.8785022 Z" id="Shape"></path>
                                    <path d="M137.104413,45.0493351 C136.966807,45.0493351 136.8292,45.0029587 136.691594,44.910206 C136.370512,44.6783242 136.324643,44.2145606 136.553987,43.9363025 L157.516055,16.6206273 C157.745399,16.2959928 158.204087,16.2496164 158.479301,16.4814982 C158.754514,16.71338 158.846251,17.1771436 158.616907,17.4554017 L137.65484,44.7710769 C137.517233,44.9565824 137.287889,45.0493351 137.104413,45.0493351 L137.104413,45.0493351 Z" id="Shape"></path>
                                </g>
                                <path d="M311.663543,53.6272168 C296.96953,74.7854966 282.275517,95.9900746 267.535586,117.148354 L256.698751,80.7116669 C244.943541,100.24951 233.23425,119.83365 221.479039,139.417791 C220.147394,134.926865 218.769831,130.435939 217.438186,125.945013 L224.601517,100.805088 C225.336218,98.2586867 223.866816,95.5733908 221.341283,94.8326195 C218.81575,94.0918482 216.15246,95.5733908 215.417759,98.1197921 L214.086114,102.749613 C213.948358,102.703314 213.810601,102.795911 213.764683,102.934805 L212.157525,108.444292 C209.723829,100.342106 207.290133,92.23992 204.856437,84.0914359 C201.963554,74.415111 199.07067,64.7850843 196.177786,55.1550576 C215.234084,59.8774745 234.290382,64.5998914 253.300761,69.3223084 L243.887409,37.5617396 C266.479454,42.8860332 289.071498,48.256625 311.663543,53.6272168 L311.663543,53.6272168 Z" id="remote_button" fill="#40AE4E"></path>
                                <g id="play_button" transform="translate(0.000000, 208.353175)" fill="#000000">
                                    <path d="M32.9838577,55.767945 C32.9838577,55.767945 33.2133255,55.6757709 33.6263677,55.4453355 C33.3968998,55.6757709 33.167432,55.9522933 32.9379641,56.1827286 C26.6964385,63.2801376 20.4549128,70.3775465 14.2133872,77.4749554 C13.3873029,72.9123354 12.6071122,68.3036283 11.7810279,63.7410083 C14.0757065,62.911441 15.2230457,62.4966574 18.6650636,61.2983935 C23.6215692,59.5931719 27.8896713,58.0262115 32.9838577,55.767945 L32.9838577,55.767945 Z" id="Shape"></path>
                                    <path d="M64.4921145,20.2078541 C56.4134779,29.4169195 48.3348412,38.6722615 40.2103032,47.8813268 C40.1185005,47.9738802 40.0266979,48.1127104 39.9348952,48.2052638 L39.9348952,48.1589871 C39.7512898,47.2797296 39.2922763,46.6318556 39.0627696,46.3541954 C38.9250656,46.1690885 38.6037562,45.7525982 38.0988414,45.5212146 C37.2726172,45.1510009 36.5381957,45.3361078 36.2627876,45.4286612 C36.8595051,45.1972776 37.4562226,44.9658941 38.0070387,44.7345105 C40.3021059,43.5313161 41.3578369,40.6158833 40.3480073,38.2557711 C39.6594871,36.682363 38.2365454,35.7568288 36.6299984,35.6642753 L37.3185185,35.2940617 C39.6135858,34.0908672 40.6693167,31.1754344 39.6594871,28.8153222 C38.6955589,26.5940401 36.2168863,25.6685059 34.0595231,26.5940401 C34.8857473,25.2057388 35.115254,23.4935006 34.4726352,21.9663691 C34.1513257,21.179665 33.646411,20.5780678 33.0037921,20.1615774 C31.4890478,19.0509364 29.4234872,19.6525336 28.459559,19.9301939 C20.5645277,22.1051992 10.1908238,27.1493607 8.12526334,28.1674483 C7.02363107,28.6764921 6.15150552,29.0929825 5.69249208,29.324366 C5.23347863,26.779147 4.77446518,24.2802046 4.36135308,21.7349856 C3.07611543,14.5158188 1.79087778,7.3429287 0.551541477,0.12376191 C21.8497654,6.78760818 43.1479893,13.4977312 64.4921145,20.2078541 L64.4921145,20.2078541 Z" id="Shape"></path>
                                </g>
                            </g>
                        </g>
                    </g>
                </g>
            </g>
        </g>
    </g>
</svg>