<?xml version="1.0" encoding="UTF-8"?>
<svg width="568px" height="422px" viewBox="0 0 568 422" version="1.1" xmlns="http://www.w3.org/2000/svg" xmlns:xlink="http://www.w3.org/1999/xlink">
    <!-- Generator: Sketch 54.1 (76490) - https://sketchapp.com -->
    <title>girl</title>
    <desc>Created with Sketch.</desc>
    <g id="Page-1" stroke="none" stroke-width="1" fill="none" fill-rule="evenodd">
        <g id="LP-Copy" transform="translate(-253.000000, -2021.000000)">
            <g id="girl" transform="translate(243.000000, 2021.000000)">
                <g id="5_coming_soon" transform="translate(10.000000, 0.000000)">
                    <g id="background_1_" transform="translate(0.000000, 14.000000)">
                        <g id="background">
                            <g id="window" transform="translate(20.953972, 78.850033)">
                                <path d="M440.243629,249.723017 C426.352787,252.207774 412.404545,254.634746 398.456303,257.119504 L398.456303,257.119504 C372.224424,261.742308 346.049946,266.365112 319.818067,271.045701 C301.392612,274.339449 282.909756,277.575412 264.484301,280.86916 C264.484301,280.63802 264.426901,280.406879 264.426901,280.117954 C205.649124,289.883628 146.986148,300.111582 88.4379726,310.917387 C75.9821353,313.228789 63.583698,315.540191 51.1278607,317.851593 C34.596611,320.971986 18.0653614,324.150164 1.53411181,327.328342 C1.64891215,326.577136 1.7637125,325.82593 1.87851284,325.074725 C2.7969156,319.238434 3.65791818,313.344359 4.57632094,307.508069 C6.58532697,294.448647 8.594333,281.44701 10.603339,268.387589 C16.4007564,230.191669 22.255574,191.99575 28.1103916,153.799831 C30.923,135.539754 33.7356085,117.279678 36.5482169,99.0196016 C38.3850224,87.173666 40.1644278,75.2699453 42.0012333,63.4240097 C44.3546403,48.0531859 46.7080474,32.6823621 49.0614545,17.2537532 C49.8650569,12.0530986 50.6686593,6.79465884 51.4722617,1.53621912 C58.3028822,1.82514438 65.1335027,2.17185469 71.9641232,2.46077995 C83.3293573,2.98084542 94.6371913,3.50091089 106.002425,3.9631913 C113.005246,4.25211656 120.008067,4.59882687 127.010888,4.88775213 C129.995697,5.00332224 132.980506,5.17667739 135.907915,5.29224749 L135.907915,5.29224749 C139.466726,5.46560265 143.082937,5.63895781 146.641747,5.75452791 C151.291161,5.98566812 155.940575,6.15902327 160.532589,6.39016348 C162.656395,6.50573358 164.780202,6.56351864 166.846608,6.67908874 L166.904008,6.67908874 C169.200015,6.79465884 171.553422,6.91022895 173.906829,6.968014 C176.949038,7.0835841 179.991247,7.25693926 183.033457,7.37250936 C186.707068,7.54586452 190.323278,7.71921967 193.996889,7.89257483 C194.341291,7.89257483 194.743092,7.95035988 195.087493,7.95035988 L195.661494,7.95035988 C220.97497,9.10606092 246.288446,10.2039769 271.601922,11.3596779 C281.130351,11.8219584 290.65878,12.2264537 300.187208,12.6309491 C304.20522,12.8043042 308.165832,12.9776594 312.183844,13.1510145 C323.147277,13.67108 334.16811,14.1333604 345.131543,14.6534259 L345.131543,14.6534259 C353.798969,15.0579213 362.408995,15.4624166 371.076421,15.8091269 C374.520431,27.4817074 377.964442,39.2120729 381.408452,50.8846534 L381.408452,50.8846534 C382.212054,53.6583359 383.015657,56.3742333 383.819259,59.1479158 L383.819259,59.1479158 C385.541264,64.926421 387.26327,70.7049262 388.927875,76.4834314 C393.97909,93.7033768 399.087705,110.923322 404.19632,128.085483 L404.19632,128.085483 C405.918326,133.863988 407.640331,139.700278 409.362336,145.478783 C410.912141,150.795008 412.519345,156.053448 414.06915,161.369673 C422.851376,191.013404 431.518802,220.368211 440.243629,249.723017 L440.243629,249.723017 Z" id="Shape" fill="#FFFFFF"></path>
                                <path d="M1.51468114,328.274387 C1.28493383,328.274387 1.05518653,328.21657 0.940312874,328.043118 C0.71056557,327.869666 0.653128743,327.580579 0.71056557,327.291493 L1.05518653,325.036617 C1.97417574,319.197067 2.83572814,313.299699 3.75471736,307.460149 L3.75471736,307.344514 C5.59269579,295.376328 7.43067423,283.465958 9.26865266,271.497771 L9.7855841,268.317818 C9.84302093,267.85528 10.3025155,267.508376 10.7620101,267.566193 C11.2215048,267.62401 11.5661257,268.086549 11.5086889,268.549088 L10.9917574,271.729041 C9.15377901,283.697227 7.31580058,295.723232 5.47782214,307.691418 L5.47782214,307.807053 C4.55883292,313.646603 3.69728053,319.486153 2.77829131,325.325703 L2.60598083,326.366415 C18.6308553,323.24428 34.9429139,320.122144 51.0252253,317.115643 C63.661327,314.745132 76.2399919,312.374622 88.3591623,310.177564 C146.427793,299.481358 205.702598,289.074239 264.460471,279.360928 L264.575345,279.360928 C265.034839,279.30311 265.494334,279.650014 265.551771,280.112553 C265.609208,280.575092 265.264587,281.03763 264.805092,281.095448 L264.690219,281.095448 C205.932345,290.808759 146.714978,301.215878 88.5889096,311.912083 C76.4697392,314.166959 63.9485112,316.479652 51.2549726,318.850163 C34.7131666,321.972298 18.0564871,325.152251 1.62955479,328.332204 C1.57211796,328.274387 1.51468114,328.274387 1.51468114,328.274387 L1.51468114,328.274387 Z" id="Shape" fill="#F6F6F4"></path>
                                <path d="M264.661142,280.996208 C264.259292,280.996208 263.857443,280.707213 263.800036,280.302621 C263.742629,279.84023 264.029664,279.377839 264.48892,279.32004 L439.235877,249.09123 L413.517534,161.872732 C411.967544,156.555236 410.360148,151.23774 408.810159,145.978042 L403.643527,128.580582 C403.643527,128.522783 403.58612,128.407185 403.58612,128.349387 C403.58612,127.886996 403.987969,127.482403 404.447225,127.482403 C404.849074,127.482403 405.193517,127.771398 405.308331,128.17599 L410.417555,145.515652 C411.967544,150.833148 413.574941,156.092845 415.12493,161.410341 L441.130308,249.553621 C441.187716,249.784817 441.187716,250.073811 441.015494,250.247208 C440.90068,250.478403 440.671052,250.594001 440.441424,250.6518 L264.718549,280.996208 C264.718549,280.996208 264.718549,280.996208 264.661142,280.996208 L264.661142,280.996208 Z" id="Shape" fill="#F6F6F4"></path>
                                <path d="M382.145011,50.3394003 C381.74294,50.3394003 381.398309,50.0502502 381.283431,49.6454401 C378.411499,40.1034879 372.725073,22.4075038 370.714721,16.7979925 C362.27124,16.3931824 353.82776,16.0462024 345.384279,15.6413923 L299.146171,13.6173418 C290.013427,13.2125317 280.880683,12.8077216 271.747938,12.4029115 C246.417497,11.2463113 221.087055,10.147541 195.756613,8.99094074 C195.297104,8.99094074 194.895033,8.58613065 194.952472,8.06566053 C194.952472,7.60302042 195.354543,7.19821032 195.87149,7.25604034 C221.201932,8.41264061 246.532374,9.51141086 271.862816,10.6680111 C280.99556,11.0728212 290.128304,11.4776313 299.261049,11.8824414 L345.499156,13.9643219 C354.172392,14.369132 362.788188,14.7739421 371.461423,15.1209222 C371.806055,15.1209222 372.093248,15.3522422 372.208126,15.6992223 C374.046162,20.7304335 379.962342,39.1782077 383.006591,49.24063 C383.006591,49.2984601 383.064029,49.4141201 383.064029,49.4719501 C383.006591,49.9345902 382.60452,50.3394003 382.145011,50.3394003 L382.145011,50.3394003 Z" id="Shape" fill="#F6F6F4"></path>
                                <path d="M28.1906284,154.663922 L28.0757126,154.663922 C27.6160495,154.606123 27.2713021,154.143729 27.32876,153.681335 L35.717612,98.8876736 C37.5562645,87.0388332 39.3374591,75.1321936 41.1761116,63.2833533 L50.6566635,1.43818654 C50.7141213,0.975792773 51.1163266,0.686796667 51.5185318,0.686796667 L72.0309986,1.61158421 C83.4076609,2.1317772 94.7268653,2.65197019 106.103528,3.11436396 C106.563191,3.11436396 106.965396,3.51895851 106.907938,4.0391515 C106.907938,4.50154527 106.505733,4.90613982 105.988612,4.8483406 C94.6119495,4.32814761 83.2927451,3.80795461 71.9160829,3.34556084 L52.1505686,2.47857253 L42.7849325,63.5723494 C40.94628,75.4211897 39.1076275,87.3278293 37.3264329,99.1766697 L28.9375809,153.970331 C28.9950388,154.374926 28.6502915,154.663922 28.1906284,154.663922 L28.1906284,154.663922 Z" id="Shape" fill="#F6F6F4"></path>
                            </g>
                            <g id="pattern_1_" transform="translate(23.485849, 81.467336)" fill="#40AE4E">
                                <path d="M358.044069,46.1071058 C352.588601,53.4472907 347.133134,60.8452723 341.735092,68.1854572 C336.164773,63.9662958 326.746914,55.7591599 319.453815,42.4659117 C312.620124,30.0396144 310.610215,18.4802681 309.921104,11.6602537 C315.376571,11.8914407 320.774612,12.1226276 326.23008,12.4116112 C331.800399,12.6427982 337.370718,12.9317818 342.941038,13.1629688 C342.998464,13.6253426 343.113316,14.0877165 343.170742,14.5500903 C343.974705,18.7692517 345.352929,24.086551 347.879671,29.8084275 C351.095526,36.9174254 354.943066,42.3503182 358.044069,46.1071058 L358.044069,46.1071058 Z" id="Shape"></path>
                                <path d="M251.926844,35.3287052 C254.855148,58.3257284 244.577376,80.1671224 225.514694,87.6209314 C206.452012,95.0747404 184.173937,85.9452689 170.967862,66.9351668 C164.020318,69.6508957 157.072774,72.3666245 150.12523,75.0823534 C163.159052,108.942292 201.628923,125.987824 235.275706,112.871432 C268.922489,99.7550391 285.860716,61.0414573 272.826894,27.1815186 C265.821932,29.8972475 258.874388,32.6129764 251.926844,35.3287052 L251.926844,35.3287052 Z" id="Shape"></path>
                                <path d="M85.1788618,229.575724 C79.9560798,220.733942 74.790691,211.892161 69.567909,203.050379 C74.9628706,197.733752 79.4395409,191.839231 82.9979198,185.655762 C94.304382,165.83399 95.968785,142.660432 85.0640753,124.167816 C77.832531,111.858669 67.2721806,105.906358 63.4268356,103.825939 C51.431655,97.2957343 40.2399792,96.6022612 34.8450176,96.6022612 C35.1893769,94.4640525 37.2555324,80.7101698 37.5998916,78.5719611 C38.9773286,69.7879688 40.2399792,61.5240813 40.2973724,61.0039765 C66.3538893,64.5291313 85.9823667,73.0819659 95.4522461,80.6523804 C101.593319,85.5644813 106.701315,91.3434237 106.701315,91.3434237 C110.431874,95.5620516 113.818073,100.185205 116.745127,105.212885 C141.998139,148.034848 127.764623,204.206167 85.1788618,229.575724 L85.1788618,229.575724 Z" id="Shape"></path>
                                <path d="M413.151387,226.715133 C411.944993,230.355447 410.221574,234.746937 407.578997,239.42734 C406.142814,242.027565 403.557684,246.13014 399.708714,250.637196 C398.789556,251.735068 397.927847,252.60181 397.353373,253.23742 C387.012855,255.028685 376.729784,256.819951 366.389266,258.553434 C349.384859,261.500355 332.380451,264.447275 315.376044,267.336413 C314.973913,267.163065 314.629229,266.931934 314.227097,266.700803 C313.652624,266.411889 313.135598,266.065193 312.618572,265.776279 C312.101546,265.487365 311.58452,265.198451 311.010047,264.851755 C305.322762,261.327006 293.086483,252.659592 284.928963,236.48042 C283.26299,233.12902 274.358655,214.811885 278.437415,192.10326 C279.011888,189.098557 279.758704,186.093853 280.735308,183.08915 C288.260907,185.573808 295.729059,188.000684 303.254659,190.485343 C303.024869,193.201133 303.024869,195.974705 303.197211,198.632712 C304.346158,219.838985 315.950517,238.213902 334.218766,244.223309 C354.784907,250.983892 377.821284,240.005168 390.746931,219.203374 C398.157636,221.745816 405.683235,224.230475 413.151387,226.715133 L413.151387,226.715133 Z" id="Shape"></path>
                                <path d="M410.848853,158.99644 C407.978913,158.823078 397.704529,158.071843 389.266906,152.235324 C385.306389,149.51932 382.321652,146.05208 382.092057,145.820931 C380.312694,143.740588 378.762927,141.486882 377.385356,138.94424 C381.173676,136.921684 384.961997,134.84134 388.750317,132.818784 C390.300085,134.610191 392.653435,136.863897 395.982565,138.94424 C399.885683,141.371307 403.616605,142.469267 406.084753,142.989352 C406.543943,144.54961 408.036312,149.634894 408.495502,151.137364 C408.954693,152.582047 410.447061,157.551757 410.848853,158.99644 L410.848853,158.99644 Z" id="Shape"></path>
                                <path d="M68.8457727,0.865293807 C67.5218155,2.59588142 65.6797881,4.73027281 63.1470005,6.80697795 C61.8230433,7.90301677 59.6931992,9.51823188 56.8725948,11.0180745 C54.6851873,12.1717996 51.5192028,13.6139559 47.4322046,14.5946222 C48.1805282,9.7489769 48.9288518,4.90333157 49.6771754,0 C56.0091445,0.288431269 62.3986769,0.576862538 68.8457727,0.865293807 L68.8457727,0.865293807 Z" id="Shape"></path>
                                <path d="M8.92256341,318.891464 C6.62999841,320.161596 4.16549103,321.027594 4.16549103,321.027594 C2.61800966,321.604927 1.24247066,322.009059 0.15350228,322.239992 C0.61201528,319.237864 1.12784241,316.004803 1.58635541,313.002675 C1.98755428,310.404679 2.50338141,307.229351 2.90458028,304.573622 C4.96788878,303.014825 9.83958941,298.915765 12.5333533,291.699111 C15.7429443,283.096859 13.794264,275.649271 13.0491804,273.282209 C13.5650075,272.993543 14.0235205,272.76261 14.5393477,272.473944 C17.8062528,270.684213 21.130472,268.894483 24.3973772,267.104753 C26.4033715,270.857413 27.7215964,274.783273 28.3520518,278.824599 C30.9311874,294.528039 23.5376653,310.982011 8.92256341,318.891464 L8.92256341,318.891464 Z" id="Shape"></path>
                            </g>
                            <path d="M19.1000306,71.2742662 C18.0088733,71.2742662 16.9177161,71.2164873 15.8265588,71.0431506 C5.3744208,69.3675631 0.378069111,60.180721 0.205781122,59.7762688 C-0.253653516,58.9095856 0.0909224625,57.8695657 0.894933079,57.4073347 C1.75637302,56.9451036 2.79010096,57.2917769 3.2495356,58.1006812 C3.30696493,58.1584601 7.72902332,66.1897246 16.4008521,67.5764178 C23.4646597,68.6742165 31.5047658,65.3230414 40.2340239,57.4651135 C34.0890857,50.6472056 31.2176192,40.709238 33.285075,31.926848 C33.629651,30.5979338 36.6734055,18.811042 46.3215329,15.5754246 C48.6187061,14.8242992 50.5713033,14.882078 52.1218952,15.1131936 C55.5102256,15.5754246 59.932284,18.4065898 61.6551639,23.7222469 C63.6651905,29.9623661 62.4017452,40.8247957 45.2303756,57.5228924 C45.6898103,57.8695657 46.1492449,58.2740179 46.6086795,58.5629123 C58.8985561,67.1719656 75.5530617,59.4295955 78.7691042,57.754008 C82.8465866,55.6739682 87.440933,52.6116875 91.97785,48.9138391 C88.7618076,43.4826243 86.8666397,35.1624654 89.2786715,24.7044879 C91.4035567,15.5754246 97.8356417,4.19298501 105.64603,1.01514654 C109.034361,-0.37154661 112.422691,-0.082652204 115.409017,1.88182976 C117.304184,3.09518627 119.543928,5.81079369 119.199352,11.6464607 C118.625059,22.3355537 110.297806,37.6469573 96.6870551,49.6071857 C96.9167724,49.8960801 97.1464897,50.1271956 97.4336363,50.41609 C103.291428,56.1939782 113.341561,57.2917769 127.239458,53.7094863 C153.312374,47.007136 169.679733,28.8067884 175.537525,21.2955339 C176.111818,20.5444084 177.202975,20.4288506 177.949557,21.0066395 C178.696138,21.5844283 178.810997,22.682227 178.236703,23.4333525 C172.149194,31.2335014 155.150113,50.1271956 128.100898,57.0606614 C112.939555,60.9318464 101.798265,59.5451533 95.0216045,52.842803 C94.6770285,52.4961298 94.3898819,52.1494565 94.0453059,51.8027832 C89.8529648,55.2117372 85.2586184,58.216239 80.3196961,60.7585098 C76.816507,62.5496551 58.4965508,71.0431506 44.598653,61.2785197 C43.909501,60.8162887 43.2777784,60.2962787 42.6460558,59.7762688 C34.318803,67.46086 26.3935555,71.2742662 19.1000306,71.2742662 L19.1000306,71.2742662 Z M50.0847695,18.5328536 C49.1649705,18.5328536 48.3026589,18.6484411 47.4403473,18.9952036 C39.3921058,21.71151 36.7476836,32.4611479 36.6327087,32.9234979 C34.8505981,40.4366856 37.4375329,49.2791297 42.7838647,55.2896799 C59.6276845,38.9340481 59.8001468,29.2824915 58.4204482,24.9479601 C57.0982371,20.7868099 53.6489908,18.9374099 51.6944178,18.6484411 C51.1195435,18.5906474 50.6021565,18.5328536 50.0847695,18.5328536 L50.0847695,18.5328536 Z M109.748368,3.70657072 C108.82979,3.70657072 107.853801,3.88031622 106.877812,4.2857224 C100.447769,6.89190494 94.534425,17.2008048 92.5824475,25.598504 C91.1471699,31.8533421 91.0323477,40.4247869 94.534425,46.7954554 C105.327713,37.1236224 115.0876,23.9189642 115.719122,11.5830335 C115.833945,9.2664268 115.546889,6.19692293 113.480089,4.86487407 C112.274456,4.11197689 111.011412,3.70657072 109.748368,3.70657072 L109.748368,3.70657072 Z" id="Shape" fill="#DBDBD1"></path>
                        </g>
                    </g>
                    <g id="general_1_" transform="translate(23.000000, 0.000000)">
                        <g id="general">
                            <g id="man" transform="translate(0.000000, 54.313537)">
                                <g id="head" transform="translate(91.277929, 0.000000)">
                                    <path d="M91.1554228,95.8965028 C87.0266308,99.5386504 81.9803295,101.851125 76.5326179,103.065174 L76.5326179,103.23861 L79.2851459,121.102477 C79.8585892,124.629001 79.6865562,128.271148 78.5970139,131.73986 C76.4179292,138.619472 71.0849062,144.169411 64.3182749,146.366262 C57.8957096,148.44749 50.727668,147.349064 44.9358904,143.706917 C39.1441128,140.122581 35.3593868,133.994523 34.3271888,127.230535 L31.7466938,110.522905 L28.9941658,92.7168502 C31.9760711,89.8262568 33.9257784,85.8950499 34.2125001,81.4435362 C34.3271888,79.2466853 34.0978114,77.0498343 33.4670238,75.0842309 C33.5817125,60.8046998 33.6964011,46.5251688 33.8110898,32.2456377 C42.8714944,27.8519359 52.447998,23.5160459 62.597945,19.2379677 C69.6512979,16.2895625 76.5326179,13.5145929 83.2419048,10.9708708 C105.54885,32.0143903 110.996562,78.2638835 91.1554228,95.8965028 L91.1554228,95.8965028 Z" id="face" fill="#FBB319"></path>
                                    <g id="brows" transform="translate(41.190124, 19.941180)" fill="#000000">
                                        <ellipse id="Oval" transform="translate(47.998095, 7.140502) rotate(-18.650557) translate(-47.998095, -7.140502) " cx="47.9980953" cy="7.14050192" rx="9.66342139" ry="3.39987637"></ellipse>
                                        <ellipse id="Oval" transform="translate(10.334648, 21.595035) rotate(-21.623724) translate(-10.334648, -21.595035) " cx="10.3346481" cy="21.5950347" rx="9.66299512" ry="3.4000247"></ellipse>
                                    </g>
                                    <path d="M73.4037036,82.8223487 C66.9091314,82.8223487 61.0467743,77.3467123 60.9893002,77.2890741 C60.874352,77.1737975 60.874352,76.9432444 60.9893002,76.8279678 C61.1042483,76.7126913 61.3341447,76.655053 61.4490929,76.8279678 C61.5640411,76.9432444 72.4841181,87.1452195 80.760387,79.0182224 C80.8753352,78.9029458 81.1052316,78.9029458 81.2201798,79.0182224 C81.3351279,79.1334989 81.3351279,79.3640521 81.2201798,79.4793286 C78.7487939,81.9577745 76.0475117,82.8223487 73.4037036,82.8223487 L73.4037036,82.8223487 Z" id="Shape" fill="#000000"></path>
                                    <path d="M83.780034,63.2180985 L76.2352669,49.3703447 L73.7011467,44.6771728 L69.6695918,37.2608026 C69.5544045,37.0869814 69.3816236,37.029041 69.2088426,37.1449218 C69.0360617,37.2608026 68.9784681,37.4346237 69.0936554,37.6084449 L83.0313166,63.2180985 L70.3031218,67.6795088 C70.1303409,67.7374491 70.0151536,67.9692107 70.0727473,68.1430319 C70.1303409,68.2589127 70.2455282,68.3747935 70.4183091,68.3747935 L70.5334964,68.3747935 L83.607253,63.7975024 C83.7224403,63.7975024 83.780034,63.6816217 83.8376276,63.5657409 C83.8376276,63.3919197 83.8376276,63.2760389 83.780034,63.2180985 L83.780034,63.2180985 Z" id="Shape" fill="#000000"></path>
                                    <path d="M69.3146951,104.146013 C64.1661953,104.146013 57.5875566,103.223018 50.8945068,99.9348469 C50.7228902,99.8771597 50.6656846,99.6464109 50.7228902,99.4733492 C50.7800957,99.3002876 51.0089179,99.2426004 51.1805346,99.3002876 C61.5919454,104.434449 71.5457117,103.742203 76.5225949,102.819207 C76.6942116,102.76152 76.8658282,102.934582 76.9230338,103.107643 C76.9802393,103.280705 76.8086227,103.453767 76.637006,103.511454 C74.8064283,103.857577 72.2893839,104.146013 69.3146951,104.146013 L69.3146951,104.146013 Z" id="Shape" fill="#000000"></path>
                                    <path d="M83.2239945,10.8888357 C76.5191409,13.4332294 69.6423679,16.2089317 62.5936757,19.1581154 C52.4504357,23.437323 42.88026,27.7743578 33.8258423,32.1692198 C33.7112295,46.4525211 33.5966166,60.7358224 33.4820037,75.0191237 C31.4189718,68.4846579 25.5737148,63.5693518 18.3531033,63.1067347 C17.3215873,63.0489076 16.3473778,63.0489076 15.3731683,63.1645619 C15.0293297,62.0658464 14.7427975,60.9671309 14.4562653,59.8684154 C14.3989588,59.5214526 14.284346,59.232317 14.2270395,58.8853542 C14.2270395,58.8275271 14.2270395,58.8275271 14.1697331,58.7696999 C14.0551202,58.1336015 13.8832009,57.5553302 13.768588,56.9192317 C13.7112816,56.572269 13.6539751,56.2831333 13.5966687,55.9361705 C13.5393622,55.5892077 13.4820558,55.3000721 13.4247494,54.9531093 C13.25283,53.912221 13.0809107,52.8713326 12.9662978,51.8304442 C12.9089914,51.2521729 12.8516849,50.6739016 12.7943785,50.0956303 C12.7370721,49.7486675 12.7370721,49.4017048 12.7370721,49.054742 C12.7370721,48.7656063 12.6797656,48.4764707 12.6797656,48.2451621 L12.6797656,47.7825451 C12.6797656,47.4934094 12.6797656,47.2042738 12.6224592,46.9151381 C12.5651527,45.8742498 12.5651527,44.8911886 12.6224592,43.9081273 L12.6224592,42.9828932 C12.6224592,42.4046219 12.6797656,41.8263506 12.6797656,41.3059064 L12.6797656,41.0745979 C12.6797656,40.9011165 12.6797656,40.7854623 12.7370721,40.6119809 C12.7370721,40.3228452 12.7943785,40.0337096 12.7943785,39.7445739 C12.7943785,39.5132654 12.8516849,39.339784 12.8516849,39.1084755 L12.8516849,38.9928212 C13.4820558,33.3835895 15.6597005,23.3794959 23.1668443,14.127155 C34.1123745,1.86780327 53.539258,-3.27881137 68.9546907,2.15693892 C73.1953673,3.66044432 77.0922053,5.97352955 80.6452046,8.86488609 C81.6194141,9.4431574 82.4217043,10.137083 83.2239945,10.8888357 L83.2239945,10.8888357 Z" id="hair" fill="#000000"></path>
                                    <g id="glasses" transform="translate(28.687349, 34.148767)">
                                        <path d="M40.3363977,12.5160639 C43.6097362,20.1024356 40.1641167,29.078677 32.6411809,32.4375286 C25.118245,35.738469 16.2170614,32.2637949 12.8862959,24.6774232 C22.0171875,20.5657255 31.2055061,16.5698503 40.3363977,12.5160639 L40.3363977,12.5160639 Z" id="Shape" fill="#DBDBD1"></path>
                                        <path d="M64.1260609,19.5097954 C58.1426999,21.7743253 51.5840157,19.9162495 47.5567535,15.329125 L45.0253316,10.6258707 C54.345567,7.08391382 63.6082701,3.54195691 72.9285055,0 C75.8051214,7.78069223 71.8353915,16.6065521 64.1260609,19.5097954 L64.1260609,19.5097954 Z" id="Shape" fill="#DBDBD1"></path>
                                        <path d="M38.9024378,14.2157763 C38.7873441,14.2157763 38.6147036,14.1578414 38.5571567,13.9840368 C37.9241415,12.3618609 37.9816883,10.5658804 38.7297972,8.94370445 C39.4203593,7.49533307 40.6863898,6.39457082 42.1250608,5.93109198 C44.8873091,5.12000401 47.9372916,6.6842451 49.1457752,9.46511815 C49.203322,9.63892271 49.1457752,9.87066213 48.9731347,9.92859699 C48.8004941,9.98653184 48.5703068,9.92859699 48.51276,9.75479242 C47.4769168,7.26359365 44.7146685,5.87315713 42.3552481,6.62631024 C41.0892177,7.03185423 39.9958277,7.95881191 39.3628125,9.29131358 C38.6722504,10.6817501 38.6147036,12.303926 39.190172,13.7522974 C39.2477188,13.926102 39.190172,14.1578414 39.0175314,14.2157763 C39.0175314,14.2157763 38.9599846,14.2157763 38.9024378,14.2157763 L38.9024378,14.2157763 Z" id="Shape" fill="#000000"></path>
                                        <path d="M31.6874712,33.2216511 C31.5721295,33.2216511 31.5144587,33.1635748 31.4567879,33.1054986 C30.6493964,32.2343548 26.7854516,27.704407 28.8039302,24.4521368 C30.3610424,21.9548579 29.207626,18.9348927 28.6885886,17.7152914 C28.6309178,17.5410626 28.6885886,17.3087576 28.8616011,17.2506814 C29.0346135,17.1926051 29.2652968,17.2506814 29.3229676,17.4249101 C29.9573466,18.7025877 31.1684338,22.0129341 29.4383093,24.8005943 C27.6505139,27.6463307 31.2261046,31.827821 31.9758253,32.6408885 C32.0911669,32.757041 32.0911669,32.989346 31.9758253,33.1054986 C31.8604836,33.2216511 31.745142,33.2216511 31.6874712,33.2216511 L31.6874712,33.2216511 Z" id="Shape" fill="#FFFFFF"></path>
                                        <path d="M62.6932896,20.2420293 C62.5814591,20.2420293 62.4696285,20.1840932 62.4137133,20.1261572 C61.2394925,18.5618842 58.7792205,14.6222338 60.6803398,11.841304 C62.5814591,9.06037432 61.0158314,5.35246803 60.6803398,4.6572356 C60.6244245,4.48342749 60.6803398,4.25168335 60.8480856,4.19374731 C61.0158314,4.13581127 61.2394925,4.19374731 61.2954078,4.36755542 C61.6308994,5.12072388 63.3642729,9.1762464 61.2394925,12.2468563 C59.6179496,14.6222338 61.9104758,18.272204 62.972866,19.7206049 C63.0846966,19.894413 63.0846966,20.0682211 62.9169507,20.1840932 C62.8610355,20.2420293 62.7492049,20.2420293 62.6932896,20.2420293 L62.6932896,20.2420293 Z" id="Shape" fill="#FFFFFF"></path>
                                        <path d="M17.423875,26.0044332 L0.745925304,34.2260266 C0.573987678,34.051099 0.402050053,33.8761715 0.230112427,33.701244 L17.1373123,25.3630323 C17.3092499,25.3047232 17.5385001,25.3630323 17.5958126,25.5379598 C17.7104377,25.7128874 17.5958126,25.8878149 17.423875,26.0044332 L17.423875,26.0044332 Z" id="Shape" fill="#000000"></path>
                                    </g>
                                    <g id="eyes" transform="translate(60.212752, 39.247904)" fill="#000000">
                                        <ellipse id="Oval" cx="2.83805327" cy="15.60645" rx="2.83805327" ry="2.85860718"></ellipse>
                                        <ellipse id="Oval" cx="34.9770889" cy="2.85860718" rx="2.83805327" ry="2.85860718"></ellipse>
                                    </g>
                                    <g id="ear" transform="translate(0.000000, 63.043877)">
                                        <path d="M33.588186,11.9536928 C32.7839324,9.35074904 31.3477652,7.03702121 29.4520245,5.12819576 C29.2796844,4.95466617 29.1073443,4.78113659 28.9350043,4.607607 C26.1775632,2.0046632 22.5009751,0.327210527 18.4222602,0.0379945488 C17.3882198,-0.0198486468 16.4116261,-0.0198486468 15.4350324,0.0958377444 C7.33504929,0.963485678 0.843573467,7.61545317 0.26910658,16.0605597 C-0.362806996,25.5468438 6.76058241,33.7027344 16.1818394,34.3390095 C21.1222546,34.6860687 25.7754364,32.8350864 29.1073443,29.6537107 C32.0945721,26.7615509 34.0477596,22.8282136 34.334993,18.3742875 C34.4498864,16.0605597 34.2200996,13.9203615 33.588186,11.9536928 L33.588186,11.9536928 Z" id="Shape" fill="#FBB319"></path>
                                        <path d="M27.1690766,24.7230892 C27.1115668,24.7230892 26.9965472,24.7230892 26.9390374,24.6651513 C26.1914101,24.1437108 24.9261947,22.9270163 24.4661164,20.9571298 C23.7184891,17.9443624 25.4437828,15.5689111 26.1914101,14.6419058 L9.4560608,5.66154122 C9.28353143,5.54566555 9.22602164,5.37185205 9.34104122,5.19803854 C9.4560608,5.02422503 9.62859018,4.9662872 9.80111955,5.08216287 L26.9390374,14.2942787 C27.054057,14.3522166 27.1115668,14.4680922 27.1115668,14.5260301 C27.1115668,14.6419058 27.1115668,14.7577814 26.9965472,14.8157193 C26.8815276,14.9315949 24.3510968,17.4808597 25.1562339,20.7833163 C25.5588024,22.5214514 26.7089982,23.6222703 27.3991157,24.085773 C27.5716451,24.2016486 27.5716451,24.4334 27.4566255,24.5492757 C27.3991157,24.6651513 27.2840962,24.7230892 27.1690766,24.7230892 L27.1690766,24.7230892 Z" id="Shape" fill="#000000"></path>
                                    </g>
                                </g>
                                <g id="tshirt_1_" transform="translate(0.000000, 94.797595)">
                                    <path d="M421.531792,33.3630651 C420.040256,35.9072156 417.057183,37.0058261 414.360944,36.1963236 L414.360944,36.1963236 C410.918937,49.1483628 407.017995,60.2501106 403.289154,69.4437455 L403.289154,69.4437455 C403.00232,70.1954263 402.658119,70.9471072 402.371285,71.698788 L402.371285,71.698788 C402.313919,71.8144312 402.256552,71.9300744 402.199185,72.0457177 L402.199185,72.0457177 C401.453417,73.7803658 400.765015,75.3993706 400.076614,77.0183755 C399.96188,77.3074835 399.78978,77.6544132 399.675046,77.9435212 C399.388212,78.5795588 399.101379,79.1577749 398.871911,79.7359909 C398.699811,80.1407421 398.470344,80.6033149 398.298244,81.0080662 C398.068776,81.5284606 397.839309,82.048855 397.609842,82.5692494 C397.380375,83.0318223 397.208275,83.4365735 396.978807,83.8991463 C395.200437,87.7731937 393.479433,91.3581331 391.643696,94.8274293 C390.955295,96.0995046 390.266893,97.3715799 389.578492,98.6436552 C389.234291,99.2218712 388.890091,99.8000872 388.54589,100.378303 C388.201689,100.956519 387.857488,101.534735 387.513288,102.112951 C387.226454,102.575524 386.93962,102.980275 386.710153,103.442848 C386.251218,104.136707 385.849651,104.772745 385.390717,105.466604 L385.390717,105.466604 C384.931782,106.160464 384.472848,106.796501 383.956547,107.49036 C382.923945,108.878079 381.891343,110.323619 380.744007,111.711337 C380.227706,112.347375 379.711405,112.925591 379.195104,113.561629 C378.850903,113.96638 378.506702,114.428953 378.105135,114.833704 C371.106387,122.870907 360.091964,135.533838 341.505125,142.125501 C317.697909,150.567455 296.013263,143.91797 284.138339,140.333031 C273.009182,136.921557 264.346797,132.411471 258.724852,129.057818 C258.552752,140.275209 258.610119,151.83953 258.896952,163.866424 C258.954319,166.815325 259.069053,169.764227 259.183786,172.713129 C259.241153,174.216491 259.29852,175.719852 259.355887,177.223214 C259.929555,192.372474 260.90479,206.943518 262.166859,220.820703 L262.166859,220.820703 C262.224226,221.572384 262.281593,222.324065 262.33896,223.075745 C262.109493,223.133567 261.937392,223.133567 261.707925,223.191389 C258.265918,223.769605 254.823911,224.347821 251.381903,224.926037 C247.710429,225.504253 244.096322,226.14029 240.424847,226.776328 C237.097574,227.354544 233.7703,227.874938 230.443026,228.453154 C222.469043,229.783051 214.49506,231.17077 206.521076,232.500667 L206.521076,232.500667 C201.530166,233.367991 196.481889,234.235315 191.490978,235.102639 C178.06715,237.415503 164.643322,239.786189 151.276861,242.156874 C148.523255,242.619447 145.76965,243.139842 142.958677,243.660236 C141.753975,243.891523 140.549272,244.122809 139.287203,244.296274 C133.779991,245.279241 128.215413,246.262208 122.708201,247.302997 C117.430457,248.285964 112.095346,249.21111 106.817602,250.194077 C103.719795,250.772293 100.621989,251.350509 97.4668154,251.928725 C93.7953411,252.622585 90.1238668,253.258622 86.4523924,253.952481 L86.4523924,222.1506 C38.1495583,233.425812 19.0464184,224.463464 10.4987672,214.691613 C9.92509933,214.055575 9.40879826,213.361716 8.89249718,212.667857 C8.77776361,212.552214 8.66303003,212.378749 8.54829646,212.205284 C8.3761961,211.973998 8.20409574,211.68489 8.03199538,211.453603 C7.74516145,210.99103 7.45832752,210.528457 7.17149359,210.065885 C6.99939323,209.718955 6.76992608,209.429847 6.59782572,209.082917 C6.31099179,208.562523 6.02415786,208.042129 5.73732393,207.521734 C5.62259035,207.232626 5.45048999,207.00134 5.33575642,206.712232 C5.33575642,206.65441 5.27838963,206.65441 5.27838963,206.596588 C5.16365606,206.30748 5.04892249,206.076194 4.93418891,205.787086 C4.81945534,205.497978 4.64735498,205.20887 4.53262141,204.919762 C4.30315426,204.341546 4.07368712,203.76333 3.84421997,203.185114 C3.7294864,202.838184 3.61475283,202.491255 3.50001925,202.144325 C3.15581854,201.219179 2.8689846,200.236212 2.63951746,199.253245 C2.52478388,198.906315 2.4674171,198.617207 2.35268353,198.270278 C2.29531674,197.98117 2.23794995,197.692062 2.12321638,197.402954 C2.12321638,197.28731 2.06584959,197.229489 2.06584959,197.113845 C2.00848281,196.824737 1.95111602,196.535629 1.83638245,196.246521 C1.77901566,195.899592 1.72164887,195.552662 1.6069153,195.205733 C1.54954852,194.800981 1.43481494,194.454052 1.37744816,194.049301 C1.26271458,193.528906 1.2053478,193.008512 1.09061422,192.488117 C0.918513864,191.447328 0.803780291,190.348718 0.689046719,189.250107 C0.631679932,188.671891 0.574313146,188.151497 0.516946359,187.573281 C0.459579573,187.226351 0.459579573,186.8216 0.402212786,186.416849 C0.344846,185.665168 0.287479213,184.855666 0.287479213,184.103985 C0.287479213,183.699234 0.230112427,183.352304 0.230112427,182.947553 L0.230112427,181.733299 L0.230112427,180.461224 L0.230112427,178.842219 C0.230112427,178.379646 0.230112427,177.917073 0.287479213,177.4545 L0.287479213,176.934106 C0.287479213,176.644998 0.287479213,176.413712 0.344846,176.124604 C0.344846,175.777674 0.344846,175.430744 0.402212786,175.025993 L0.402212786,174.91035 C0.402212786,174.447777 0.459579573,173.927383 0.516946359,173.406988 L0.516946359,173.060059 C0.574313146,172.597486 0.574313146,172.134913 0.631679932,171.614518 C0.746413505,169.937692 0.975880651,168.203044 1.2053478,166.468396 C1.26271458,166.063645 1.32008137,165.601072 1.37744816,165.19632 C1.49218173,164.386818 1.6069153,163.635137 1.72164887,162.825635 C1.72164887,162.767813 1.72164887,162.65217 1.77901566,162.594348 C1.83638245,162.247419 1.89374923,161.842668 1.95111602,161.495738 C2.06584959,160.801879 2.18058317,160.108019 2.29531674,159.41416 C2.35268353,159.182874 2.41005031,158.893766 2.41005031,158.662479 C2.4674171,158.373371 2.52478388,158.026442 2.58215067,157.737334 C2.63951746,157.332582 2.75425103,156.87001 2.81161782,156.465258 C2.98371818,155.597934 3.15581854,154.73061 3.38528568,153.921108 C3.67211961,152.649033 3.95895355,151.434779 4.24578748,150.162704 L4.24578748,150.04706 C4.36052105,149.584488 4.47525462,149.179736 4.5899882,148.774985 C4.81945534,147.907661 5.04892249,147.040337 5.27838963,146.173013 C5.56522357,145.190046 5.8520575,144.207079 6.13889143,143.224111 C6.36835858,142.47243 6.59782572,141.662928 6.82729287,140.911247 C6.94202644,140.506496 7.05676001,140.159566 7.17149359,139.754815 C7.34359395,139.234421 7.45832752,138.771848 7.63042788,138.251453 C7.74516145,137.788881 7.91726181,137.384129 8.08936217,136.921557 C8.20409574,136.574627 8.31882931,136.169876 8.43356289,135.822946 C9.2366979,133.510082 10.0398329,131.197218 10.9577015,128.884354 C11.3019022,128.01703 11.6461029,127.091884 11.9903036,126.166738 C12.5639715,124.836841 13.0802726,123.449123 13.6539405,122.119226 C13.8260408,121.656653 14.055508,121.19408 14.2276083,120.789329 C14.8012762,119.401611 15.4323108,118.071714 16.0633455,116.741817 C16.2928126,116.279244 16.464913,115.816671 16.6943801,115.41192 C17.5548819,113.561629 18.4153837,111.769159 19.3332523,109.918868 C19.5627195,109.456295 19.7921866,108.993722 20.0216537,108.531149 C20.3658545,107.895112 20.7100552,107.201252 21.0542559,106.565215 C21.1689895,106.276107 21.3410898,105.986999 21.5131902,105.697891 C21.6852906,105.29314 21.9147577,104.94621 22.1442248,104.541459 C22.373692,104.136707 22.5457924,103.731956 22.7752595,103.385027 C23.2915606,102.459881 23.8078617,101.476914 24.3815295,100.551768 C24.6109967,100.147017 24.8404638,99.684444 25.069931,99.2796928 C26.5614674,96.6777206 28.1103706,94.1335701 29.7166407,91.5894196 C29.9461078,91.2424899 30.1755749,90.8377387 30.4050421,90.4908091 C31.0360767,89.5078418 31.6671114,88.5826962 32.2407793,87.5997289 C32.5276132,87.1949777 32.7570803,86.7902265 33.0439143,86.3854753 C35.2812189,83.0318223 37.6332572,79.7938125 40.0426622,76.5558027 C40.903164,75.3993706 41.7636658,74.3007602 42.6815344,73.1443281 C43.0257351,72.6817553 43.3699358,72.2770041 43.7141365,71.8722528 C44.0009705,71.5253232 44.2304376,71.1783936 44.5172716,70.8892856 C44.6893719,70.6579992 44.8614723,70.4845344 45.0335726,70.253248 C47.0414102,67.8247406 49.0492477,65.4540549 51.1718188,63.0833691 C51.5160195,62.6786179 51.917587,62.2738667 52.2617877,61.8691155 C53.4091235,60.5970402 54.613826,59.3249649 55.8185285,58.0528897 C56.1627292,57.70596 56.4495631,57.3590304 56.7937639,57.0699224 C57.1953314,56.6651712 57.5395321,56.26042 57.9410996,55.9134903 C62.3009754,51.5190485 66.8903183,47.3558931 71.7091283,43.424024 C72.1106958,43.0770944 72.5696301,42.7301648 72.9711976,42.3832352 C73.4874987,41.978484 74.0037998,41.5737327 74.5201009,41.1689815 C74.8643016,40.8798735 75.2658691,40.5907655 75.6674366,40.3016575 C75.9542705,40.0703711 76.2411045,39.8390846 76.5279384,39.6656198 L76.5279384,39.6656198 C76.7000387,39.5499766 76.8721391,39.3765118 77.0442395,39.2608686 C77.6179073,38.8561174 78.1915752,38.3935446 78.7652431,37.9887933 C79.1094438,37.7575069 79.4536445,37.4683989 79.7978452,37.2371125 C80.2567795,36.8901829 80.7157138,36.6010749 81.1746481,36.2541452 L81.2320149,36.2541452 C81.5762156,36.0228588 81.9204163,35.7915724 82.264617,35.560286 C82.3793506,35.5024644 82.4940842,35.3868212 82.6088178,35.3289996 C83.067752,35.0398916 83.5266863,34.692962 84.0429874,34.4038539 C84.5019217,34.0569243 85.0182228,33.7678163 85.4771571,33.4787083 C85.8213578,33.2474219 86.1655585,33.0161355 86.5097592,32.784849 C86.7965932,32.5535626 87.1407939,32.3800978 87.4849946,32.1488114 C88.0586625,31.8018818 88.6323303,31.4549522 89.2059982,31.1080226 C89.5501989,30.8767361 89.9517664,30.6454497 90.2959671,30.4141633 C93.7953411,28.3325856 97.4094487,26.3666511 101.080923,24.5163598 C101.367757,24.4007166 101.654591,24.2272518 101.884058,24.1116086 C102.400359,23.8803221 102.859293,23.6490357 103.375594,23.4177493 C106.588134,21.9143876 113.300048,18.9076643 122.650835,16.0165841 L125.23234,32.7270274 C126.264942,39.492155 130.108517,45.621245 135.845196,49.2061844 C141.639241,52.7911238 148.867456,53.9475558 155.235169,51.8659781 C161.947083,49.6687572 167.282195,44.1178833 169.519499,37.2371125 C170.609468,33.8256379 170.781569,30.1828769 170.207901,26.5979375 L167.454295,8.73106209 C176.919815,8.61541888 187.073736,9.36709973 197.571858,11.506499 C264.576264,24.7476462 286.547744,80.8346013 323.893522,73.4912577 C324.581923,73.3756145 325.327691,73.2021497 326.016093,73.0286849 C326.24556,72.9708633 326.475027,72.9130417 326.704494,72.8552201 C326.933961,72.7973985 327.163428,72.7395769 327.450262,72.6239337 C327.679729,72.5661121 327.909197,72.5082905 328.138664,72.3926473 L328.19603,72.3926473 L328.253397,72.3926473 L328.597598,72.2770041 C328.712332,72.2191825 328.827065,72.2191825 328.941799,72.1613609 C329.171266,72.1035393 329.400733,71.9878961 329.6302,71.9300744 C329.917034,71.8144312 330.203868,71.698788 330.548069,71.5831448 C330.777536,71.5253232 330.949636,71.40968 331.179103,71.2940368 C331.408571,71.1783936 331.695404,71.0627504 331.924872,70.9471072 C333.129574,70.4267128 334.334277,69.7906751 335.596346,69.0968159 C335.653713,69.0968159 335.71108,69.0389943 335.71108,69.0389943 C335.940547,68.9233511 336.170014,68.7498863 336.456848,68.6342431 C336.973149,68.345135 337.48945,67.9982054 338.063118,67.6512758 C338.349952,67.477811 338.579419,67.3043462 338.808886,67.1308814 C339.09572,66.9574166 339.325187,66.7839518 339.612021,66.6104869 C340.128322,66.2635573 340.644623,65.8588061 341.160924,65.4540549 C341.447758,65.2805901 341.677225,65.0493037 341.964059,64.8180172 C342.996661,63.9506932 344.08663,63.0255475 345.119232,62.0425803 C345.3487,61.8112939 345.578167,61.5800075 345.807634,61.4065427 C346.094468,61.1174346 346.381302,60.8283266 346.725503,60.5392186 C346.95497,60.3657538 347.12707,60.1344674 347.29917,59.903181 C347.471271,59.7297162 347.643371,59.5562514 347.815471,59.3827865 C348.102305,59.0936785 348.389139,58.7467489 348.675973,58.4576409 C350.16751,56.838636 351.659046,55.0461663 353.150583,53.0802318 C353.38005,52.7911238 353.609517,52.4441942 353.838984,52.1550861 C354.125818,51.7503349 354.470019,51.3455837 354.756853,50.9408325 C355.043687,50.5939028 355.273154,50.1891516 355.559988,49.7844004 C355.559988,49.7265788 355.617354,49.6687572 355.674721,49.6687572 C355.904188,49.3218276 356.133655,48.974898 356.363123,48.6279683 C356.420489,48.5701467 356.477856,48.4545035 356.535223,48.3966819 C356.76469,48.0497523 356.994157,47.7606443 357.166258,47.4137147 C357.395725,47.066785 357.625192,46.7198554 357.854659,46.3729258 C357.912026,46.3151042 357.969393,46.199461 357.969393,46.1416394 C358.256227,45.7368882 358.485694,45.2743153 358.772528,44.8695641 C359.288829,44.0022401 359.862497,43.134916 360.378798,42.2097704 C360.665632,41.6893759 361.009832,41.1689815 361.296666,40.5907655 C361.526133,40.1860143 361.755601,39.781263 361.985068,39.3765118 C362.214535,39.0295822 362.386635,38.624831 362.616102,38.2779014 C362.960303,37.6418637 363.304504,37.0636477 363.591338,36.42761 C363.820805,35.9650372 364.050272,35.5024644 364.279739,35.0398916 C364.337106,34.9242484 364.394473,34.8086052 364.45184,34.692962 C364.681307,34.2303891 364.910774,33.7678163 365.140241,33.3052435 C365.943376,31.6862386 366.746511,30.0094121 367.549646,28.274764 C367.83648,27.696548 368.065947,27.1183319 368.352781,26.5401159 C368.869082,25.3258622 369.385383,24.1116086 369.959051,22.8973549 C370.360619,21.9143876 370.819553,20.9314204 371.22112,19.8906315 C372.081622,17.6934106 372.999491,15.4383681 373.859992,13.0676823 L371.335854,11.6221423 C368.410148,9.88749416 367.377546,6.07126834 369.098549,3.12236658 C370.245885,1.15643207 372.311089,0 374.491027,0 C375.523629,0 376.613598,0.289108016 377.588834,0.809502446 L378.047768,1.09861046 L381.604509,3.18018818 L381.891343,3.35365299 L417.45875,24.053787 L417.516117,24.053787 L419.409221,25.1523974 C422.162827,26.5979375 423.195429,30.4141633 421.531792,33.3630651 L421.531792,33.3630651 Z" id="tshirt" fill="#F47729"></path>
                                    <g id="pattern" transform="translate(7.440302, 30.672082)" fill="#FFFFFF">
                                        <path d="M75.0933554,4.6162643 C75.0933554,6.99199865 73.1634791,8.96211982 70.8362755,8.96211982 C70.3254259,8.96211982 69.8713374,8.84623034 69.4172488,8.67239612 C69.587532,8.55650664 69.7578152,8.38267242 69.9280984,8.26678294 C70.4957091,7.86116976 71.0633197,7.39761184 71.6309304,6.99199865 C71.9714968,6.76021969 72.3120632,6.47049599 72.6526296,6.23871703 C73.1067181,5.89104859 73.5608066,5.60132489 74.0148951,5.25365645 L74.0716562,5.25365645 C74.4122226,5.02187749 74.752789,4.79009853 75.0933554,4.55831956 C75.0933554,4.55831956 75.0933554,4.6162643 75.0933554,4.6162643 L75.0933554,4.6162643 Z" id="Shape"></path>
                                        <ellipse id="Oval" cx="218.798566" cy="4.36517043" rx="4.33378404" ry="4.36517043"></ellipse>
                                        <ellipse id="Oval" cx="364.613141" cy="4.36517043" rx="4.33378404" ry="4.36517043"></ellipse>
                                        <path d="M38.3520712,41.4303183 C38.3520712,43.7850285 36.4923871,45.737715 34.1255164,45.737715 C33.6746839,45.737715 33.2238514,45.680283 32.8293729,45.5079871 C33.6746839,44.359348 34.5199948,43.2681409 35.4216599,42.1195018 C35.7597842,41.6600462 36.0979086,41.2580225 36.436033,40.8559988 C36.7178033,40.5114071 36.9432196,40.1668153 37.2249899,39.8796555 C37.3940521,39.6499277 37.5631143,39.4776319 37.7321765,39.247904 C38.183009,39.8222236 38.3520712,40.568839 38.3520712,41.4303183 L38.3520712,41.4303183 Z" id="Shape"></path>
                                        <ellipse id="Oval" cx="105.890069" cy="41.3725445" rx="4.33378404" ry="4.36517043"></ellipse>
                                        <ellipse id="Oval" cx="179.832862" cy="41.3725445" rx="4.33378404" ry="4.36517043"></ellipse>
                                        <ellipse id="Oval" cx="253.929063" cy="41.3725445" rx="4.33378404" ry="4.36517043"></ellipse>
                                        <path d="M329.367587,41.6124088 C329.367587,43.994282 327.460722,45.9694939 325.033803,45.9694939 C322.722452,45.9694939 320.815587,44.1104709 320.700019,41.7866922 L320.700019,41.7866922 L321.046722,41.6705033 C321.162289,41.6124088 321.277857,41.6124088 321.393425,41.5543143 C321.62456,41.4962199 321.855695,41.3800309 322.08683,41.3219365 C322.375749,41.2057475 322.664668,41.0895586 323.011371,40.9733696 C323.242506,40.9152752 323.415857,40.7990862 323.646992,40.6828973 C323.878127,40.5667084 324.167046,40.4505194 324.398182,40.3343305 C325.611641,39.8114803 326.825101,39.1724411 328.096344,38.4753075 C328.847533,39.2886301 329.367587,40.392425 329.367587,41.6124088 L329.367587,41.6124088 Z" id="Shape"></path>
                                        <path d="M395.946783,38.7070865 C395.567774,39.4721455 395.251934,40.2372045 394.872925,40.9476164 L394.872925,40.9476164 C394.936093,40.1279103 395.315102,39.4174984 395.883615,38.8163806 C395.883615,38.7617335 395.883615,38.7617335 395.946783,38.7070865 L395.946783,38.7070865 Z" id="Shape"></path>
                                        <ellipse id="Oval" cx="68.5351512" cy="80.1568906" rx="4.33378404" ry="4.36517043"></ellipse>
                                        <ellipse id="Oval" cx="142.631353" cy="80.1568906" rx="4.33378404" ry="4.36517043"></ellipse>
                                        <ellipse id="Oval" cx="216.574146" cy="80.1568906" rx="4.33378404" ry="4.36517043"></ellipse>
                                        <ellipse id="Oval" cx="288.292519" cy="80.1568906" rx="4.33378404" ry="4.36517043"></ellipse>
                                        <ellipse id="Oval" cx="362.312016" cy="80.1568906" rx="4.33378404" ry="4.36517043"></ellipse>
                                        <ellipse id="Oval" cx="41.0750682" cy="117.164265" rx="4.33378404" ry="4.36517043"></ellipse>
                                        <ellipse id="Oval" cx="112.793441" cy="117.164265" rx="4.33378404" ry="4.36517043"></ellipse>
                                        <ellipse id="Oval" cx="186.736235" cy="117.164265" rx="4.33378404" ry="4.36517043"></ellipse>
                                        <ellipse id="Oval" cx="4.33378404" cy="155.253274" rx="4.33378404" ry="4.36517043"></ellipse>
                                        <ellipse id="Oval" cx="75.438524" cy="155.253274" rx="4.33378404" ry="4.36517043"></ellipse>
                                        <ellipse id="Oval" cx="149.534726" cy="155.253274" rx="4.33378404" ry="4.36517043"></ellipse>
                                        <ellipse id="Oval" cx="223.477519" cy="155.253274" rx="4.33378404" ry="4.36517043"></ellipse>
                                        <ellipse id="Oval" cx="38.6972398" cy="192.260648" rx="4.33378404" ry="4.36517043"></ellipse>
                                        <ellipse id="Oval" cx="110.492317" cy="192.260648" rx="4.33378404" ry="4.36517043"></ellipse>
                                        <ellipse id="Oval" cx="184.43511" cy="192.260648" rx="4.33378404" ry="4.36517043"></ellipse>
                                        <path d="M254.811161,192.344503 C254.532237,192.39915 254.323044,192.39915 254.044119,192.453797 L254.044119,192.016621 C254.044119,191.360856 254.253313,190.759738 254.601968,190.213267 C254.671699,190.923679 254.74143,191.634091 254.811161,192.344503 L254.811161,192.344503 Z" id="Shape"></path>
                                    </g>
                                    <path d="M149.053365,52.9228627 C144.642039,52.9228627 140.058843,51.6493859 136.163127,49.1603176 C130.376842,45.5714284 126.481126,39.4355856 125.392617,32.4314631 L122.814569,15.7026086 C122.75728,15.5289527 122.929149,15.3552967 123.101019,15.2974114 C123.272889,15.2974114 123.444759,15.413182 123.502049,15.586838 L126.080096,32.3156925 C127.111315,39.146159 130.949742,45.0504606 136.564157,48.5814645 C142.407731,52.228239 149.511685,53.2122893 155.641709,51.1863034 C162.230053,49.044547 167.500728,43.6612132 169.677746,36.7728613 C170.708965,33.5891693 170.938125,29.9423948 170.365225,26.2956203 C170.307935,26.1219643 170.479805,25.9483084 170.651675,25.8904231 C170.823545,25.8325378 170.995415,26.0061937 171.052705,26.1798496 C171.625604,29.9423948 171.396444,33.6470546 170.307935,36.9465173 C168.016337,44.0664104 162.631082,49.5655148 155.813579,51.8230419 C153.579271,52.5755509 151.344963,52.9228627 149.053365,52.9228627 L149.053365,52.9228627 Z" id="Shape" fill="#000000"></path>
                                </g>
                                <g id="hands" transform="translate(139.142225, 49.995185)">
                                    <g id="hand_l" transform="translate(0.000000, 180.084063)">
                                        <path d="M60.9042965,35.9507212 C60.6749065,34.8518595 60.1014316,34.042172 59.8146941,33.6951631 C59.6426516,33.4638238 59.2412192,32.9433104 58.6103967,32.6541363 C57.5781418,32.1914577 56.6605819,32.422797 56.3164969,32.5384667 C57.0620144,32.2492926 57.8075318,31.9601185 58.4957017,31.6709444 C61.3630765,30.167239 62.6820689,26.5236452 61.420424,23.5740693 C60.5602115,21.6076854 58.7824392,20.4509889 56.7752769,20.3353193 L57.6354893,19.8726407 C60.502864,18.3689353 61.8218564,14.7253416 60.5602115,11.7757657 C59.3559142,8.99969422 56.2591494,7.84299778 53.5638172,8.99969422 C54.5960721,7.26464956 54.8828095,5.12476116 54.0799446,3.21621204 C53.6785122,2.23302007 53.0476897,1.48116739 52.2448248,0.96065399 C50.3523574,-0.427381732 47.7717202,0.324470951 46.5674228,0.671479882 C36.7036537,3.3897165 23.7431198,9.69371208 21.1624825,10.9660782 C19.7861427,11.6022612 18.6965403,12.1227746 18.1230653,12.4119487 L18.1230653,12.4119487 C17.8936753,11.023913 17.6069378,9.63587726 17.3775479,8.24784153 C17.0908104,6.45496206 16.7467254,4.66208258 16.4599879,2.92703793 C11.7574934,5.47177009 3.38475911,10.0985558 0.689426846,11.5444264 C5.7360064,27.4490024 10.7252385,43.3535783 15.771818,59.2581543 C18.7538877,58.1014579 22.1373899,56.8290918 25.8076296,55.4988909 C28.6750044,54.4578641 30.1086917,53.9373507 34.4097539,52.4336454 C40.4885883,50.2359221 45.8792528,48.327373 52.2448248,45.4934668 C52.2448248,45.4934668 52.5315623,45.3777971 53.0476897,45.088623 C55.054852,44.105431 60.0440841,41.3293596 60.846949,38.4954533 C61.191034,37.3387569 61.0189915,36.2977301 61.0189915,36.0663908 L60.9042965,35.9507212 L60.9042965,35.9507212 Z" id="Shape" fill="#FBB319"></path>
                                        <path d="M30.298077,19.7012117 C30.183596,19.7012117 30.0691149,19.6430777 30.0118744,19.4686758 C29.9546339,19.2942738 30.0118744,19.0617379 30.183596,19.0036039 L53.3660081,8.5976218 C53.5377297,8.53948782 53.7666918,8.5976218 53.8239323,8.77202373 C53.8811728,8.94642567 53.8239323,9.17896158 53.6522107,9.23709556 L30.4125581,19.6430777 C30.3553176,19.7012117 30.298077,19.7012117 30.298077,19.7012117 L30.298077,19.7012117 Z" id="Shape" fill="#000000"></path>
                                        <path d="M33.6544914,29.899486 C33.5397294,29.899486 33.3675863,29.8417753 33.3102052,29.6686431 C33.2528242,29.495511 33.3102052,29.2646682 33.4823483,29.2069575 L57.1233343,19.8001128 C57.2954774,19.7424021 57.5250016,19.8001128 57.5823826,19.973245 C57.6397636,20.1463771 57.5823826,20.3772199 57.4102395,20.4349306 L33.7692535,29.8417753 C33.7118725,29.899486 33.6544914,29.899486 33.6544914,29.899486 L33.6544914,29.899486 Z" id="Shape" fill="#000000"></path>
                                        <path d="M36.6458218,40.6385778 C36.5311009,40.6385778 36.3590195,40.5802686 36.3016591,40.4053411 C36.2442986,40.2304136 36.3016591,39.9971769 36.4737405,39.9388677 L57.1235066,31.7755836 C57.295588,31.7172744 57.5250298,31.7755836 57.5823903,31.9505111 C57.6397508,32.1254386 57.5823903,32.3586753 57.4103089,32.4169845 L36.7605428,40.5802686 C36.7605428,40.6385778 36.7031823,40.6385778 36.6458218,40.6385778 L36.6458218,40.6385778 Z" id="Shape" fill="#000000"></path>
                                    </g>
                                    <g id="hand_r" transform="translate(238.089658, 0.000000)">
                                        <path d="M49.4486407,14.1035859 C46.2960873,13.1783143 42.9715764,15.0288575 42.05447,18.2094787 L38.1567676,31.7994057 C35.0615334,21.4479294 31.9662991,11.0964531 28.8137458,0.687147359 C22.7952347,1.67024846 19.126809,2.65334956 16.0315747,5.02435809 C14.4266385,6.2387771 11.5606808,8.84110354 6.28731881,24.9755275 C4.45310592,30.6428162 2.38961643,37.5823533 0.612722704,45.5628211 L4.16651016,47.6446822 L39.9909805,68.5211232 L40.0482997,68.5211232 C41.2520019,64.241742 42.4557041,59.9045313 43.6594063,55.62515 C43.6594063,55.5673205 43.7167254,55.509491 43.7167254,55.4516616 L44.4618744,52.9071646 L53.4036622,21.5057589 C54.4354069,18.3829672 52.6011941,15.0288575 49.4486407,14.1035859 L49.4486407,14.1035859 Z" id="Shape" fill="#FBB319"></path>
                                        <path d="M40.4825686,24.0346211 L40.4825686,24.0346211 C40.3090382,23.9767334 40.0776645,24.0925088 40.019821,24.2661719 L37.9953004,31.1548083 L35.6815626,38.9117603 C35.6237191,39.0854234 35.739406,39.2590865 35.9129363,39.3169742 L36.0286232,39.3169742 C36.2021536,39.3169742 36.3178405,39.2011988 36.3756839,39.0854234 L40.7139424,24.439835 C40.7717858,24.2661719 40.6560989,24.0346211 40.4825686,24.0346211 L40.4825686,24.0346211 Z" id="Shape" fill="#000000"></path>
                                    </g>
                                </g>
                            </g>
                            <g id="buttons" transform="translate(150.034213, 0.000000)">
                                <g id="lines" transform="translate(196.515102, 0.000000)" fill="#DBDBD1">
                                    <path d="M45.5775463,83.5949452 C45.4627073,83.5949452 45.3478683,83.5949452 45.2330293,83.5370639 L0.503227318,62.4682495 C0.0438712003,62.2367241 -0.128387344,61.7736732 0.101290715,61.3106223 C0.330968774,60.8475715 0.790324891,60.6739274 1.24968101,60.9054528 L45.9794829,81.9742672 C46.4388391,82.2057926 46.6110976,82.6688435 46.3814196,83.1318944 C46.209161,83.4213012 45.9220634,83.5949452 45.5775463,83.5949452 L45.5775463,83.5949452 Z" id="Shape"></path>
                                    <path d="M150.462446,69.7654672 C150.34776,69.7654672 150.290417,69.7654672 150.175732,69.7077387 C149.716989,69.5345532 149.487618,69.0727251 149.602303,68.610897 L171.96601,0.606707515 C172.138039,0.144879404 172.596781,-0.0860346521 173.055524,0.0294223758 C173.514267,0.202607918 173.743638,0.664436029 173.628952,1.12626414 L151.322589,69.1304536 C151.15056,69.5345532 150.806503,69.7654672 150.462446,69.7654672 L150.462446,69.7654672 Z" id="Shape"></path>
                                    <path d="M171.380517,56.2450278 C171.208508,56.2450278 171.0365,56.187126 170.864492,56.0713223 C170.463139,55.7818131 170.405803,55.2027946 170.692484,54.8553836 L196.895068,20.7511974 C197.181749,20.3458844 197.755109,20.2879826 198.099126,20.5774918 C198.443142,20.867001 198.557814,21.4460195 198.271134,21.7934305 L172.068549,55.8976168 C171.896541,56.1292242 171.609861,56.2450278 171.380517,56.2450278 L171.380517,56.2450278 Z" id="Shape"></path>
                                </g>
                                <path d="M389.579429,66.9546908 C371.211913,93.3712413 352.844397,119.845596 334.419482,146.262147 L320.873439,100.770188 C306.179426,125.163589 291.542812,149.614794 276.848799,174.066 C275.184243,168.458986 273.462288,162.851972 271.797732,157.244958 L280.751896,125.85724 C281.670272,122.678005 279.833521,119.325358 276.676604,118.400489 C273.519687,117.475621 270.190575,119.325358 269.272199,122.504592 L267.607643,128.285019 C267.435447,128.227215 267.263252,128.342824 267.205853,128.516236 L265.196906,135.394944 C262.154786,125.279197 259.112667,115.16345 256.070547,104.989899 C252.454442,92.9088072 248.838337,80.8855194 245.222233,68.8622316 C269.042605,74.758267 292.862977,80.6543023 316.625951,86.5503377 L304.859261,46.8966098 C333.099317,53.5441006 361.339373,60.2493957 389.579429,66.9546908 L389.579429,66.9546908 Z" id="remote_button" fill="#40AE4E"></path>
                                <g id="play_button" transform="translate(0.000000, 260.133254)" fill="#000000">
                                    <path d="M41.2298221,69.6274343 C41.2298221,69.6274343 41.5166569,69.512353 42.0329596,69.2246497 C41.7461248,69.512353 41.4592899,69.8575969 41.1724551,70.1453003 C33.3705481,79.0065623 25.568641,87.8678243 17.766734,96.7290863 C16.7341286,91.0325608 15.7588902,85.2784945 14.7262849,79.5819689 C17.5946331,78.546237 19.0288072,78.028371 23.3313294,76.5323138 C29.5269615,74.4033093 34.8620891,72.4469268 41.2298221,69.6274343 L41.2298221,69.6274343 Z" id="Shape"></path>
                                    <path d="M80.6151432,25.2299244 C70.5168474,36.7276332 60.4185515,48.2831194 50.262879,59.7808282 C50.1481257,59.896383 50.0333723,60.0697153 49.918619,60.1852702 L49.918619,60.1274927 C49.6891122,59.0297216 49.1153454,58.2208375 48.828462,57.8741729 C48.656332,57.6430632 48.2546952,57.1230663 47.6235517,56.8341792 C46.5907715,56.3719597 45.6727446,56.6030695 45.3284845,56.7186243 C46.0743813,56.4297372 46.8202782,56.14085 47.5087984,55.8519628 C50.3776324,54.3497496 51.6972961,50.7097715 50.4350091,47.7631225 C49.5743589,45.7986898 47.7956818,44.6431412 45.7874979,44.5275864 L46.6481482,44.0653669 C49.5169822,42.5631537 50.8366459,38.9231755 49.5743589,35.9765266 C48.3694486,33.2032099 45.2711078,32.0476613 42.5744038,33.2032099 C43.6071841,31.4698869 43.8940675,29.332122 43.0907939,27.4254668 C42.6891572,26.4432504 42.0580137,25.6921438 41.2547402,25.172147 C39.3613097,23.7854886 36.7793591,24.5365952 35.5744488,24.8832598 C25.7056597,27.5987991 12.7385298,33.896539 10.1565792,35.1676425 C8.77953884,35.8031943 7.6893819,36.3231912 7.11561509,36.6120783 C6.54184829,33.4343196 5.96808148,30.3143383 5.45169135,27.1365796 C3.84514429,18.1233004 2.23859723,9.16779855 0.689426846,0.154519307 C27.3122067,8.47446938 53.9349866,16.8521969 80.6151432,25.2299244 L80.6151432,25.2299244 Z" id="Shape"></path>
                                </g>
                            </g>
                        </g>
                    </g>
                </g>
                <g id="head-copy" transform="translate(141.435762, 168.032767) rotate(-18.000000) translate(-141.435762, -168.032767) translate(32.935762, 45.532767)">
                    <path d="M204.037541,130.093817 C205.483891,132.48235 208.291512,135.340059 210.801356,141.311392 C211.73723,143.486663 210.717024,145.070719 210.929722,148.866781 C211.142421,152.961409 214.958601,152.647507 216.837154,158.192153 C212.327944,153.159172 202.421031,150.908176 196.720709,146.728244 C196.50801,146.557634 196.252772,146.387025 196.040073,146.216415 C195.614676,145.917848 195.189279,145.576629 194.721342,145.278063 C194.210865,144.936844 193.742929,144.595625 193.232452,144.254406 C193.062293,144.126449 192.892134,144.041144 192.721975,143.913187 C186.468637,139.775906 180.087679,136.61963 174.302277,134.188445 C174.132118,134.10314 173.961959,134.060488 173.7918,133.975183 C171.239417,132.908873 168.772113,132.013174 166.560048,131.245431 C166.547244,130.996366 166.534439,130.747301 166.521635,130.498227 C166.32174,126.609866 166.121846,122.719237 165.921952,118.790937 C174.855293,118.705632 183.533396,115.97588 188.808321,109.1515 C193.062293,103.649343 193.742929,97.1661817 193.742929,93.0289012 C196.890868,91.7066775 200.038807,90.4271062 203.186746,89.1048825 C199.358171,82.0672403 195.529597,74.9869458 191.701022,67.9493036 C192.126419,66.072599 193.48769,59.0776092 191.573403,50.7603958 C183.958793,49.4808245 175.153071,43.3815346 169.027352,32.5478309 C168.474335,36.5145019 165.666714,53.5328003 150.437494,65.9019895 C146.098443,69.3994844 141.631773,71.8733223 137.207642,73.5794173 C134.655259,68.4611321 129.075632,66.8462996 122.949912,66.0785568 C113.208317,64.8842903 104.877455,69.6127463 103.686343,79.3801406 C102.452691,89.1475349 109.386666,98.0618816 119.128261,99.2561482 C120.532072,99.4267577 121.893343,99.4267577 123.254614,99.2988006 C123.382233,108.298452 123.467313,117.340756 123.594932,126.38306 C121.127628,126.638974 118.022229,127.022845 114.576511,127.662631 C114.406352,127.705283 114.236194,127.705283 114.066035,127.747936 C110.365079,128.430374 106.238726,129.411379 101.942215,130.733602 C99.5174507,131.501345 97.1777662,132.354393 94.9231611,133.292745 C94.7530022,133.37805 94.5828433,133.420702 94.4126844,133.506007 C86.7129953,136.704935 80.246958,140.628954 74.8869534,144.425015 C74.7167945,144.552972 74.5466356,144.680929 74.3764767,144.808887 C73.7383809,145.278063 73.1002852,145.747239 72.5047291,146.173763 C72.2920305,146.344372 72.0367922,146.514982 71.8240936,146.685591 C67.2723436,150.183086 63.6990072,153.467319 61.0615447,155.898505 C58.9770984,157.817861 57.0202713,159.737218 55.1910634,161.656575 C55.0209045,161.827185 54.8507457,161.997794 54.6805868,162.168404 C53.744713,163.149409 52.8513789,164.130413 51.9580448,165.111418 C51.7878859,165.282027 51.6602667,165.452637 51.4901079,165.623246 C45.6621663,172.191712 40.9827972,178.802831 37.0691431,185.158035 C36.9840636,185.328645 36.8564445,185.499254 36.771365,185.669864 C36.2183487,186.565563 35.7078721,187.418611 35.1973954,188.314311 C35.0272366,188.612878 34.8570777,188.911444 34.6869188,189.167358 C31.4964399,194.669515 28.8589773,199.95841 26.476753,204.906085 C26.3916736,205.076695 26.3065942,205.247304 26.2215147,205.417914 C25.9237367,206.015047 25.6684984,206.569528 25.3707203,207.166661 C22.3504003,213.393908 19.8405568,219.407894 17.7561106,224.995355 C17.6710312,225.165964 17.6284915,225.336574 17.5859517,225.507183 C16.6075382,228.066326 15.7567438,230.582816 14.9484892,232.971349 C14.7783303,233.483178 14.6081714,234.037659 14.4380125,234.549487 C13.3319798,238.00433 12.396106,241.24591 11.5878513,244.231577 L8.35483269,244.231577 C8.35483269,244.231577 5.38449388,231.871621 1.31784617,210.02257 C-2.74880154,188.17352 7.16498489,171.160964 7.16498489,171.160964 C20.3538031,157.213689 28.3039862,148.696213 35.9611356,143.62058 C54.678612,131.25139 41.1104164,109.023542 50.8945518,86.8443065 C52.68122,82.7923307 54.6805868,79.9772739 56.9351919,77.8020027 C65.400596,69.6980511 72.6323482,69.4421368 80.0342594,64.6650706 C91.7326821,57.1155999 87.4787102,46.70842 96.7949087,35.1922782 C102.367612,28.367898 110.109841,24.3585745 118.234927,22.0979986 C122.659058,15.8707516 128.146682,10.709814 134.570179,6.99905719 C151.586067,-2.85364185 169.410209,0.686505424 172.005132,1.24098632 C188.553083,4.73848122 208.759449,17.7474561 208.887069,33.6141403 C208.929608,37.4528542 207.781036,41.9740062 205.398812,45.4288487 C215.097867,59.7173949 219.607078,80.1478834 213.906755,97.080877 C209.567704,109.87659 199.017854,121.819255 204.037541,130.093817 Z" id="hair" fill="#000000"></path>
                    <g id="face_1_" transform="translate(122.877801, 32.299514)">
                        <path d="M68.4724981,18.2658213 C60.8549859,16.9825084 52.0459075,10.8653832 45.917853,-6.74020839e-11 C45.3646259,3.97827022 42.5559342,21.0463328 27.3209098,33.4516915 C27.0655742,33.665577 26.8527945,33.8366854 26.5974589,34.0077938 C26.3421233,34.1789022 26.1293436,34.3927877 25.874008,34.5638961 C25.6186724,34.7350045 25.4058927,34.9061129 25.1505571,35.1199984 C24.9377774,35.2911068 24.7249978,35.4194381 24.5122181,35.5905465 C24.2568825,35.7616549 24.0015469,35.9327633 23.7462113,36.1038717 C23.5334316,36.232203 23.3632079,36.3605343 23.1504282,36.4888656 C22.8950926,36.659974 22.639757,36.8310824 22.3844214,37.0021908 C22.0865299,37.1732992 21.8311943,37.3444076 21.5333027,37.515516 C21.5333027,37.515516 21.4907468,37.515516 21.4907468,37.5582931 C21.2354112,37.7294015 20.9800756,37.8577328 20.72474,38.0288412 C20.4268484,38.1999496 20.1715128,38.3282809 19.8736213,38.4993893 C19.6182857,38.6277205 19.3629501,38.7988289 19.0650585,38.9271602 C19.0225026,38.9271602 18.9799467,38.9699373 18.9373907,38.9699373 C18.9373907,38.9699373 18.9373907,38.9699373 18.8948348,38.9699373 L18.8522789,38.9699373 C18.8097229,38.9699373 18.767167,39.0127144 18.7246111,39.0127144 C18.5543873,39.0982686 18.3416076,39.2265999 18.1713839,39.3121541 C17.9160483,39.4404854 17.6181568,39.6115938 17.3202652,39.7399251 C17.0223737,39.8682564 16.7670381,39.9965877 16.4691465,40.124919 C16.171255,40.2532503 15.9159194,40.3815816 15.6180279,40.5099129 C15.0648007,40.7665755 14.5115736,40.980461 13.9583464,41.1943465 C10.5964276,42.5204366 7.27706475,43.3759786 4.12792562,43.9320808 C4.25559342,45.5148335 4.34070529,47.1403633 4.34070529,48.8942243 L4.34070529,50.049206 C4.29814936,55.0113495 3.87259001,60.4868182 3.14913913,66.1761724 C2.68102386,65.9622869 2.21290858,65.7911785 1.7447933,65.577293 C1.14901022,65.3206304 0.553227145,65.1067449 1.82967621e-10,64.8500823 C1.82967621e-10,65.5345159 1.82967621e-10,66.2617266 0.0425559344,66.9461602 C0.0851118686,69.8550029 0.127667803,72.7638457 0.170223737,75.7154655 C0.255335605,81.8325907 0.340447474,87.992493 0.383003408,94.1096182 C3.87259001,99.1145388 7.36217662,104.076682 10.8943192,109.081603 C11.0645429,109.338265 11.2347666,109.552151 11.4049904,109.808814 C12.3837769,111.177681 13.3625633,112.589325 14.2987939,113.958192 C14.4264617,114.129301 14.5541295,114.300409 14.6392414,114.471517 C18.9799467,120.63142 23.278096,126.834099 27.6188013,132.994001 C27.7464691,133.16511 16.7696574,114.617571 16.8547693,114.788679 C17.7058879,116.029215 14.5060516,115.812257 15.3571703,117.010015 C15.4848381,117.223901 24.2032716,128.550261 24.3309394,128.764146 C24.3734954,128.806923 19.589941,120.142968 19.632497,120.142968 C23.1646395,125.190666 18.788318,124.833521 22.3204606,129.881218 C1.8001024,106.294089 26.3640985,128.00607 26.4492103,128.177178 C27.8961121,130.230479 30.9540786,124.168884 32.4009804,126.222184 C32.3158685,124.168884 27.3764903,124.68479 27.2913784,122.63149 C27.2913784,122.460381 30.1199615,126.86222 30.0774056,126.691111 C29.82207,121.515082 33.765981,127.513808 31.800221,124.096501 C21.2321608,105.724825 27.4273266,115.837492 27.3422148,114.425848 C27.3422148,114.25474 29.5854092,115.873271 29.5428533,115.702162 C29.2449617,109.54226 25.6599309,115.659138 25.3620393,109.456459 C25.3620393,109.295942 21.0905987,101.2464 30.664443,104.201081 C31.2961621,104.396042 24.7913255,102.048768 25.4428731,102.260469 C25.1875375,97.2555485 43.4921648,103.948351 43.2368292,98.9434304 C43.0240495,94.7940518 42.8112698,90.6446731 42.5984901,86.4525174 L42.4282664,86.4525174 L43.1517173,86.4525174 C43.4496088,86.4525174 43.7475004,86.4525174 44.0453919,86.4097403 C44.3432834,86.4097403 44.641175,86.3669632 44.9390665,86.3669632 C45.0667343,86.3669632 45.2369581,86.3669632 45.3646259,86.3241861 L45.4922937,86.3241861 L45.6625174,86.3241861 L45.7901852,86.3241861 C46.0455208,86.3241861 46.3434124,86.281409 46.598748,86.2386319 C46.8966395,86.1958548 47.1519751,86.1958548 47.4073107,86.1530777 C47.4924226,86.1530777 47.5775344,86.1103006 47.7052023,86.1103006 C47.7903141,86.1103006 47.875426,86.0675235 48.0030938,86.0675235 C48.2584294,86.0247464 48.513765,85.9819693 48.7691006,85.9391922 C48.9818803,85.8964151 49.2372159,85.853638 49.4499956,85.8108609 L49.5351074,85.8108609 C49.7053312,85.7680838 49.8755549,85.7680838 50.0457786,85.7253067 C50.3862261,85.6397525 50.7266736,85.5969754 51.0671211,85.5114212 C51.2373448,85.4686441 51.4501245,85.425867 51.6203482,85.3830899 C52.1735753,85.2547586 52.7268025,85.0836502 53.2374737,84.9553189 C53.4502534,84.8697648 53.705589,84.8269877 53.9183686,84.7414335 C54.1737043,84.6558793 54.4290399,84.5703251 54.6843755,84.4847709 C54.9397111,84.3992167 55.1950467,84.3136625 55.4503823,84.2281083 C55.7057179,84.1425541 55.9610535,84.0142228 56.1738332,83.9286686 C56.3866128,83.8431144 56.6419484,83.7147831 56.897284,83.5864518 C57.1526196,83.5008976 57.3653993,83.3725663 57.6207349,83.244235 C57.8760705,83.1159037 58.1739621,82.9447953 58.4292977,82.816464 C58.5569655,82.7309098 58.7271892,82.6453556 58.854857,82.5598014 C58.9825248,82.4742472 59.1101926,82.4314701 59.2378604,82.3459159 C59.3655282,82.2603617 59.535752,82.1748075 59.6634198,82.0892533 C59.8761994,81.960922 60.0889791,81.8325907 60.3017588,81.6614823 C60.5145384,81.533151 60.7273181,81.3620426 60.9400978,81.2337113 C61.1103215,81.10538 61.3231012,80.9770487 61.4933249,80.8059403 C61.5358809,80.7631632 61.5358809,80.7631632 61.5784368,80.7203861 C61.5784368,80.7203861 61.6209927,80.677609 61.6635487,80.677609 C61.8337724,80.5492777 62.0039961,80.4209464 62.1316639,80.2926151 C62.1742199,80.249838 62.2167758,80.2070609 62.2593318,80.2070609 C62.4295555,80.0787296 62.5997792,79.9076212 62.770003,79.7792899 C62.9827826,79.6081816 63.1530064,79.4370732 63.365786,79.2659648 C63.5360098,79.0948564 63.7487894,78.8809709 63.9190132,78.7098625 C64.046681,78.5815312 64.2169047,78.4104228 64.3445725,78.2820915 C64.4296844,78.1537602 64.5573522,78.068206 64.6424641,77.9398747 C64.6424641,77.9398747 64.6424641,77.9398747 64.68502,77.8970976 L64.7275759,77.8543205 L64.7701319,77.8115434 C64.8552437,77.7259892 64.9403556,77.5976579 65.0254675,77.5121037 L65.0680234,77.4693266 C65.1956912,77.2982182 65.323359,77.1271098 65.4935828,76.9560014 C69.7491762,71.4377556 70.4300711,64.9356365 70.4300711,60.7862579 C73.5792103,59.4601678 76.7283494,58.1768549 79.8774885,56.8507648 C76.2602341,49.6642121 72.4302,42.5632137 68.6001659,35.5049923 C69.0257253,33.6227999 70.3875152,26.6073557 68.4724981,18.2658213 Z" id="Shape" fill="#FBB319"></path>
                        <path d="M38.0857007,86.1623667 L38.0857007,86.1623667 C33.9162828,86.4192675 29.7894099,85.8198322 25.8327174,84.3640609 C17.9193323,81.4953349 12.6862873,75.9719671 9.70813166,71.8187371 C9.58049642,71.6474698 9.58049642,71.3477522 9.75067674,71.2193018 C9.92085706,71.0908514 10.1335825,71.0908514 10.3037628,71.3049354 C13.2393734,75.329715 18.3873282,80.7674493 26.0879879,83.5505416 C29.9170451,84.9634961 33.9588278,85.5201146 38.0431556,85.3060306 C38.255881,85.3060306 38.4260614,85.4772978 38.4686064,85.6913818 C38.4686064,85.9054658 38.2984261,86.1195499 38.0857007,86.1623667 L38.0857007,86.1623667 Z" id="Shape" fill="#000000"></path>
                    </g>
                    <path d="M184.845236,101.426108 C184.459399,101.426108 184.073563,101.33412 183.687726,101.196139 C181.930024,100.460237 181.072609,98.1605455 181.844283,96.090823 L181.844283,96.090823 C182.187249,95.0789586 182.873181,94.2970634 183.730596,93.8371251 C184.588012,93.3771868 185.574039,93.2851991 186.431455,93.6531498 C188.189156,94.3890511 189.046572,96.6887428 188.274898,98.7584653 C187.674707,100.36825 186.302842,101.426108 184.845236,101.426108 L184.845236,101.426108 Z M182.654046,96.3826543 C182.050307,97.9832007 182.69717,99.7209368 184.03402,100.269696 C185.370871,100.818454 186.923343,99.9495862 187.527082,98.3490398 C188.130821,96.7484935 187.483958,95.0107574 186.147107,94.4619986 C185.500244,94.1876192 184.810256,94.2333491 184.163393,94.5991883 C183.473406,94.9650275 182.955915,95.605246 182.654046,96.3826543 L182.654046,96.3826543 L182.654046,96.3826543 Z" id="mouth" fill="#000000"></path>
                    <path d="M167.254027,108.403668 C167.117647,108.403668 166.935806,108.319594 166.844885,108.193484 C166.708505,107.983299 166.799425,107.731077 167.026726,107.604966 C172.391033,104.788489 175.345948,101.509606 175.80055,97.8523905 C176.482453,92.5136961 171.527289,88.099815 171.481828,88.057778 C171.299987,87.8896301 171.299987,87.6374084 171.481828,87.4692605 C171.663669,87.3011127 171.936431,87.3011127 172.118272,87.4692605 C172.345573,87.6794453 177.437118,92.1774004 176.709754,97.9785014 C176.209692,101.929976 173.118397,105.419044 167.481328,108.361631 C167.390408,108.361631 167.344948,108.403668 167.254027,108.403668 L167.254027,108.403668 Z" id="cheek" fill="#000000"></path>
                    <circle id="eye" fill="#000000" cx="184.368012" cy="68.8119203" r="3"></circle>
                    <ellipse id="brow" fill="#000000" transform="translate(180.415675, 56.593626) rotate(-14.211336) translate(-180.415675, -56.593626) " cx="180.415675" cy="56.5936258" rx="7.72937229" ry="1.90592278"></ellipse>
                    <g id="ear" transform="translate(102.935758, 64.737325)">
                        <path d="M32.9694331,9.66847481 C30.4696705,4.6585982 25.5534708,0.942939714 19.5540407,0.191458222 C10.0132802,-0.977512988 1.30577394,5.78582044 0.139218071,15.346335 C-1.0690005,24.9068495 5.72202114,33.6323846 15.2627816,34.8013558 C16.637651,34.9683517 17.9708577,34.9683517 19.3040644,34.8431048 C27.1366538,34.0081254 33.6776992,27.8292775 34.6776042,19.6464791 C35.135894,16.0978165 34.4692907,12.6326518 32.9694331,9.66847481 L32.9694331,9.66847481 Z" id="Shape" fill="#FBB319"></path>
                        <path d="M21.2826829,27.5370588 L21.1154136,27.5370588 C17.5470018,26.702288 15.4840138,23.9475443 16.3761167,21.3597548 C17.1009504,19.2728277 19.498477,17.7702403 22.3420551,17.5615476 L9.18353674,6.04171034 C8.96051101,5.87475617 9.01626744,5.58258639 9.23929318,5.45737077 C9.46231891,5.29041661 9.85261395,5.33215515 10.0198833,5.49910931 L23.9589917,17.6867632 C24.126261,17.8119788 24.126261,17.978933 24.0147481,18.1458871 C23.9032353,18.3128413 23.6802095,18.3963184 23.4571838,18.3963184 C20.6136057,18.2711027 18.1045662,19.6484746 17.435489,21.610186 C16.7106553,23.7805901 18.4948612,26.1179484 21.4499522,26.8275036 C21.7287344,26.9109807 21.8960037,27.1196734 21.7844908,27.3701046 C21.7287344,27.4118431 21.5057086,27.5370588 21.2826829,27.5370588 L21.2826829,27.5370588 Z" id="Shape" fill="#000000"></path>
                    </g>
                    <polygon id="earring" fill="#FFFFFF" points="123.102851 96.1005547 114.542851 105.258982 128.542851 110.920555"></polygon>
                </g>
            </g>
        </g>
    </g>
</svg>