<?xml version="1.0" encoding="UTF-8"?>
<svg width="450px" height="407px" viewBox="0 0 450 407" version="1.1" xmlns="http://www.w3.org/2000/svg" xmlns:xlink="http://www.w3.org/1999/xlink">
    <!-- Generator: Sketch 54.1 (76490) - https://sketchapp.com -->
    <title>Group 29</title>
    <desc>Created with Sketch.</desc>
    <g id="Page-1" stroke="none" stroke-width="1" fill="none" fill-rule="evenodd">
        <g id="LP-Copy" transform="translate(-919.000000, -287.000000)">
            <g id="Group-29" transform="translate(919.000000, 287.000000)">
                <g id="Group-5">
                    <g id="18_page_under_construction" transform="translate(225.000000, 203.500000) scale(-1, 1) translate(-225.000000, -203.500000) ">
                        <g id="background_1_" transform="translate(48.930481, 103.394167)">
                            <g id="background" transform="translate(0.000000, 65.475283)">
                                <g id="figures">
                                    <ellipse id="circle_1_" fill="#DBDBD1" cx="143.544584" cy="61.5689395" rx="61.0808238" ry="61.5689395"></ellipse>
                                    <ellipse id="circle" fill="#F47729" cx="361.162451" cy="178.498383" rx="39.9070679" ry="40.2259776"></ellipse>
                                    <path d="M194.677694,160.068956 C164.835291,213.309216 99.751858,234.015861 50.489398,205.978761 C1.22693807,177.941662 -14.8189774,111.06071 15.0234261,57.8204501 C74.8956853,91.9032853 134.805435,125.98612 194.677694,160.068956 L194.677694,160.068956 Z" id="semicircle_2_" fill="#F47729"></path>
                                    <path d="M394.433973,149.986435 C381.576434,146.208471 368.681409,142.430507 355.82387,138.652544 C356.386153,136.499104 357.135864,133.438954 357.660662,129.774329 C358.560315,123.654028 360.209678,111.413425 355.449015,96.9060447 C349.976127,80.2830044 338.580524,66.8712332 323.286425,59.1264076 C307.992326,51.381582 290.524066,50.134854 274.03043,55.650681 C261.210376,59.91978 253.338414,67.21125 246.516046,73.4826697 C239.543736,79.8674284 234.670617,86.1388482 231.446861,90.7479639 C221.325766,81.9075288 211.167185,73.0670937 201.04609,64.188879 C205.094528,58.2952556 211.204671,50.4748707 219.826344,42.5033673 C227.098538,35.7785919 240.218476,23.8780062 261.322833,16.8509937 C288.087506,7.93499933 316.576514,9.97509973 341.504396,22.6312782 C366.469763,35.2874566 385.062589,57.0863072 393.946661,84.0609681 C396.195793,90.8613028 401.556225,109.448884 398.257498,132.947819 C397.282874,140.05039 395.745967,145.868454 394.433973,149.986435 L394.433973,149.986435 Z" id="semicircle_1_" fill="#FBB319"></path>
                                    <ellipse id="circle_2_" fill="#FFB800" cx="177.478375" cy="128.994894" rx="18.5473734" ry="18.6955912"></ellipse>
                                    <polygon id="square" fill="#40AE4E" points="194.53824 90.6197329 194.53824 218.349512 321.301868 218.349512 321.301868 90.6197329"></polygon>
                                </g>
                            </g>
                            <path d="M93.2083865,39.0984009 C93.3208222,39.1739217 93.4707364,39.3249634 93.5456936,39.5137654 C94.5201362,42.7989203 95.6819717,49.2937094 92.6087295,55.7884985 C91.7467225,57.6765186 89.0482659,63.3405789 83.6138742,64.7377137 C83.3890028,68.2494311 82.339603,71.9121901 80.2033249,74.9707826 C77.6922611,78.5580208 73.9444047,80.9746865 70.1215912,82.2207797 C70.2715055,84.9017683 69.8217627,87.6582776 68.5849701,89.8861413 C62.5509213,100.836658 49.0961169,99.5905645 48.9462027,99.5905645 C48.5339385,99.5528041 48.23411,99.2129605 48.3090671,98.7975961 C48.3465457,98.4199921 48.6838527,98.1179089 49.0961169,98.1556693 C49.2085526,98.1556693 61.7263929,99.2884813 67.3106989,89.1686937 C68.3600987,87.2806736 68.8098415,84.9772891 68.6974058,82.6739046 C64.6871995,83.655675 60.8269074,83.3158314 58.3533222,81.6166133 L58.3533222,81.6166133 C57.7161866,81.1634885 54.6054658,78.8223436 54.6429444,75.4239074 C54.6429444,75.3106262 54.7179015,72.4408357 56.8541796,70.96818 C59.5526362,69.1179203 63.4129283,70.8171384 65.0619851,71.9499505 C65.0619851,71.9499505 65.0619851,71.9499505 65.0994637,71.9877109 C67.6854846,73.8002101 69.3720199,77.1231255 69.9341984,80.7103637 C73.3822263,79.5020308 76.7178184,77.2741671 78.9665323,74.1022934 C80.877939,71.4213048 81.8149031,68.1361499 82.077253,65.0020365 C80.6905462,65.1530781 78.5917466,65.1153177 76.4554685,64.0580265 C73.6820548,62.7364124 70.2340269,59.3002159 71.0960339,55.9773005 C71.4708195,54.4668845 72.7450907,53.0697496 74.4691046,52.2390208 C76.0806828,51.4838127 77.8046968,51.3327711 79.1164465,51.8614167 C80.6905462,52.541104 82.0397745,54.3913637 82.8268243,57.0723522 C83.3515242,58.8093307 83.6513527,60.8861528 83.6138742,63.1517769 C88.0738233,61.6791212 90.3600156,56.959071 91.2220226,55.1088113 C94.107872,49.1049074 92.9835151,42.9877223 92.0840296,39.8913694 C91.9715939,39.5137654 92.1964653,39.0984009 92.5712509,38.9851197 C92.7961223,38.9095989 93.0584722,38.9851197 93.2083865,39.0984009 L93.2083865,39.0984009 Z M82.1269691,63.5437871 C82.2019317,61.3503783 81.9020812,59.2326043 81.377343,57.4930042 C80.7026796,55.2995954 79.6532031,53.7490823 78.528764,53.2196388 C77.6292127,52.8414648 76.3173672,52.9927344 75.0804842,53.5599953 C73.7311573,54.202891 72.7191621,55.2995954 72.456793,56.3584824 C71.8570922,58.7409781 74.7431525,61.5772826 77.0295119,62.7118044 C79.0160209,63.7706914 80.9275674,63.732874 82.1269691,63.5437871 L82.1269691,63.5437871 Z M68.4253977,81.1879057 C67.9757644,77.9026966 66.4769868,74.8062926 64.1913509,73.1825685 C64.1913509,73.1825685 64.1913509,73.1825685 64.1538814,73.1448075 C62.5801649,72.0497378 59.4702013,70.879146 57.6341986,72.2007819 C56.0604821,73.2580906 56.0604821,75.485991 56.0604821,75.485991 C56.0604821,78.1292628 58.5709347,80.092836 59.0580374,80.4326853 L59.0580374,80.4326853 C61.2687344,81.9431262 64.7908619,82.1696924 68.4253977,81.1879057 L68.4253977,81.1879057 Z" id="line_1_" fill="#DBDBD1"></path>
                            <path d="M347.984129,63.6463662 C347.87159,63.7975278 347.646513,63.9864798 347.421435,64.0620606 C342.994909,65.2335631 334.29191,66.442856 325.889013,61.9835885 C323.450673,60.6987148 316.060626,56.8063033 314.44757,49.3993844 C309.795966,48.9081092 304.956798,47.3209123 301.017941,44.2598897 C296.40385,40.6698014 293.32779,35.5303067 291.864786,30.3152311 C288.33857,30.3908119 284.662303,29.6350039 281.773808,27.8588549 C267.518894,19.1670623 269.844696,1.10324988 269.844696,0.914297864 C269.919722,0.385232228 270.369877,-0.0304622011 270.970084,0.0829090068 C271.495265,0.158489812 271.870394,0.611974643 271.757855,1.17883068 C271.720342,1.32999229 269.657131,18.1467215 282.786657,26.1582868 C285.224997,27.6699029 288.263545,28.3879206 291.339605,28.3501302 C290.214217,22.9083122 290.851937,17.6932366 293.252764,14.4810524 L293.252764,14.4810524 C293.890484,13.6118731 297.154109,9.56830006 301.693173,9.79504248 C301.843225,9.83283288 305.669544,10.0217849 307.470165,13.0072267 C309.795966,16.7484766 307.357626,21.8879713 305.74457,24.0042339 C305.74457,24.0042339 305.74457,24.0042339 305.707057,24.0420243 C303.193691,27.4053701 298.692139,29.5216326 293.890484,30.0884887 C295.353488,34.7744986 298.129445,39.3849277 302.218354,42.597112 C305.707057,45.3180209 309.983531,46.7162658 314.147466,47.2453315 C313.997414,45.3936017 314.147466,42.5593216 315.685496,39.7250414 C317.598656,36.0593723 322.325285,31.6001048 326.676785,32.8849785 C328.66497,33.4896249 330.428078,35.2279834 331.47844,37.6087788 C332.416263,39.8384126 332.528802,42.1814175 331.74103,43.919776 C330.765694,45.9982482 328.252328,47.7366067 324.651087,48.6813668 C322.325285,49.2860132 319.511815,49.5883364 316.548294,49.4371748 C318.273888,55.5214296 324.463522,58.8469851 326.864349,60.056278 C334.704552,64.2132223 342.882371,63.0417198 347.046306,61.9835885 C347.533974,61.8702173 348.096668,62.2103309 348.209207,62.7016061 C348.24672,63.0795102 348.134181,63.4196238 347.984129,63.6463662 L347.984129,63.6463662 Z M316.014542,47.4732293 C318.947413,47.6619283 321.767481,47.3600098 324.098737,46.7939126 C327.031608,46.0013765 329.174859,44.680483 329.926878,43.1331506 C330.490891,41.9632164 330.340487,40.1894451 329.663671,38.4911535 C328.874052,36.6419026 327.445218,35.2455294 326.091585,34.7926517 C322.97071,33.8491563 319.060216,37.5853979 317.405776,40.6423229 C315.90174,43.2841099 315.864139,45.8126774 316.014542,47.4732293 L316.014542,47.4732293 Z M293.264401,28.130957 C297.64768,27.6776502 301.843641,25.8266477 304.091476,22.8423784 C304.091476,22.8423784 304.091476,22.8423784 304.12894,22.8046028 C305.664961,20.726947 307.350838,16.6094108 305.702425,14.0406727 C304.391188,11.8874657 301.431537,11.7363634 301.431537,11.7363634 C297.909928,11.5852612 295.212525,14.871735 294.725494,15.5139196 L294.725494,15.5139196 C292.59005,18.4604133 292.140483,23.220134 293.264401,28.130957 L293.264401,28.130957 Z" id="line_2_" fill="#DBDBD1"></path>
                        </g>
                        <g id="suitcase" transform="translate(0.000000, 254.475345)">
                            <path d="M83.9732509,81.7798935 L65.8193525,81.7798935 L64.2852202,81.7798935 L33.0911975,81.7798935 L31.5570652,81.7798935 L13.4543045,81.7798935 C6.09046966,81.7798935 0.056216086,87.8339522 0.056216086,95.3368454 L0.056216086,132.9548 C0.056216086,140.457693 6.03933191,146.511752 13.4543045,146.511752 L84.0243887,146.511752 C91.4393613,146.511752 97.4224771,140.457693 97.4224771,132.9548 L97.4224771,95.3368454 C97.3713394,87.8339522 91.3882235,81.7798935 83.9732509,81.7798935 L83.9732509,81.7798935 Z" id="Shape" fill="#40AE4E"></path>
                            <ellipse id="Oval" fill="#000000" cx="15.0940191" cy="145.345668" rx="6.38052576" ry="6.45612117"></ellipse>
                            <ellipse id="Oval" fill="#000000" cx="80.0235985" cy="145.345668" rx="6.38052576" ry="6.45612117"></ellipse>
                            <polygon id="Shape" fill="#000000" points="71.4506453 0.552219288 25.9718317 0.552219288 25.9718317 7.53499047 31.5928087 7.53499047 31.5928087 81.552365 33.1258024 81.552365 33.1258024 7.53499047 64.2455749 7.53499047 64.2455749 81.552365 65.7785686 81.552365 65.7785686 7.53499047 71.4506453 7.53499047"></polygon>
                            <path d="M65.2562024,135.533501 C64.5910618,135.533501 63.9770859,135.378405 63.4142747,135.016514 C62.4933109,134.396128 62.0839936,133.103659 62.0839936,131.139105 C62.1863229,126.22772 64.8980498,118.98989 67.5586119,112.010555 C70.4238327,104.410833 73.1867242,97.2247022 71.6006199,95.0016545 C71.2424673,94.4846666 70.679656,94.2778715 69.9121862,94.2778715 C66.3818248,94.3812691 60.4467246,103.221761 54.2046364,112.63094 C46.8369257,123.69448 39.2645565,135.068212 33.7899381,135.068212 C33.2271269,135.068212 32.7154803,134.964815 32.2549984,134.706321 C31.2317053,134.241032 30.5665647,133.46555 30.2084121,132.483273 C28.9804603,128.812659 32.459657,122.143516 36.1435124,115.009084 C40.6971669,106.220291 45.4043153,97.1730034 42.1809419,92.6235104 C41.72046,91.9514262 41.2599781,91.744631 41.0553195,91.6412335 C36.3993356,89.5215833 26.3198982,99.5511475 12.60777,119.817071 C12.5054407,119.920469 12.3519467,119.972167 12.2496174,119.86877 C12.1472881,119.765372 12.0961234,119.610276 12.1984528,119.506878 C20.2313039,107.616158 34.710902,88.1774149 41.2599781,91.1242456 C41.5158014,91.2276432 42.0786126,91.4861371 42.6414238,92.2616189 C46.0694559,97.0696058 41.3111427,106.271989 36.6551589,115.215879 C33.0224683,122.195215 29.5944362,128.812659 30.7712233,132.276478 C31.0782113,133.155357 31.6410225,133.775743 32.5108217,134.189333 C37.6272874,136.619176 46.2741145,123.69448 53.8464838,112.269048 C60.1909013,102.756472 66.1771662,93.7608836 70.0145155,93.6574861 C70.986644,93.6574861 71.7029492,93.91598 72.1122664,94.5880642 C73.8518648,97.0696058 71.1913026,103.997243 68.1214232,112.062253 C65.460861,118.98989 62.7491342,126.176021 62.6468048,130.984008 C62.5956402,132.741767 63.0049574,133.87914 63.7212626,134.396128 C64.5398972,134.964815 65.7166843,134.964815 67.3027886,134.396128 C71.6517845,132.896863 77.3310615,127.623587 79.1729891,125.503937 C79.0706598,125.503937 78.9683305,125.503937 78.9171659,125.40054 C78.8148365,125.297142 78.8660012,125.142046 78.9683305,125.038648 C79.7358004,124.418263 79.9916237,124.314865 80.1962823,124.52166 C80.4009409,124.728456 80.1962823,125.038648 79.786965,125.555636 C77.842708,128.140575 69.9121862,135.533501 65.2562024,135.533501 L65.2562024,135.533501 Z" id="Shape" fill="#F6F6F4"></path>
                        </g>
                        <g id="general_1_" transform="translate(150.871308, 0.000000)">
                            <g id="general">
                                <g id="man">
                                    <g id="head" transform="translate(57.163125, 0.000000)">
                                        <path d="M33.7065463,27.0499549 C33.331985,25.348338 32.2457572,22.2098001 31.2344418,19.487213 C31.0846173,19.1090759 30.9347927,18.7309388 30.7849682,18.3528017 C30.4104069,17.3696453 30.0358457,16.4621163 29.7361966,15.7436558 C29.6987405,15.7814695 29.6612844,15.8192832 29.6238282,15.8949106 L10.1840975,21.1132025 C10.2590097,24.4029953 10.2964659,27.692788 10.3713781,31.0203944 C10.4088342,32.7220114 10.4462904,34.3858146 10.4837465,36.0874315 C10.5212026,37.5999799 10.5586588,39.0747146 10.5586588,40.587263 L10.5586588,40.9654 L10.5586588,40.587263 L10.5586588,40.587263 C10.4462904,40.7007041 10.2964659,40.8141452 10.1466413,40.9275863 L10.5586588,44.2930065 L11.3826936,51.2885428 C17.1883935,55.939629 22.9940935,60.628529 28.7997934,65.317429 C28.5376005,59.0781669 28.2754076,52.8389049 28.0506708,46.5996428 L28.0506708,46.2971331 C28.088127,46.2971331 28.1255831,46.2971331 28.1630392,46.2593194 C29.4365476,45.9568097 30.5602315,45.6164863 31.6464592,44.7089573 C36.553212,40.4738218 34.4182127,30.4531888 33.7065463,27.0499549 L33.7065463,27.0499549 Z" id="Shape" fill="#FBB319"></path>
                                        <path d="M27.2007538,33.3615563 C27.1255078,33.3615563 27.0502617,33.3239439 27.0126387,33.2487191 C26.9750157,33.1734943 27.0126387,33.0606571 27.0878848,32.9854323 L31.1887944,31.0295878 L26.1473092,25.3877287 C26.0720631,25.3125039 26.0720631,25.1996667 26.1473092,25.1244419 C26.2225552,25.0492171 26.3354243,25.0492171 26.4106703,25.1244419 L31.6778937,30.9919754 C31.7155167,31.0295878 31.7155167,31.1048126 31.7155167,31.142425 C31.7155167,31.2176498 31.6778937,31.2552622 31.6026476,31.2928746 L27.2759999,33.3615563 C27.2759999,33.3239439 27.2383769,33.3615563 27.2007538,33.3615563 L27.2007538,33.3615563 Z" id="nose" fill="#000000"></path>
                                        <g id="eyes" transform="translate(21.581864, 23.053210)" fill="#000000">
                                            <ellipse id="Oval" cx="0.929692904" cy="2.88165128" rx="1" ry="1"></ellipse>
                                            <ellipse id="Oval" cx="8.46020542" cy="0.960550427" rx="1" ry="1"></ellipse>
                                        </g>
                                        <path d="M26.5371285,38.8905782 C25.7475314,38.8905782 24.8075348,38.6696816 23.7171388,38.043808 C23.6419391,38.0069919 23.6043392,37.8965436 23.6419391,37.7860953 C23.6795389,37.7124631 23.7923385,37.675647 23.9051381,37.7124631 C27.4395252,39.7373485 29.2443187,37.2338538 29.2819185,37.2338538 C29.3571183,37.1602216 29.4699178,37.1234055 29.5451176,37.1970377 C29.6203173,37.2706699 29.6579172,37.3811182 29.5827174,37.4547504 C29.5451176,37.4915665 28.5299213,38.8905782 26.5371285,38.8905782 L26.5371285,38.8905782 Z" id="mouth" fill="#000000"></path>
                                        <path d="M29.693238,15.7606638 C29.6557686,15.7984866 29.6182993,15.8363094 29.5808299,15.9119549 C23.098632,17.6518023 16.6164341,19.3916497 10.1342363,21.1314971 C10.2466443,26.1241026 10.321583,31.1167082 10.4339911,36.0714909 L9.49725727,35.9580226 L10.4714604,44.2790319 C8.44811541,42.6526528 5.30068985,39.5890085 2.94012067,34.8989851 C-0.956691933,27.0696718 0.0175112179,19.8077001 0.42967409,17.046638 C1.29146918,11.2597543 4.28901734,1.80406197 9.75954273,0.291151196 C10.3965217,0.10203735 12.1950506,-0.389658651 13.5439473,0.593733351 C15.3799455,1.95535304 15.005252,5.01899736 14.9303133,5.32157951 C17.1410051,1.04760658 21.3001031,-0.0870764964 23.098632,1.12325212 C24.6348755,2.14446689 25.0845077,5.28375674 23.7730804,8.38522382 C24.7847529,6.15368043 26.6956898,4.82988351 28.4942187,5.01899736 C30.1428702,5.2081112 31.1170734,6.5697309 31.2294814,6.75884474 C32.8031942,8.91474259 32.1662152,12.5079057 29.693238,15.7606638 L29.693238,15.7606638 Z" id="hair" fill="#000000"></path>
                                        <g id="ear" transform="translate(0.198927, 29.472498)">
                                            <path d="M10.9288377,2.23273364 C8.64578495,-0.374972466 4.75336711,-0.63952236 2.17089758,1.66584101 C1.08551183,2.6484549 0.374397031,3.93341153 0.149834463,5.256161 C-0.187009389,7.07021742 0.299542842,8.99765237 1.60949116,10.4715732 C3.74283555,12.9281079 7.37326373,13.3060364 9.95573327,11.3786014 C10.1054416,11.2652229 10.25515,11.1518444 10.3674313,11.0384658 L10.3674313,11.0384658 C12.9124737,8.80868815 13.1744634,4.84043974 10.9288377,2.23273364 L10.9288377,2.23273364 Z" id="Shape" fill="#FBB319"></path>
                                            <path d="M9.28665563,8.24667683 L9.24922379,8.24667683 C8.50058705,8.05785944 7.86424583,7.49140728 7.63965481,6.69837425 C7.45249562,6.01863165 7.56479113,5.30112557 7.97654134,4.7346734 L3.14783439,2.884263 C3.03553888,2.84649952 2.99810704,2.73320908 3.03553888,2.65768213 C3.07297071,2.5443917 3.18526622,2.50662822 3.2601299,2.5443917 L8.35085971,4.47032906 C8.42572338,4.50809254 8.46315522,4.54585602 8.46315522,4.62138297 C8.46315522,4.69690993 8.46315522,4.7346734 8.42572338,4.81020036 C7.97654134,5.30112557 7.78938215,5.98086817 7.97654134,6.62284729 C8.16370052,7.26482641 8.6503144,7.75575162 9.28665563,7.90680553 C9.39895114,7.94456901 9.43638297,8.02009597 9.43638297,8.1333864 C9.43638297,8.20891336 9.3615193,8.24667683 9.28665563,8.24667683 L9.28665563,8.24667683 Z" id="Shape" fill="#000000"></path>
                                        </g>
                                        <g id="brows" transform="translate(17.245803, 18.133318)" fill="#000000">
                                            <ellipse id="Oval" transform="translate(2.907492, 3.739770) rotate(-21.955679) translate(-2.907492, -3.739770) " cx="2.90749165" cy="3.73976985" rx="2.71911074" ry="1"></ellipse>
                                            <ellipse id="Oval" transform="translate(12.256853, 1.088863) rotate(-6.707159) translate(-12.256853, -1.088863) " cx="12.2568529" cy="1.08886285" rx="2.71932823" ry="1"></ellipse>
                                        </g>
                                        <path d="M26.4988529,46.5749817 C25.3014621,46.5749817 24.0666529,46.4627511 22.8692621,46.2382901 C20.8486652,45.8641883 18.9029052,45.1908051 17.0694005,44.2555507 C16.9945636,44.2181405 16.9571452,44.10591 16.9945636,43.9936795 C17.0319821,43.9188591 17.1442375,43.8814489 17.2564929,43.9188591 C19.052579,44.8541135 20.9609206,45.5274967 22.944099,45.8641883 C24.6279298,46.1634697 26.3117606,46.2382901 27.9955914,46.1260595 C28.1078467,46.1260595 28.1826837,46.2008799 28.1826837,46.3131104 C28.1826837,46.425341 28.1078467,46.5001613 27.9955914,46.5001613 C27.5465698,46.5375715 27.0227114,46.5749817 26.4988529,46.5749817 L26.4988529,46.5749817 Z" id="Shape" fill="#000000"></path>
                                    </g>
                                    <g id="legs" transform="translate(0.000000, 139.771801)">
                                        <g id="shoes" transform="translate(0.000000, 99.702004)">
                                            <path d="M162.709278,17.2064776 C164.284254,17.6980558 165.446737,18.9459083 166.196726,20.155947 L206.996125,20.155947 C205.046154,12.215068 201.821201,9.11434378 199.083742,7.79086394 C195.258798,5.93799217 192.296342,7.48835426 186.333929,6.08924701 C181.534,4.95483572 177.934053,2.61038573 175.571588,0.757513963 C172.72163,3.02633654 169.834173,5.2573454 166.909216,7.52616797 C161.2093,11.9125583 155.546883,16.10988 149.959465,20.155947 L157.421855,20.155947 C158.809335,18.3408889 160.759306,16.5636446 162.709278,17.2064776 L162.709278,17.2064776 Z" id="Shape" fill="#000000"></path>
                                            <path d="M48.8298389,50.30388 C46.394418,46.8309947 43.0597648,46.6799997 38.5636031,42.5276369 C34.9292057,39.1679979 32.943401,35.3553738 31.7818925,32.5619661 C32.5312528,30.4102872 33.2431451,28.296357 33.9925054,26.1446781 C24.8503099,25.2764568 12.1111852,24.0307479 7.1279393,23.3890191 C4.76745441,27.843372 2.40696953,32.2977248 0.0464846452,36.7520777 C1.88241733,37.8467915 3.71835002,38.9037566 5.55428271,39.9984704 C7.80236355,39.4699879 10.5375286,39.3189929 11.699037,41.0931843 C12.2985252,42.0369031 12.5608013,43.0561194 12.5982694,44.0753357 C14.7714142,45.3210446 16.982027,46.6045022 19.1926398,47.850211 C29.4588757,53.7390165 39.6501755,59.4390782 49.7290713,64.9503961 C51.9022161,57.0609068 50.5533676,52.7575489 48.8298389,50.30388 L48.8298389,50.30388 Z" id="Shape" fill="#000000"></path>
                                            <path d="M50.8380123,58.6716763 C50.8005277,58.6716763 50.7630432,58.6716763 50.7630432,58.6339597 L3.15766106,30.9122511 C3.08269195,30.8745345 3.0452074,30.7613847 3.08269195,30.6482349 C3.12017651,30.5728017 3.23263017,30.535085 3.34508382,30.5728017 L50.9504659,58.2945102 C51.025435,58.3322268 51.0629196,58.4453766 51.025435,58.5585264 C50.9879505,58.6339597 50.9129814,58.6716763 50.8380123,58.6716763 L50.8380123,58.6716763 Z" id="Shape" fill="#F6F6F4"></path>
                                            <path d="M205.181631,14.9080617 L157.398602,14.9080617 C157.286083,14.9080617 157.21107,14.8330919 157.21107,14.7206372 C157.21107,14.6081826 157.286083,14.5332128 157.398602,14.5332128 L205.181631,14.5332128 C205.29415,14.5332128 205.369162,14.6081826 205.369162,14.7206372 C205.369162,14.8330919 205.29415,14.9080617 205.181631,14.9080617 L205.181631,14.9080617 Z" id="Shape" fill="#D5E0EA"></path>
                                        </g>
                                        <g id="pants" transform="translate(6.539739, 0.000000)">
                                            <path d="M166.849639,89.8088563 C165.462696,83.0087048 164.225692,76.8885684 163.101144,71.5995617 C157.590856,45.0411921 156.278882,40.2055288 152.267992,34.0098352 C146.570279,25.2451954 139.485623,20.1073031 130.00193,13.269373 C121.23045,6.92256489 113.20867,2.72913811 107.361018,0.0468561184 C106.348924,0.197970597 93.30416,2.3135733 79.2473024,4.58029047 C65.790204,6.73367179 53.2327445,8.77371725 52.3331056,8.92483173 C42.8119274,30.2319732 33.1408093,51.4635574 23.4322063,72.6951416 C15.7103059,89.5066274 7.95092048,106.242556 0.154050114,123.016263 C0.303989929,123.016263 0.453929744,123.054042 0.603869558,123.054042 C5.5893684,123.696278 18.3342526,124.942973 27.4805813,125.811881 C31.6788962,126.189667 35.1275119,126.491896 36.7018799,126.605232 C44.0114459,111.040441 52.1831658,94.8711914 61.2920096,78.1730415 C70.0260038,62.1926854 78.7974829,47.1567948 87.4939922,33.1409269 C92.5919459,34.4254 118.831413,46.7790086 123.517033,50.2924202 C130.151869,73.4884927 136.749221,96.6845651 143.384058,119.842859 C148.969316,115.800547 154.629544,111.60712 160.327257,107.2248 C163.251084,104.958083 166.137425,102.729144 168.986281,100.462427 C168.274067,96.7601223 167.561853,93.1711535 166.849639,89.8088563 L166.849639,89.8088563 Z" id="Shape" fill="#F47729"></path>
                                            <path d="M155.633882,110.908432 C155.558969,110.908432 155.484057,110.870657 155.4466,110.757332 L133.684453,39.362366 L87.4258442,33.2805727 C87.3134751,33.2805727 87.2385623,33.1672473 87.2760187,33.053922 C87.2760187,32.9405966 87.3883878,32.8650464 87.5007569,32.9028215 L133.871735,39.02239 C133.946648,39.02239 134.02156,39.0979402 134.02156,39.1357154 L155.821164,110.681781 C155.85862,110.795107 155.783708,110.870657 155.708795,110.908432 L155.633882,110.908432 L155.633882,110.908432 Z" id="Shape" fill="#F6F6F4"></path>
                                            <path d="M16.0207385,124.918412 L15.9458127,124.918412 C15.8334241,124.880635 15.7959613,124.767304 15.8334241,124.653973 L64.7973915,6.82792186 C64.8348544,6.71459125 64.947243,6.67681438 65.0596316,6.71459125 C65.1720202,6.75236812 65.209483,6.86569872 65.1720202,6.97902933 L16.2080528,124.805081 C16.1705899,124.880635 16.0956642,124.918412 16.0207385,124.918412 L16.0207385,124.918412 Z" id="Shape" fill="#F6F6F4"></path>
                                        </g>
                                    </g>
                                    <g id="tshirt" transform="translate(18.361435, 52.845885)" fill="#000000">
                                        <g id="tshirt_pattern" transform="translate(0.000000, 2.678615)">
                                            <ellipse id="Oval" cx="37.3271701" cy="1.31197131" rx="1.30157007" ry="1.31197131"></ellipse>
                                            <ellipse id="Oval" cx="49.2737239" cy="1.31197131" rx="1.30157007" ry="1.31197131"></ellipse>
                                            <ellipse id="Oval" cx="72.5625311" cy="1.31197131" rx="1.30157007" ry="1.31197131"></ellipse>
                                            <ellipse id="Oval" cx="84.8809621" cy="1.31197131" rx="1.30157007" ry="1.31197131"></ellipse>
                                            <path d="M133.190521,2.21223579 C132.710702,2.69870342 131.93561,2.69870342 131.455791,2.21223579 C131.197427,1.95029169 131.086699,1.650927 131.086699,1.31414172 L131.086699,1.31414172 C131.308154,0.939935855 131.4927,0.603150578 131.677246,0.228944713 C132.157065,-0.0704199778 132.784521,0.00442119506 133.190521,0.416047645 C133.67034,0.939935855 133.67034,1.72576817 133.190521,2.21223579 L133.190521,2.21223579 Z" id="Shape"></path>
                                            <ellipse id="Oval" cx="144.148885" cy="1.31197131" rx="1.30157007" ry="1.31197131"></ellipse>
                                            <path d="M20.2782057,12.7484111 C19.8031762,13.2434805 19.0358209,13.2434805 18.5607914,12.7484111 C18.4146285,12.596082 18.341547,12.443753 18.2684656,12.2914239 C18.8165765,11.7582722 19.4012282,11.2251205 19.9858799,10.7300511 C20.095502,10.7681334 20.2051242,10.8823802 20.3147464,10.9585447 C20.7532352,11.4536141 20.7532352,12.2533416 20.2782057,12.7484111 L20.2782057,12.7484111 Z" id="Shape"></path>
                                            <ellipse id="Oval" cx="31.2841662" cy="11.9014541" rx="1.30157007" ry="1.31197131"></ellipse>
                                            <ellipse id="Oval" cx="43.6490818" cy="11.9014541" rx="1.30157007" ry="1.31197131"></ellipse>
                                            <ellipse id="Oval" cx="55.6886049" cy="11.9014541" rx="1.30157007" ry="1.31197131"></ellipse>
                                            <ellipse id="Oval" cx="67.2632816" cy="11.9014541" rx="1.30157007" ry="1.31197131"></ellipse>
                                            <ellipse id="Oval" cx="79.2563201" cy="11.9014541" rx="1.30157007" ry="1.31197131"></ellipse>
                                            <ellipse id="Oval" cx="91.2958432" cy="11.9014541" rx="1.30157007" ry="1.31197131"></ellipse>
                                            <ellipse id="Oval" cx="126.856597" cy="11.9014541" rx="1.30157007" ry="1.31197131"></ellipse>
                                            <ellipse id="Oval" cx="138.89612" cy="11.9014541" rx="1.30157007" ry="1.31197131"></ellipse>
                                            <ellipse id="Oval" cx="13.6664857" cy="20.9446849" rx="1.30157007" ry="1.31197131"></ellipse>
                                            <ellipse id="Oval" cx="25.6595241" cy="20.9446849" rx="1.30157007" ry="1.31197131"></ellipse>
                                            <ellipse id="Oval" cx="37.6525626" cy="20.9446849" rx="1.30157007" ry="1.31197131"></ellipse>
                                            <ellipse id="Oval" cx="49.6456011" cy="20.9446849" rx="1.30157007" ry="1.31197131"></ellipse>
                                            <ellipse id="Oval" cx="61.313247" cy="20.9446849" rx="1.30157007" ry="1.31197131"></ellipse>
                                            <ellipse id="Oval" cx="73.2598008" cy="20.9446849" rx="1.30157007" ry="1.31197131"></ellipse>
                                            <ellipse id="Oval" cx="85.2993239" cy="20.9446849" rx="1.30157007" ry="1.31197131"></ellipse>
                                            <ellipse id="Oval" cx="97.2458777" cy="20.9446849" rx="1.30157007" ry="1.31197131"></ellipse>
                                            <path d="M109.843217,21.535072 C109.806072,21.5725569 109.806072,21.5725569 109.768927,21.6100418 C109.286047,22.0973454 108.506011,22.0973454 108.023131,21.6100418 C107.577395,21.1602231 107.540251,20.4480101 107.911697,19.9607064 C108.543155,20.5604647 109.211758,21.0852533 109.843217,21.535072 L109.843217,21.535072 Z" id="Shape"></path>
                                            <ellipse id="Oval" cx="120.906562" cy="20.9446849" rx="1.30157007" ry="1.31197131"></ellipse>
                                            <ellipse id="Oval" cx="132.853116" cy="20.9446849" rx="1.30157007" ry="1.31197131"></ellipse>
                                            <path d="M143.777008,19.7264258 C143.624876,20.0360837 143.472744,20.3070343 143.358646,20.6166921 C143.358646,20.3070343 143.510777,20.0360837 143.738975,19.8038403 C143.738975,19.7651331 143.777008,19.7651331 143.777008,19.7264258 L143.777008,19.7264258 Z" id="Shape"></path>
                                            <ellipse id="Oval" cx="7.2980893" cy="31.1593187" rx="1.30157007" ry="1.31197131"></ellipse>
                                            <ellipse id="Oval" cx="18.9192506" cy="31.1593187" rx="1.30157007" ry="1.31197131"></ellipse>
                                            <ellipse id="Oval" cx="30.9122891" cy="31.1593187" rx="1.30157007" ry="1.31197131"></ellipse>
                                            <ellipse id="Oval" cx="43.2772047" cy="31.1593187" rx="1.30157007" ry="1.31197131"></ellipse>
                                            <ellipse id="Oval" cx="54.898366" cy="31.1593187" rx="1.30157007" ry="1.31197131"></ellipse>
                                            <ellipse id="Oval" cx="66.5195273" cy="31.1593187" rx="1.30157007" ry="1.31197131"></ellipse>
                                            <ellipse id="Oval" cx="78.5125657" cy="31.1593187" rx="1.30157007" ry="1.31197131"></ellipse>
                                            <ellipse id="Oval" cx="90.923966" cy="31.1593187" rx="1.30157007" ry="1.31197131"></ellipse>
                                            <ellipse id="Oval" cx="102.87052" cy="31.1593187" rx="1.30157007" ry="1.31197131"></ellipse>
                                            <ellipse id="Oval" cx="114.491681" cy="31.1593187" rx="1.30157007" ry="1.31197131"></ellipse>
                                            <ellipse id="Oval" cx="126.159327" cy="31.1593187" rx="1.30157007" ry="1.31197131"></ellipse>
                                            <path d="M138.384789,29.9840908 C137.969805,30.6725888 137.554821,31.3610869 137.139837,32.049585 C136.724854,31.5523364 136.762579,30.7873385 137.215289,30.3283398 C137.554821,29.9840908 138.007531,29.8693411 138.384789,29.9840908 L138.384789,29.9840908 Z" id="Shape"></path>
                                            <ellipse id="Oval" cx="1.30157007" cy="40.2494057" rx="1.30157007" ry="1.31197131"></ellipse>
                                            <ellipse id="Oval" cx="12.9227314" cy="40.2494057" rx="1.30157007" ry="1.31197131"></ellipse>
                                            <ellipse id="Oval" cx="24.9157698" cy="40.2494057" rx="1.30157007" ry="1.31197131"></ellipse>
                                            <ellipse id="Oval" cx="37.3271701" cy="40.2494057" rx="1.30157007" ry="1.31197131"></ellipse>
                                            <ellipse id="Oval" cx="48.9018467" cy="40.2494057" rx="1.30157007" ry="1.31197131"></ellipse>
                                            <ellipse id="Oval" cx="60.523008" cy="40.2494057" rx="1.30157007" ry="1.31197131"></ellipse>
                                            <ellipse id="Oval" cx="72.5625311" cy="40.2494057" rx="1.30157007" ry="1.31197131"></ellipse>
                                            <ellipse id="Oval" cx="84.8809621" cy="40.2494057" rx="1.30157007" ry="1.31197131"></ellipse>
                                            <path d="M97.6456457,40.764823 C96.9829606,40.1986389 96.3570913,39.6324548 95.8048537,39.1040164 C96.2834596,38.6133235 97.0565923,38.6510691 97.5351982,39.1040164 C97.9769882,39.5947092 98.0138041,40.2741301 97.6456457,40.764823 L97.6456457,40.764823 Z" id="Shape"></path>
                                            <ellipse id="Oval" cx="108.495162" cy="40.2494057" rx="1.30157007" ry="1.31197131"></ellipse>
                                            <ellipse id="Oval" cx="120.162808" cy="40.2494057" rx="1.30157007" ry="1.31197131"></ellipse>
                                            <path d="M132.202331,38.7500099 C131.784798,39.2309016 131.329308,39.7117934 130.873818,40.1556934 C130.797903,39.7857767 130.949733,39.3788683 131.215436,39.0829349 C131.481138,38.8609849 131.822756,38.7500099 132.202331,38.7500099 L132.202331,38.7500099 Z" id="Shape"></path>
                                            <ellipse id="Oval" cx="7.66996646" cy="50.7920323" rx="1.30157007" ry="1.31197131"></ellipse>
                                            <ellipse id="Oval" cx="19.2911278" cy="50.7920323" rx="1.30157007" ry="1.31197131"></ellipse>
                                            <ellipse id="Oval" cx="43.6490818" cy="50.7920323" rx="1.30157007" ry="1.31197131"></ellipse>
                                            <ellipse id="Oval" cx="55.2702431" cy="50.7920323" rx="1.30157007" ry="1.31197131"></ellipse>
                                            <ellipse id="Oval" cx="66.9378891" cy="50.7920323" rx="1.30157007" ry="1.31197131"></ellipse>
                                            <ellipse id="Oval" cx="78.8844429" cy="50.7920323" rx="1.30157007" ry="1.31197131"></ellipse>
                                            <ellipse id="Oval" cx="91.2958432" cy="50.7920323" rx="1.30157007" ry="1.31197131"></ellipse>
                                            <ellipse id="Oval" cx="1.67344723" cy="59.5072703" rx="1.30157007" ry="1.31197131"></ellipse>
                                            <ellipse id="Oval" cx="13.2946085" cy="59.5072703" rx="1.30157007" ry="1.31197131"></ellipse>
                                            <ellipse id="Oval" cx="25.287647" cy="59.5072703" rx="1.30157007" ry="1.31197131"></ellipse>
                                            <ellipse id="Oval" cx="37.6525626" cy="59.5072703" rx="1.30157007" ry="1.31197131"></ellipse>
                                            <ellipse id="Oval" cx="49.6456011" cy="59.5072703" rx="1.30157007" ry="1.31197131"></ellipse>
                                            <ellipse id="Oval" cx="60.8948852" cy="59.5072703" rx="1.30157007" ry="1.31197131"></ellipse>
                                            <ellipse id="Oval" cx="72.8879237" cy="59.5072703" rx="1.30157007" ry="1.31197131"></ellipse>
                                            <ellipse id="Oval" cx="85.2993239" cy="59.5072703" rx="1.30157007" ry="1.31197131"></ellipse>
                                            <ellipse id="Oval" cx="6.55433497" cy="69.675048" rx="1.30157007" ry="1.31197131"></ellipse>
                                            <ellipse id="Oval" cx="18.1754963" cy="69.675048" rx="1.30157007" ry="1.31197131"></ellipse>
                                            <ellipse id="Oval" cx="30.1685347" cy="69.675048" rx="1.30157007" ry="1.31197131"></ellipse>
                                            <ellipse id="Oval" cx="42.5334504" cy="69.675048" rx="1.30157007" ry="1.31197131"></ellipse>
                                            <ellipse id="Oval" cx="54.1546116" cy="69.675048" rx="1.30157007" ry="1.31197131"></ellipse>
                                            <ellipse id="Oval" cx="65.7757729" cy="69.675048" rx="1.30157007" ry="1.31197131"></ellipse>
                                            <ellipse id="Oval" cx="77.8152961" cy="69.675048" rx="1.30157007" ry="1.31197131"></ellipse>
                                            <ellipse id="Oval" cx="90.133727" cy="69.675048" rx="1.30157007" ry="1.31197131"></ellipse>
                                            <ellipse id="Oval" cx="36.5369311" cy="78.390286" rx="1.30157007" ry="1.31197131"></ellipse>
                                            <ellipse id="Oval" cx="48.1580924" cy="78.390286" rx="1.30157007" ry="1.31197131"></ellipse>
                                            <ellipse id="Oval" cx="59.7792537" cy="78.390286" rx="1.30157007" ry="1.31197131"></ellipse>
                                            <ellipse id="Oval" cx="71.7722922" cy="78.390286" rx="1.30157007" ry="1.31197131"></ellipse>
                                            <ellipse id="Oval" cx="84.1372078" cy="78.390286" rx="1.30157007" ry="1.31197131"></ellipse>
                                            <ellipse id="Oval" cx="96.1767309" cy="78.390286" rx="1.30157007" ry="1.31197131"></ellipse>
                                            <path d="M31.3362854,89.8566476 C31.186032,90.0083721 30.9606519,90.1221656 30.7728351,90.1980279 C30.8103985,89.4014738 30.8855252,88.6049198 30.9230885,87.8083658 C31.0733419,87.8842281 31.2235953,87.9600904 31.3362854,88.111815 C31.8246089,88.5290575 31.8246089,89.3635427 31.3362854,89.8566476 L31.3362854,89.8566476 Z" id="Shape"></path>
                                            <ellipse id="Oval" cx="42.9518122" cy="88.9797688" rx="1.30157007" ry="1.31197131"></ellipse>
                                            <ellipse id="Oval" cx="54.5264888" cy="88.9797688" rx="1.30157007" ry="1.31197131"></ellipse>
                                            <path d="M67.4492202,88.8459784 C66.6353899,88.9591403 65.8215596,89.1100229 65.0077293,89.2609055 C64.9337448,88.8459784 65.0447216,88.4310512 65.3406599,88.129286 C65.8215596,87.6389176 66.5983976,87.6389176 67.0792973,88.129286 C67.301251,88.3178893 67.4122279,88.5819338 67.4492202,88.8459784 L67.4492202,88.8459784 Z" id="Shape"></path>
                                        </g>
                                        <path d="M67.6242837,12.5183997 C67.5867014,12.5183997 67.5491192,12.5183997 67.5115369,12.4806281 L53.1175335,0.960295704 C53.042369,0.884752541 53.0047867,0.771437796 53.0799512,0.695894632 C53.1551157,0.620351469 53.2678625,0.582579888 53.343027,0.658123051 L67.3987901,11.9140544 L66.9478031,0.809209377 C66.9478031,0.695894632 67.0229676,0.620351469 67.1357144,0.620351469 C67.2484611,0.620351469 67.3236256,0.695894632 67.3236256,0.809209377 L67.7746127,12.3295418 C67.7746127,12.4050849 67.7370304,12.4806281 67.6618659,12.5183997 C67.6994482,12.5183997 67.6618659,12.5183997 67.6242837,12.5183997 L67.6242837,12.5183997 Z" id="Shape"></path>
                                    </g>
                                    <path d="M194.863633,26.4883351 C189.465416,26.5639144 184.104687,26.6394937 178.70647,26.715073 C179.118833,21.3867324 179.49371,16.0583917 179.906073,10.7300511 C176.757114,14.6979643 173.608154,18.6658776 170.459194,22.5960012 C166.298068,19.157143 162.174431,15.7182849 158.013305,12.2794268 C159.212909,15.8316538 160.45,19.4216706 161.649604,22.9738977 C161.986992,23.9564286 162.324381,24.9767491 162.66177,25.95928 C160.862364,26.1104386 159.062958,26.2993869 157.226065,26.4505455 C153.889667,26.7528627 150.553269,27.0551799 147.216871,27.3574971 C149.503616,28.6423452 151.790361,29.9271933 154.077105,31.2120414 C156.288875,32.4590998 158.538132,33.7061583 160.749901,34.9532167 C158.538132,37.8252301 156.326362,40.6594539 154.114593,43.5314673 C153.102427,44.854105 152.052774,46.1767427 151.040608,47.5371701 C152.015286,47.3482219 153.027452,47.1592736 154.00213,46.9703254 C158.425669,46.1011634 162.886695,45.2697911 167.310234,44.4006292 C167.347722,44.4384189 167.347722,44.4762085 167.385209,44.5139982 L167.53516,44.8163153 C168.434863,46.4412703 169.334565,48.0284356 170.196781,49.6533905 C171.583822,52.1852971 173.008352,54.7172036 174.395394,57.2113205 C175.182634,52.5631936 175.969874,47.9528563 176.757114,43.3047294 C181.705479,44.4006292 186.616357,45.496529 191.564722,46.5924289 C188.565713,42.8512536 185.529216,39.1100782 182.530207,35.4066925 C186.578869,32.4213102 190.702507,29.4359278 194.863633,26.4883351 L194.863633,26.4883351 Z" id="star" fill="#F47729"></path>
                                    <path d="M90.1792802,80.9938422 C85.3102073,84.9584835 82.6883988,89.5272606 81.3774945,92.4346643 C79.6171374,96.3237886 78.6807772,100.439464 78.568414,104.555139 C78.5309596,106.103237 78.6058684,107.651335 78.7931404,109.199433 C79.0927757,111.615977 79.6545918,113.994761 80.5160432,116.335788 C80.9280416,117.506301 81.4524033,118.639056 82.0142194,119.734052 C82.3887635,120.489221 82.800762,121.206633 83.2502149,121.924044 C84.2989383,123.623176 85.5349337,125.246791 86.8832924,126.719372 C89.6174641,129.664534 92.9509063,132.081078 96.7338015,133.817968 L96.7338015,133.817968 C102.951233,136.687613 108.494485,136.76313 110.816659,136.649855 C116.322456,136.461062 120.554804,134.799689 122.951887,133.666934 C120.966803,130.117636 119.019174,126.568338 117.03409,123.01904 C115.76064,123.585418 113.738102,124.302829 111.191203,124.567138 C110.142479,124.680414 106.172312,124.906965 101.677783,122.868006 C98.1945234,121.244391 95.310534,118.714573 93.3629048,115.542859 C92.6887255,114.485622 92.1269094,113.352867 91.7149109,112.144595 C91.3029124,111.011841 91.0032772,109.879086 90.8160051,108.746331 C90.1418258,104.970483 90.6661875,101.081358 92.276727,97.4565433 C94.1494474,93.3031095 96.9585279,90.9998417 98.344341,89.9048455 C100.404333,88.243472 102.389417,87.2617513 103.77523,86.6576155 C102.127236,83.1083175 100.479242,79.5967781 98.8312483,76.0474801 C96.5839838,76.8781669 93.4003592,78.3507479 90.1792802,80.9938422 L90.1792802,80.9938422 Z" id="semicircle" fill="#40AE4E"></path>
                                    <g id="hands" transform="translate(71.586354, 22.807769)">
                                        <g id="hand_l" transform="translate(0.000000, 81.400238)">
                                            <path d="M0.139453936,2.3122775 C0.401887741,3.63464336 0.70181209,4.95700922 0.964245895,6.27937508 C2.12645275,11.6066204 3.40113123,16.7449563 4.78828134,21.6943828 C6.25041254,21.5054734 23.7210059,19.389688 25.2581182,17.3494664 C25.9704385,16.4049194 25.8954574,15.5359361 25.8954574,15.5359361 C25.8954574,15.4981542 25.7454952,14.6291709 25.0706654,14.1002246 C24.3208546,13.5712782 23.4960626,13.7601877 23.383591,13.7601877 C24.0959113,13.5334964 24.8082316,13.344587 25.4830614,13.1178957 C26.7577399,12.8156406 27.5450413,11.5310566 27.2826075,10.2842545 C27.0576642,9.26414373 26.1578912,8.58406986 25.1456465,8.54628798 C26.3453439,8.16846916 27.0951548,6.95944895 26.832721,5.75042873 C26.5702872,4.50362664 25.2956087,3.747989 24.0209302,4.08802594 L19.3721028,5.25926427 L21.0591773,4.73031793 C22.2963652,4.31471723 23.0086855,2.99235137 22.6712706,1.78333116 C22.2963652,0.574310942 21.0216867,-0.105762928 19.7470082,0.30983777 L17.7225189,0.952129759 L7.11269505,4.35249911 C6.96273287,2.99235137 6.92524233,1.63220363 6.96273287,0.30983777 C5.6130733,0.612092824 4.1509421,0.989911641 2.65132036,1.44329422 C1.78903785,1.74554927 0.926755351,2.01002245 0.139453936,2.3122775 L0.139453936,2.3122775 Z M8.59965936,12.651152 C8.56247164,12.651152 8.48809621,12.6886369 8.4509085,12.7261217 C8.4509085,12.6886369 8.41372078,12.651152 8.41372078,12.651152 L8.59965936,12.651152 L8.59965936,12.651152 Z" id="Shape" fill="#FBB319"></path>
                                            <path d="M14.4681825,6.74728105 C14.3932121,6.74728105 14.3182418,6.70996159 14.2807566,6.59800323 C14.2432714,6.48604487 14.3182418,6.41140596 14.3932121,6.37408651 L20.915632,4.50811383 C21.0280875,4.47079437 21.1030578,4.54543328 21.140543,4.62007219 C21.1780282,4.73203055 21.1030578,4.80666946 21.0280875,4.84398891 L14.5056676,6.70996159 C14.5056676,6.74728105 14.5056676,6.74728105 14.4681825,6.74728105 L14.4681825,6.74728105 Z" id="Shape" fill="#000000"></path>
                                            <path d="M16.606536,10.7300511 C16.5314595,10.7300511 16.4563829,10.6547925 16.4188446,10.5795339 C16.3813063,10.4666459 16.4563829,10.3913873 16.5689978,10.353758 L25.0526524,8.39703369 C25.1652673,8.35940437 25.2403439,8.434663 25.2778822,8.54755094 C25.3154205,8.66043888 25.2403439,8.73569751 25.127729,8.77332682 L16.606536,10.7300511 L16.606536,10.7300511 L16.606536,10.7300511 Z" id="Shape" fill="#000000"></path>
                                            <path d="M17.7689292,15.4156629 C17.6937473,15.4156629 17.6185654,15.3783721 17.5809744,15.2664994 C17.5433834,15.1546267 17.6185654,15.080045 17.7313382,15.0427541 L23.3323908,13.5511187 C23.4451637,13.5138278 23.5203456,13.5884096 23.5579366,13.7002822 C23.5955275,13.8121549 23.5203456,13.8867366 23.4075728,13.9240275 L17.7689292,15.4156629 L17.7689292,15.4156629 L17.7689292,15.4156629 Z" id="Shape" fill="#000000"></path>
                                        </g>
                                        <g id="hand_r" transform="translate(82.311318, 0.000000)">
                                            <path d="M0.357445129,18.3400956 L0.245411911,8.58741136 C0.245411911,8.58741136 0.245411911,8.58741136 0.245411911,8.54961025 L0.245411911,8.39840585 C2.44873186,9.6458422 4.68939622,10.8932786 6.89271617,12.1407149 C4.68939622,15.0135986 2.48607627,17.8486813 0.282756317,20.721565 L0.357445129,18.3400956 L0.357445129,18.3400956 Z" id="Shape" fill="#FBB319"></path>
                                            <path d="M8.75210198,3.16860211 C6.95170359,3.3216285 5.15130519,3.5129115 3.31339849,3.66593789 L5.48887989,0.949719365 C5.97648779,0.375870381 6.65163719,0.0698175891 7.36429488,0.108074188 C7.47681978,0.108074188 7.62685298,0.146330787 7.73937788,0.146330787 C8.07695258,1.14100236 8.41452728,2.17393053 8.75210198,3.16860211 L8.75210198,3.16860211 Z" id="Shape" fill="#FBB319"></path>
                                            <path d="M20.5014691,18.4304535 C20.5014691,18.4304535 15.1101735,31.0218345 14.4737011,34.1224148 C12.0775697,32.8368084 9.60655925,31.437766 7.06066967,29.9630998 C4.62709875,28.5262455 2.26840694,27.0893912 0.0594733307,25.6525369 L0.134352436,24.1022467 C4.55221964,23.2325718 9.00752641,22.4007088 13.4253936,21.5310338 C13.4628332,21.5688458 13.4628332,21.6066577 13.5002727,21.6444697 C13.5377123,21.7579055 13.6125914,21.8335294 13.6500309,21.9469653 L13.6500309,21.9469653 L16.4954369,16.350796 C17.0570302,15.2164373 18.4422937,14.7626938 19.5654802,15.3676851 C20.6137877,15.8970525 21.0630623,17.2960948 20.5014691,18.4304535 L20.5014691,18.4304535 Z" id="Shape" fill="#FBB319"></path>
                                            <path d="M12.682934,23.907781 C12.6452372,23.907781 12.6075404,23.907781 12.6075404,23.8698725 C12.5321469,23.8319641 12.4944501,23.7182386 12.5321469,23.6045131 L15.510193,17.7666059 C15.5478898,17.690789 15.6609801,17.6528805 15.7740705,17.690789 C15.8494641,17.7286975 15.8871609,17.8424229 15.8494641,17.9561484 L12.871418,23.7940556 C12.8337212,23.8698725 12.7583276,23.907781 12.682934,23.907781 L12.682934,23.907781 Z" id="Shape" fill="#000000"></path>
                                        </g>
                                    </g>
                                </g>
                                <path d="M259.032631,221.220796 C258.732904,221.183019 258.433176,221.371904 258.39571,221.711895 L254.199523,249.553433 L200.847997,241.355857 L205.044185,213.514319 C205.081651,213.212104 204.894321,212.909889 204.557127,212.872113 C204.2574,212.834336 203.957672,213.02322 203.920206,213.363212 L199.611621,241.733625 L178.66815,380.299107 L176.832318,392.425476 C176.794852,392.727691 176.982182,393.029906 177.319375,393.067682 L177.394307,393.067682 C177.656569,393.067682 177.918831,392.878798 177.956297,392.576583 L179.717197,381.016868 L233.068722,389.214444 L231.307822,400.77416 C231.270356,401.076374 231.457686,401.378589 231.794879,401.416366 L231.869811,401.416366 C232.132073,401.416366 232.394335,401.227482 232.431801,400.925267 L259.519689,221.825226 C259.557155,221.560788 259.332359,221.29635 259.032631,221.220796 L259.032631,221.220796 Z M254.038586,250.677262 L248.978796,284.182358 L195.607387,275.985508 L200.667176,242.480413 L254.038586,250.677262 L254.038586,250.677262 Z M243.726032,318.809029 L190.354622,310.61218 L195.414412,277.107084 L248.785821,285.303934 L243.726032,318.809029 L243.726032,318.809029 Z M238.519751,353.435701 L185.148342,345.238851 L190.208131,311.733756 L243.579541,319.930605 L238.519751,353.435701 L238.519751,353.435701 Z M179.895577,379.912379 L184.955366,346.407283 L238.326776,354.604133 L233.266986,388.109228 L179.895577,379.912379 L179.895577,379.912379 Z" id="ladder" fill="#DBDBD1"></path>
                            </g>
                        </g>
                    </g>
                    <g id="Group-2" transform="translate(45.721925, 69.037475)" fill="#DBDBD1">
                        <path d="M0.094727137,1.3041638 C4.48067661,10.3128982 8.83851101,19.2930333 13.2244605,28.3017677 C13.7024165,29.3027382 15.1643997,28.4161643 14.6864436,27.443793 C10.3004942,18.4350586 5.94265976,9.45492345 1.55671029,0.446189105 C1.07875426,-0.554781378 -0.383228895,0.303193322 0.094727137,1.3041638 L0.094727137,1.3041638 L0.094727137,1.3041638 Z" id="Shape"></path>
                        <path d="M27.2253109,34.1109506 C26.0985381,27.4442229 24.9717653,20.7774952 23.8449925,14.1107674 C23.6478072,13.0188034 22.042156,13.4785777 22.2111719,14.5705417 C23.3379447,21.2372695 24.4647175,27.9039972 25.5914903,34.570725 C25.7886755,35.662689 27.4224961,35.2029147 27.2253109,34.1109506 L27.2253109,34.1109506 L27.2253109,34.1109506 Z" id="Shape"></path>
                    </g>
                    <g id="Group-4" transform="translate(378.609626, 157.341223)" fill="#DBDBD1">
                        <path d="M29.2113759,0.450736425 C22.3133093,10.5011039 15.3814286,20.5514714 8.48336203,30.6018388 C7.73945289,31.7070339 9.49778359,32.7431542 10.2416927,31.6379592 C17.1397594,21.5875917 24.07164,11.5372243 30.9697066,1.48685678 C31.7136158,0.41619908 29.9552851,-0.619921278 29.2113759,0.450736425 L29.2113759,0.450736425 L29.2113759,0.450736425 Z" id="Shape"></path>
                        <path d="M1.74633433,54.3413681 C12.7020303,44.0771014 23.4886569,33.6040699 34.0724003,22.9570677 C35.0191888,22.0176264 33.5651921,20.5562731 32.6522175,21.4957145 C22.0684741,32.1775107 11.2818475,42.6505423 0.326151522,52.8800149 C-0.654450897,53.7846621 0.799545793,55.2460154 1.74633433,54.3413681 L1.74633433,54.3413681 L1.74633433,54.3413681 Z" id="Shape"></path>
                    </g>
                </g>
            </g>
        </g>
    </g>
</svg>