<?xml version="1.0" encoding="UTF-8"?>
<svg width="103px" height="128px" viewBox="0 0 103 128" version="1.1" xmlns="http://www.w3.org/2000/svg" xmlns:xlink="http://www.w3.org/1999/xlink">
    <!-- Generator: Sketch 54.1 (76490) - https://sketchapp.com -->
    <title>third</title>
    <desc>Created with Sketch.</desc>
    <g id="Page-1" stroke="none" stroke-width="1" fill="none" fill-rule="evenodd">
        <g id="third" fill-rule="nonzero">
            <g id="Group-30" transform="translate(16.000000, 12.000000)" fill="#F47729">
                <path d="M70.7582881,30.886425 C69.6212589,22.400499 65.4411731,14.5937466 58.9875279,8.90385965 C52.4747481,3.16207407 44.1018515,-3.90798505e-14 35.4105766,-3.90798505e-14 C26.7207988,-3.90798505e-14 18.3489002,3.16107602 11.836869,8.90111501 C5.3837228,14.5890058 1.20288849,22.3940117 0.0641126603,30.8779415 C-0.0733688212,31.9019415 0.645477183,32.8438519 1.6697267,32.9813333 C2.69198011,33.1205614 3.63563703,32.3999688 3.77311851,31.3757193 C5.88773839,15.6219883 19.4886741,3.74244055 35.4105766,3.74244055 C51.3362218,3.74244055 64.9376565,15.6254815 67.0490327,31.3834542 C67.1750366,32.3233684 67.9782179,33.0062846 68.9014148,33.0062846 C68.984253,33.0062846 69.0678398,33.0007953 69.152175,32.9895673 C70.1764246,32.8523353 70.8955201,31.9106745 70.7582881,30.886425 Z" id="Path-Copy-5"></path>
                <path d="M69.1768768,38.0017778 C68.1498826,37.8750253 67.2169548,38.6033528 67.0899528,39.6288499 C65.1170561,55.5682183 51.497906,67.5879922 35.4105766,67.5879922 C19.3115201,67.5879922 5.69112241,55.5584873 3.72845574,39.6061442 C3.60220233,38.5806472 2.6702725,37.8510721 1.64277933,37.977575 C0.617032738,38.1038285 -0.112043285,39.0375049 0.0142101262,40.0632515 C2.2074265,57.8884366 17.4244557,71.3304327 35.4108261,71.3304327 C53.3837228,71.3304327 68.5995045,57.8994152 70.8039489,40.0887018 C70.9309509,39.0629552 70.2023739,38.1287797 69.1768768,38.0017778 Z" id="Path-Copy-6"></path>
            </g>
            <path d="M101.969053,107.065887 L85.1094823,80.6941442 C87.0072757,80.3009123 88.7184336,79.2290058 89.8968819,77.6685536 C91.2554784,75.8695673 91.79742,73.5665653 91.3834784,71.3506433 C91.0331626,69.474807 91.9815603,67.5702768 93.6897241,66.7191891 C95.707533,65.714152 97.2185818,63.8939571 97.8356266,61.725692 C98.4524219,59.5574269 98.1260593,57.2142534 96.9396266,55.2972476 C95.9353381,53.6746667 96.1317046,51.5563041 97.4169443,50.145809 C98.9352289,48.4795634 99.6870106,46.2364444 99.478917,43.9918285 C99.2708235,41.746963 98.120071,39.6802495 96.3210847,38.321154 C94.7983088,37.1709006 94.2161958,35.1246472 94.9053498,33.3448733 C95.7192601,31.2424795 95.6097241,28.8795945 94.6049365,26.8612865 C93.600149,24.8432281 91.7802036,23.3319298 89.6119385,22.714386 C87.7765233,22.1916569 86.4942777,20.4939727 86.4940281,18.5856998 C86.4935291,16.3313528 85.5376461,14.1673294 83.87165,12.6485458 C82.2056539,11.1297622 79.9622855,10.3779805 77.717919,10.5853255 C75.8171315,10.7614815 74.0089131,9.64092008 73.3190106,7.86164522 C72.5041022,5.75950097 70.8311198,4.08701754 68.7289755,3.27260819 C66.6268313,2.45844834 64.2636968,2.56723587 62.2456383,3.57177388 C60.537225,4.42186355 58.4455603,4.03112671 57.1598215,2.6211306 C55.6410379,0.955384016 53.476765,-2.84217094e-14 51.222418,-2.84217094e-14 C48.968071,-2.84217094e-14 46.8040476,0.955384016 45.284765,2.62088109 C43.9990262,4.03062768 41.907112,4.42186355 40.1989482,3.57152437 C38.1806402,2.56698635 35.8177552,2.45819883 33.715611,3.27235867 C31.6134667,4.08676803 29.9404843,5.75925146 29.1255759,7.86139571 C28.4359229,9.64067057 26.6247104,10.7607329 24.726917,10.585076 C22.4815525,10.3774815 20.2391821,11.1292632 18.573186,12.6482963 C16.9071899,14.1670799 15.9513069,16.3311033 15.9508079,18.5854503 C15.9505584,20.4937232 14.6683127,22.1916569 12.8328975,22.7141365 C10.6646324,23.3314308 8.84468702,24.8429786 7.83989949,26.861037 C6.83511197,28.8790955 6.7255759,31.24223 7.53948624,33.3446238 C8.22839072,35.1241481 7.64627766,37.1706511 6.12375134,38.3209045 C4.3250145,39.68 3.17401255,41.7467135 2.96591898,43.9915789 C2.75807493,46.2361949 3.50960709,48.4793138 5.02789169,50.1455595 C6.31313146,51.5560546 6.50949793,53.6744172 5.50520943,55.2972476 C4.31877668,57.2142534 3.99241411,59.5574269 4.60920943,61.725692 C5.22625427,63.8939571 6.737303,65.714152 8.75511197,66.7191891 C10.4632757,67.5702768 11.4116734,69.474807 11.0613576,71.3506433 C10.6474161,73.5668148 11.1893576,75.8695673 12.5479541,77.6685536 C13.7264024,79.2287563 15.4375603,80.3009123 17.3353537,80.6941442 L0.475782532,107.065887 C-0.144755479,108.036741 -0.159227214,109.251867 0.437856606,110.237193 C1.03494043,111.222519 2.12106908,111.771446 3.26658175,111.670893 L19.7214434,110.222971 L25.3137708,125.765864 C25.7040087,126.849996 26.6573966,127.603275 27.8024102,127.731524 C27.9169365,127.74425 28.0309638,127.750737 28.1442426,127.750737 C29.1620048,127.750737 30.1061607,127.239485 30.6645701,126.366191 L51.222418,94.2094971 L71.7800165,126.365692 C72.3384258,127.239236 73.2823322,127.750238 74.3003439,127.750238 C74.4136227,127.750238 74.5278995,127.744 74.6424258,127.731025 C75.7874395,127.602526 76.7408274,126.849497 77.1310652,125.765115 L82.7236422,110.222222 L99.1782543,111.670144 C100.326262,111.770698 101.410145,111.22177 102.007229,110.236694 C102.604063,109.251618 102.589591,108.036491 101.969053,107.065887 Z M4.44153692,107.810433 L20.8789326,82.0989006 C21.4637903,82.6934893 21.8809755,83.456 22.0414122,84.3128265 C22.343572,85.9276725 23.1375213,87.4005458 24.2870262,88.5410682 L12.5811393,107.094082 L4.44153692,107.810433 Z M23.7600554,110.393388 L23.0491938,108.417497 C22.5883439,107.136749 21.319572,106.324335 19.9629716,106.4446 L17.2662387,106.681887 L27.4865272,90.4832749 C28.9828547,90.9620897 30.603689,91.0005146 32.1381919,90.564117 C33.4331626,90.1958363 34.8004921,90.4722963 35.8471977,91.2355556 L23.7600554,110.393388 Z M28.3243907,123.078862 L25.3671665,114.859665 L38.4201724,94.1713216 C39.5087962,95.1499103 40.8546675,95.8273372 42.3173108,96.1008031 C43.4209053,96.3069006 44.5462075,96.275961 45.6198605,96.0254503 L28.3243907,123.078862 Z M52.3883907,90.102269 C52.2686246,90.0758207 52.1463634,90.0615984 52.0236032,90.0588538 C51.7571237,90.0324055 51.4901451,90.0144405 51.222418,90.0144405 C50.9549404,90.0144405 50.6882114,90.0324055 50.4217319,90.0588538 C50.2982231,90.0613489 50.1757124,90.0758207 50.0554472,90.102269 C48.7489989,90.2918986 47.480227,90.7984094 46.3806246,91.628538 C45.4052796,92.3646004 44.2061217,92.6460507 43.0047182,92.4219883 C41.8033147,92.1974269 40.7872991,91.5015361 40.1435564,90.4623158 C40.0073225,90.2424951 39.8588625,90.0334035 39.7041646,89.8305497 C39.6804609,89.7996101 39.6565077,89.7689201 39.6305584,89.7394776 C37.6396968,87.206924 34.2622933,86.0693957 31.1141919,86.9643977 C29.9387377,87.2987446 28.7188703,87.128577 27.67965,86.4850838 C26.6404297,85.8415906 25.9442894,84.825575 25.7194784,83.6241715 C25.2401646,81.062924 23.5414823,78.947306 21.2781529,77.8594308 C21.162379,77.7918129 21.0426129,77.7379181 20.9198527,77.6974971 C20.1807962,77.3858558 19.389841,77.1772632 18.563455,77.1006628 C17.3465818,76.9876335 16.2706831,76.3883041 15.5341217,75.4129591 C14.7975603,74.437614 14.5153615,73.2387057 14.7399229,72.0370526 C15.3953927,68.5261598 13.620609,64.9618713 10.4236032,63.369232 C9.32973965,62.8242963 8.5430262,61.8766472 8.20842971,60.701193 C7.87408273,59.5254893 8.04400086,58.3056218 8.68724452,57.2664016 C10.567073,54.2295828 10.1995408,50.264577 7.79373965,47.6244834 C6.97034783,46.7212476 6.57936148,45.5532788 6.69189169,44.3364055 C6.80467142,43.1192827 7.40375134,42.043384 8.37909637,41.3065731 C11.2287806,39.1535283 12.3186519,35.3237583 11.0289209,31.9930136 C10.587533,30.8532398 10.6446714,29.6231423 11.1896071,28.5290292 C11.7342933,27.4349162 12.6816929,26.6479532 13.8573966,26.3133567 C17.2924375,25.3350175 19.6920009,22.1574737 19.6927494,18.5859493 C19.6929989,17.3635867 20.1905272,16.2372865 21.093763,15.4136452 C21.9969989,14.5902534 23.1647182,14.198269 24.381841,14.3112982 C27.9396422,14.6409045 31.323533,12.544 32.6145116,9.21375439 C33.0563985,8.07423002 33.9274472,7.20318129 35.0672211,6.76179337 C36.2067455,6.32040546 37.437342,6.37704483 38.5312055,6.92173099 C41.7289599,8.51287329 45.6428157,7.78130214 48.0496149,5.14245614 C48.8732562,4.23946979 49.9998059,3.74219103 51.2221685,3.74219103 C52.4445311,3.74219103 53.5710808,4.23946979 54.3947221,5.14245614 C56.8012718,7.78130214 60.7156266,8.51287329 63.9131315,6.92173099 C65.0072445,6.37729435 66.237342,6.32040546 67.3771159,6.76179337 C68.5168897,7.20318129 69.3879385,8.07423002 69.8295759,9.21375439 C71.1205545,12.5437505 74.5039463,14.6404055 78.062496,14.3112982 C79.2788703,14.198269 80.4468391,14.5902534 81.3503244,15.4136452 C82.2535603,16.2372865 82.7510886,17.3635867 82.7513381,18.5859493 C82.7518371,22.1574737 85.1514005,25.3350175 88.5866909,26.3133567 C89.7621451,26.6479532 90.7095447,27.4349162 91.2542309,28.5290292 C91.7991665,29.6231423 91.8560554,30.8532398 91.4146675,31.9930136 C90.1249365,35.3237583 91.2148079,39.1535283 94.0644921,41.3065731 C95.0398371,42.043384 95.638917,43.1192827 95.7516968,44.3364055 C95.8644765,45.5535283 95.4732406,46.7212476 94.6498488,47.6244834 C92.2440476,50.264577 91.876765,54.2293333 93.7563439,57.266152 C94.3995876,58.3056218 94.5695057,59.5252398 94.2349092,60.7009435 C93.9005623,61.8766472 93.1138488,62.8240468 92.0197357,63.3689825 C88.8229794,64.9616218 87.0481958,68.5261598 87.7036656,72.0368031 C87.9279775,73.2384561 87.6460281,74.437115 86.9094667,75.4127096 C86.1729053,76.3880546 85.0970067,76.987384 83.8798839,77.1004133 C83.0527494,77.1772632 82.2612952,77.3861053 81.5214901,77.6982456 C81.399728,77.7384172 81.2807104,77.7920624 81.1659346,77.8589318 C78.9023556,78.9465575 77.2031743,81.062425 76.7238605,83.623922 C76.4990496,84.8253255 75.8029092,85.8413411 74.763689,86.4848343 C73.7244687,87.1283275 72.5043517,87.2982456 71.3291471,86.9643977 C68.1802972,86.0688967 64.8023946,87.2071735 62.8117825,89.7407251 C62.7868313,89.7691696 62.7638761,89.7988616 62.7409209,89.8285536 C62.5857241,90.0319064 62.436765,90.2414971 62.300032,90.4620663 C61.6565389,91.5012865 60.6402738,92.1971774 59.4388703,92.4217388 C58.2379658,92.6458012 57.0385584,92.3646004 56.0629638,91.6282885 C54.9638605,90.7981598 53.6953381,90.2918986 52.3883907,90.102269 Z M74.1204453,123.078862 L56.8229794,96.0219571 C57.4228079,96.1621832 58.0378566,96.2367875 58.6568975,96.2367875 C59.1469404,96.2367875 59.6394784,96.1918752 60.1275252,96.1008031 C61.5901685,95.8273372 62.9357903,95.1501598 64.0244141,94.1715712 L77.0776695,114.860413 L74.1204453,123.078862 Z M82.4818644,106.4446 C81.1240165,106.325084 79.8564921,107.136499 79.3956422,108.417747 L78.6845311,110.394386 L66.5971393,91.2363041 C67.6440944,90.4727953 69.0114239,90.1960858 70.3068936,90.564616 C71.8408975,91.0007641 73.4617319,90.9623392 74.9580593,90.4837739 L85.1778488,106.681887 L82.4818644,106.4446 Z M89.8629482,107.094082 L78.1575603,88.5415673 C79.3073147,87.4010448 80.101264,85.927922 80.4036734,84.3128265 C80.56411,83.456 80.9810457,82.6934893 81.5659034,82.0991501 L98.0032991,107.810433 L89.8629482,107.094082 Z" id="Shape-Copy-4" fill="#F47729"></path>
            <path d="M46.0825764,40.2546174 L36.5450041,38.525066 C37.3377414,35.4502925 38.8612604,33.0941155 41.1156069,31.4564644 C43.3699535,29.8188133 46.5614988,29 50.6903386,29 C55.4302467,29 58.8571323,29.8940104 60.9710983,31.682058 C63.0850642,33.4701057 64.1420314,35.7176646 64.1420314,38.4248021 C64.1420314,40.012321 63.7126385,41.4494219 62.8538398,42.7361478 C61.9950411,44.0228736 60.6986049,45.1508307 58.9644922,46.1200528 C60.3682977,46.470978 61.4417799,46.8803846 62.1849711,47.348285 C63.3905923,48.1002676 64.3278249,49.0903633 64.9966969,50.3186016 C65.665569,51.5468399 66,53.0131841 66,54.7176781 C66,56.856651 65.4467438,58.9078618 64.3402147,60.871372 C63.2336856,62.8348823 61.6399774,64.3471803 59.5590421,65.4083113 C57.4781069,66.4694424 54.7448559,67 51.3592073,67 C48.0561354,67 45.4508766,66.6073038 43.5433526,65.8218997 C41.6358286,65.0364956 40.066893,63.8876505 38.8364988,62.3753298 C37.6061045,60.8630091 36.6606144,58.9621926 36,56.6728232 L46.0825764,55.3192612 C46.478945,57.3746805 47.0941329,58.7992484 47.9281585,59.5930079 C48.7621842,60.3867674 49.8232801,60.7836412 51.1114781,60.7836412 C52.4657376,60.7836412 53.5928939,60.2823269 54.492981,59.2796834 C55.3930681,58.2770398 55.8431049,56.9402018 55.8431049,55.2691293 C55.8431049,53.5646353 55.4095832,52.2445078 54.5425268,51.3087071 C53.6754705,50.3729065 52.4987688,49.9050132 51.0123865,49.9050132 C50.2196492,49.9050132 49.1296519,50.1055389 47.7423617,50.5065963 L48.2625929,43.2124011 C48.8241151,43.2959547 49.2617656,43.3377309 49.5755574,43.3377309 C50.8967861,43.3377309 51.9991698,42.9116138 52.8827415,42.0593668 C53.7663133,41.2071197 54.2080925,40.196136 54.2080925,39.0263852 C54.2080925,37.9067666 53.8777903,37.0127562 53.2171759,36.3443272 C52.5565615,35.6758982 51.6482304,35.3416887 50.4921552,35.3416887 C49.3030494,35.3416887 48.3369154,35.7051415 47.5937242,36.432058 C46.850533,37.1589746 46.3468221,38.4331483 46.0825764,40.2546174 Z" id="3" stroke="#40AE4E" stroke-width="3"></path>
        </g>
    </g>
</svg>