<svg width="568" height="422" xmlns="http://www.w3.org/2000/svg"><g fill="none" fill-rule="evenodd"><path d="M461.198 342.573c-13.891 2.485-27.84 4.912-41.788 7.397a37363.511 37363.511 0 0 0-78.638 13.926c-18.425 3.293-36.908 6.53-55.334 9.823 0-.23-.057-.462-.057-.751-58.778 9.766-117.44 19.994-175.99 30.8-12.455 2.31-24.853 4.622-37.31 6.934-16.53 3.12-33.062 6.298-49.593 9.476l.344-2.253c.919-5.837 1.78-11.73 2.698-17.567 2.01-13.06 4.018-26.061 6.027-39.12 5.798-38.196 11.653-76.392 17.507-114.588l8.438-54.78c1.837-11.846 3.616-23.75 5.453-35.596 2.354-15.37 4.707-30.742 7.06-46.17a8616.5 8616.5 0 0 0 2.411-15.718c6.83.29 13.661.636 20.492.925 11.365.52 22.673 1.04 34.038 1.502 7.003.29 14.006.636 21.009.925 2.985.115 5.97.289 8.897.404 3.559.174 7.175.347 10.734.463 4.65.23 9.299.404 13.89.635 2.124.116 4.248.174 6.315.29h.057c2.296.115 4.65.23 7.003.288 3.042.116 6.084.289 9.126.405 3.674.173 7.29.346 10.964.52.344 0 .746.057 1.09.057h.574c25.314 1.156 50.627 2.254 75.94 3.41 9.53.462 19.058.866 28.586 1.271 4.018.173 7.979.347 11.997.52 10.963.52 21.984.982 32.948 1.502 8.667.405 17.277.81 25.944 1.156 3.444 11.673 6.888 23.403 10.332 35.076.804 2.773 1.608 5.49 2.411 8.263 1.722 5.778 3.444 11.557 5.109 17.335 5.051 17.22 10.16 34.44 15.268 51.603 1.722 5.778 3.444 11.614 5.166 17.393 1.55 5.316 3.157 10.574 4.707 15.89 8.782 29.644 17.45 59 26.175 88.354z" fill="#FFF"/><path d="M22.469 421.124c-.23 0-.46-.057-.575-.23-.23-.174-.287-.463-.23-.752l.345-2.255c.92-5.84 1.78-11.737 2.7-17.577v-.115c1.838-11.969 3.676-23.879 5.514-35.847l.517-3.18c.057-.463.516-.81.976-.752.46.058.804.52.747.983l-.517 3.18c-1.838 11.968-3.676 23.994-5.514 35.962v.116c-.92 5.84-1.78 11.68-2.7 17.519l-.172 1.04a6513.458 6513.458 0 0 1 48.42-9.25c12.635-2.37 25.214-4.741 37.333-6.938 58.069-10.697 117.344-21.104 176.101-30.817h.115c.46-.058.92.289.977.752.057.462-.287.925-.747.982h-.115c-58.758 9.714-117.975 20.12-176.101 30.817-12.12 2.255-24.64 4.568-37.334 6.938a10859.8 10859.8 0 0 0-49.625 9.482c-.058-.058-.115-.058-.115-.058z" fill="#F6F6F4"/><path d="M285.615 373.846c-.402 0-.804-.289-.861-.693-.057-.463.23-.925.689-.983l174.747-30.229-25.718-87.218c-1.55-5.318-3.158-10.635-4.708-15.895l-5.167-17.397c0-.058-.057-.174-.057-.232 0-.462.402-.867.861-.867.402 0 .746.29.861.694l5.11 17.34c1.55 5.317 3.157 10.577 4.707 15.894l26.005 88.144c.058.23.058.52-.115.693-.114.231-.344.347-.574.405l-175.722 30.344h-.058zM403.099 143.19c-.402 0-.747-.29-.862-.695-2.872-9.541-8.558-27.237-10.568-32.847-8.444-.405-16.887-.752-25.33-1.157l-46.239-2.024-27.398-1.214c-25.33-1.157-50.661-2.255-75.991-3.412a.821.821 0 0 1-.805-.925.82.82 0 0 1 .92-.81c25.33 1.157 50.66 2.255 75.99 3.412l27.399 1.214 46.238 2.082c8.673.405 17.29.81 25.962 1.157.345 0 .632.231.747.578 1.838 5.031 7.754 23.48 10.799 33.542 0 .057.057.173.057.231-.057.463-.46.867-.919.867zM49.145 247.514h-.115c-.46-.058-.805-.52-.747-.983l8.389-54.793c1.838-11.85 3.62-23.756 5.458-35.605l9.48-61.845a.865.865 0 0 1 .863-.751l20.512.925c11.377.52 22.696 1.04 34.072 1.502.46 0 .862.405.805.925a.82.82 0 0 1-.92.81c-11.376-.52-22.695-1.041-34.072-1.503l-19.765-.867-9.366 61.093a7614.987 7614.987 0 0 0-5.459 35.605l-8.388 54.793c.057.405-.288.694-.747.694z" fill="#F6F6F4"/><path d="M381.53 141.574a5437.18 5437.18 0 0 0-16.31 22.079c-5.57-4.22-14.987-12.427-22.28-25.72-6.834-12.426-8.844-23.985-9.533-30.805 5.455.23 10.853.462 16.309.75 5.57.232 11.14.521 16.71.752.058.463.173.925.23 1.387.805 4.22 2.183 9.537 4.71 15.259a72.742 72.742 0 0 0 10.164 16.298zm-106.117-10.778c2.928 22.997-7.35 44.838-26.412 52.292-19.063 7.454-41.341-1.675-54.547-20.685l-20.843 8.147c13.034 33.86 51.504 50.905 85.15 37.789 33.647-13.117 50.586-51.83 37.552-85.69a7962.355 7962.355 0 0 0-20.9 8.147zM108.665 325.043c-5.223-8.842-10.388-17.684-15.611-26.525a81.515 81.515 0 0 0 13.43-17.395c11.306-19.822 12.97-42.995 2.066-61.488-7.232-12.309-17.792-18.261-21.637-20.342-11.995-6.53-23.187-7.223-28.582-7.223.344-2.139 2.41-15.892 2.755-18.03 1.377-8.785 2.64-17.049 2.697-17.569 26.057 3.525 45.685 12.078 55.155 19.649 6.141 4.912 11.25 10.69 11.25 10.69a87.067 87.067 0 0 1 10.043 13.87c25.253 42.822 11.02 98.994-31.566 124.363zm327.972-2.861c-1.206 3.64-2.93 8.032-5.572 12.713-1.436 2.6-4.021 6.702-7.87 11.21-.92 1.097-1.781 1.964-2.356 2.6-10.34 1.791-20.623 3.582-30.964 5.316-17.004 2.947-34.009 5.894-51.013 8.783-.402-.174-.747-.405-1.15-.636-.574-.289-1.09-.635-1.608-.924a53.391 53.391 0 0 1-1.608-.925c-5.687-3.525-17.924-12.192-26.081-28.371-1.666-3.352-10.57-21.669-6.492-44.377a74.092 74.092 0 0 1 2.298-9.015c7.526 2.485 14.994 4.912 22.52 7.397a55.17 55.17 0 0 0-.058 8.147c1.149 21.206 12.753 39.581 31.022 45.59 20.566 6.761 43.602-4.217 56.528-25.02 7.41 2.543 14.936 5.028 22.404 7.512zm-2.302-67.718c-2.87-.174-13.145-.925-21.582-6.761-3.96-2.716-6.945-6.184-7.175-6.415a39.159 39.159 0 0 1-4.707-6.876c3.789-2.023 7.577-4.103 11.365-6.126 1.55 1.792 3.903 4.045 7.232 6.126a31.522 31.522 0 0 0 10.103 4.045c.459 1.56 1.951 6.645 2.41 8.148.46 1.444 1.952 6.414 2.354 7.859zM92.332 96.333c-1.324 1.73-3.166 3.865-5.7 5.941a37.45 37.45 0 0 1-6.274 4.211 40.193 40.193 0 0 1-9.44 3.577c.748-4.846 1.497-9.691 2.245-14.595 6.332.289 12.722.577 19.169.866zM32.408 414.359c-2.292 1.27-4.757 2.136-4.757 2.136-1.547.577-2.923.981-4.012 1.212.459-3.002.975-6.235 1.433-9.237.401-2.598.917-5.773 1.318-8.429 2.064-1.559 6.935-5.658 9.63-12.875 3.209-8.602 1.26-16.05.515-18.416.516-.29.974-.52 1.49-.809 3.267-1.79 6.591-3.58 9.858-5.369 2.006 3.753 3.324 7.679 3.955 11.72 2.579 15.703-4.814 32.157-19.43 40.067z" fill="#40AE4E"/><path d="M19.1 85.274c-1.091 0-2.182-.058-3.273-.23C5.374 83.367.378 74.18.206 73.775a1.778 1.778 0 0 1 .689-2.369c.861-.462 1.895-.115 2.355.694.057.057 4.479 8.089 13.15 9.475 7.065 1.098 15.105-2.253 23.834-10.11-6.145-6.819-9.016-16.757-6.949-25.54.345-1.328 3.388-13.115 13.037-16.35 2.297-.752 4.25-.694 5.8-.463 3.388.462 7.81 3.294 9.533 8.61 2.01 6.24.747 17.102-16.425 33.8.46.347.92.751 1.379 1.04 12.29 8.609 28.944.867 32.16-.809 4.078-2.08 8.672-5.142 13.209-8.84-3.216-5.431-5.111-13.752-2.7-24.21 2.126-9.129 8.558-20.511 16.368-23.689 3.388-1.387 6.777-1.098 9.763.867 1.895 1.213 4.135 3.929 3.79 9.764-.574 10.69-8.901 26.001-22.512 37.961.23.29.46.52.747.81 5.857 5.777 15.908 6.875 29.805 3.292 26.073-6.702 42.44-24.902 48.299-32.413.574-.752 1.665-.867 2.412-.29.746.578.861 1.676.287 2.427-6.088 7.8-23.087 26.694-50.136 33.628-15.161 3.87-26.303 2.484-33.08-4.218-.344-.347-.631-.694-.976-1.04a79.175 79.175 0 0 1-13.725 8.956c-3.503 1.79-21.823 10.284-35.721.52-.69-.463-1.321-.983-1.953-1.503C34.32 81.461 26.394 85.274 19.1 85.274zm30.985-52.741c-.92 0-1.782.115-2.645.462-8.048 2.717-10.692 13.466-10.807 13.928-1.782 7.514.805 16.356 6.15 22.367C59.629 52.934 59.8 43.282 58.42 38.948c-1.322-4.161-4.771-6.01-6.726-6.3-.574-.057-1.092-.115-1.61-.115zm59.663-14.826c-.918 0-1.894.173-2.87.579-6.43 2.606-12.344 12.915-14.296 21.313-1.435 6.254-1.55 14.826 1.952 21.196 10.794-9.671 20.554-22.876 21.185-35.212.115-2.317-.172-5.386-2.239-6.718-1.206-.753-2.469-1.158-3.732-1.158z" fill="#DBDBD1"/><path d="M205.433 150.21c-4.128 3.642-9.175 5.955-14.622 7.169v.173l2.752 17.864c.574 3.527.401 7.169-.688 10.637-2.18 6.88-7.512 12.43-14.279 14.627-6.422 2.081-13.59.983-19.382-2.66-5.792-3.584-9.577-9.712-10.609-16.476l-2.58-16.708-2.753-17.806c2.982-2.89 4.932-6.821 5.218-11.273.115-2.197-.114-4.394-.745-6.36l.344-42.838a600.199 600.199 0 0 1 28.787-13.007c7.053-2.949 13.935-5.724 20.644-8.268 22.307 21.044 27.754 67.293 7.913 84.926z" fill="#FBB319"/><g transform="translate(155.468 74.255)" fill="#000"><ellipse transform="rotate(-18.651 47.998 7.14)" cx="47.998" cy="7.141" rx="9.663" ry="3.4"/><ellipse transform="rotate(-21.624 10.335 21.595)" cx="10.335" cy="21.595" rx="9.663" ry="3.4"/></g><path d="M187.682 137.136c-6.495 0-12.357-5.476-12.415-5.533a.351.351 0 0 1 0-.461c.115-.116.345-.173.46 0 .115.115 11.035 10.317 19.311 2.19a.349.349 0 0 1 .46 0 .351.351 0 0 1 0 .46c-2.471 2.48-5.173 3.344-7.816 3.344zm10.376-19.604l-7.545-13.848-2.534-4.693-4.031-7.417c-.116-.173-.288-.231-.461-.116-.173.116-.23.29-.115.464l13.937 25.61-12.728 4.461c-.173.058-.288.29-.23.464a.388.388 0 0 0 .345.231h.115l13.074-4.577c.115 0 .173-.116.23-.232 0-.174 0-.29-.057-.347zm-14.465 40.928c-5.149 0-11.728-.923-18.42-4.212-.172-.057-.23-.288-.172-.461.057-.173.286-.23.457-.173 10.412 5.134 20.366 4.442 25.343 3.519.171-.058.343.115.4.288.057.173-.114.346-.286.404-1.83.346-4.348.635-7.322.635zm13.909-93.258c-6.705 2.545-13.582 5.32-20.63 8.27a599.53 599.53 0 0 0-28.768 13.01l-.344 42.85c-2.063-6.534-7.908-11.45-15.129-11.912-1.031-.058-2.006-.058-2.98.058-.344-1.099-.63-2.197-.917-3.296-.057-.347-.172-.636-.229-.983 0-.058 0-.058-.057-.116-.115-.636-.287-1.214-.401-1.85-.058-.347-.115-.636-.172-.983-.058-.347-.115-.636-.172-.983-.172-1.041-.344-2.082-.459-3.123l-.172-1.735c-.057-.347-.057-.694-.057-1.04 0-.29-.057-.579-.057-.81v-.463c0-.29 0-.578-.058-.867a26.314 26.314 0 0 1 0-3.007v-.926c0-.578.058-1.156.058-1.677v-.23c0-.174 0-.29.057-.463 0-.29.057-.579.057-.868 0-.231.058-.405.058-.636v-.116c.63-5.609 2.808-15.613 10.315-24.865 10.945-12.26 30.372-17.406 45.788-11.97 4.24 1.503 8.137 3.816 11.69 6.707.974.579 1.777 1.273 2.579 2.024z" fill="#000"/><path d="M183.302 100.978c3.273 7.587-.173 16.563-7.696 19.922-7.522 3.3-16.424-.174-19.754-7.76 9.13-4.112 18.319-8.108 27.45-12.162zm23.789 6.994c-5.983 2.265-12.542.407-16.569-4.18l-2.531-4.704c9.32-3.542 18.583-7.084 27.903-10.626 2.876 7.781-1.093 16.607-8.803 19.51z" fill="#DBDBD1"/><path d="M181.868 102.678c-.115 0-.288-.058-.346-.232-.633-1.622-.575-3.418.173-5.04.69-1.448 1.957-2.55 3.395-3.013 2.763-.81 5.813.754 7.021 3.534.058.174 0 .406-.173.464-.172.058-.402 0-.46-.174-1.036-2.491-3.798-3.882-6.157-3.128-1.267.405-2.36 1.332-2.993 2.665a5.48 5.48 0 0 0-.173 4.46c.058.174 0 .406-.172.464h-.115z" fill="#000"/><path d="M174.653 121.684c-.116 0-.173-.058-.23-.116-.808-.871-4.672-5.401-2.654-8.654 1.557-2.497.404-5.517-.115-6.736-.058-.175 0-.407.173-.465.173-.058.404 0 .461.174.635 1.278 1.846 4.588.116 7.376-1.788 2.846 1.787 7.027 2.537 7.84a.355.355 0 0 1 0 .465c-.115.116-.23.116-.288.116zm31.006-12.98a.42.42 0 0 1-.28-.116c-1.174-1.564-3.635-5.503-1.733-8.284 1.9-2.781.335-6.49 0-7.184-.056-.174 0-.406.167-.464.168-.058.392 0 .448.174.335.753 2.069 4.809-.056 7.88-1.622 2.375.67 6.025 1.733 7.473.112.174.112.348-.056.463-.056.058-.168.058-.223.058z" fill="#FFF"/><path d="M160.39 114.467l-16.679 8.221-.516-.524 16.908-8.339c.172-.058.4 0 .458.175.115.175 0 .35-.172.467z" fill="#000"/><g transform="translate(174.49 93.561)" fill="#000"><ellipse cx="2.838" cy="15.606" rx="2.838" ry="2.859"/><ellipse cx="34.977" cy="2.859" rx="2.838" ry="2.859"/></g><path d="M147.866 129.311c-.804-2.603-2.24-4.917-4.136-6.825l-.517-.521c-2.758-2.603-6.434-4.28-10.513-4.57-1.034-.057-2.01-.057-2.987.058-8.1.868-14.591 7.52-15.166 15.965-.632 9.486 6.492 17.642 15.913 18.278 4.94.347 9.593-1.503 12.925-4.685 2.988-2.892 4.94-6.825 5.228-11.28.115-2.313-.115-4.453-.747-6.42z" fill="#FBB319"/><path d="M141.447 142.08c-.058 0-.173 0-.23-.057a6.36 6.36 0 0 1-2.473-3.708c-.748-3.013.978-5.389 1.725-6.316l-16.735-8.98c-.173-.116-.23-.29-.115-.464.115-.173.288-.231.46-.115l17.138 9.212c.115.058.172.174.172.231 0 .116 0 .232-.115.29-.115.116-2.645 2.665-1.84 5.968a5.6 5.6 0 0 0 2.243 3.302.308.308 0 0 1 .058.464.316.316 0 0 1-.288.174z" fill="#000"/><path d="M444.532 182.474a6.231 6.231 0 0 1-7.171 2.833c-3.442 12.952-7.343 24.054-11.072 33.248-.287.752-.63 1.503-.918 2.255l-.172.347c-.746 1.734-1.434 3.354-2.122 4.973-.115.289-.287.636-.402.925-.287.636-.574 1.214-.803 1.792-.172.405-.402.867-.574 1.272l-.688 1.561c-.23.463-.402.868-.631 1.33-1.779 3.874-3.5 7.46-5.335 10.929l-2.066 3.816-1.032 1.734-1.033 1.735c-.287.463-.573.867-.803 1.33-.459.694-.86 1.33-1.32 2.024a43.82 43.82 0 0 1-1.433 2.023c-1.033 1.388-2.066 2.834-3.213 4.221-.516.637-1.033 1.215-1.549 1.85-.344.406-.688.868-1.09 1.273-6.999 8.037-18.013 20.7-36.6 27.292-23.807 8.442-45.492 1.792-57.367-1.793a116.385 116.385 0 0 1-25.413-11.275 887.63 887.63 0 0 0 .172 34.809c.057 2.948.172 5.897.287 8.846l.172 4.51a827.296 827.296 0 0 0 2.81 43.598l.173 2.255c-.23.058-.402.058-.631.116l-10.326 1.734c-3.672.578-7.286 1.214-10.957 1.85-3.327.579-6.655 1.1-9.982 1.677-7.974 1.33-15.948 2.718-23.922 4.048-4.99.867-10.04 1.734-15.03 2.602a8310.194 8310.194 0 0 0-40.214 7.054c-2.754.463-5.507.983-8.318 1.503-1.205.232-2.41.463-3.672.636-5.507.983-11.072 1.966-16.579 3.007-5.278.983-10.613 1.908-15.89 2.891-3.098.578-6.196 1.157-9.351 1.735-3.672.694-7.343 1.33-11.015 2.024v-31.802c-48.302 11.275-67.406 2.313-75.953-7.46-.574-.635-1.09-1.33-1.607-2.023a3.205 3.205 0 0 1-.344-.463c-.172-.23-.344-.52-.516-.751l-.86-1.388c-.173-.347-.402-.636-.574-.983l-.86-1.561c-.115-.29-.288-.52-.402-.81 0-.057-.058-.057-.058-.115-.114-.29-.23-.52-.344-.81-.115-.289-.287-.578-.401-.867l-.689-1.735-.344-1.04a24.006 24.006 0 0 1-.86-2.892c-.115-.347-.173-.636-.287-.983-.058-.289-.115-.578-.23-.867 0-.116-.057-.173-.057-.289a4.848 4.848 0 0 0-.23-.867c-.057-.347-.114-.694-.23-1.041-.056-.405-.171-.752-.229-1.157-.114-.52-.172-1.04-.286-1.56-.172-1.042-.287-2.14-.402-3.239-.057-.578-.115-1.098-.172-1.677-.057-.347-.057-.751-.115-1.156-.057-.752-.115-1.561-.115-2.313 0-.405-.057-.752-.057-1.156v-4.106c0-.462 0-.925.057-1.387v-.52c0-.29 0-.521.058-.81 0-.347 0-.694.057-1.099v-.116c0-.462.058-.982.115-1.503v-.347c.057-.462.057-.925.115-1.445.114-1.677.344-3.412.573-5.146.058-.405.115-.868.172-1.273.115-.81.23-1.56.345-2.37 0-.058 0-.174.057-.232.057-.346.115-.751.172-1.098l.344-2.082c.058-.231.115-.52.115-.751.057-.29.115-.636.172-.926.058-.404.172-.867.23-1.272.172-.867.344-1.734.573-2.544.287-1.272.574-2.486.86-3.758v-.116c.116-.462.23-.867.345-1.272l.688-2.602.86-2.949c.23-.751.46-1.56.69-2.313.114-.404.229-.751.343-1.156.173-.52.287-.983.46-1.503.114-.463.286-.868.458-1.33.115-.347.23-.752.345-1.099.803-2.313 1.606-4.626 2.524-6.939.344-.867.688-1.792 1.032-2.717.574-1.33 1.09-2.718 1.664-4.048.172-.462.402-.925.574-1.33.573-1.387 1.204-2.717 1.835-4.047.23-.463.402-.925.631-1.33.86-1.85 1.721-3.643 2.64-5.493l.688-1.388c.344-.636.688-1.33 1.032-1.966.115-.289.287-.578.46-.867.171-.405.4-.752.63-1.156.23-.405.402-.81.631-1.157.517-.925 1.033-1.908 1.607-2.833.229-.405.458-.867.688-1.272a210.096 210.096 0 0 1 4.647-7.69c.23-.347.459-.752.688-1.1.631-.982 1.262-1.907 1.836-2.89.287-.405.516-.81.803-1.214 2.237-3.354 4.59-6.592 6.999-9.83a134.66 134.66 0 0 1 2.639-3.412c.344-.462.688-.867 1.032-1.272.287-.347.516-.693.803-.983.172-.23.344-.404.517-.636a238.04 238.04 0 0 1 6.138-7.17c.344-.404.746-.809 1.09-1.214a216.16 216.16 0 0 1 3.557-3.816c.344-.347.63-.694.975-.983.401-.405.746-.81 1.147-1.156 4.36-4.395 8.95-8.558 13.768-12.49.402-.347.86-.694 1.262-1.04l1.55-1.215c.343-.289.745-.578 1.146-.867.287-.231.574-.463.86-.636.173-.116.345-.29.517-.405.574-.405 1.148-.867 1.721-1.272.344-.231.689-.52 1.033-.752.459-.347.918-.636 1.377-.983h.057l1.033-.694c.114-.057.23-.173.344-.23.459-.29.918-.637 1.434-.926.459-.347.975-.636 1.434-.925l1.033-.694c.287-.231.63-.405.975-.636l1.721-1.04c.344-.232.746-.463 1.09-.695 3.5-2.081 7.113-4.047 10.785-5.898.287-.115.574-.289.803-.404.516-.232.975-.463 1.492-.694 3.212-1.503 9.924-4.51 19.275-7.401l2.581 16.71c1.033 6.765 4.877 12.894 10.613 16.48 5.794 3.584 13.022 4.74 19.39 2.66 6.712-2.198 12.047-7.749 14.284-14.63 1.09-3.411 1.263-7.054.689-10.639l-2.754-17.867c9.466-.115 19.62.636 30.118 2.776 67.004 13.24 88.976 69.328 126.322 61.984a27.75 27.75 0 0 0 2.122-.462l.688-.174c.23-.057.46-.115.746-.23.23-.059.46-.117.689-.232h.114l.345-.116c.114-.058.23-.058.344-.116.23-.057.459-.173.688-.23.287-.116.574-.232.918-.348.23-.058.402-.173.631-.289.23-.115.516-.231.746-.347 1.205-.52 2.41-1.156 3.671-1.85.058 0 .115-.058.115-.058.23-.116.459-.289.746-.405.516-.289 1.032-.636 1.606-.983.287-.173.516-.347.746-.52.287-.173.516-.347.803-.52a26.818 26.818 0 0 0 1.549-1.157c.287-.173.516-.405.803-.636 1.033-.867 2.123-1.792 3.155-2.775.23-.232.46-.463.689-.636.286-.29.573-.579.918-.868.229-.173.401-.404.573-.636l.516-.52c.287-.29.574-.636.861-.925a73.494 73.494 0 0 0 4.475-5.378c.23-.289.459-.636.688-.925.287-.405.631-.81.918-1.214.287-.347.516-.752.803-1.156 0-.058.057-.116.115-.116l.688-1.04c.057-.059.115-.174.172-.232.23-.347.46-.636.631-.983l.689-1.04a.44.44 0 0 0 .114-.232c.287-.405.517-.868.804-1.272.516-.868 1.09-1.735 1.606-2.66.287-.52.63-1.04.918-1.62l.688-1.213c.23-.347.402-.752.631-1.099.344-.636.689-1.214.975-1.85l.689-1.388.172-.347.688-1.388a207.564 207.564 0 0 0 2.41-5.03c.286-.578.516-1.157.803-1.735a100.66 100.66 0 0 1 1.606-3.643c.402-.982.86-1.965 1.262-3.006.86-2.197 1.778-4.452 2.639-6.823l-2.524-1.446c-2.926-1.734-3.958-5.55-2.237-8.5a6.249 6.249 0 0 1 5.392-3.122c1.033 0 2.123.29 3.098.81l.459.289 3.557 2.081.286.174 35.568 20.7h.057l1.893 1.099c2.754 1.445 3.786 5.261 2.123 8.21z" fill="#F47729"/><g transform="translate(30.44 179.783)" fill="#FFF"><path d="M75.093 4.616c0 2.376-1.93 4.346-4.257 4.346-.51 0-.965-.116-1.419-.29.17-.115.34-.29.511-.405.568-.406 1.135-.87 1.703-1.275.34-.232.681-.522 1.022-.753.454-.348.908-.638 1.362-.985h.057l1.021-.696v.058z"/><ellipse cx="218.799" cy="4.365" rx="4.334" ry="4.365"/><ellipse cx="364.613" cy="4.365" rx="4.334" ry="4.365"/><path d="M38.352 41.43c0 2.355-1.86 4.308-4.226 4.308-.451 0-.902-.058-1.297-.23a135.56 135.56 0 0 1 2.593-3.388c.338-.46.676-.862 1.014-1.264.282-.345.507-.69.789-.976.17-.23.338-.402.507-.632.451.574.62 1.32.62 2.182z"/><ellipse cx="105.89" cy="41.373" rx="4.334" ry="4.365"/><ellipse cx="179.833" cy="41.373" rx="4.334" ry="4.365"/><ellipse cx="253.929" cy="41.373" rx="4.334" ry="4.365"/><path d="M329.368 41.612c0 2.382-1.907 4.357-4.334 4.357-2.312 0-4.218-1.859-4.334-4.182l.347-.116c.115-.059.23-.059.346-.117.232-.058.463-.174.694-.232.289-.116.578-.232.924-.349.232-.058.405-.174.636-.29.231-.116.52-.232.751-.349 1.214-.523 2.427-1.162 3.698-1.859.752.814 1.272 1.917 1.272 3.137zm66.579-2.905c-.38.765-.695 1.53-1.074 2.24.063-.82.442-1.53 1.01-2.13 0-.055 0-.055.064-.11z"/><ellipse cx="68.535" cy="80.157" rx="4.334" ry="4.365"/><ellipse cx="142.631" cy="80.157" rx="4.334" ry="4.365"/><ellipse cx="216.574" cy="80.157" rx="4.334" ry="4.365"/><ellipse cx="288.293" cy="80.157" rx="4.334" ry="4.365"/><ellipse cx="362.312" cy="80.157" rx="4.334" ry="4.365"/><ellipse cx="41.075" cy="117.164" rx="4.334" ry="4.365"/><ellipse cx="112.793" cy="117.164" rx="4.334" ry="4.365"/><ellipse cx="186.736" cy="117.164" rx="4.334" ry="4.365"/><ellipse cx="4.334" cy="155.253" rx="4.334" ry="4.365"/><ellipse cx="75.439" cy="155.253" rx="4.334" ry="4.365"/><ellipse cx="149.535" cy="155.253" rx="4.334" ry="4.365"/><ellipse cx="223.478" cy="155.253" rx="4.334" ry="4.365"/><ellipse cx="38.697" cy="192.261" rx="4.334" ry="4.365"/><ellipse cx="110.492" cy="192.261" rx="4.334" ry="4.365"/><ellipse cx="184.435" cy="192.261" rx="4.334" ry="4.365"/><path d="M254.811 192.345c-.279.054-.488.054-.767.109v-.437c0-.656.21-1.257.558-1.804l.21 2.132z"/></g><path d="M172.053 202.034c-4.411 0-8.994-1.273-12.89-3.763-5.786-3.588-9.682-9.724-10.77-16.728l-2.578-16.73c-.058-.173.114-.347.286-.404a.43.43 0 0 1 .401.289l2.578 16.729c1.031 6.83 4.87 12.735 10.484 16.266 5.844 3.646 12.948 4.63 19.078 2.604 6.588-2.141 11.859-7.525 14.036-14.413 1.031-3.184 1.26-6.83.687-10.477-.057-.174.115-.348.287-.405.172-.058.343.115.4.289.574 3.763.344 7.467-.744 10.767-2.292 7.12-7.677 12.619-14.494 14.876a20.935 20.935 0 0 1-6.76 1.1z" fill="#000"/><path d="M223.047 320.344a5.39 5.39 0 0 0-1.09-2.256c-.172-.231-.574-.752-1.204-1.041a3.175 3.175 0 0 0-2.294-.116c.745-.289 1.49-.578 2.179-.867 2.867-1.504 4.186-5.148 2.925-8.097-.86-1.967-2.638-3.123-4.645-3.239l.86-.463c2.867-1.503 4.186-5.147 2.924-8.096-1.204-2.777-4.3-3.933-6.996-2.777 1.032-1.735 1.319-3.874.516-5.783-.401-.983-1.032-1.735-1.835-2.256-1.892-1.388-4.473-.636-5.677-.289-9.864 2.719-22.825 9.022-25.405 10.295a115.217 115.217 0 0 0-3.04 1.446c-.23-1.388-.516-2.776-.745-4.164-.287-1.793-.631-3.586-.918-5.321-4.702 2.545-13.075 7.171-15.77 8.617 5.046 15.905 10.035 31.81 15.082 47.714a483.93 483.93 0 0 1 10.036-3.76c2.867-1.04 4.3-1.56 8.602-3.065 6.079-2.197 11.47-4.106 17.835-6.94 0 0 .287-.115.803-.405 2.007-.983 6.996-3.759 7.8-6.593.343-1.156.171-2.197.171-2.429l-.114-.115z" fill="#FBB319"/><path d="M192.44 304.094c-.114 0-.229-.058-.286-.233-.057-.174 0-.406.172-.465l23.182-10.406c.172-.058.4 0 .458.175.057.174 0 .407-.172.465l-23.24 10.406c-.056.058-.114.058-.114.058zm3.357 10.198c-.115 0-.287-.057-.345-.23-.057-.174 0-.405.173-.462l23.64-9.407c.173-.058.402 0 .46.173.057.173 0 .404-.173.462l-23.64 9.407c-.058.057-.115.057-.115.057zm2.991 10.739c-.115 0-.287-.058-.344-.233-.057-.175 0-.408.172-.466l20.65-8.164c.172-.058.401 0 .459.175.057.175 0 .408-.172.467l-20.65 8.163c0 .058-.058.058-.115.058z" fill="#000"/><path d="M449.68 118.412c-3.152-.925-6.477.926-7.394 4.106l-3.897 13.59a9192.638 9192.638 0 0 0-9.343-31.112c-6.019.983-9.687 1.966-12.783 4.337-1.604 1.214-4.47 3.817-9.744 19.951-1.834 5.668-3.898 12.607-5.674 20.588l3.553 2.081 35.825 20.877h.057c1.204-4.28 2.408-8.617 3.611-12.896 0-.058.058-.116.058-.174l.745-2.544 8.942-31.402c1.031-3.122-.803-6.476-3.955-7.402z" fill="#FBB319"/><path d="M440.714 128.343a.393.393 0 0 0-.462.232l-2.025 6.889-2.314 7.756c-.057.174.058.348.232.406h.116a.39.39 0 0 0 .347-.232l4.338-14.645c.058-.174-.058-.406-.232-.406z" fill="#000"/><path d="M415.127 83.595c-.115 0-.23 0-.345-.058l-44.73-21.069c-.459-.231-.631-.694-.401-1.157.23-.463.689-.637 1.148-.406l44.73 21.07c.46.23.631.694.402 1.157a.915.915 0 0 1-.804.463zm104.885-13.83c-.115 0-.172 0-.287-.057a.916.916 0 0 1-.573-1.097L541.515.607a.907.907 0 0 1 1.09-.578.916.916 0 0 1 .573 1.097L520.872 69.13c-.172.405-.516.635-.86.635zm20.918-13.52a.919.919 0 0 1-.516-.174c-.402-.29-.459-.868-.172-1.216l26.202-34.104c.287-.405.86-.463 1.204-.174.344.29.46.869.172 1.216l-26.202 34.105a.893.893 0 0 1-.688.347z" fill="#DBDBD1"/><path d="M562.614 66.955c-18.368 26.416-36.735 52.89-55.16 79.307l-13.546-45.492c-14.694 24.394-29.331 48.845-44.025 73.296-1.665-5.607-3.386-11.214-5.051-16.821l8.954-31.388c.918-3.179-.918-6.532-4.075-7.457-3.157-.924-6.486.925-7.405 4.105l-1.664 5.78c-.172-.058-.345.058-.402.231l-2.009 6.879a20214.197 20214.197 0 0 1-9.126-30.405 27335.78 27335.78 0 0 0-10.849-36.128c23.82 5.896 47.641 11.792 71.404 17.688l-11.767-39.653c28.24 6.647 56.48 13.352 84.72 20.058z" fill="#40AE4E"/><path d="M214.264 329.76s.287-.114.803-.402c-.287.288-.573.633-.86.92L190.8 356.863c-1.033-5.696-2.008-11.45-3.04-17.147a609.408 609.408 0 0 1 8.605-3.05c6.195-2.128 11.53-4.085 17.898-6.904zm39.386-44.397c-10.099 11.498-20.197 23.053-30.353 34.551-.115.116-.23.289-.344.405v-.058a5.381 5.381 0 0 0-1.09-2.254c-.172-.23-.574-.75-1.205-1.04a3.18 3.18 0 0 0-2.295-.115 86.558 86.558 0 0 0 2.18-.867c2.869-1.502 4.189-5.142 2.926-8.089-.86-1.964-2.64-3.12-4.647-3.235l.86-.462c2.87-1.503 4.189-5.143 2.927-8.09-1.205-2.773-4.304-3.928-7-2.773 1.032-1.733 1.32-3.87.516-5.777-.402-.982-1.033-1.734-1.836-2.254-1.893-1.386-4.475-.635-5.68-.288-9.87 2.715-22.836 9.013-25.418 10.284a115.353 115.353 0 0 0-3.041 1.444c-.574-3.177-1.148-6.297-1.664-9.475-1.607-9.013-3.213-17.969-4.762-26.982 26.622 8.32 53.245 16.697 79.925 25.075z" fill="#000"/><g transform="rotate(-18 263.71 72.861)"><path d="M204.038 130.094c1.446 2.388 4.254 5.246 6.763 11.217.936 2.176-.084 3.76.129 7.556.212 4.094 4.029 3.78 5.907 9.325-4.51-5.033-14.416-7.284-20.116-11.464-.213-.17-.468-.341-.68-.512-.426-.298-.852-.64-1.32-.938-.51-.341-.978-.682-1.489-1.024-.17-.128-.34-.213-.51-.34-6.253-4.138-12.634-7.294-18.42-9.726-.17-.085-.34-.128-.51-.213-2.553-1.066-5.02-1.962-7.232-2.73l-.038-.747c-.2-3.888-.4-7.779-.6-11.707 8.933-.085 17.611-2.815 22.886-9.64 4.254-5.502 4.935-11.985 4.935-16.122 3.148-1.322 6.296-2.602 9.444-3.924-3.829-7.038-7.657-14.118-11.486-21.156.425-1.876 1.787-8.871-.128-17.189-7.614-1.28-16.42-7.378-22.546-18.212-.553 3.967-3.36 20.985-18.59 33.354-4.339 3.497-8.805 5.971-13.23 7.677-2.552-5.118-8.131-6.733-14.257-7.5-9.742-1.195-18.073 3.534-19.264 13.301-1.233 9.768 5.7 18.682 15.442 19.876 1.404.17 2.765.17 4.127.043.127 9 .212 18.042.34 27.084-2.467.256-5.573.64-9.018 1.28-.17.042-.34.042-.511.085a108.413 108.413 0 0 0-12.124 2.986 85.154 85.154 0 0 0-7.019 2.559c-.17.085-.34.128-.51.213-7.7 3.199-14.166 7.123-19.526 10.919l-.51.384c-.639.47-1.277.938-1.872 1.365-.213.17-.468.341-.68.512-4.553 3.497-8.126 6.781-10.763 9.213a126.108 126.108 0 0 0-5.87 5.758l-.511.511a169.78 169.78 0 0 0-2.723 2.943c-.17.171-.298.342-.468.512-5.828 6.569-10.507 13.18-14.42 19.535-.086.17-.214.341-.299.512a86.362 86.362 0 0 0-1.574 2.644c-.17.299-.34.597-.51.853-3.19 5.503-5.828 10.791-8.21 15.74l-.255.51c-.298.598-.554 1.153-.851 1.75a205.425 205.425 0 0 0-7.615 17.828 2.402 2.402 0 0 0-.17.512c-.978 2.56-1.83 5.076-2.638 7.464-.17.512-.34 1.067-.51 1.578a221.37 221.37 0 0 0-2.85 9.683H8.355s-2.97-12.36-7.037-34.21c-4.067-21.848 5.847-38.861 5.847-38.861 13.189-13.947 21.139-22.465 28.796-27.54 18.718-12.37 5.15-34.597 14.934-56.777 1.786-4.052 3.786-6.867 6.04-9.042 8.466-8.104 15.697-8.36 23.1-13.137 11.698-7.55 7.444-17.957 16.76-29.473 5.573-6.824 13.315-10.833 21.44-13.094 4.424-6.227 9.912-11.388 16.335-15.099 17.016-9.853 34.84-6.312 37.435-5.758 16.548 3.497 36.754 16.506 36.882 32.373.043 3.839-1.106 8.36-3.488 11.815 9.699 14.288 14.208 34.719 8.508 51.652-4.34 12.796-14.89 24.738-9.87 33.013z" fill="#000"/><path d="M191.35 50.565c-7.617-1.283-16.426-7.4-22.554-18.265-.554 3.978-3.362 21.046-18.597 33.451a8.186 8.186 0 0 1-.724.556c-.255.171-.468.385-.723.556a8.186 8.186 0 0 0-.724.557c-.212.17-.425.299-.638.47l-.766.513c-.213.129-.383.257-.596.385l-.766.514c-.298.17-.553.342-.85.513 0 0-.043 0-.043.043-.256.17-.511.3-.766.47-.298.171-.554.3-.852.47-.255.13-.51.3-.808.429-.043 0-.085.042-.128.042h-.085c-.042 0-.085.043-.128.043-.17.086-.383.214-.553.3-.255.128-.553.3-.85.427-.299.129-.554.257-.852.385-.298.129-.553.257-.851.385-.553.257-1.107.471-1.66.685-3.362 1.326-6.681 2.181-9.83 2.738a60.95 60.95 0 0 1 .213 4.962v1.155c-.043 4.962-.469 10.437-1.192 16.127-.468-.214-.936-.385-1.404-.6-.596-.256-1.192-.47-1.745-.726 0 .684 0 1.411.042 2.096l.128 8.769c.085 6.117.17 12.277.213 18.394 3.49 5.005 6.979 9.967 10.511 14.972.17.257.34.47.51.727a244.39 244.39 0 0 1 2.895 4.15c.127.17.255.342.34.513 4.34 6.16 8.639 12.363 12.98 18.523.127.17-10.85-18.377-10.764-18.206.85 1.24-2.35 1.024-1.498 2.222.128.213 8.846 11.54 8.974 11.754.042.042-4.741-8.622-4.699-8.622 3.532 5.048-.844 4.691 2.688 9.739-20.52-23.587 4.044-1.875 4.129-1.704 1.447 2.053 4.505-4.009 5.952-1.955-.085-2.054-5.025-1.538-5.11-3.591 0-.171 2.829 4.23 2.786 4.06-.255-5.176 3.689.822 1.723-2.595-10.568-18.372-4.373-8.259-4.458-9.67 0-.172 2.243 1.447 2.2 1.276-.297-6.16-3.882-.043-4.18-6.246 0-.16-4.272-8.21 5.302-5.255.632.195-5.873-2.153-5.221-1.941-.256-5.005 18.049 1.688 17.794-3.317-.213-4.15-.426-8.299-.639-12.491h-.17.724c.297 0 .595 0 .893-.043.298 0 .596-.043.894-.043.128 0 .298 0 .425-.042h.426c.255 0 .553-.043.809-.086.297-.043.553-.043.808-.085.085 0 .17-.043.298-.043.085 0 .17-.043.298-.043l.766-.128c.213-.043.468-.086.68-.129h.086c.17-.042.34-.042.51-.085.341-.086.681-.129 1.022-.214.17-.043.383-.086.553-.128.553-.129 1.107-.3 1.617-.428.213-.086.468-.128.681-.214l.766-.257.766-.256c.256-.086.51-.214.724-.3.212-.085.468-.214.723-.342.255-.086.468-.214.724-.342.255-.129.553-.3.808-.428.128-.086.298-.171.426-.257.127-.085.255-.128.383-.214.127-.085.298-.17.425-.256.213-.129.426-.257.639-.428.212-.128.425-.3.638-.428.17-.128.383-.256.553-.428l.085-.085s.043-.043.085-.043c.17-.128.34-.257.468-.385.043-.043.086-.085.128-.085.17-.129.34-.3.51-.428.214-.171.384-.342.597-.514l.553-.556.425-.427c.085-.129.213-.214.298-.343l.043-.042.042-.043.043-.043c.085-.085.17-.214.255-.3l.043-.042a4.47 4.47 0 0 1 .425-.513c4.256-5.519 4.937-12.02 4.937-16.17 3.149-1.326 6.298-2.61 9.447-3.936-3.617-7.186-7.447-14.287-11.277-21.345.426-1.883 1.787-8.898-.128-17.24z" fill="#FBB319"/><path d="M160.964 118.462a29.953 29.953 0 0 1-12.253-1.798c-7.914-2.87-13.147-8.393-16.125-12.546-.128-.171-.128-.47.042-.6.17-.128.383-.128.554.086 2.935 4.025 8.083 9.463 15.784 12.246 3.829 1.413 7.87 1.97 11.955 1.756.213 0 .383.17.425.385a.5.5 0 0 1-.382.47zm23.881-17.036c-.386 0-.771-.092-1.157-.23-1.758-.736-2.615-3.035-1.844-5.105a3.984 3.984 0 0 1 1.887-2.254c.857-.46 1.843-.552 2.7-.184 1.758.736 2.616 3.036 1.844 5.105-.6 1.61-1.972 2.668-3.43 2.668zm-2.191-5.043c-.604 1.6.043 3.338 1.38 3.887 1.337.548 2.89-.32 3.493-1.921.604-1.6-.043-3.338-1.38-3.887-.647-.274-1.337-.229-1.984.137-.69.366-1.207 1.006-1.509 1.784zm-15.4 12.021a.555.555 0 0 1-.41-.21c-.135-.21-.045-.463.183-.589 5.364-2.817 8.319-6.095 8.774-9.753.681-5.338-4.274-9.752-4.32-9.794a.386.386 0 0 1 0-.589.465.465 0 0 1 .637 0c.228.21 5.32 4.708 4.592 10.51-.5 3.951-3.592 7.44-9.229 10.383-.09 0-.136.042-.227.042z" fill="#000"/><circle fill="#000" cx="184.368" cy="68.812" r="3"/><ellipse fill="#000" transform="rotate(-14.211 180.416 56.594)" cx="180.416" cy="56.594" rx="7.729" ry="1.906"/><path d="M135.905 74.406a17.385 17.385 0 0 0-13.415-9.477c-9.541-1.17-18.248 5.594-19.415 15.155-1.208 9.56 5.583 18.286 15.124 19.455 1.374.167 2.708.167 4.04.041 7.833-.835 14.374-7.013 15.374-15.196a17.213 17.213 0 0 0-1.708-9.978z" fill="#FBB319"/><path d="M124.218 92.274h-.167c-3.568-.834-5.631-3.59-4.74-6.177.726-2.087 3.123-3.59 5.967-3.798l-13.159-11.52c-.223-.167-.167-.46.056-.584.223-.167.613-.126.78.041l13.94 12.188c.167.125.167.292.056.46-.112.166-.335.25-.558.25-2.844-.126-5.353 1.252-6.022 3.214-.725 2.17 1.06 4.507 4.015 5.217.278.083.446.292.334.542a.985.985 0 0 1-.502.167z" fill="#000"/><path fill="#FFF" d="M123.103 96.1l-8.56 9.159 14 5.662z"/></g></g></svg>