<svg width="103" height="128" xmlns="http://www.w3.org/2000/svg"><g fill="none"><path d="M86.758 42.886a35.63 35.63 0 0 0-11.77-21.982A35.627 35.627 0 0 0 51.41 12a35.626 35.626 0 0 0-23.574 8.901 35.63 35.63 0 0 0-11.773 21.977 1.871 1.871 0 0 0 3.71.498c2.114-15.754 15.715-27.634 31.637-27.634 15.925 0 29.527 11.883 31.638 27.641a1.872 1.872 0 0 0 3.71-.497zm-1.581 7.116a1.87 1.87 0 0 0-2.087 1.627c-1.973 15.94-15.592 27.959-31.68 27.959-16.098 0-29.719-12.03-31.682-27.982a1.87 1.87 0 1 0-3.714.457c2.193 17.825 17.41 31.267 35.397 31.267 17.973 0 33.189-13.43 35.393-31.241a1.871 1.871 0 0 0-1.627-2.087z" fill="#F47729"/><path d="M102.146 107.066l-16.86-26.372a8.055 8.055 0 0 0 4.788-3.025 8.053 8.053 0 0 0 1.487-6.318 4.312 4.312 0 0 1 2.306-4.632 8.053 8.053 0 0 0 4.146-4.993 8.054 8.054 0 0 0-.896-6.429 4.311 4.311 0 0 1 .477-5.151 8.053 8.053 0 0 0 2.062-6.154 8.054 8.054 0 0 0-3.158-5.67 4.311 4.311 0 0 1-1.415-4.977 8.054 8.054 0 0 0-.3-6.484 8.054 8.054 0 0 0-4.994-4.147 4.311 4.311 0 0 1-3.118-4.128 8.054 8.054 0 0 0-2.622-5.937 8.055 8.055 0 0 0-6.154-2.064 4.31 4.31 0 0 1-4.399-2.723 8.054 8.054 0 0 0-4.59-4.59 8.054 8.054 0 0 0-6.483.3c-1.709.85-3.8.46-5.086-.95A8.052 8.052 0 0 0 51.4 0a8.054 8.054 0 0 0-5.938 2.62 4.312 4.312 0 0 1-5.086.952 8.054 8.054 0 0 0-6.483-.3 8.054 8.054 0 0 0-4.59 4.59 4.313 4.313 0 0 1-4.399 2.723 8.051 8.051 0 0 0-6.154 2.063 8.054 8.054 0 0 0-2.622 5.937 4.311 4.311 0 0 1-3.118 4.13 8.053 8.053 0 0 0-4.993 4.146 8.054 8.054 0 0 0-.3 6.484A4.312 4.312 0 0 1 6.3 38.32a8.054 8.054 0 0 0-3.158 5.67 8.054 8.054 0 0 0 2.062 6.155 4.312 4.312 0 0 1 .477 5.151 8.054 8.054 0 0 0-.896 6.429 8.053 8.053 0 0 0 4.146 4.993 4.312 4.312 0 0 1 2.307 4.632 8.053 8.053 0 0 0 1.486 6.318 8.056 8.056 0 0 0 4.788 3.025L.653 107.066a2.982 2.982 0 0 0-.038 3.171 2.984 2.984 0 0 0 2.829 1.434l16.455-1.448 5.592 15.543a2.98 2.98 0 0 0 2.83 1.985 2.979 2.979 0 0 0 2.52-1.385L51.4 94.21l20.557 32.157a2.978 2.978 0 0 0 2.863 1.365 2.981 2.981 0 0 0 2.488-1.966l5.593-15.543 16.454 1.448a2.982 2.982 0 0 0 2.83-1.433c.596-.985.582-2.2-.039-3.171zm-97.527.744L21.056 82.1a4.28 4.28 0 0 1 1.163 2.214 8.052 8.052 0 0 0 2.245 4.228l-11.706 18.553-8.14.716zm19.318 2.583l-.71-1.976a3.001 3.001 0 0 0-3.087-1.972l-2.697.237 10.22-16.199a8.05 8.05 0 0 0 4.652.081 4.308 4.308 0 0 1 3.71.672l-12.088 19.157zm4.565 12.686l-2.958-8.22 13.053-20.688a8.05 8.05 0 0 0 3.898 1.93 8.042 8.042 0 0 0 3.302-.076L28.502 123.08zm24.064-32.977a1.887 1.887 0 0 0-.365-.043 8.111 8.111 0 0 0-.801-.045 7.93 7.93 0 0 0-.801.045 1.88 1.88 0 0 0-.366.043 7.993 7.993 0 0 0-3.675 1.527 4.25 4.25 0 0 1-3.376.793 4.246 4.246 0 0 1-2.861-1.96 7.95 7.95 0 0 0-.513-.723c-1.991-2.532-5.369-3.67-8.517-2.775a4.245 4.245 0 0 1-3.434-.479 4.246 4.246 0 0 1-1.96-2.86c-.48-2.562-2.178-4.678-4.442-5.766a1.868 1.868 0 0 0-.358-.162 7.947 7.947 0 0 0-2.356-.596 4.246 4.246 0 0 1-3.03-1.688 4.245 4.245 0 0 1-.794-3.376 8.07 8.07 0 0 0-4.316-8.668 4.247 4.247 0 0 1-2.215-2.668 4.247 4.247 0 0 1 .478-3.435 8.069 8.069 0 0 0-.893-9.642 4.246 4.246 0 0 1-1.102-3.288 4.246 4.246 0 0 1 1.687-3.03 8.07 8.07 0 0 0 2.65-9.313 4.245 4.245 0 0 1 .16-3.464 4.245 4.245 0 0 1 2.669-2.216 8.07 8.07 0 0 0 5.835-7.727c0-1.222.498-2.349 1.401-3.172a4.244 4.244 0 0 1 3.288-1.103 8.067 8.067 0 0 0 8.233-5.097 4.247 4.247 0 0 1 2.452-2.452 4.246 4.246 0 0 1 3.464.16 8.07 8.07 0 0 0 9.519-1.78 4.246 4.246 0 0 1 3.172-1.4c1.223 0 2.35.497 3.173 1.4a8.07 8.07 0 0 0 9.518 1.78 4.247 4.247 0 0 1 3.464-.16 4.246 4.246 0 0 1 2.453 2.452 8.068 8.068 0 0 0 8.233 5.097 4.245 4.245 0 0 1 3.288 1.103c.903.823 1.4 1.95 1.4 3.172a8.07 8.07 0 0 0 5.836 7.727 4.245 4.245 0 0 1 2.667 2.216 4.245 4.245 0 0 1 .16 3.464 8.07 8.07 0 0 0 2.65 9.314 4.246 4.246 0 0 1 1.688 3.03 4.245 4.245 0 0 1-1.102 3.287 8.069 8.069 0 0 0-.893 9.642c.643 1.04.813 2.26.478 3.435a4.244 4.244 0 0 1-2.215 2.668 8.07 8.07 0 0 0-4.316 8.668 4.247 4.247 0 0 1-.794 3.376 4.246 4.246 0 0 1-3.03 1.687 7.954 7.954 0 0 0-2.358.598 1.87 1.87 0 0 0-.356.16c-2.263 1.089-3.963 3.204-4.442 5.766a4.246 4.246 0 0 1-1.96 2.86 4.248 4.248 0 0 1-3.435.48c-3.149-.895-6.526.243-8.517 2.777a7.95 7.95 0 0 0-.512.721 4.245 4.245 0 0 1-2.86 1.96 4.249 4.249 0 0 1-3.377-.794 7.987 7.987 0 0 0-3.674-1.526zm21.732 32.977L57 96.022a8.018 8.018 0 0 0 3.305.079 8.049 8.049 0 0 0 3.897-1.93l13.053 20.69-2.957 8.218zm8.361-16.634a3 3 0 0 0-3.086 1.973l-.711 1.976-12.088-19.158a4.308 4.308 0 0 1 3.71-.671 8.053 8.053 0 0 0 4.651-.081l10.22 16.198-2.696-.237zm7.381.65L78.335 88.541a8.053 8.053 0 0 0 2.246-4.23 4.274 4.274 0 0 1 1.162-2.213L98.18 107.81l-8.14-.716z" fill="#F47729"/><path d="M58 31v35h-9.81V43.066c-1.587 1.19-3.123 2.152-4.607 2.887-1.484.736-3.345 1.44-5.583 2.113v-7.84c3.302-1.05 5.865-2.309 7.69-3.78 1.826-1.471 3.254-3.286 4.286-5.446H58z" stroke="#40AE4E" stroke-width="3"/></g></svg>