<svg width="450" height="407" xmlns="http://www.w3.org/2000/svg"><g fill="none" fill-rule="evenodd"><g transform="matrix(-1 0 0 1 401.07 168.87)"><ellipse fill="#DBDBD1" cx="143.545" cy="61.569" rx="61.081" ry="61.569"/><ellipse fill="#F47729" cx="361.162" cy="178.498" rx="39.907" ry="40.226"/><path d="M194.678 160.069c-29.843 53.24-94.926 73.947-144.189 45.91C1.227 177.942-14.819 111.06 15.023 57.82c59.873 34.083 119.782 68.166 179.655 102.249z" fill="#F47729"/><path d="M394.434 149.986c-12.858-3.778-25.753-7.555-38.61-11.333.562-2.154 1.312-5.214 1.837-8.879.9-6.12 2.549-18.36-2.212-32.868-5.473-16.623-16.868-30.035-32.163-37.78-15.294-7.744-32.762-8.991-49.256-3.475-12.82 4.269-20.692 11.56-27.514 17.832-6.972 6.384-11.845 12.656-15.07 17.265-10.12-8.84-20.279-17.68-30.4-26.56a129.373 129.373 0 0 1 18.78-21.685c7.273-6.724 20.392-18.625 41.497-25.652 26.765-8.916 55.254-6.876 80.181 5.78 24.966 12.656 43.559 34.455 52.443 61.43 2.249 6.8 7.61 25.388 4.31 48.887-.974 7.102-2.511 12.92-3.823 17.038z" fill="#FBB319"/><ellipse fill="#FFB800" cx="177.478" cy="128.995" rx="18.547" ry="18.696"/><path fill="#40AE4E" d="M194.538 90.62v127.73h126.764V90.62z"/></g><path d="M307.861 142.493a.961.961 0 0 0-.337.415c-.975 3.285-2.136 9.78.937 16.275.862 1.888 3.56 7.552 8.995 8.949.225 3.512 1.274 7.174 3.41 10.233 2.511 3.587 6.26 6.004 10.082 7.25-.15 2.68.3 5.437 1.537 7.665 6.034 10.95 19.488 9.705 19.638 9.705.413-.038.712-.378.637-.793a.72.72 0 0 0-.787-.642c-.112 0-12.63 1.133-18.214-8.987-1.05-1.888-1.5-4.192-1.387-6.495 4.01.982 7.87.642 10.344-1.057.637-.453 3.748-2.794 3.71-6.193 0-.113-.074-2.983-2.21-4.456-2.7-1.85-6.56-.15-8.208.982l-.038.038c-2.586 1.812-4.273 5.135-4.835 8.723-3.448-1.209-6.783-3.437-9.032-6.609-1.911-2.68-2.848-5.966-3.11-9.1 1.386.151 3.485.113 5.621-.944 2.773-1.321 6.221-4.758 5.36-8.08-.375-1.51-1.65-2.908-3.374-3.739-1.611-.755-3.335-.906-4.647-.377-1.574.68-2.923 2.53-3.71 5.21-.525 1.737-.825 3.814-.787 6.08-4.46-1.473-6.746-6.193-7.609-8.043-2.885-6.004-1.761-12.121-.862-15.217a.74.74 0 0 0-.487-.907.737.737 0 0 0-.637.114zm11.082 24.445c-.075-2.193.224-4.311.75-6.05.674-2.194 1.723-3.745 2.848-4.274.9-.378 2.211-.227 3.448.34 1.35.643 2.361 1.74 2.624 2.799.6 2.382-2.287 5.218-4.573 6.353-1.987 1.059-3.898 1.021-5.097.832zm13.701 17.644c.45-3.285 1.949-6.382 4.234-8.005l.038-.038c1.573-1.095 4.683-2.266 6.52-.944 1.573 1.057 1.573 3.285 1.573 3.285 0 2.643-2.51 4.607-2.998 4.947-2.21 1.51-5.732 1.737-9.367.755zM53.085 167.04a1.3 1.3 0 0 0 .563.416c4.427 1.172 13.13 2.381 21.533-2.078 2.438-1.285 9.828-5.178 11.44-12.584 4.653-.492 9.492-2.079 13.43-5.14 4.615-3.59 7.69-8.73 9.154-13.945 3.526.076 7.202-.68 10.09-2.456 14.256-8.692 11.93-26.756 11.93-26.945-.075-.529-.525-.944-1.126-.83-.525.075-.9.528-.787 1.095.037.151 2.1 16.968-11.03 24.98-2.437 1.511-5.476 2.23-8.552 2.191 1.125-5.442.488-10.657-1.913-13.869-.638-.869-3.902-4.913-8.44-4.686-.15.038-3.977.227-5.778 3.212-2.325 3.742.113 8.881 1.726 10.997l.037.038c2.514 3.364 7.015 5.48 11.817 6.047-1.463 4.686-4.239 9.296-8.328 12.508-3.489 2.721-7.765 4.12-11.929 4.648.15-1.851 0-4.686-1.538-7.52-1.913-3.665-6.64-8.125-10.991-6.84-1.988.605-3.752 2.343-4.802 4.724-.938 2.23-1.05 4.573-.263 6.31.976 2.08 3.49 3.818 7.09 4.763 2.326.604 5.14.907 8.103.755-1.725 6.085-7.915 9.41-10.316 10.62-7.84 4.156-16.018 2.985-20.182 1.927-.487-.114-1.05.226-1.163.718-.037.378.075.718.225.945zm31.97-16.173c-2.933.19-5.753-.113-8.084-.679-2.933-.792-5.076-2.113-5.828-3.66-.564-1.17-.414-2.944.263-4.643.79-1.849 2.218-3.245 3.572-3.698 3.12-.944 7.031 2.793 8.686 5.85 1.504 2.641 1.541 5.17 1.391 6.83zm22.75-19.342c-4.383-.453-8.58-2.304-10.827-5.288l-.037-.038c-1.536-2.078-3.222-6.195-1.574-8.764 1.311-2.153 4.271-2.304 4.271-2.304 3.522-.152 6.219 3.135 6.706 3.777 2.135 2.947 2.585 7.706 1.461 12.617z" fill="#DBDBD1"/><g transform="matrix(-1 0 0 1 450 254.475)"><path d="M83.973 81.78H13.454C6.09 81.78.056 87.834.056 95.337v37.618c0 7.503 5.983 13.557 13.398 13.557h70.57c7.415 0 13.398-6.054 13.398-13.557V95.337c-.05-7.503-6.034-13.557-13.449-13.557z" fill="#40AE4E"/><ellipse fill="#000" cx="15.094" cy="145.346" rx="6.381" ry="6.456"/><ellipse fill="#000" cx="80.024" cy="145.346" rx="6.381" ry="6.456"/><path fill="#000" d="M71.45.552H25.973v6.983h5.62v74.017h1.534V7.535h31.12v74.017h1.533V7.535h5.672z"/><path d="M65.256 135.534c-.665 0-1.279-.156-1.842-.517-.92-.62-1.33-1.913-1.33-3.878.102-4.911 2.814-12.15 5.475-19.128 2.865-7.6 5.628-14.786 4.042-17.01-.359-.516-.921-.723-1.689-.723-3.53.103-9.465 8.944-15.707 18.353-7.368 11.063-14.94 22.437-20.415 22.437-.563 0-1.075-.103-1.535-.362-1.023-.465-1.688-1.24-2.047-2.223-1.228-3.67 2.252-10.34 5.936-17.474 4.553-8.789 9.26-17.836 6.037-22.385-.46-.673-.921-.88-1.126-.983-4.656-2.12-14.735 7.91-28.447 28.176-.103.103-.256.155-.358.052-.103-.104-.154-.259-.052-.362 8.033-11.89 22.513-31.33 29.062-28.383.256.104.819.362 1.381 1.138 3.428 4.808-1.33 14.01-5.986 22.954-3.633 6.98-7.06 13.597-5.884 17.06.307.88.87 1.5 1.74 1.913 5.116 2.43 13.763-10.495 21.335-21.92 6.345-9.513 12.331-18.508 16.169-18.612.972 0 1.688.259 2.097.931 1.74 2.482-.92 9.41-3.99 17.474-2.661 6.928-5.373 14.114-5.475 18.922-.051 1.758.358 2.895 1.074 3.412.819.569 1.996.569 3.582 0 4.349-1.5 10.028-6.772 11.87-8.892-.102 0-.205 0-.256-.103-.102-.104-.051-.259.051-.362.768-.62 1.024-.724 1.228-.517.205.206 0 .517-.409 1.034-1.944 2.585-9.875 9.978-14.53 9.978z" fill="#F6F6F4"/></g><path d="M208.259 27.05c.375-1.702 1.46-4.84 2.472-7.563l.45-1.134c.374-.983.749-1.89 1.048-2.61a.522.522 0 0 1 .113.152l19.44 5.218c-.075 3.29-.113 6.58-.188 9.907l-.112 5.067a177.79 177.79 0 0 0-.075 4.5v.378-.378c.112.114.262.227.412.34l-.412 3.366-.824 6.996a5661.385 5661.385 0 0 0-17.417 14.028c.262-6.239.524-12.478.749-18.717v-.303c-.038 0-.075 0-.112-.038-1.274-.302-2.398-.643-3.484-1.55-4.907-4.235-2.772-14.256-2.06-17.659z" fill="#FBB319"/><path d="M214.765 33.362c.075 0 .15-.038.188-.113.038-.076 0-.188-.075-.264l-4.101-1.955 5.041-5.642a.182.182 0 0 0 0-.264.182.182 0 0 0-.263 0l-5.267 5.868c-.038.038-.038.113-.038.15 0 .076.038.113.113.15l4.327 2.07c0-.038.037 0 .075 0z" fill="#000"/><g transform="matrix(-1 0 0 1 220.384 23.053)" fill="#000"><ellipse cx=".93" cy="2.882" rx="1" ry="1"/><ellipse cx="8.46" cy=".961" rx="1" ry="1"/></g><path d="M215.428 38.89c.79 0 1.73-.22 2.82-.846.076-.037.113-.147.076-.258-.038-.074-.15-.11-.264-.074-3.534 2.025-5.339-.478-5.376-.478-.076-.074-.188-.11-.264-.037-.075.074-.112.184-.037.258.037.037 1.053 1.436 3.045 1.436zm-3.156-23.13a.522.522 0 0 1 .113.152l19.446 5.22c-.112 4.992-.187 9.985-.3 14.94l.937-.114-.974 8.321c2.023-1.626 5.17-4.69 7.531-9.38 3.897-7.83 2.923-15.091 2.51-17.852-.86-5.787-3.858-15.243-9.329-16.756-.637-.189-2.435-.68-3.784.303-1.836 1.361-1.462 4.425-1.387 4.728-2.21-4.274-6.37-5.41-8.168-4.199-1.536 1.021-1.986 4.16-.675 7.262-1.011-2.231-2.922-3.555-4.72-3.366-1.65.19-2.624 1.55-2.736 1.74-1.574 2.156-.937 5.749 1.536 9.002z" fill="#000"/><path d="M230.838 31.705c2.283-2.607 6.175-2.872 8.758-.567 1.085.983 1.796 2.268 2.02 3.59a6.141 6.141 0 0 1-1.459 5.216 6.158 6.158 0 0 1-8.346.907 3.93 3.93 0 0 1-.412-.34c-2.545-2.23-2.807-6.198-.561-8.806z" fill="#FBB319"/><path d="M232.48 37.72h.037a2.231 2.231 0 0 0 1.61-1.55 2.285 2.285 0 0 0-.337-1.963l4.829-1.85c.112-.038.15-.151.112-.227-.037-.113-.15-.15-.224-.113l-5.091 1.926c-.075.038-.113.075-.113.15 0 .076 0 .114.038.19.45.49.636 1.17.45 1.812-.188.642-.675 1.133-1.311 1.284-.112.038-.15.114-.15.227 0 .075.075.113.15.113z" fill="#000"/><g transform="matrix(-1 0 0 1 224.72 18.133)" fill="#000"><ellipse transform="rotate(-21.956 2.907 3.74)" cx="2.907" cy="3.74" rx="2.719" ry="1"/><ellipse transform="rotate(-6.707 12.257 1.089)" cx="12.257" cy="1.089" rx="2.719" ry="1"/></g><path d="M215.467 46.575c1.197 0 2.432-.112 3.63-.337a21.283 21.283 0 0 0 5.8-1.982c.074-.038.111-.15.074-.262-.037-.075-.15-.113-.262-.075-1.796.935-3.704 1.608-5.688 1.945a20.83 20.83 0 0 1-5.051.262c-.112 0-.187.075-.187.187s.075.187.187.187c.449.038.973.075 1.497.075zM136.42 256.68c-1.576.492-2.738 1.74-3.488 2.95h-40.8c1.95-7.941 5.175-11.042 7.913-12.365 3.825-1.853 6.787-.303 12.75-1.702 4.8-1.134 8.4-3.479 10.762-5.332 2.85 2.27 5.738 4.5 8.662 6.769a724.079 724.079 0 0 0 16.95 12.63h-7.462c-1.388-1.815-3.338-3.593-5.288-2.95zm113.879 33.098c2.435-3.473 5.77-3.624 10.266-7.777 3.634-3.36 5.62-7.172 6.782-9.965-.75-2.152-1.461-4.266-2.21-6.418 9.141-.868 21.88-2.113 26.864-2.755l7.081 13.363c-1.836 1.095-3.672 2.152-5.508 3.246-2.248-.528-4.983-.68-6.144 1.095-.6.944-.862 1.963-.9 2.982-2.173 1.246-4.383 2.53-6.594 3.775a1716.729 1716.729 0 0 1-30.536 17.1c-2.174-7.89-.825-12.193.899-14.646z" fill="#000"/><path d="M248.29 298.145c.038 0 .076 0 .076-.037l47.605-27.722c.075-.038.112-.15.075-.264-.037-.075-.15-.113-.262-.075l-47.606 27.721c-.075.038-.112.151-.075.264a.206.206 0 0 0 .188.113z" fill="#F6F6F4"/><path d="M93.947 254.382h47.783c.113 0 .188-.075.188-.188 0-.112-.075-.187-.188-.187H93.947c-.112 0-.187.075-.187.187 0 .113.075.188.187.188z" fill="#D5E0EA"/><path d="M125.74 229.58c1.386-6.8 2.623-12.92 3.748-18.209 5.51-26.558 6.822-31.394 10.833-37.59 5.698-8.764 12.782-13.902 22.266-20.74a133.804 133.804 0 0 1 22.64-13.222c1.013.15 14.058 2.266 28.115 4.533a8887.21 8887.21 0 0 1 26.914 4.345c9.521 21.307 19.192 42.538 28.9 63.77a12212.782 12212.782 0 0 0 23.279 50.321c-.15 0-.3.038-.45.038-4.985.642-17.73 1.889-26.877 2.758-4.198.377-7.647.68-9.22.793-7.31-15.565-15.482-31.734-24.591-48.432-8.734-15.98-17.506-31.016-26.202-45.032-5.098 1.284-31.337 13.638-36.023 17.151-6.635 23.196-13.232 46.392-19.867 69.55a723.77 723.77 0 0 1-16.943-12.617c-2.924-2.267-5.81-4.496-8.66-6.763a588.32 588.32 0 0 1 2.137-10.653z" fill="#F47729"/><path d="M136.955 250.68c.075 0 .15-.038.187-.15l21.763-71.396 46.258-6.082c.112 0 .187-.113.15-.226 0-.114-.112-.19-.225-.151l-46.37 6.12c-.076 0-.15.075-.15.113l-21.8 71.546c-.038.113.037.188.112.226h.075zm139.613 14.01h.075c.113-.038.15-.15.113-.264L227.792 146.6c-.038-.114-.15-.151-.263-.114-.112.038-.15.151-.112.265l48.964 117.826a.206.206 0 0 0 .187.113z" fill="#F6F6F4"/><g fill="#000"><g transform="matrix(-1 0 0 1 280.767 55.525)"><ellipse cx="37.327" cy="1.312" rx="1.302" ry="1.312"/><ellipse cx="49.274" cy="1.312" rx="1.302" ry="1.312"/><ellipse cx="72.563" cy="1.312" rx="1.302" ry="1.312"/><ellipse cx="84.881" cy="1.312" rx="1.302" ry="1.312"/><path d="M133.19 2.212a1.213 1.213 0 0 1-1.734 0 1.225 1.225 0 0 1-.37-.898c.222-.374.407-.71.591-1.085.48-.3 1.108-.225 1.514.187.48.524.48 1.31 0 1.796z"/><ellipse cx="144.149" cy="1.312" rx="1.302" ry="1.312"/><path d="M20.278 12.748a1.179 1.179 0 0 1-1.717 0 1.6 1.6 0 0 1-.293-.457 34.048 34.048 0 0 1 1.718-1.56c.11.037.22.151.329.228a1.34 1.34 0 0 1-.037 1.79z"/><ellipse cx="31.284" cy="11.901" rx="1.302" ry="1.312"/><ellipse cx="43.649" cy="11.901" rx="1.302" ry="1.312"/><ellipse cx="55.689" cy="11.901" rx="1.302" ry="1.312"/><ellipse cx="67.263" cy="11.901" rx="1.302" ry="1.312"/><ellipse cx="79.256" cy="11.901" rx="1.302" ry="1.312"/><ellipse cx="91.296" cy="11.901" rx="1.302" ry="1.312"/><ellipse cx="126.857" cy="11.901" rx="1.302" ry="1.312"/><ellipse cx="138.896" cy="11.901" rx="1.302" ry="1.312"/><ellipse cx="13.666" cy="20.945" rx="1.302" ry="1.312"/><ellipse cx="25.66" cy="20.945" rx="1.302" ry="1.312"/><ellipse cx="37.653" cy="20.945" rx="1.302" ry="1.312"/><ellipse cx="49.646" cy="20.945" rx="1.302" ry="1.312"/><ellipse cx="61.313" cy="20.945" rx="1.302" ry="1.312"/><ellipse cx="73.26" cy="20.945" rx="1.302" ry="1.312"/><ellipse cx="85.299" cy="20.945" rx="1.302" ry="1.312"/><ellipse cx="97.246" cy="20.945" rx="1.302" ry="1.312"/><path d="M109.843 21.535l-.074.075a1.225 1.225 0 0 1-1.746 0 1.267 1.267 0 0 1-.111-1.65c.631.6 1.3 1.125 1.931 1.575z"/><ellipse cx="120.907" cy="20.945" rx="1.302" ry="1.312"/><ellipse cx="132.853" cy="20.945" rx="1.302" ry="1.312"/><path d="M143.777 19.726c-.152.31-.304.581-.418.89 0-.309.152-.58.38-.812 0-.039.038-.039.038-.078z"/><ellipse cx="7.298" cy="31.159" rx="1.302" ry="1.312"/><ellipse cx="18.919" cy="31.159" rx="1.302" ry="1.312"/><ellipse cx="30.912" cy="31.159" rx="1.302" ry="1.312"/><ellipse cx="43.277" cy="31.159" rx="1.302" ry="1.312"/><ellipse cx="54.898" cy="31.159" rx="1.302" ry="1.312"/><ellipse cx="66.52" cy="31.159" rx="1.302" ry="1.312"/><ellipse cx="78.513" cy="31.159" rx="1.302" ry="1.312"/><ellipse cx="90.924" cy="31.159" rx="1.302" ry="1.312"/><ellipse cx="102.871" cy="31.159" rx="1.302" ry="1.312"/><ellipse cx="114.492" cy="31.159" rx="1.302" ry="1.312"/><ellipse cx="126.159" cy="31.159" rx="1.302" ry="1.312"/><path d="M138.385 29.984l-1.245 2.066a1.302 1.302 0 0 1 .075-1.722c.34-.344.793-.459 1.17-.344z"/><ellipse cx="1.302" cy="40.249" rx="1.302" ry="1.312"/><ellipse cx="12.923" cy="40.249" rx="1.302" ry="1.312"/><ellipse cx="24.916" cy="40.249" rx="1.302" ry="1.312"/><ellipse cx="37.327" cy="40.249" rx="1.302" ry="1.312"/><ellipse cx="48.902" cy="40.249" rx="1.302" ry="1.312"/><ellipse cx="60.523" cy="40.249" rx="1.302" ry="1.312"/><ellipse cx="72.563" cy="40.249" rx="1.302" ry="1.312"/><ellipse cx="84.881" cy="40.249" rx="1.302" ry="1.312"/><path d="M97.646 40.765a44.541 44.541 0 0 1-1.841-1.661c.478-.49 1.252-.453 1.73 0 .442.49.479 1.17.11 1.66z"/><ellipse cx="108.495" cy="40.249" rx="1.302" ry="1.312"/><ellipse cx="120.163" cy="40.249" rx="1.302" ry="1.312"/><path d="M132.202 38.75c-.417.48-.873.962-1.328 1.406-.076-.37.076-.777.341-1.073.266-.222.608-.333.987-.333z"/><ellipse cx="7.67" cy="50.792" rx="1.302" ry="1.312"/><ellipse cx="19.291" cy="50.792" rx="1.302" ry="1.312"/><ellipse cx="43.649" cy="50.792" rx="1.302" ry="1.312"/><ellipse cx="55.27" cy="50.792" rx="1.302" ry="1.312"/><ellipse cx="66.938" cy="50.792" rx="1.302" ry="1.312"/><ellipse cx="78.884" cy="50.792" rx="1.302" ry="1.312"/><ellipse cx="91.296" cy="50.792" rx="1.302" ry="1.312"/><ellipse cx="1.673" cy="59.507" rx="1.302" ry="1.312"/><ellipse cx="13.295" cy="59.507" rx="1.302" ry="1.312"/><ellipse cx="25.288" cy="59.507" rx="1.302" ry="1.312"/><ellipse cx="37.653" cy="59.507" rx="1.302" ry="1.312"/><ellipse cx="49.646" cy="59.507" rx="1.302" ry="1.312"/><ellipse cx="60.895" cy="59.507" rx="1.302" ry="1.312"/><ellipse cx="72.888" cy="59.507" rx="1.302" ry="1.312"/><ellipse cx="85.299" cy="59.507" rx="1.302" ry="1.312"/><ellipse cx="6.554" cy="69.675" rx="1.302" ry="1.312"/><ellipse cx="18.175" cy="69.675" rx="1.302" ry="1.312"/><ellipse cx="30.169" cy="69.675" rx="1.302" ry="1.312"/><ellipse cx="42.533" cy="69.675" rx="1.302" ry="1.312"/><ellipse cx="54.155" cy="69.675" rx="1.302" ry="1.312"/><ellipse cx="65.776" cy="69.675" rx="1.302" ry="1.312"/><ellipse cx="77.815" cy="69.675" rx="1.302" ry="1.312"/><ellipse cx="90.134" cy="69.675" rx="1.302" ry="1.312"/><ellipse cx="36.537" cy="78.39" rx="1.302" ry="1.312"/><ellipse cx="48.158" cy="78.39" rx="1.302" ry="1.312"/><ellipse cx="59.779" cy="78.39" rx="1.302" ry="1.312"/><ellipse cx="71.772" cy="78.39" rx="1.302" ry="1.312"/><ellipse cx="84.137" cy="78.39" rx="1.302" ry="1.312"/><ellipse cx="96.177" cy="78.39" rx="1.302" ry="1.312"/><path d="M31.336 89.857c-.15.151-.375.265-.563.341.037-.797.113-1.593.15-2.39.15.076.3.152.413.304.489.417.489 1.252 0 1.745z"/><ellipse cx="42.952" cy="88.98" rx="1.302" ry="1.312"/><ellipse cx="54.526" cy="88.98" rx="1.302" ry="1.312"/><path d="M67.45 88.846c-.815.113-1.628.264-2.442.415-.074-.415.037-.83.333-1.132.48-.49 1.257-.49 1.738 0 .222.189.333.453.37.717z"/></g><path d="M213.143 65.364c.038 0 .075 0 .113-.037l14.394-11.52c.075-.076.112-.19.037-.265-.075-.076-.188-.114-.263-.038L213.368 64.76l.451-11.105c0-.113-.075-.189-.187-.189-.113 0-.188.076-.188.19l-.451 11.52c0 .075.037.15.112.188h.038z"/></g><path d="M104.265 26.488l16.157.227c-.412-5.328-.787-10.657-1.2-15.985a3257.77 3257.77 0 0 0 9.447 11.866c4.162-3.439 8.285-6.878 12.446-10.317-1.2 3.553-2.436 7.143-3.636 10.695-.337.982-.675 2.003-1.012 2.985 1.8.151 3.599.34 5.436.492l10.009.906-6.86 3.855c-2.212 1.247-4.461 2.494-6.673 3.741 2.212 2.872 4.423 5.706 6.635 8.578 1.012 1.323 2.062 2.646 3.074 4.006-.975-.189-1.987-.378-2.961-.567-4.424-.869-8.885-1.7-13.309-2.57-.037.038-.037.076-.075.114l-.15.302c-.9 1.625-1.799 3.212-2.661 4.837-1.387 2.532-2.812 5.064-4.199 7.558-.787-4.648-1.574-9.258-2.361-13.906-4.949 1.096-9.86 2.192-14.808 3.287 2.999-3.74 6.035-7.482 9.034-11.185a800.002 800.002 0 0 0-12.333-8.919z" fill="#F47729"/><path d="M208.95 80.994a31.574 31.574 0 0 1 8.801 11.44 31.456 31.456 0 0 1 2.81 12.121 32.148 32.148 0 0 1-.225 4.644 31.967 31.967 0 0 1-1.723 7.137c-.412 1.17-.937 2.303-1.499 3.398a25.171 25.171 0 0 1-1.236 2.19 32.188 32.188 0 0 1-3.633 4.795 31.137 31.137 0 0 1-9.85 7.099c-6.218 2.87-11.76 2.945-14.083 2.832-5.506-.189-9.738-1.85-12.135-2.983 1.985-3.55 3.933-7.099 5.918-10.648a19.419 19.419 0 0 0 5.842 1.548c1.05.113 5.02.34 9.514-1.699 3.483-1.624 6.367-4.153 8.315-7.325a15.81 15.81 0 0 0 1.648-3.398c.412-1.133.711-2.266.899-3.399.674-3.776.15-7.665-1.461-11.29-1.873-4.153-4.682-6.456-6.068-7.551-2.06-1.662-4.045-2.643-5.43-3.247 1.647-3.55 3.295-7.061 4.943-10.61a30.032 30.032 0 0 1 8.652 4.946z" fill="#40AE4E"/><path d="M227.403 106.52c-.263 1.323-.562 2.645-.825 3.967a271.85 271.85 0 0 1-3.824 15.415c-1.462-.189-18.933-2.304-20.47-4.345-.712-.944-.637-1.813-.637-1.813 0-.038.15-.907.825-1.436.75-.529 1.574-.34 1.687-.34-.713-.226-1.425-.415-2.1-.642a2.42 2.42 0 0 1-1.8-2.834c.226-1.02 1.125-1.7 2.138-1.738-1.2-.378-1.95-1.587-1.687-2.796.262-1.246 1.537-2.002 2.811-1.662l4.65 1.171-1.688-.529c-1.237-.415-1.95-1.738-1.612-2.947.375-1.209 1.65-1.889 2.924-1.473l2.025.642 10.61 3.4c.15-1.36.187-2.72.15-4.042 1.35.302 2.811.68 4.311 1.133.862.303 1.725.567 2.512.87zm-8.46 10.34a.28.28 0 0 1 .148.074c0-.037.038-.075.038-.075h-.186z" fill="#FBB319"/><path d="M213.074 110.955c.075 0 .15-.037.188-.149.037-.112-.038-.187-.113-.224l-6.522-1.866c-.113-.037-.188.037-.225.112-.038.112.037.187.112.224l6.523 1.866c0 .037 0 .037.037.037zm-2.138 3.983c.075 0 .15-.075.187-.15.038-.113-.037-.189-.15-.226l-8.483-1.957c-.113-.038-.188.038-.226.15-.037.113.038.189.15.226l8.522 1.957zm-1.163 4.686c.076 0 .15-.038.188-.15.038-.111-.037-.186-.15-.223l-5.601-1.492c-.113-.037-.188.037-.226.15-.037.111.038.186.15.223l5.64 1.492z" fill="#000"/><path d="M144.874 41.148l.112-9.753v-.188c-2.204 1.247-4.444 2.494-6.648 3.741 2.204 2.873 4.407 5.708 6.61 8.581l-.074-2.381zm-8.395-15.172c1.8.153 3.6.345 5.439.498l-2.176-2.717c-.487-.573-1.163-.88-1.875-.841-.113 0-.263.038-.375.038-.338.995-.676 2.028-1.013 3.022zM124.73 41.238s5.39 12.592 6.027 15.692a262.845 262.845 0 0 0 7.413-4.16 191.284 191.284 0 0 0 7.002-4.31l-.075-1.55c-4.418-.87-8.874-1.702-13.291-2.571-.038.038-.038.075-.075.113-.038.114-.113.19-.15.303l-2.845-5.596a2.238 2.238 0 0 0-3.07-.984c-1.049.53-1.498 1.929-.936 3.063z" fill="#FBB319"/><path d="M132.548 46.716c.038 0 .075 0 .075-.038.076-.038.114-.152.076-.266l-2.978-5.838c-.038-.075-.151-.113-.264-.075-.075.037-.113.151-.075.265l2.978 5.838a.207.207 0 0 0 .188.114z" fill="#000"/><path d="M40.096 221.22c.3-.037.6.152.637.492l4.196 27.841 53.352-8.197-4.196-27.842c-.038-.302.15-.604.487-.642.3-.038.599.151.636.491l4.31 28.37L120.46 380.3l1.835 12.126c.038.303-.15.605-.487.643h-.075a.565.565 0 0 1-.562-.491l-1.76-11.56-53.352 8.197 1.76 11.56c.038.302-.149.605-.486.642h-.075a.565.565 0 0 1-.562-.49l-27.088-179.1c-.037-.265.187-.53.487-.605zm4.994 29.457l5.06 33.505 53.371-8.196-5.06-33.506-53.37 8.197zm10.313 68.132l53.371-8.197-5.06-33.505-53.371 8.197 5.06 33.505zm5.206 34.627l53.371-8.197-5.06-33.505-53.37 8.197 5.059 33.505zm58.624 26.476l-5.06-33.505-53.371 8.197 5.06 33.505 53.371-8.197zM45.817 70.342c4.386 9.008 8.743 17.989 13.13 26.997.477 1.001 1.94.115 1.461-.858-4.386-9.008-8.743-17.989-13.13-26.997-.477-1.001-1.94-.143-1.461.858zm27.13 32.806l-3.38-20c-.197-1.092-1.803-.632-1.634.46l3.38 20c.198 1.092 1.831.632 1.634-.46zm334.874 54.644c-6.898 10.05-13.83 20.1-20.728 30.151-.744 1.105 1.014 2.141 1.758 1.036 6.898-10.05 13.83-20.1 20.728-30.15.744-1.072-1.014-2.108-1.758-1.037zm-27.465 53.891a1267.948 1267.948 0 0 0 32.326-31.385c.947-.94-.507-2.4-1.42-1.461a1159.495 1159.495 0 0 1-32.326 31.384c-.98.905.473 2.366 1.42 1.462z" fill="#DBDBD1"/></g></svg>