<svg width="103" height="128" xmlns="http://www.w3.org/2000/svg"><g fill="none"><path d="M86.758 42.886a35.63 35.63 0 0 0-11.77-21.982A35.627 35.627 0 0 0 51.41 12a35.626 35.626 0 0 0-23.574 8.901 35.63 35.63 0 0 0-11.773 21.977 1.871 1.871 0 0 0 3.71.498c2.114-15.754 15.715-27.634 31.637-27.634 15.925 0 29.527 11.883 31.638 27.641a1.872 1.872 0 0 0 3.71-.497zm-1.581 7.116a1.87 1.87 0 0 0-2.087 1.627c-1.973 15.94-15.592 27.959-31.68 27.959-16.098 0-29.719-12.03-31.682-27.982a1.87 1.87 0 1 0-3.714.457c2.193 17.825 17.41 31.267 35.397 31.267 17.973 0 33.189-13.43 35.393-31.241a1.871 1.871 0 0 0-1.627-2.087z" fill="#F47729"/><path d="M101.97 107.066L85.11 80.694a8.055 8.055 0 0 0 4.787-3.025 8.053 8.053 0 0 0 1.486-6.318 4.312 4.312 0 0 1 2.307-4.632 8.053 8.053 0 0 0 4.146-4.993 8.054 8.054 0 0 0-.896-6.429 4.311 4.311 0 0 1 .477-5.151 8.053 8.053 0 0 0 2.062-6.154 8.054 8.054 0 0 0-3.158-5.67 4.311 4.311 0 0 1-1.416-4.977 8.054 8.054 0 0 0-.3-6.484 8.054 8.054 0 0 0-4.993-4.147 4.311 4.311 0 0 1-3.118-4.128 8.054 8.054 0 0 0-2.622-5.937 8.055 8.055 0 0 0-6.154-2.064 4.31 4.31 0 0 1-4.399-2.723 8.054 8.054 0 0 0-4.59-4.59 8.054 8.054 0 0 0-6.483.3c-1.709.85-3.8.46-5.086-.95A8.052 8.052 0 0 0 51.222 0a8.054 8.054 0 0 0-5.937 2.62 4.312 4.312 0 0 1-5.086.952 8.054 8.054 0 0 0-6.483-.3 8.054 8.054 0 0 0-4.59 4.59 4.314 4.314 0 0 1-4.4 2.723 8.051 8.051 0 0 0-6.153 2.063 8.054 8.054 0 0 0-2.622 5.937 4.311 4.311 0 0 1-3.118 4.13A8.053 8.053 0 0 0 7.84 26.86a8.054 8.054 0 0 0-.3 6.484 4.312 4.312 0 0 1-1.416 4.976 8.054 8.054 0 0 0-3.158 5.67 8.054 8.054 0 0 0 2.062 6.155 4.312 4.312 0 0 1 .477 5.151 8.054 8.054 0 0 0-.896 6.429 8.053 8.053 0 0 0 4.146 4.993 4.312 4.312 0 0 1 2.306 4.632 8.053 8.053 0 0 0 1.487 6.318 8.056 8.056 0 0 0 4.787 3.025L.475 107.066a2.982 2.982 0 0 0-.037 3.171 2.984 2.984 0 0 0 2.829 1.434l16.454-1.448 5.593 15.543a2.98 2.98 0 0 0 2.83 1.985 2.979 2.979 0 0 0 2.52-1.385L51.223 94.21l20.558 32.157a2.978 2.978 0 0 0 2.862 1.365 2.981 2.981 0 0 0 2.49-1.966l5.592-15.543 16.454 1.448a2.982 2.982 0 0 0 2.83-1.433c.596-.985.582-2.2-.039-3.171zm-97.528.744L20.879 82.1a4.28 4.28 0 0 1 1.162 2.214 8.052 8.052 0 0 0 2.246 4.228l-11.706 18.553-8.14.716zm19.318 2.583l-.71-1.976a3.001 3.001 0 0 0-3.087-1.972l-2.697.237 10.22-16.199a8.05 8.05 0 0 0 4.652.081 4.308 4.308 0 0 1 3.71.672L23.76 110.393zm4.564 12.686l-2.957-8.22L38.42 94.172a8.05 8.05 0 0 0 3.897 1.93 8.042 8.042 0 0 0 3.303-.076L28.324 123.08zm24.064-32.977a1.887 1.887 0 0 0-.364-.043 8.111 8.111 0 0 0-.802-.045c-.267 0-.534.018-.8.045a1.88 1.88 0 0 0-.367.043 7.993 7.993 0 0 0-3.674 1.527 4.25 4.25 0 0 1-3.376.793 4.246 4.246 0 0 1-2.861-1.96 7.95 7.95 0 0 0-.513-.723c-1.991-2.532-5.369-3.67-8.517-2.775a4.245 4.245 0 0 1-3.434-.479 4.246 4.246 0 0 1-1.96-2.86c-.48-2.562-2.179-4.678-4.442-5.766a1.868 1.868 0 0 0-.358-.162 7.947 7.947 0 0 0-2.357-.596 4.246 4.246 0 0 1-3.029-1.688 4.245 4.245 0 0 1-.794-3.376 8.07 8.07 0 0 0-4.316-8.668 4.247 4.247 0 0 1-2.216-2.668 4.247 4.247 0 0 1 .48-3.435 8.069 8.069 0 0 0-.894-9.642 4.246 4.246 0 0 1-1.102-3.288 4.246 4.246 0 0 1 1.687-3.03 8.07 8.07 0 0 0 2.65-9.313 4.245 4.245 0 0 1 .16-3.464 4.245 4.245 0 0 1 2.668-2.216 8.07 8.07 0 0 0 5.836-7.727c0-1.222.498-2.349 1.4-3.172a4.244 4.244 0 0 1 3.289-1.103 8.067 8.067 0 0 0 8.233-5.097 4.247 4.247 0 0 1 2.452-2.452 4.246 4.246 0 0 1 3.464.16 8.07 8.07 0 0 0 9.519-1.78 4.246 4.246 0 0 1 3.172-1.4c1.223 0 2.35.497 3.173 1.4a8.07 8.07 0 0 0 9.518 1.78 4.247 4.247 0 0 1 3.464-.16 4.246 4.246 0 0 1 2.453 2.452 8.068 8.068 0 0 0 8.232 5.097 4.245 4.245 0 0 1 3.288 1.103 4.242 4.242 0 0 1 1.401 3.172 8.07 8.07 0 0 0 5.836 7.727 4.245 4.245 0 0 1 2.667 2.216 4.245 4.245 0 0 1 .16 3.464 8.07 8.07 0 0 0 2.65 9.314 4.246 4.246 0 0 1 1.688 3.03 4.245 4.245 0 0 1-1.102 3.287 8.069 8.069 0 0 0-.894 9.642c.644 1.04.814 2.26.479 3.435a4.244 4.244 0 0 1-2.215 2.668 8.07 8.07 0 0 0-4.316 8.668 4.247 4.247 0 0 1-.795 3.376 4.246 4.246 0 0 1-3.03 1.687 7.954 7.954 0 0 0-2.358.598 1.87 1.87 0 0 0-.355.16c-2.264 1.089-3.963 3.204-4.442 5.766a4.246 4.246 0 0 1-1.96 2.86 4.248 4.248 0 0 1-3.435.48c-3.149-.895-6.527.243-8.517 2.777a7.95 7.95 0 0 0-.512.721 4.245 4.245 0 0 1-2.861 1.96 4.247 4.247 0 0 1-3.376-.794 7.987 7.987 0 0 0-3.675-1.526zM74.12 123.08L56.823 96.022a8.018 8.018 0 0 0 3.305.079 8.049 8.049 0 0 0 3.896-1.93l13.054 20.69-2.958 8.218zm8.362-16.634a3 3 0 0 0-3.086 1.973l-.711 1.976-12.088-19.158a4.308 4.308 0 0 1 3.71-.671 8.053 8.053 0 0 0 4.651-.081l10.22 16.198-2.696-.237zm7.38.65L78.159 88.541a8.053 8.053 0 0 0 2.246-4.23 4.274 4.274 0 0 1 1.162-2.213l16.437 25.711-8.14-.716z" fill="#F47729"/><path d="M66 66H37c.332-2.833 1.34-5.497 3.026-7.993 1.685-2.496 4.845-5.442 9.48-8.838 2.833-2.081 4.644-3.662 5.435-4.742.791-1.08 1.187-2.105 1.187-3.075 0-1.048-.392-1.944-1.175-2.688-.783-.743-1.768-1.115-2.955-1.115-1.234 0-2.242.384-3.025 1.15-.784.767-1.31 2.121-1.579 4.062l-9.682-.775c.38-2.692 1.076-4.793 2.088-6.303 1.013-1.51 2.44-2.668 4.284-3.474C45.927 31.403 48.478 31 51.737 31c3.402 0 6.048.383 7.939 1.15 1.89.767 3.377 1.945 4.461 3.533 1.084 1.589 1.626 3.369 1.626 5.34 0 2.098-.621 4.1-1.863 6.01-1.242 1.91-3.5 4.006-6.776 6.29-1.946 1.331-3.247 2.262-3.903 2.794a35.622 35.622 0 0 0-2.314 2.09H66V66z" stroke="#40AE4E" stroke-width="3"/></g></svg>