<?xml version="1.0" encoding="UTF-8"?>
<svg width="157px" height="52px" viewBox="0 0 157 52" version="1.1" xmlns="http://www.w3.org/2000/svg" xmlns:xlink="http://www.w3.org/1999/xlink">
    <!-- Generator: Sketch 54.1 (76490) - https://sketchapp.com -->
    <title>logo</title>
    <desc>Created with Sketch.</desc>
    <g id="Page-1" stroke="none" stroke-width="1" fill="none" fill-rule="evenodd">
        <g id="LP-Copy" transform="translate(-255.000000, -24.000000)" fill-rule="nonzero">
            <g id="logo" transform="translate(255.000000, 24.000000)">
                <g id="Group">
                    <g transform="translate(11.037775, 12.377337)" id="Path">
                        <path d="M18.8024245,0.627402934 C20.3562036,1.18224907 21.3963016,2.0358585 22.457626,2.91080817 C23.5231958,3.79002588 24.4826332,4.79728502 25.3147116,5.90270923 C26.1255635,6.98252517 26.817547,8.16477423 27.3269828,9.4195801 C27.700569,10.3329422 27.9765134,11.2889848 28.1208535,12.2663676 C28.2736842,13.2949669 28.1208535,14.29369 27.8916074,15.2838769 C27.1401897,18.5105206 26.0576387,21.5792465 23.5953659,23.9522807 C22.9925336,24.5370032 22.3302671,25.0363647 21.5915853,25.4119528 C20.1651652,26.1375209 19.3967662,27.328306 19.0274253,28.8477308 C18.6623297,30.3500834 18.0849692,30.9646822 17.5203446,31.4597757 C17.1000601,31.8268277 16.2934535,32.3347253 14.7778821,32.3517975 C14.6929761,32.2408283 14.6080702,32.1298591 14.5231642,32.0146218 C14.034955,32.035962 13.5467457,32.0573023 13.0585364,32.0786425 C12.9481587,32.1725395 12.8377809,32.2707046 12.7231579,32.3646017 C12.4005153,32.304849 11.9505137,32.1896117 11.4538138,31.9591372 C11.071737,31.7798792 10.0104125,31.2293011 9.30569306,30.1452171 C8.83021969,29.411113 8.56701122,28.5404314 8.52031294,27.5289042 C8.48210526,26.6667587 8.11276434,26.0948404 7.35710131,25.7576647 C4.56794057,24.5156629 2.75095306,22.2749382 1.31604236,19.6927696 C-0.479718666,16.4575899 -0.110377746,13.1071729 1.07406038,9.7994363 C2.08019599,6.99106126 3.57454086,4.56254242 5.7396428,2.69740581 C6.45709815,2.08280702 7.23823297,1.37857923 8.49059586,0.840805292 C10.0783373,0.153649698 11.4623044,0.149381651 14.1623139,0.162185792 C16.4165671,0.170721887 17.5373257,0.174989934 18.8024245,0.627402934 Z" fill="#F47729"></path>
                        <path d="M13.2325936,1.57064136 C14.7991086,1.59198159 16.5948696,1.69014668 18.0977051,2.14682773 C20.8656393,2.98336497 23.1156472,4.5881507 24.423199,7.19592752 C26.1340541,10.6060972 26.6519804,14.1613805 25.5609388,17.8447052 C25.4463158,18.2245614 24.6142374,20.6232039 22.5043243,22.624918 C21.4514904,23.6236411 20.9250735,24.1272706 20.2033728,24.4601783 C19.8128054,24.6437043 19.2311996,24.8528387 18.7175186,25.4418292 C18.4415742,25.7619327 18.2760076,26.0820362 18.1231769,26.3807995 C17.7283642,27.1575841 17.826006,27.3368421 17.5203446,27.964245 C17.3505326,28.318493 16.9939276,29.0227207 16.2467552,29.5178142 C15.873169,29.7653609 15.4359033,29.9403509 14.9179769,30.0257118 C13.7972183,30.2177739 12.710422,30.0641242 11.670324,29.5732988 C10.630226,29.0867414 10.2056962,28.2886166 10.1335262,27.1661202 C10.031639,25.5229221 9.34390074,24.9381996 7.87927296,24.3364049 C4.27926031,22.8639287 2.37736684,19.9701927 1.89340288,16.0990739 C1.30755176,11.4084901 3.15850166,7.148979 6.46134345,3.78148979 C8.22738739,2.00171412 10.7490944,1.54076503 13.2325936,1.57064136 Z" fill="#F8F5CD"></path>
                        <path d="M13.5679722,14.1955249 C13.4703303,16.8374461 13.4830662,19.0312223 13.9160866,21.7371642 C14.2684463,23.9266724 13.2495748,24.9680759 11.1099447,24.0547138 C7.03870397,22.3176186 4.04576893,19.6116767 3.29435119,15.1515674 C2.77642485,12.0828415 4.3004868,9.38116767 5.90096412,6.81607133 C6.94530741,5.14726488 8.67314367,3.8369744 10.47315,2.9321484 C10.8042832,2.76569456 11.2415489,2.65045729 11.5939086,2.62911705 C12.425987,2.57790049 12.9566493,2.72301409 13.024574,3.68332471 C13.2580654,7.15324705 13.6613687,10.7085303 13.5679722,14.1955249 Z" fill="#FBB319"></path>
                        <path d="M15.8901502,24.3107967 C15.232129,24.3321369 14.9859017,23.9053322 14.9943923,23.2907334 C15.0538265,19.0867069 15.4401486,14.8229278 15.1387324,10.6445096 C14.9859017,8.52329019 14.2726916,6.76058671 13.950049,4.66497555 C13.6995764,3.03031349 14.3618429,2.4071786 15.902886,2.97909692 C18.3863853,3.90526316 20.7128086,4.91252229 22.3981919,6.9313086 C25.2510321,10.3457463 25.4463158,14.566845 23.4297993,18.4891803 C22.2453612,20.7939258 20.1566746,22.4627322 17.8981761,23.7644866 C17.342042,24.0931263 16.5481713,24.2894564 15.8901502,24.3107967 Z" fill="#FBB319"></path>
                    </g>
                    <g transform="translate(19.952900, 43.960886)" fill="#2A6431" id="Path">
                        <path d="M3.66369211,0.746908254 C3.74010748,0.879217716 3.86746641,1.06274374 4.06699542,1.24200173 C4.24954323,1.40418752 4.42784574,1.56637331 4.70379011,1.60905378 C5.14954639,1.68161058 5.51039671,1.39138338 5.59530267,1.32309462 C5.83303936,1.1310325 5.9434171,0.900557952 5.99436068,0.781052632 C5.956153,0.717031924 5.88822823,0.623134886 5.78634108,0.54204199 C5.45520784,0.268886972 5.02218745,0.320103538 4.73775249,0.349979868 C4.25378853,0.401196434 3.8886929,0.597526603 3.66369211,0.746908254 Z"></path>
                        <path d="M5.84577525,3.71746908 C5.65898214,3.32907679 5.42973605,2.93641645 5.23869765,2.4882715 C5.14530109,2.26633305 5.11558401,1.79257981 5.07313103,1.52796089 C5.06888573,1.5108887 5.03916864,1.53649698 5.02643275,1.54076503 C4.916055,1.58771355 4.7122807,1.53222893 4.64011064,1.49808456 C4.59341236,1.47247627 4.62737474,1.48954846 4.62737474,1.49381651 C4.62312945,1.81818809 4.62312945,2.25779695 4.73775249,2.54802416 C4.93728149,3.06445787 5.20048996,3.33334484 5.42549075,3.85404659 C5.64624625,4.3704803 5.79483167,5.36920334 5.64200095,5.77466782 C5.43398135,6.31670981 4.74624309,6.83314351 4.89907381,7.19592752 C5.05190454,7.55871153 5.60379327,6.93984469 5.79483167,6.64961749 C5.87973763,6.52584412 5.99436068,6.5514524 6.11747432,6.04355479 C6.22785206,5.53565718 6.18539908,4.43023296 5.84577525,3.71746908 Z"></path>
                        <path d="M5.40850956,3.55955134 C6.28728623,2.30474547 7.10238344,1.95903365 7.66700806,1.86940466 C8.8132385,1.68587863 9.73446815,2.41144665 11.2457942,1.98037389 C11.6066445,1.87794075 11.8825889,1.74136324 12.0439102,1.65173425 C11.9972119,1.93342537 11.8571171,2.56509635 11.3476814,3.13274662 C10.9273969,3.60223181 10.4646594,3.79429393 10.2226774,3.89245902 C9.13588114,4.33633592 8.10002845,4.09305723 7.87078236,4.03330457 C7.31040303,3.88819097 7.16181761,3.70893299 6.48681524,3.59796376 C6.04105895,3.53394305 5.66322744,3.54247915 5.40850956,3.55955134 Z"></path>
                        <path d="M5.38303777,3.40163359 C4.81416785,3.00897325 4.35567568,2.9406845 4.05850482,2.94495255 C3.14576577,2.95348864 2.72972657,3.63637619 1.53255255,3.88392292 C1.0316074,3.98635605 0.607077604,3.97355191 0.343869132,3.94794363 C0.590096412,4.2253667 1.19717402,4.8228933 2.10566777,4.94239862 C2.90378378,5.0490998 3.8929382,4.78021283 4.37690217,4.31499569 C4.45756283,4.23390279 4.69954481,3.98635605 5.09435752,3.82417026 C5.28539592,3.74734541 5.45520784,3.71320104 5.56134029,3.70039689 C5.49766082,3.59796376 5.44247195,3.49979868 5.38303777,3.40163359 Z"></path>
                    </g>
                    <path d="M25.2382962,8.27574346 C25.1448996,8.26720736 24.8434835,8.23306299 24.6524451,8.02819672 C24.3934819,7.75077366 24.5717844,7.41786598 24.5590485,6.50450388 C24.5505579,5.85576071 24.4614067,5.85149267 24.4614067,5.13446074 C24.4614067,4.5966868 24.5165955,4.54547023 24.5293314,4.05037676 C24.5505579,3.16262295 24.3977272,2.92788036 24.3934819,2.30901352 C24.3892366,1.8907449 24.4571614,1.2761461 24.8095211,0.507897613 C25.0430125,0.439608858 25.4930141,0.337175726 25.7604678,0.57191832 C25.9812233,0.763980443 25.9472609,1.07981593 25.9217892,1.69014668 C25.8581097,3.20530342 26.0024498,2.73581823 25.8920721,4.2979235 C25.8283926,5.20701754 25.7901849,5.16860512 25.7689584,5.66369859 C25.7222602,6.7051021 25.8411285,7.55871153 25.9557515,8.11782571 C25.862355,8.17331032 25.5949012,8.31415588 25.2382962,8.27574346 Z" id="Path" fill="#000000"></path>
                    <path d="M7.80710289,25.5997469 C7.7986123,25.6936439 7.76464991,25.9966753 7.56087561,26.1887374 C7.28493125,26.4490883 6.95379801,26.2698303 6.04530425,26.2826345 C5.40001897,26.2911705 5.39577367,26.3807995 4.68256362,26.3807995 C4.14765608,26.3807995 4.0967125,26.3253149 3.60425794,26.3125108 C2.72123597,26.2911705 2.48774459,26.4448202 1.87217639,26.4490883 C1.45613719,26.4533563 0.844814288,26.3850676 0.0849059586,26.0350877 C0.0169811917,25.8003451 -0.0849059586,25.3479321 0.148585428,25.0790452 C0.339623834,24.8571067 0.653775881,24.8912511 1.26085349,24.9168594 C2.76793425,24.9808801 2.30095148,24.8357665 3.85473052,24.9467357 C4.75897898,25.0107564 4.7207713,25.0491688 5.21322586,25.0705091 C6.24907855,25.1174576 7.09813814,24.9979523 7.65427217,24.882715 C7.70521574,24.976612 7.84531057,25.2412309 7.80710289,25.5997469 Z" id="Path" fill="#000000"></path>
                    <path d="M12.6637237,13.4571527 C12.5915537,13.5169054 12.353817,13.7046995 12.0736273,13.7004314 C11.6957958,13.6876273 11.585418,13.3248433 10.9358875,12.6889042 C10.47315,12.2364912 10.4052252,12.2962439 9.90428007,11.7883463 C9.52644855,11.4084901 9.52644855,11.3359333 9.18682472,10.9774173 C8.57550182,10.3329422 8.30380275,10.2774576 7.86653706,9.84211677 C7.56936621,9.54762151 7.1830441,9.06533218 6.89436384,8.27574346 C7.00898688,8.0623411 7.25945946,7.66541271 7.61181919,7.64407248 C7.90474474,7.62273224 8.10002845,7.87027898 8.51182235,8.32269198 C9.53069385,9.43665229 9.30569306,9.00557952 10.3245646,10.1878286 C10.9189063,10.8792522 10.8637174,10.8749842 11.1990959,11.2420362 C11.8995701,12.0145528 12.5830631,12.5309865 13.0542911,12.846822 C13.0330646,12.940719 12.9439134,13.2352143 12.6637237,13.4571527 Z" id="Path" fill="#000000"></path>
                    <path d="M11.5302292,37.8789186 C11.4580591,37.8191659 11.2203224,37.6313719 10.9401328,37.6356399 C10.5623012,37.6484441 10.4519235,38.0112281 9.80239292,38.6471671 C9.33965544,39.0995801 9.27173068,39.0398274 8.77078552,39.5477251 C8.39295401,39.9275812 8.39295401,40.0001381 8.05333017,40.358654 C7.44200727,41.0031291 7.1703082,41.0586137 6.73304252,41.4939546 C6.43587166,41.7884498 6.04954955,42.2707391 5.76086929,43.0603279 C5.87549233,43.2737302 6.12596491,43.6706586 6.47832464,43.6919988 C6.7712502,43.7133391 6.9665339,43.4657923 7.3783278,43.0133794 C8.3971993,41.899419 8.17219851,42.3304918 9.19107002,41.1482427 C9.78541173,40.4568191 9.73022285,40.4610871 10.0656014,40.0940351 C10.7660755,39.3215186 11.4495685,38.8050848 11.9207966,38.4892494 C11.8953248,38.3953523 11.8061735,38.1051251 11.5302292,37.8789186 Z" id="Path" fill="#000000"></path>
                    <path d="M42.1940161,25.6509635 C42.2025067,25.7448605 42.2364691,26.0478919 42.4402434,26.239954 C42.7161878,26.5003049 43.047321,26.3210469 43.9558148,26.333851 C44.6011,26.3423871 44.6053453,26.4320161 45.3185554,26.4320161 C45.8534629,26.4320161 45.9044065,26.3765315 46.3968611,26.3637274 C47.279883,26.3423871 47.5133744,26.4960368 48.1289426,26.5003049 C48.5449818,26.5045729 49.1563047,26.4362842 49.9204584,26.0820362 C49.9883831,25.8472936 50.0902703,25.3948806 49.8567789,25.1259937 C49.6657405,24.9040552 49.3515884,24.9381996 48.7445108,24.9638079 C47.2374301,25.0278286 47.7044128,24.882715 46.1506338,24.9936842 C45.2463853,25.0577049 45.284593,25.0961173 44.7921385,25.1174576 C43.7562858,25.1644061 42.9072262,25.0449008 42.3510921,24.9296635 C42.2959033,25.0278286 42.1558084,25.2924475 42.1940161,25.6509635 Z" id="Path" fill="#000000"></path>
                    <path d="M37.3373953,13.4571527 C37.4095654,13.5169054 37.647302,13.7046995 37.9274917,13.7004314 C38.3053232,13.6876273 38.415701,13.3248433 39.0652315,12.6889042 C39.527969,12.2364912 39.5958938,12.2962439 40.0968389,11.7883463 C40.4746705,11.4084901 40.4746705,11.3359333 40.8142943,10.9774173 C41.4256172,10.3329422 41.6973163,10.2774576 42.134582,9.84211677 C42.4317528,9.54762151 42.8180749,9.06533218 43.1067552,8.27574346 C42.9921321,8.0623411 42.7416596,7.66541271 42.3892998,7.64407248 C42.0963743,7.62273224 41.9010906,7.87027898 41.4892967,8.32269198 C40.4704252,9.43665229 40.695426,9.00557952 39.6765544,10.1878286 C39.0822127,10.8792522 39.1374016,10.8749842 38.8020231,11.2420362 C38.1015489,12.0145528 37.418056,12.5309865 36.9468279,12.846822 C36.9722997,12.940719 37.0572056,13.2352143 37.3373953,13.4571527 Z" id="Path" fill="#000000"></path>
                    <path d="M38.1567378,37.8789186 C38.2289079,37.8191659 38.4666445,37.6313719 38.7468342,37.6356399 C39.1246657,37.6484441 39.2350435,38.0112281 39.884574,38.6471671 C40.3473115,39.0995801 40.4152363,39.0398274 40.9161814,39.5477251 C41.294013,39.9275812 41.294013,40.0001381 41.6336368,40.358654 C42.2449597,41.0031291 42.5166588,41.0586137 42.9539245,41.4939546 C43.2510953,41.7884498 43.6374174,42.2707391 43.9260977,43.0603279 C43.8114746,43.2737302 43.5610021,43.6706586 43.2086423,43.6919988 C42.9157168,43.7133391 42.7204331,43.4657923 42.3086392,43.0133794 C41.2897677,41.899419 41.5147685,42.3304918 40.4958969,41.1482427 C39.9015552,40.4568191 39.9567441,40.4610871 39.6213656,40.0940351 C38.9208914,39.3215186 38.2373985,38.8050848 37.7661704,38.4892494 C37.7873969,38.3953523 37.8765481,38.1051251 38.1567378,37.8789186 Z" id="Path" fill="#000000"></path>
                </g>
                <g id="Group" transform="translate(59.434171, 11.096923)" fill="#F47729">
                    <path d="M0.339623834,27.3752545 C0.314152047,22.8980731 0.301416153,18.4080874 0.301416153,13.9095657 C0.301416153,9.40677596 0.301416153,4.91679034 0.301416153,0.443876905 C0.908493757,0.443876905 1.46462779,0.426804717 1.96132764,0.388392292 C2.4580275,0.349979868 3.03963332,0.332907679 3.6934092,0.332907679 C3.59576735,2.60777682 3.54057847,4.45584124 3.52784258,5.8728329 C3.51510669,7.29409261 3.51510669,8.85192982 3.52784258,10.5506126 C3.54057847,12.2492954 3.55331437,14.3619787 3.56605026,16.8801265 C3.57878615,19.3982744 3.54906907,22.8980731 3.476899,27.3752545 C2.89104789,27.3752545 2.36887624,27.3923267 1.90613877,27.4307391 C1.44764659,27.4648835 0.921229651,27.4478113 0.339623834,27.3752545 Z" id="Path"></path>
                    <path d="M6.07077604,5.13446074 C6.1429461,4.47291343 6.21087087,3.81990221 6.27030504,3.17115905 C6.32973921,2.52241588 6.39766398,1.86940466 6.46983404,1.20785735 C7.00474158,1.20785735 7.55663031,1.17798102 8.12974554,1.11822836 C8.70286076,1.0584757 9.2292777,1.17371297 9.71748696,1.46820823 C9.74295875,2.15536382 9.73446815,2.80837504 9.70050577,3.43150992 C9.66229809,4.05464481 9.67078868,4.71192407 9.71748696,5.39481162 C9.05946578,5.39481162 8.45238818,5.35639919 7.89200885,5.28384239 C7.33587482,5.20701754 6.72455192,5.16006903 6.07077604,5.13446074 Z M6.32549391,27.3752545 C6.27455034,24.0504458 6.24483325,21.442669 6.23209736,19.5604602 C6.21936147,17.6782514 6.21511617,16.1161461 6.21511617,14.8826805 C6.21511617,13.6492148 6.21936147,12.5267184 6.23209736,11.5237274 C6.24483325,10.5207363 6.27455034,9.22324993 6.32549391,7.63553638 C6.81370318,7.6099281 7.29766714,7.58005177 7.7858764,7.54163934 C8.27408566,7.50322692 8.75804963,7.46054645 9.24625889,7.41359793 C9.31842896,10.7426747 9.37361783,13.3419154 9.41182551,15.2113201 C9.45003319,17.0849928 9.47975028,18.638562 9.50522206,19.8720276 C9.53069385,21.1097613 9.53493915,22.2322577 9.52220326,23.2480529 C9.50946736,24.2638481 9.50522206,25.5784067 9.50522206,27.1917285 C8.4056899,27.5587806 7.34861072,27.6185332 6.32549391,27.3752545 Z" id="Shape"></path>
                    <path d="M12.5321195,27.776451 C12.3623076,24.3748174 12.2519298,21.0414725 12.2052315,17.7764165 C12.154288,14.5113604 12.2434392,11.1652114 12.4599494,7.73796951 C13.0458005,7.71236123 13.6316517,7.6824849 14.2302387,7.64834052 C14.8245804,7.6099281 15.4146768,7.58005177 16.0005279,7.55871153 C16.0005279,7.78064999 16.0005279,8.01112453 16.0005279,8.25440322 C16.0005279,8.49768191 16.0005279,8.7324245 16.0005279,8.95009491 C16.9514746,8.31415588 17.9703461,7.92149554 19.065633,7.77638194 C20.1609199,7.63126833 21.4132828,8.04526891 22.826967,9.02265171 C24.1175375,8.16477423 25.8496191,7.6824849 28.0274569,7.57151567 C30.2052948,7.46054645 31.6232243,8.70254817 32.2812455,11.2975209 C32.3279437,12.6931723 32.3661514,13.8284728 32.3916232,14.7119586 C32.417095,15.5911763 32.4340762,16.5429508 32.4468121,17.554478 C32.459548,18.5702732 32.459548,19.8122749 32.4468121,21.2804832 C32.4340762,22.7486914 32.4298309,24.7546736 32.4298309,27.2984297 C31.8227533,27.2728214 31.2326569,27.2429451 30.6595416,27.2045326 C30.0864264,27.1661202 29.5218018,27.1234397 28.9614225,27.0764912 C28.8170823,24.6565085 28.7109499,22.1853092 28.6515157,19.6628933 C28.5920816,17.1447455 28.4859491,14.660742 28.341609,12.215151 C28.0019851,11.4340984 27.6496254,10.9432729 27.2845298,10.7469428 C26.9194342,10.5506126 26.3250925,10.5250043 25.4972594,10.674386 C25.2552774,11.0926546 24.9963142,11.4597066 24.7288604,11.7755421 C24.4614067,12.0956457 24.2915948,12.5480587 24.2194247,13.1327811 C24.1217828,15.5527639 24.1090469,17.9215301 24.181217,20.2348116 C24.2533871,22.5480932 24.3765007,24.8997872 24.5463126,27.2984297 C23.9859333,27.2984297 23.4340446,27.3026977 22.8864011,27.3155019 C22.3387577,27.328306 21.7953596,27.3325741 21.260452,27.3325741 C20.9675265,25.7192522 20.8146957,24.0589819 20.8062052,22.3602991 C20.7934693,20.6616163 20.7764881,18.9800058 20.7510163,17.3154674 C20.7977146,15.7747023 20.7340351,14.5924533 20.5514873,13.7729882 C20.3689395,12.9535232 20.020825,12.1767386 19.5113893,11.4426345 C19.0953501,11.220696 18.6920468,11.1694794 18.2887435,11.2761806 C17.8854402,11.3871498 17.4906275,11.4426345 17.1043054,11.4426345 C15.9368484,13.6918953 15.4995827,16.1758988 15.788263,18.8903768 C16.0811886,21.6048548 16.1660945,24.5668795 16.0429809,27.7721829 C15.4571298,27.8447397 14.8670333,27.8447397 14.2726916,27.7721829 C13.665614,27.7038942 13.0882535,27.7038942 12.5321195,27.776451 Z" id="Path"></path>
                    <path d="M36.69211,27.7423066 C35.1340857,26.8844291 34.2298372,26.0905723 33.970874,25.3564682 C33.7161562,24.6223641 33.5887972,23.3376819 33.5887972,21.5024216 C34.2468184,19.8378832 35.2869164,18.5105206 36.7090912,17.5203336 C38.131266,16.5301467 39.5746673,15.5954443 41.0350498,14.7119586 C41.6421274,13.4656888 41.7822222,12.4541616 41.4553343,11.6859131 C41.1284463,10.9133966 40.1817449,10.5804889 38.6279659,10.678654 C38.1185301,11.1908197 37.8298498,11.7798102 37.7704157,12.4413575 C37.7109815,13.1029048 37.6685285,13.7644521 37.6430567,14.4217314 C37.1081492,14.4217314 36.5859776,14.4174633 36.0722965,14.4046592 C35.5628608,14.391855 35.0491797,14.387587 34.539744,14.387587 C34.611914,12.7486569 34.8241789,11.2761806 35.1765386,9.96589014 C35.5288984,8.65559965 36.6539023,7.79345413 38.5515505,7.37945355 C41.1539181,7.37945355 42.8605279,7.72943342 43.6628892,8.42512511 C44.4652505,9.1208168 45.085064,10.7298706 45.5223297,13.2522865 C45.4968579,15.5997124 45.4713861,17.9386022 45.4501596,20.2604199 C45.4246878,22.5865056 45.411952,24.9211274 45.411952,27.2685534 C44.8261008,27.3197699 44.2487403,27.3581823 43.6798704,27.3965948 C43.1067552,27.4350072 42.5421306,27.4648835 41.9817512,27.4904918 C41.9817512,27.417935 41.9817512,27.3453782 41.9817512,27.2685534 C41.9817512,27.1959965 41.9817512,27.1234397 41.9817512,27.0466149 C41.0817481,27.14478 40.1944808,27.2557492 39.3157041,27.3752545 C38.445418,27.4947599 37.5708867,27.6185332 36.69211,27.7423066 Z M37.8595669,24.7333333 C38.5897582,24.6351682 39.3496665,24.5370032 40.1392919,24.4388381 C40.9289173,24.340673 41.493542,23.9138683 41.8374111,23.1541559 C41.8374111,22.1511648 41.850147,21.1481737 41.8756188,20.1451826 C41.9010906,19.1421915 41.9350529,18.1392005 41.9859965,17.1362094 C41.7440145,17.2087662 41.4977873,17.3154674 41.2558053,17.4477768 C41.0138233,17.5843543 40.2921226,18.0154271 39.1034392,18.7495312 C38.0336242,19.8037389 37.2822064,20.7683175 36.8576766,21.6475352 C36.4331468,22.531021 36.7685254,23.5596204 37.8595669,24.7333333 Z" id="Shape"></path>
                    <path d="M51.2577272,27.7423066 C50.7482914,27.7166983 50.2346104,27.7551107 49.7251746,27.8532758 C49.2157389,27.9514409 48.7147937,27.9770492 48.2265845,27.9258326 C48.005829,24.6010239 47.9294136,21.2591429 47.9888478,17.9087259 C48.048282,14.5583089 48.1289426,11.1950877 48.2265845,7.81906241 C48.7360202,7.79345413 49.2624372,7.7635778 49.7973447,7.72943342 C50.3322523,7.691021 50.8671598,7.64834052 51.4020673,7.601392 C51.4020673,7.87027898 51.4020673,8.13916595 51.4020673,8.40805292 C51.4020673,8.67693989 51.4020673,8.94582686 51.4020673,9.21471383 C53.5671693,7.96844406 55.4223645,7.53310325 56.9676529,7.91295945 C58.5129414,8.29281565 59.5785111,9.863457 60.160117,12.6291516 C60.160117,14.6351337 60.1558717,16.2143112 60.1431358,17.3624159 C60.1303999,18.5147886 60.117664,19.547656 60.1049281,20.4652862 C60.0921922,21.3829163 60.0667204,22.3304228 60.032758,23.3078056 C59.9945503,24.2851884 59.9520974,25.5954789 59.9053991,27.234409 C59.761059,27.3325741 59.5445488,27.3795226 59.2686044,27.3795226 C58.9884147,27.3795226 58.1053928,27.3325741 56.6237838,27.234409 C56.6237838,24.7888179 56.6535009,22.3645672 56.7171803,19.9701927 C56.7766145,17.5715502 56.6619915,15.0790106 56.3690659,12.484038 C55.9530267,11.7029853 55.4096286,11.2505723 54.7261356,11.126799 C53.8006607,11.126799 53.1935831,11.1694794 52.9006575,11.2548404 C52.6077319,11.3402013 52.2553722,11.8011504 51.8435783,12.6291516 C51.6737664,13.1669255 51.5591434,14.2552775 51.4954639,15.8942077 C51.4360297,17.5331378 51.397822,19.2275525 51.3850861,20.9774518 C51.3723502,22.7273512 51.3596144,24.2851884 51.3468785,25.6552315 C51.3341426,27.0210066 51.3044255,27.7166983 51.2577272,27.7423066 Z" id="Path"></path>
                    <path d="M70.6757199,27.9258326 C70.6035499,27.6099971 70.5398704,27.2770894 70.4931721,26.9356457 C70.4422285,26.5942019 70.3955303,26.2527581 70.348832,25.9070463 C68.9606196,26.9100374 67.5214636,27.417935 66.0228734,27.4307391 C64.5242832,27.4435433 63.4120152,26.5557895 62.6818239,24.7717458 C62.2657847,22.9364855 62.0620104,21.0670808 62.0620104,19.1549957 C62.0620104,17.2429106 62.0492745,15.3393615 62.0238028,13.4315444 C62.0238028,11.4981191 62.753994,9.81224044 64.2143765,8.36537245 C65.674759,6.92277251 67.5341995,6.79899914 69.8011886,7.99832039 C69.8988304,7.99832039 70.0007176,7.99832039 70.1110953,7.99832039 C70.2214731,7.99832039 70.348832,7.99832039 70.4931721,7.99832039 C70.590814,5.48017256 70.7351541,2.99616911 70.9304378,0.550578085 C71.9280828,0.379856198 72.5606322,0.281691113 72.828086,0.25608283 C73.0955398,0.230474547 73.5200695,0.230474547 74.1059207,0.25608283 C74.0804489,4.80582111 74.067713,9.3470233 74.067713,13.8711533 C74.067713,18.3995513 74.067713,22.9364855 74.067713,27.4862238 C73.4818619,27.5587806 72.9129919,27.6313374 72.3526126,27.7081622 C71.7964786,27.776451 71.2360993,27.8490078 70.6757199,27.9258326 Z M66.8804236,24.2894564 C67.5596713,24.2638481 68.1285412,24.1784872 68.5785428,24.0333736 C69.0285443,23.88826 69.4743006,23.5212079 69.9115663,22.9322174 C69.9582646,22.5395571 69.9964723,22.1938453 70.021944,21.8865459 C70.0474158,21.5792465 70.0601517,21.1054932 70.0601517,20.4567501 C70.0601517,19.8080069 70.0474158,18.8775726 70.021944,17.6697153 C69.9964723,16.4575899 69.9625099,14.750371 69.9115663,12.5523267 C69.4955271,11.7456658 68.9860914,11.1097268 68.3790138,10.6445096 C67.7719361,10.1792925 67.0544808,10.3628185 66.2266477,11.1950877 C65.7172119,13.3974001 65.4412676,15.5399597 65.4073052,17.6184987 C65.3690975,19.6970377 65.632306,21.8524015 66.1926853,24.0760541 C66.4771203,24.1699511 66.7106117,24.2425079 66.8804236,24.2894564 Z" id="Shape"></path>
                    <path d="M76.8823455,27.2642853 C76.8314019,23.5724245 76.8016848,20.6957607 76.7889489,18.638562 C76.7762131,16.5856313 76.7719678,14.9467012 76.7719678,13.7217716 C76.7719678,12.4968421 76.7762131,11.4725108 76.7889489,10.6402416 C76.8016848,9.80797239 76.8314019,8.76656888 76.8823455,7.52029911 C77.3705548,7.57151567 77.8502734,7.6099281 78.3257468,7.64834052 C78.8012202,7.68675295 79.2936747,7.71662928 79.8031105,7.73796951 C79.8031105,8.54463043 79.8158464,9.15496117 79.8413182,9.5732298 C80.2531121,9.5732298 80.6691513,9.4195801 81.0809452,9.11654875 C81.4927391,8.80924935 81.8833065,8.53609433 82.2484021,8.29281565 C82.9064233,8.07087719 83.3564248,7.94283578 83.5984068,7.9086914 C83.8403888,7.87027898 84.3668058,7.81906241 85.1691671,7.74223756 C85.1946388,8.33122807 85.2158653,8.92448663 85.2413371,9.52201323 C85.2668089,10.1238079 85.3007713,10.7127984 85.3517149,11.3017889 C83.8658606,11.399954 82.8045361,11.5749439 82.1592508,11.8352948 C81.5139655,12.0913776 80.8771709,12.8553581 80.2446215,14.1272361 C80.1215078,15.8173828 80.0450925,17.1660857 80.0068848,18.1818809 C79.9686771,19.1976762 79.9559412,20.1323785 79.9686771,20.990256 C79.981413,21.8481334 79.9941489,22.7529594 80.0068848,23.704734 C80.0196207,24.6607765 80.023866,25.9198504 80.023866,27.4862238 C79.5144302,27.4862238 78.9710321,27.5032959 78.3979169,27.5417084 C77.8248016,27.5758527 77.3196112,27.4819557 76.8823455,27.2642853 Z" id="Path"></path>
                    <path d="M88.5229524,27.7423066 C86.9649281,26.8844291 86.0606796,26.0905723 85.8017165,25.3564682 C85.5469986,24.6223641 85.4196396,23.3376819 85.4196396,21.5024216 C86.0776608,19.8378832 87.1177588,18.5105206 88.5399336,17.5203336 C89.9621084,16.5301467 91.4055097,15.5954443 92.8658922,14.7119586 C93.4729698,13.4656888 93.6130646,12.4541616 93.2861767,11.6859131 C92.9592888,10.9133966 92.0125873,10.5804889 90.4588083,10.678654 C89.9493725,11.1908197 89.6606923,11.7798102 89.6012581,12.4413575 C89.5418239,13.1029048 89.4993709,13.7644521 89.4738992,14.4217314 C88.9389916,14.4217314 88.41682,14.4174633 87.9031389,14.4046592 C87.3937032,14.391855 86.8800221,14.387587 86.3705864,14.387587 C86.4427564,12.7486569 86.6550213,11.2761806 87.0073811,9.96589014 C87.3597408,8.65559965 88.4847447,7.79345413 90.3823929,7.37945355 C92.9847606,7.37945355 94.6913703,7.72943342 95.4937316,8.42512511 C96.2960929,9.1208168 96.9159064,10.7298706 97.3531721,13.2522865 C97.3277003,15.5997124 97.3022285,17.9386022 97.2810021,20.2604199 C97.2555303,22.5865056 97.2427944,24.9211274 97.2427944,27.2685534 C96.6569433,27.3197699 96.0795827,27.3581823 95.5107128,27.3965948 C94.9375976,27.4350072 94.372973,27.4648835 93.8125936,27.4904918 C93.8125936,27.417935 93.8125936,27.3453782 93.8125936,27.2685534 C93.8125936,27.1959965 93.8125936,27.1234397 93.8125936,27.0466149 C92.9125905,27.14478 92.0253232,27.2557492 91.1465465,27.3752545 C90.2762605,27.4947599 89.4017291,27.6185332 88.5229524,27.7423066 Z M89.6904094,24.7333333 C90.4206006,24.6351682 91.1805089,24.5370032 91.9701343,24.4388381 C92.7597598,24.340673 93.3243844,23.9138683 93.6682535,23.1541559 C93.6682535,22.1511648 93.6809894,21.1481737 93.7064612,20.1451826 C93.731933,19.1421915 93.7658954,18.1392005 93.8168389,17.1362094 C93.574857,17.2087662 93.3286297,17.3154674 93.0866477,17.4477768 C92.8446657,17.5843543 92.1229651,18.0154271 90.9342817,18.7495312 C89.8644666,19.8037389 89.1130488,20.7683175 88.688519,21.6475352 C88.2639893,22.531021 88.5951225,23.5596204 89.6904094,24.7333333 Z" id="Shape"></path>
                </g>
                <g id="Group" transform="translate(58.585111, 41.400058)" fill="#000000">
                    <path d="M2.32217797,7.30689675 L1.91462937,8.42085706 L0.407548601,8.42085706 L2.89953849,1.94622951 L4.61888415,1.94622951 L7.09813814,8.42085706 L5.60379327,8.42085706 L5.19624467,7.30689675 L2.32217797,7.30689675 Z M4.82265845,6.11184354 L3.76133397,3.14128271 L2.69151889,6.11184354 L4.82265845,6.11184354 Z" id="Shape"></path>
                    <path d="M10.6344713,7.81906241 C10.2566398,8.29281565 9.77692113,8.53609433 9.18682472,8.53609433 C8.79201201,8.53609433 8.43540699,8.43792925 8.12550024,8.24586713 C7.81559349,8.053805 7.57361151,7.77211389 7.39955429,7.40079379 C7.22549708,7.03374173 7.14059112,6.58559678 7.14059112,6.07343112 C7.14059112,5.56126546 7.22974237,5.1216566 7.39955429,4.75460454 C7.57361151,4.38755249 7.81559349,4.10586137 8.12550024,3.90953121 C8.43540699,3.71746908 8.79201201,3.619304 9.18682472,3.619304 C9.47550498,3.619304 9.74720405,3.67905666 9.98918603,3.80283003 C10.2396586,3.93087144 10.4519235,4.10586137 10.6259807,4.32779983 L10.6259807,3.73454127 L11.8613624,3.73454127 L11.8613624,10.2091688 L10.6259807,10.2091688 L10.6344713,7.81906241 Z M10.6344713,5.24969802 C10.5283389,5.10458441 10.3755081,4.976543 10.1717338,4.86984182 C9.96795954,4.76314064 9.76418524,4.71619212 9.56465624,4.71619212 C9.2165418,4.71619212 8.93635214,4.83996549 8.71559665,5.09604832 C8.49484116,5.33932701 8.38870871,5.66796664 8.38870871,6.07769917 C8.38870871,6.49596779 8.49484116,6.82460742 8.71559665,7.06788611 C8.93635214,7.31970089 9.2165418,7.44774231 9.56465624,7.44774231 C9.76843054,7.44774231 9.97220484,7.40079379 10.1717338,7.29409261 C10.3755081,7.18739143 10.5283389,7.05935001 10.6344713,6.91423641 L10.6344713,5.24969802 Z" id="Shape"></path>
                    <path d="M14.0731626,3.74307737 L14.0731626,4.38328444 C14.2259934,4.17841818 14.4509942,3.99489215 14.7311838,3.84977854 C14.990147,3.70466494 15.2703367,3.63637619 15.5632622,3.63637619 L15.5632622,4.83996549 C15.4783563,4.8228933 15.3594879,4.81008916 15.2151478,4.81008916 C15.0113735,4.81008916 14.790618,4.85703768 14.5571266,4.95520276 C14.3236352,5.05336785 14.1623139,5.17714121 14.064672,5.32225482 L14.064672,8.41658901 L12.8377809,8.41658901 L12.8377809,3.73027322 L14.0731626,3.74307737 Z" id="Path"></path>
                    <path d="M18.8618587,7.93429968 C18.6962921,8.11782571 18.4840272,8.26293932 18.225064,8.36964049 C17.9745914,8.47634167 17.6944018,8.52329019 17.384495,8.52329019 C17.1255318,8.52329019 16.870814,8.46353753 16.6203414,8.34830026 C16.3783594,8.23306299 16.1660945,8.05807305 16.0005279,7.82333046 C15.8349613,7.601392 15.7585459,7.31970089 15.7585459,6.97825712 C15.7585459,6.64108139 15.8349613,6.35512223 16.0005279,6.13318378 C16.1660945,5.91124533 16.3656235,5.74479149 16.6076055,5.63809031 C16.8410969,5.53138913 17.1000601,5.48444061 17.3802497,5.48444061 C17.6986471,5.48444061 17.9873273,5.53138913 18.2505358,5.62955421 C18.5010084,5.7277193 18.7047827,5.8728329 18.8703493,6.05635893 L18.8703493,5.40761576 C18.8703493,5.16433707 18.7727074,4.97227495 18.5901596,4.82716135 C18.4076118,4.68204774 18.1656298,4.61375899 17.8472325,4.61375899 C17.3377967,4.61375899 16.8835499,4.79728502 16.4844919,5.16860512 L16.0217544,4.34487202 C16.301944,4.10159333 16.6118508,3.9180673 16.9684558,3.79002588 C17.3080797,3.66198447 17.6731753,3.60649986 18.0594974,3.60649986 C18.666575,3.60649986 19.150539,3.74307737 19.5283705,4.02476848 C19.906202,4.30645959 20.0972404,4.76314064 20.0972404,5.39481162 L20.0972404,8.42085706 L18.8703493,8.42085706 L18.8703493,7.93429968 L18.8618587,7.93429968 L18.8618587,7.93429968 Z M18.8618587,6.69229796 C18.7642168,6.56425654 18.6283673,6.47035951 18.4543101,6.40207075 C18.2717623,6.333782 18.0892145,6.29536957 17.8854402,6.29536957 C17.6349676,6.29536957 17.4227027,6.36365833 17.2571361,6.49169974 C17.0915695,6.61974116 17.0066635,6.79473109 17.0066635,7.00813345 C17.0066635,7.21299971 17.0958148,7.38798965 17.2571361,7.51176301 C17.4227027,7.63553638 17.6222317,7.69528904 17.8854402,7.69528904 C18.0892145,7.69528904 18.2717623,7.65687662 18.4543101,7.58858786 C18.6283673,7.52029911 18.7642168,7.42213402 18.8618587,7.29836066 L18.8618587,6.71790624 L18.8618587,6.69229796 Z" id="Shape"></path>
                    <path d="M22.3090406,3.74307737 L22.3090406,4.38328444 C22.4618713,4.17841818 22.6868721,3.99489215 22.9670618,3.84977854 C23.226025,3.70466494 23.5062146,3.63637619 23.7991402,3.63637619 L23.7991402,4.83996549 C23.7099889,4.8228933 23.5953659,4.81008916 23.4510258,4.81008916 C23.2472515,4.81008916 23.026496,4.85703768 22.7930046,4.95520276 C22.5595132,5.05336785 22.3981919,5.17714121 22.30055,5.32225482 L22.30055,8.41658901 L21.0736589,8.41658901 L21.0736589,3.73027322 L22.3090406,3.74307737 Z" id="Path"></path>
                    <path d="M27.9383057,1.94622951 L27.9383057,8.42085706 L26.5670744,8.42085706 L26.5670744,1.94622951 L27.9383057,1.94622951 Z M26.7878299,0.307299396 C26.9151889,0.179257981 27.0680196,0.110969226 27.2505674,0.110969226 C27.4331152,0.110969226 27.5859459,0.179257981 27.7133049,0.307299396 C27.8406638,0.435340811 27.9085886,0.588990509 27.9085886,0.772516537 C27.9085886,0.956042565 27.8491544,1.11396031 27.7260408,1.23773368 C27.6029271,1.36577509 27.4458511,1.43406385 27.2633033,1.43406385 C27.0807555,1.43406385 26.9236795,1.36577509 26.8005658,1.23773368 C26.6774522,1.10969226 26.6095274,0.956042565 26.6095274,0.772516537 C26.6095274,0.588990509 26.6774522,0.435340811 26.8005658,0.307299396 L26.7878299,0.307299396 Z" id="Shape"></path>
                    <path d="M32.1666224,7.8275985 C31.9840746,8.04953696 31.7590738,8.22452689 31.5213371,8.35256831 C31.2836004,8.48060972 31.0076561,8.53609433 30.7317117,8.53609433 C30.336899,8.53609433 29.980294,8.43792925 29.6618966,8.24586713 C29.3434993,8.04953696 29.1015173,7.77211389 28.9274601,7.40079379 C28.7534029,7.03374173 28.6684969,6.59413287 28.6684969,6.08196721 C28.6684969,5.58687374 28.7534029,5.15153293 28.9274601,4.78021283 C29.1015173,4.40035663 29.3434993,4.11866552 29.653406,3.9180673 C29.9548222,3.71320104 30.3114272,3.61503595 30.7147305,3.61503595 C30.9949202,3.61503595 31.2666193,3.67478861 31.5043559,3.79856198 C31.7548285,3.92660339 31.9670934,4.10159333 32.1496412,4.33206787 L32.1496412,1.94622951 L33.3850229,1.94622951 L33.3850229,8.42085706 L32.1496412,8.42085706 L32.1496412,7.8275985 L32.1666224,7.8275985 L32.1666224,7.8275985 Z M32.1666224,5.22835778 C32.06049,5.07470808 31.9161498,4.94666667 31.7123755,4.84850158 C31.5213371,4.7503365 31.3175628,4.70338798 31.1137885,4.70338798 C30.7656741,4.70338798 30.4854844,4.83142939 30.2647289,5.08324418 C30.0439734,5.32652286 29.937841,5.6551625 29.937841,6.07343112 C29.937841,6.48316365 30.0439734,6.81180328 30.2647289,7.05508197 C30.4854844,7.30689675 30.7656741,7.43493817 31.1137885,7.43493817 C31.3175628,7.43493817 31.5213371,7.38798965 31.7123755,7.28982456 C31.9161498,7.19165948 32.06049,7.06788611 32.1666224,6.90996836 L32.1666224,5.24969802 L32.1666224,5.22835778 Z" id="Shape"></path>
                    <path d="M34.3487055,4.88691401 C34.5524798,4.51986195 34.8411601,4.2168306 35.2062557,3.99489215 C35.5628608,3.7729537 35.9789,3.66625252 36.450128,3.66625252 C36.9043749,3.66625252 37.3076782,3.7729537 37.6642832,3.98635605 C38.0208883,4.19975841 38.3010779,4.50278976 38.4963616,4.89118205 C38.6916453,5.27957435 38.7850419,5.7277193 38.7850419,6.23134886 L38.7850419,6.50450388 L35.3208788,6.50450388 C35.3590865,6.82460742 35.494936,7.0764222 35.736918,7.28128847 C35.9789,7.48615473 36.2888067,7.59285591 36.6623929,7.59285591 C36.8958843,7.59285591 37.1251304,7.55444349 37.3458859,7.4648145 C37.5878679,7.37945355 37.7704157,7.25994823 37.9147558,7.11483463 L38.4539086,7.9086914 C38.2119267,8.13062985 37.931737,8.2885476 37.6048491,8.39524878 C37.2567346,8.50194996 36.9001296,8.56170262 36.535034,8.56170262 C36.0638059,8.56170262 35.6392761,8.45500144 35.2614446,8.25013517 C34.8836131,8.04526891 34.5864422,7.7550417 34.3741773,7.38798965 C34.1619124,7.02093759 34.05578,6.58132873 34.05578,6.08623526 C34.05578,5.62955421 34.1619124,5.22408973 34.3656867,4.84423353 L34.3487055,4.88691401 Z M35.652012,4.95520276 C35.4482377,5.17714121 35.3421053,5.4204199 35.3166335,5.68503883 L37.6133397,5.68503883 C37.5921132,5.42468795 37.4859807,5.18140926 37.2949423,4.9680069 C37.1039039,4.75460454 36.8237142,4.64790336 36.4543733,4.64790336 C36.1062589,4.64790336 35.8345598,4.75460454 35.6435214,4.9680069 L35.652012,4.95520276 Z" id="Shape"></path>
                    <path d="M40.2666509,9.15069313 C40.3727833,9.10374461 40.4491987,9.01411562 40.5086328,8.89034225 L40.6826901,8.49341386 L38.7892872,3.73880932 L40.1010842,3.73880932 L41.3152394,6.99959735 L42.5293947,3.73880932 L43.8539276,3.73880932 L41.6633539,9.1933736 C41.4977873,9.61164222 41.2685412,9.90186943 40.9883515,10.0683233 C40.6996713,10.2347771 40.3303303,10.3201381 39.8973099,10.3286741 C39.8081587,10.3286741 39.7020262,10.3201381 39.5789126,10.311602 C39.4727801,10.3030659 39.3751383,10.2902617 39.2902323,10.2646534 L39.4727801,9.15922922 C39.6001391,9.20617774 39.7232527,9.23605407 39.8591023,9.23605407 C40.0161783,9.22751798 40.1520278,9.19764165 40.2666509,9.15069313 Z" id="Path"></path>
                    <path d="M46.9572404,7.93429968 C46.7916738,8.11782571 46.5794089,8.26293932 46.3204457,8.36964049 C46.0699731,8.47634167 45.7897835,8.52329019 45.4798767,8.52329019 C45.2209135,8.52329019 44.9661957,8.46353753 44.7157231,8.34830026 C44.4737411,8.23306299 44.2614762,8.05807305 44.0959096,7.82333046 C43.930343,7.601392 43.8539276,7.31970089 43.8539276,6.97825712 C43.8539276,6.64108139 43.930343,6.35512223 44.0959096,6.13318378 C44.2614762,5.91124533 44.4610052,5.74479149 44.7029872,5.63809031 C44.9364786,5.53138913 45.1954418,5.48444061 45.4756314,5.48444061 C45.7940288,5.48444061 46.082709,5.53138913 46.3459175,5.62955421 C46.5963901,5.7277193 46.8001644,5.8728329 46.965731,6.05635893 L46.965731,5.40761576 C46.965731,5.16433707 46.8680891,4.97227495 46.6855413,4.82716135 C46.5029935,4.68204774 46.2610115,4.61375899 45.9426142,4.61375899 C45.4331784,4.61375899 44.9789316,4.79728502 44.5798736,5.16860512 L44.1171361,4.34487202 C44.3973257,4.10159333 44.7072325,3.9180673 45.0638375,3.79002588 C45.4034614,3.66198447 45.768557,3.60649986 46.1548791,3.60649986 C46.7619567,3.60649986 47.2459207,3.74307737 47.6237522,4.02476848 C48.0015837,4.30645959 48.1926221,4.76314064 48.1926221,5.39481162 L48.1926221,8.42085706 L46.965731,8.42085706 L46.965731,7.93429968 L46.9572404,7.93429968 L46.9572404,7.93429968 Z M46.9572404,6.69229796 C46.8595985,6.56425654 46.723749,6.47035951 46.5496918,6.40207075 C46.367144,6.333782 46.1845962,6.29536957 45.9808219,6.29536957 C45.7303493,6.29536957 45.5180844,6.36365833 45.3525178,6.49169974 C45.1869512,6.61974116 45.1020452,6.79473109 45.1020452,7.00813345 C45.1020452,7.21299971 45.1911965,7.38798965 45.3525178,7.51176301 C45.5180844,7.63553638 45.7176134,7.69528904 45.9808219,7.69528904 C46.1845962,7.69528904 46.367144,7.65687662 46.5496918,7.58858786 C46.723749,7.52029911 46.8595985,7.42213402 46.9572404,7.29836066 L46.9572404,6.71790624 L46.9572404,6.69229796 Z" id="Shape"></path>
                    <polygon id="Path" points="55.2100996 8.42085706 54.6115126 8.42085706 52.7987703 3.7644176 52.7987703 8.42085706 51.4275391 8.42085706 51.4275391 1.94622951 53.3464138 1.94622951 54.9086834 5.98380213 56.4709531 1.94622951 58.4025636 1.94622951 58.4025636 8.42085706 57.0228418 8.42085706 57.0228418 3.7644176"></polygon>
                    <path d="M62.5672009,7.81906241 C62.3846531,8.02392867 62.1511617,8.18611447 61.870972,8.32269198 C61.5907824,8.45926949 61.272385,8.52755824 60.91578,8.52755824 C60.4148348,8.52755824 60.0370033,8.39951682 59.7865307,8.13916595 C59.5360582,7.87881507 59.4086992,7.51603106 59.4086992,7.05081392 L59.4086992,3.72173713 L60.6355903,3.72173713 L60.6355903,6.56425654 C60.6355903,6.87582399 60.7120057,7.09776244 60.8563458,7.23433995 C61.0006859,7.37091746 61.2129508,7.43920621 61.4931405,7.43920621 C61.713896,7.43920621 61.9176703,7.39225769 62.1002181,7.28555651 C62.2827659,7.17885534 62.4398419,7.05081392 62.554465,6.90570032 L62.554465,3.73454127 L63.7813561,3.73454127 L63.7813561,8.42085706 L62.554465,8.42085706 L62.554465,7.8275985 L62.5672009,7.81906241 Z M60.0964375,2.87239574 C59.9690786,2.74435433 59.9138897,2.59070463 59.9138897,2.4071786 C59.9138897,2.22365257 59.9818144,2.06573483 60.1091734,1.94196146 C60.2365323,1.81818809 60.389363,1.74563129 60.5719109,1.74563129 C60.7544587,1.74563129 60.9115347,1.80538395 61.0346483,1.92915732 C61.157762,2.05293069 61.229932,2.21084843 61.229932,2.39437446 C61.229932,2.57790049 61.1704979,2.73581823 61.0473842,2.8595916 C60.9242706,2.98336497 60.7671946,3.04311763 60.5846468,3.04311763 C60.4020989,3.04311763 60.2450229,2.97482888 60.1219093,2.85105551 L60.0964375,2.87239574 Z M62.1341805,2.88946793 C62.0068216,2.76142652 61.9388968,2.60777682 61.9388968,2.42425079 C61.9388968,2.24072476 62.0068216,2.08280702 62.1341805,1.95903365 C62.2615394,1.83099223 62.4143702,1.76270348 62.596918,1.76270348 C62.7794658,1.76270348 62.9322965,1.82245614 63.0596554,1.94622951 C63.1870144,2.07427092 63.2549391,2.22792062 63.2549391,2.41144665 C63.2549391,2.59497268 63.1870144,2.75289042 63.0596554,2.87666379 C62.9322965,3.00470521 62.7794658,3.06018982 62.596918,3.06018982 C62.4143702,3.06018982 62.2572941,2.99190106 62.1341805,2.86385965 L62.1341805,2.88946793 Z" id="Shape"></path>
                    <path d="M64.8384353,6.96545298 C65.0209831,7.13190682 65.2714557,7.27702042 65.5728718,7.40079379 C65.8912692,7.5288352 66.1799494,7.59712396 66.4516485,7.59712396 C66.7106117,7.59712396 66.914386,7.55871153 67.0417449,7.46908254 C67.1775944,7.3837216 67.2455192,7.26421628 67.2455192,7.11910267 C67.2455192,6.97398907 67.1691038,6.8587518 67.0120278,6.7776589 C66.8676877,6.70937015 66.6257057,6.6325453 66.3073084,6.56425654 C65.9294768,6.49596779 65.6238154,6.41914294 65.3818334,6.333782 C65.1398514,6.24415301 64.9275865,6.11184354 64.7450387,5.90697728 C64.5624909,5.72345125 64.4733397,5.45029623 64.4733397,5.10031636 C64.4733397,4.83996549 64.549755,4.5966868 64.706831,4.3704803 C64.8723977,4.14854185 65.0931532,3.96074777 65.3733428,3.82843831 C65.6620231,3.6918608 66.0016469,3.62357204 66.3964596,3.62357204 C67.1224056,3.62357204 67.7464644,3.8369744 68.2771266,4.26377912 L67.7931626,5.10885246 C67.6488225,4.95520276 67.4535388,4.82716135 67.2030662,4.72046017 C66.9610842,4.61375899 66.6893852,4.56681047 66.4134408,4.56681047 C66.1926853,4.56681047 66.0186281,4.60522289 65.8827786,4.68204774 C65.746929,4.75887259 65.6790043,4.86557377 65.6790043,5.00215128 C65.6790043,5.13019269 65.7554196,5.23689387 65.8997598,5.30518263 C66.0440999,5.37347138 66.2648554,5.44176014 66.5662715,5.51004889 C66.9313672,5.57833765 67.2412739,5.6551625 67.5044824,5.74052344 C67.7634456,5.83015243 67.9757104,5.97526603 68.1625036,6.17586425 C68.3450514,6.38073051 68.4426932,6.66242163 68.4426932,7.02093759 C68.4426932,7.4648145 68.268636,7.8275985 67.912031,8.10928962 C67.555426,8.39098073 67.0629714,8.52755824 66.4346673,8.52755824 C66.0398546,8.52755824 65.6535325,8.45926949 65.275701,8.33122807 C64.8978694,8.2074547 64.6006986,8.03246477 64.3587166,7.80625827 L64.8893789,6.94411274 L64.8384353,6.96545298 Z" id="Path"></path>
                    <path d="M71.9153469,7.93429968 C71.7497803,8.11782571 71.5375154,8.26293932 71.2785522,8.36964049 C71.0280797,8.47634167 70.74789,8.52329019 70.4379832,8.52329019 C70.1790201,8.52329019 69.9243022,8.46353753 69.6738296,8.34830026 C69.4318476,8.23306299 69.2195827,8.05807305 69.0540161,7.82333046 C68.8884495,7.601392 68.8120341,7.31970089 68.8120341,6.97825712 C68.8120341,6.64108139 68.8884495,6.35512223 69.0540161,6.13318378 C69.2195827,5.91124533 69.4191117,5.74479149 69.6610937,5.63809031 C69.8945851,5.53138913 70.1535483,5.48444061 70.4337379,5.48444061 C70.7521353,5.48444061 71.0408156,5.53138913 71.304024,5.62955421 C71.5544966,5.7277193 71.7582709,5.8728329 71.9238375,6.05635893 L71.9238375,5.40761576 C71.9238375,5.16433707 71.8261957,4.97227495 71.6436479,4.82716135 C71.4611,4.68204774 71.2191181,4.61375899 70.9007207,4.61375899 C70.391285,4.61375899 69.9370381,4.79728502 69.5379801,5.16860512 L69.0752426,4.34487202 C69.3554323,4.10159333 69.665339,3.9180673 70.021944,3.79002588 C70.3615679,3.66198447 70.7266635,3.60649986 71.1129856,3.60649986 C71.7200632,3.60649986 72.2040272,3.74307737 72.5818587,4.02476848 C72.9596902,4.30645959 73.1507286,4.76314064 73.1507286,5.39481162 L73.1507286,8.42085706 L71.9238375,8.42085706 L71.9238375,7.93429968 L71.9153469,7.93429968 L71.9153469,7.93429968 Z M71.9153469,6.69229796 C71.8177051,6.56425654 71.6818555,6.47035951 71.5077983,6.40207075 C71.3252505,6.333782 71.1427027,6.29536957 70.9389284,6.29536957 C70.6884558,6.29536957 70.4761909,6.36365833 70.3106243,6.49169974 C70.1450577,6.61974116 70.0601517,6.79473109 70.0601517,7.00813345 C70.0601517,7.21299971 70.149303,7.38798965 70.3106243,7.51176301 C70.4761909,7.63553638 70.6757199,7.69528904 70.9389284,7.69528904 C71.1427027,7.69528904 71.3252505,7.65687662 71.5077983,7.58858786 C71.6818555,7.52029911 71.8177051,7.42213402 71.9153469,7.29836066 L71.9153469,6.71790624 L71.9153469,6.69229796 Z" id="Shape"></path>
                    <path d="M75.3710194,1.95903365 L75.3710194,4.34487202 C75.5535673,4.11012942 75.7658321,3.93513949 76.0163047,3.81136612 C76.2582867,3.68759275 76.5299858,3.62784009 76.8059301,3.62784009 C77.2134787,3.62784009 77.5700838,3.72600518 77.8672546,3.93087144 C78.1771614,4.1357377 78.4191434,4.42596491 78.5932006,4.78448087 C78.7672578,5.15153293 78.8521637,5.59114179 78.8521637,6.08623526 C78.8521637,6.60266897 78.7630125,7.03800978 78.5932006,7.40506183 C78.4191434,7.77211389 78.1771614,8.053805 77.858764,8.25013517 C77.5403667,8.44646534 77.1837617,8.54036238 76.7889489,8.54036238 C76.5087593,8.54036238 76.2370602,8.48060972 75.9993235,8.35683635 C75.7615869,8.23306299 75.5365861,8.053805 75.3540382,7.83186655 L75.3540382,8.42512511 L74.1271471,8.42512511 L74.1271471,1.95049756 L75.3710194,1.95903365 Z M75.8252663,7.32396894 C76.0290406,7.42213402 76.2328149,7.46908254 76.4323439,7.46908254 C76.7889489,7.46908254 77.0776292,7.34530917 77.30263,7.08922634 C77.5233855,6.84594766 77.6295179,6.51730802 77.6295179,6.0990394 C77.6295179,5.68077078 77.5233855,5.35213115 77.30263,5.10885246 C77.0818745,4.85703768 76.7889489,4.72899626 76.4323439,4.72899626 C76.2285696,4.72899626 76.0247953,4.77594478 75.8252663,4.88264596 C75.6257373,4.98934714 75.4686613,5.12592465 75.3625288,5.27103825 L75.3625288,6.9313086 C75.4686613,7.0764222 75.621492,7.20446362 75.8252663,7.29836066 L75.8252663,7.32396894 Z" id="Shape"></path>
                    <path d="M79.6205627,2.93641645 C79.4762225,2.79130285 79.4082978,2.61631291 79.4082978,2.41144665 C79.4082978,2.20658039 79.4847131,2.03159045 79.6290533,1.88647685 C79.7733934,1.74136324 79.9474506,1.6645384 80.1512249,1.6645384 C80.3549992,1.6645384 80.5290564,1.73282715 80.6733966,1.87794075 C80.8177367,2.02305436 80.8856615,2.19804429 80.8856615,2.40291056 C80.8856615,2.60777682 80.8177367,2.78276675 80.6733966,2.92788036 C80.5290564,3.07299396 80.3549992,3.14128271 80.1512249,3.14128271 C79.9474506,3.14128271 79.7733934,3.06445787 79.6290533,2.91934426 L79.6205627,2.93641645 Z M80.7498119,3.7644176 L80.7498119,8.45073339 L79.5229208,8.45073339 L79.5229208,3.7644176 L80.7498119,3.7644176 Z" id="Shape"></path>
                    <path d="M84.9484116,7.81906241 C84.5705801,8.29281565 84.0908614,8.53609433 83.500765,8.53609433 C83.1059523,8.53609433 82.7493472,8.43792925 82.4394405,8.24586713 C82.1295337,8.053805 81.8875518,7.77211389 81.7134945,7.40079379 C81.5394373,7.03374173 81.4545314,6.58559678 81.4545314,6.07343112 C81.4545314,5.56126546 81.5436826,5.1216566 81.7134945,4.75460454 C81.8875518,4.38755249 82.1295337,4.10586137 82.4394405,3.90953121 C82.7493472,3.71746908 83.1059523,3.619304 83.500765,3.619304 C83.7894452,3.619304 84.0611443,3.67905666 84.3031263,3.80283003 C84.5535989,3.93087144 84.7658638,4.10586137 84.939921,4.32779983 L84.939921,3.73454127 L86.1753027,3.73454127 L86.1753027,10.2091688 L84.939921,10.2091688 L84.9484116,7.81906241 Z M84.9484116,5.24969802 C84.8422791,5.10458441 84.6894484,4.976543 84.4856741,4.86984182 C84.2818998,4.76314064 84.0781255,4.71619212 83.8785965,4.71619212 C83.5304821,4.71619212 83.2502924,4.83996549 83.0295369,5.09604832 C82.8087814,5.33932701 82.702649,5.66796664 82.702649,6.07769917 C82.702649,6.49596779 82.8087814,6.82460742 83.0295369,7.06788611 C83.2502924,7.31970089 83.5304821,7.44774231 83.8785965,7.44774231 C84.0823708,7.44774231 84.2861451,7.40079379 84.4856741,7.29409261 C84.6894484,7.18739143 84.8422791,7.05935001 84.9484116,6.91423641 L84.9484116,5.24969802 Z" id="Shape"></path>
                    <path d="M91.2823961,7.31543284 C91.0786218,7.67394881 90.7984321,7.97698016 90.4248459,8.19891861 C90.0682409,8.42085706 89.6522017,8.52755824 89.1809736,8.52755824 C88.7267267,8.52755824 88.3234234,8.42085706 87.9625731,8.2074547 C87.6059681,7.99405234 87.334269,7.691021 87.1432306,7.30689675 C86.9521922,6.91850446 86.8545503,6.47035951 86.8545503,5.96672994 L86.8545503,5.69357492 L90.3187135,5.69357492 C90.2805058,5.37347138 90.1446562,5.1216566 89.9026743,4.91679034 C89.6606923,4.71192407 89.3507855,4.60522289 88.9771993,4.60522289 C88.7564438,4.60522289 88.531443,4.64363532 88.3021969,4.73326431 C88.060215,4.8228933 87.8691765,4.93813057 87.7248364,5.08324418 L87.1856836,4.2893874 C87.4064391,4.06744895 87.6866287,3.90953121 88.0262526,3.80283003 C88.374367,3.69612885 88.730972,3.63637619 89.0960676,3.63637619 C89.5672957,3.63637619 89.9918255,3.73454127 90.369657,3.93940754 C90.7474885,4.1442738 91.0446594,4.43450101 91.2569243,4.80155306 C91.4691892,5.16860512 91.5753216,5.59540984 91.5753216,6.09050331 C91.5753216,6.53864826 91.4691892,6.94411274 91.2654149,7.32396894 L91.2823961,7.31543284 Z M89.9875802,7.24714409 C90.1913545,7.02520564 90.297487,6.78192695 90.327204,6.51730802 L88.0304979,6.51730802 C88.0389885,6.7776589 88.1366303,7.0124015 88.3404046,7.23433995 C88.5356883,7.44774231 88.8116327,7.55444349 89.1809736,7.55444349 C89.529088,7.55444349 89.8007871,7.44774231 89.9918255,7.23433995 L89.9918255,7.24714409 L89.9875802,7.24714409 Z" id="Shape"></path>
                    <path d="M92.3267394,6.96545298 C92.5092872,7.13190682 92.7597598,7.27702042 93.0611759,7.40079379 C93.3795733,7.5288352 93.6682535,7.59712396 93.9399526,7.59712396 C94.1989158,7.59712396 94.4026901,7.55871153 94.530049,7.46908254 C94.6658985,7.3837216 94.7338233,7.26421628 94.7338233,7.11910267 C94.7338233,6.97398907 94.6574079,6.8587518 94.5003319,6.7776589 C94.3559918,6.70937015 94.1140098,6.6325453 93.7956125,6.56425654 C93.4177809,6.49596779 93.1121195,6.41914294 92.8701375,6.333782 C92.6281555,6.24415301 92.4158906,6.11184354 92.2333428,5.90697728 C92.050795,5.72345125 91.9616437,5.45029623 91.9616437,5.10031636 C91.9616437,4.83996549 92.0380591,4.5966868 92.1951351,4.3704803 C92.3607018,4.14854185 92.5814572,3.96074777 92.8616469,3.82843831 C93.1503272,3.6918608 93.489951,3.62357204 93.8847637,3.62357204 C94.6107097,3.62357204 95.2347685,3.8369744 95.7654307,4.26377912 L95.2814667,5.10885246 C95.1371266,4.95520276 94.9418429,4.82716135 94.6913703,4.72046017 C94.4493883,4.61375899 94.1776893,4.56681047 93.9017449,4.56681047 C93.6809894,4.56681047 93.5069322,4.60522289 93.3710827,4.68204774 C93.2352331,4.75887259 93.1673084,4.86557377 93.1673084,5.00215128 C93.1673084,5.13019269 93.2437237,5.23689387 93.3880639,5.30518263 C93.532404,5.37347138 93.7531595,5.44176014 94.0545756,5.51004889 C94.4196713,5.57833765 94.729578,5.6551625 94.9927865,5.74052344 C95.2517496,5.83015243 95.4640145,5.97526603 95.6508076,6.17586425 C95.8333555,6.38073051 95.9309973,6.66242163 95.9309973,7.02093759 C95.9309973,7.4648145 95.7569401,7.8275985 95.4003351,8.10928962 C95.04373,8.39098073 94.5512755,8.52755824 93.9229714,8.52755824 C93.5281587,8.52755824 93.1418366,8.45926949 92.7640051,8.33122807 C92.3861735,8.2074547 92.0890027,8.03246477 91.8470207,7.80625827 L92.3776829,6.94411274 L92.3267394,6.96545298 Z" id="Path"></path>
                    <path d="M96.6909056,2.93641645 C96.5465655,2.79130285 96.4786407,2.61631291 96.4786407,2.41144665 C96.4786407,2.20658039 96.5550561,2.03159045 96.6993962,1.88647685 C96.8437364,1.74136324 97.0177936,1.6645384 97.2215679,1.6645384 C97.4253422,1.6645384 97.5993994,1.73282715 97.7437395,1.87794075 C97.8880797,2.02305436 97.9560044,2.19804429 97.9560044,2.40291056 C97.9560044,2.60777682 97.8880797,2.78276675 97.7437395,2.92788036 C97.5993994,3.07299396 97.4253422,3.14128271 97.2215679,3.14128271 C97.0177936,3.14128271 96.8437364,3.06445787 96.6993962,2.91934426 L96.6909056,2.93641645 Z M97.8201549,3.7644176 L97.8201549,8.45073339 L96.5932638,8.45073339 L96.5932638,3.7644176 L97.8201549,3.7644176 Z" id="Shape"></path>
                </g>
            </g>
        </g>
    </g>
</svg>